<svg width="120" height="120" viewBox="0 0 120 120" fill="none" xmlns="http://www.w3.org/2000/svg">
<path fill-rule="evenodd" clip-rule="evenodd" d="M60 120C93.138 120 120 93.138 120 60C120 26.862 93.138 0 60 0C26.862 0 0 26.862 0 60C0 93.138 26.862 120 60 120ZM60 42C63.1826 42 66.2348 40.7357 68.4853 38.4853C70.7357 36.2348 72 33.1826 72 30C72 26.8174 70.7357 23.7652 68.4853 21.5147C66.2348 19.2643 63.1826 18 60 18C56.8174 18 53.7652 19.2643 51.5147 21.5147C49.2643 23.7652 48 26.8174 48 30C48 33.1826 49.2643 36.2348 51.5147 38.4853C53.7652 40.7357 56.8174 42 60 42ZM25.758 43.86C24.6681 43.437 23.4564 43.4547 22.3794 43.9094C21.3024 44.3641 20.4446 45.2201 19.9876 46.2962C19.5307 47.3723 19.5104 48.584 19.9312 49.6747C20.352 50.7654 21.1807 51.6496 22.242 52.14L22.254 52.146L22.266 52.152L22.326 52.176L22.518 52.26C23.6527 52.7333 24.7969 53.1834 25.95 53.61C28.23 54.48 31.434 55.638 35.112 56.79C41.04 58.662 48.528 60.63 55.5 61.278V68.718C55.5 71.298 54.756 73.836 53.358 76.014L38.214 99.564C37.8941 100.061 37.6753 100.617 37.57 101.198C37.4647 101.78 37.475 102.377 37.6004 102.955C37.7257 103.532 37.9637 104.08 38.3006 104.566C38.6375 105.051 39.0668 105.466 39.564 105.786C40.0612 106.106 40.6165 106.325 41.1983 106.43C41.78 106.535 42.3768 106.525 42.9546 106.4C43.5324 106.274 44.0798 106.036 44.5656 105.699C45.0514 105.362 45.4661 104.933 45.786 104.436L60.006 82.32L74.214 104.436C74.5339 104.933 74.9486 105.362 75.4344 105.699C75.9202 106.036 76.4676 106.274 77.0454 106.4C77.6232 106.525 78.22 106.535 78.8017 106.43C79.3835 106.325 79.9388 106.106 80.436 105.786C80.9332 105.466 81.3625 105.051 81.6994 104.566C82.0363 104.08 82.2743 103.532 82.3996 102.955C82.525 102.377 82.5353 101.78 82.43 101.198C82.3247 100.617 82.1059 100.061 81.786 99.564L66.642 76.014C65.2426 73.8358 64.499 71.301 64.5 68.712V61.278C71.472 60.63 78.96 58.662 84.894 56.79C89.1485 55.4477 93.3478 53.9365 97.482 52.26L97.68 52.176L97.74 52.152L97.752 52.146C98.8313 51.6676 99.6794 50.7842 100.113 49.6863C100.547 48.5884 100.533 47.3638 100.072 46.2768C99.6116 45.1897 98.7424 44.3271 97.6517 43.875C96.5611 43.4229 95.3365 43.4175 94.242 43.86L94.2 43.878L94.038 43.944L93.378 44.214C89.7009 45.6844 85.9703 47.0173 82.194 48.21C75.126 50.43 66.666 52.5 60 52.5C53.334 52.5 44.88 50.43 37.812 48.21C33.8094 46.9444 29.8583 45.5213 25.968 43.944L25.8 43.878L25.758 43.86Z" fill="#1F2B38"/>
</svg>
