<svg width="120" height="120" viewBox="0 0 120 120" fill="none" xmlns="http://www.w3.org/2000/svg">
<g clip-path="url(#clip0_108_18228)">
<path d="M112 8H8V0H112V8ZM8.08 19.216C8.26118 18.3096 8.7507 17.4938 9.46534 16.9075C10.18 16.3212 11.0756 16.0006 12 16H108C108.924 16.0006 109.82 16.3212 110.535 16.9075C111.249 17.4938 111.739 18.3096 111.92 19.216L119.92 59.216C120.036 59.7961 120.022 60.3947 119.879 60.9686C119.735 61.5426 119.466 62.0776 119.092 62.5352C118.717 62.9928 118.245 63.3615 117.71 63.6148C117.176 63.8681 116.592 63.9996 116 64H4C3.40844 63.9996 2.82431 63.8681 2.28972 63.6148C1.75512 63.3615 1.28337 62.9928 0.908431 62.5352C0.533497 62.0776 0.264721 61.5426 0.121469 60.9686C-0.0217838 60.3947 -0.0359468 59.7961 0.08 59.216L8.08 19.216ZM8 72V112H0V120H120V112H112V72H96V88H24V72H8Z" fill="#1F2B38"/>
<path d="M32 72H88V80H32V72Z" fill="#1F2B38"/>
</g>
<defs>
<clipPath id="clip0_108_18228">
<rect width="120" height="120" fill="white"/>
</clipPath>
</defs>
</svg>
