<svg width="71" height="70" viewBox="0 0 71 70" fill="none" xmlns="http://www.w3.org/2000/svg">
<path d="M70.4174 0H0V70H70.4174V0Z" fill="white"/>
<path d="M35.2087 0H0V35H35.2087V0Z" fill="#F1C40F"/>
<path d="M70.4174 0H35.2087V35H70.4174V0Z" fill="#6D3E7F"/>
<path d="M70.4174 35H35.2087V70H70.4174V35Z" fill="#E67E22"/>
<path d="M35.2087 35H0V70H35.2087V35Z" fill="#2ECC71"/>
<path d="M18.0663 29.7695C17.1086 29.7695 16.1453 29.6463 15.1764 29.3999C14.2074 29.1423 13.2892 28.7279 12.4217 28.1567C11.5541 27.5855 10.7823 26.8351 10.1063 25.9055C9.4416 24.9759 8.91206 23.8335 8.51772 22.4783C8.13465 21.1231 7.94312 19.5327 7.94312 17.7071C7.94312 15.8815 8.13465 14.2967 8.51772 12.9527C8.91206 11.5975 9.44723 10.4551 10.1232 9.52554C10.8105 8.59594 11.5879 7.85114 12.4555 7.29114C13.323 6.71994 14.2413 6.31114 15.2102 6.06474C16.1791 5.80714 17.1481 5.67834 18.117 5.67834C19.1198 5.67834 20.0549 5.81274 20.9225 6.08154C21.79 6.33914 22.5787 6.71994 23.2885 7.22394C23.9983 7.72794 24.6236 8.33834 25.1644 9.05514C25.7052 9.76074 26.1446 10.5671 26.4826 11.4743L22.2576 13.5743C22.1224 13.1151 21.9365 12.6391 21.6999 12.1463C21.4745 11.6423 21.1985 11.1775 20.8718 10.7519C20.545 10.3151 20.1507 9.96234 19.6887 9.69354C19.2381 9.42474 18.7085 9.29034 18.1001 9.29034C17.4467 9.29034 16.8044 9.44714 16.1735 9.76075C15.5538 10.0631 14.9961 10.5503 14.5004 11.2223C14.0046 11.8943 13.6103 12.7679 13.3174 13.8431C13.0244 14.9071 12.878 16.1951 12.878 17.7071C12.878 19.2191 13.0244 20.5127 13.3174 21.5879C13.6103 22.6631 13.999 23.5367 14.4835 24.2087C14.9792 24.8807 15.5369 25.3735 16.1566 25.6871C16.7763 26.0007 17.4129 26.1575 18.0663 26.1575C18.6747 26.1575 19.2099 26.0231 19.6718 25.7543C20.1338 25.4855 20.5281 25.1383 20.8549 24.7127C21.1816 24.2759 21.4576 23.8111 21.683 23.3183C21.9196 22.8255 22.1111 22.3607 22.2576 21.9239L26.4826 24.0407C26.1446 24.9143 25.7052 25.7039 25.1644 26.4095C24.6236 27.1151 23.9927 27.7199 23.2716 28.2239C22.5618 28.7279 21.7675 29.1143 20.8887 29.3831C20.0211 29.6407 19.0803 29.7695 18.0663 29.7695Z" fill="#1B2631"/>
<path d="M17.255 64.7695C15.7565 64.7695 14.3707 64.5511 13.0976 64.1143C11.8357 63.6663 10.7597 63.0391 9.86965 62.2327C8.99084 61.4151 8.38244 60.4519 8.04443 59.3431L12.6751 57.4279C12.8779 58.0663 13.2046 58.6655 13.6553 59.2255C14.106 59.7855 14.6637 60.2391 15.3284 60.5863C15.9932 60.9223 16.748 61.0903 17.593 61.0903C18.3817 61.0903 19.0577 60.9783 19.6211 60.7543C20.1844 60.5191 20.6182 60.1831 20.9224 59.7463C21.2266 59.3095 21.3787 58.7719 21.3787 58.1335C21.3787 57.6631 21.2322 57.2319 20.9393 56.8399C20.6576 56.4479 20.2689 56.1007 19.7732 55.7983C19.2774 55.4847 18.7084 55.2047 18.0662 54.9583C17.4353 54.7007 16.7706 54.4711 16.072 54.2695C15.0355 53.9559 14.0722 53.6031 13.1821 53.2111C12.292 52.8079 11.5146 52.3319 10.8499 51.7831C10.1851 51.2231 9.66685 50.5567 9.29505 49.7839C8.92324 49.0111 8.73734 48.0927 8.73734 47.0287C8.73734 46.1551 8.90071 45.3767 9.22745 44.6935C9.55418 44.0103 10.0049 43.4167 10.5795 42.9127C11.1653 42.4087 11.8301 41.9943 12.5737 41.6695C13.3286 41.3335 14.1285 41.0871 14.9735 40.9303C15.8185 40.7623 16.6748 40.6783 17.5423 40.6783C18.9507 40.6783 20.2407 40.8911 21.4125 41.3167C22.5955 41.7311 23.5926 42.2911 24.4038 42.9967C25.215 43.7023 25.7558 44.5031 26.0262 45.3991L21.4801 47.3647C21.2885 46.7599 20.9956 46.2335 20.6013 45.7855C20.2182 45.3263 19.7506 44.9735 19.1986 44.7271C18.6577 44.4807 18.0437 44.3575 17.3564 44.3575C16.872 44.3575 16.4157 44.4079 15.9875 44.5087C15.5594 44.6095 15.1763 44.7663 14.8383 44.9791C14.5116 45.1919 14.2524 45.4607 14.0609 45.7855C13.8694 46.0991 13.7736 46.4631 13.7736 46.8775C13.7736 47.4599 13.9482 47.9695 14.2975 48.4063C14.6468 48.8319 15.1425 49.2071 15.7847 49.5319C16.4269 49.8455 17.1931 50.1311 18.0831 50.3887C18.8155 50.6015 19.5704 50.8479 20.3478 51.1279C21.1252 51.4079 21.8744 51.7439 22.5955 52.1359C23.3166 52.5279 23.9644 52.9871 24.539 53.5135C25.1136 54.0287 25.5699 54.6391 25.9079 55.3447C26.2459 56.0503 26.4149 56.8623 26.4149 57.7807C26.4149 58.7887 26.2403 59.6791 25.891 60.4519C25.553 61.2247 25.0855 61.8855 24.4883 62.4343C23.8912 62.9831 23.2039 63.4311 22.4265 63.7783C21.6491 64.1143 20.8153 64.3607 19.9253 64.5175C19.0465 64.6855 18.1564 64.7695 17.255 64.7695Z" fill="#1B2631"/>
<path d="M51.8808 61.5608L53.0469 55.3112L57.086 40.88H59.7394L59.7563 44.9288L54.7707 61.5608H51.8808ZM40.0507 64.4L42.0787 40.88H46.5403L44.9855 64.4H40.0507ZM50.6809 61.5608L45.6784 44.9288L45.7291 40.88H48.3487L52.4892 55.3112L53.537 61.5608H50.6809ZM60.4492 64.4L58.8944 40.88H63.356L65.4009 64.4H60.4492Z" fill="#1B2631"/>
</svg>
