<svg width="390" height="704" viewBox="0 0 390 704" fill="none" xmlns="http://www.w3.org/2000/svg">
<mask id="mask0_456_3907" style="mask-type:alpha" maskUnits="userSpaceOnUse" x="0" y="0" width="390" height="704">
<rect width="390" height="704" fill="#A15818"/>
</mask>
<g mask="url(#mask0_456_3907)">
<g opacity="0.2">
<g opacity="0.7">
<path d="M289.203 730.322L231.642 672.76C228.478 669.674 225.006 666.896 221.225 664.581L182.105 639.504L160.963 620.754L142.213 604.088C140.824 602.853 138.663 602.93 137.275 604.242C135.963 605.554 135.886 607.714 137.12 609.18L153.787 627.93L172.537 649.072L197.537 688.192C199.929 691.973 202.706 695.446 205.793 698.609L206.102 698.918L263.277 756.094L289.203 730.322Z" fill="#FDF2E9" fill-opacity="0.5"/>
<path d="M231.597 687.052L220.194 698.455L258.877 737.138L270.28 725.735L231.597 687.052Z" fill="#F1B47F" fill-opacity="0.5"/>
<path d="M161.04 620.754L142.29 604.088C140.901 602.853 138.741 602.93 137.352 604.242C136.04 605.554 135.963 607.714 137.198 609.18L153.864 627.93L161.04 620.754Z" fill="#F1B47F" fill-opacity="0.5"/>
<path d="M231.597 687.052L220.194 698.455L258.877 737.138L270.28 725.735L231.597 687.052Z" fill="#F1B47F" fill-opacity="0.5"/>
</g>
<g opacity="0.7">
<path d="M253.941 377.468L311.502 435.029C314.666 438.116 318.138 440.894 321.919 443.208L361.039 468.286L382.181 487.036L400.931 503.702C402.32 504.937 404.48 504.86 405.869 503.548C407.181 502.236 407.258 500.076 406.024 498.61L389.357 479.86L370.607 458.718L345.607 419.597C343.215 415.817 340.437 412.344 337.351 409.181L337.042 408.872L279.867 351.696L253.941 377.468Z" fill="#FDF2E9" fill-opacity="0.5"/>
<path d="M249.388 347.067C256.487 339.968 268.061 339.968 275.16 347.067L280.098 352.005L254.327 377.777L249.388 372.838C242.29 365.74 242.29 354.243 249.388 347.067Z" fill="#F1B47F" fill-opacity="0.5"/>
<path d="M311.614 420.782L323.017 409.379L284.334 370.696L272.931 382.099L311.614 420.782Z" fill="#F1B47F" fill-opacity="0.5"/>
<path d="M382.181 487.113L400.931 503.779C402.32 505.014 404.48 504.937 405.869 503.625C407.181 502.313 407.258 500.153 406.024 498.687L389.357 479.937L382.181 487.113Z" fill="#F1B47F" fill-opacity="0.5"/>
<path d="M311.614 420.782L323.017 409.379L284.334 370.696L272.931 382.099L311.614 420.782Z" fill="#F1B47F" fill-opacity="0.5"/>
<path d="M249.388 372.915L254.327 377.854L280.098 352.082L275.16 347.144C271.611 343.595 266.904 341.82 262.274 341.82C257.645 341.82 252.938 343.595 249.388 347.144C242.29 354.243 242.29 365.74 249.388 372.915ZM248.077 360.03C248.077 356.249 249.543 352.7 252.243 349.999C254.944 347.298 258.493 345.832 262.274 345.832C266.055 345.832 269.604 347.298 272.305 349.999L274.388 352.082L254.327 372.144L252.243 370.061C249.543 367.36 248.077 363.811 248.077 360.03Z" fill="#FDF2E9" fill-opacity="0.5"/>
</g>
<g opacity="0.7">
<path d="M413.122 212.345L415.514 272.839C415.591 275.308 414.743 277.7 412.968 279.475C411.193 281.326 408.724 282.33 406.178 282.33L243.138 282.33C240.592 282.33 238.123 281.249 236.348 279.475C234.573 277.623 233.725 275.308 233.802 272.762L236.348 212.191C236.58 207.253 240.669 203.395 245.684 203.395L403.786 203.395C408.801 203.472 412.891 207.407 413.122 212.345ZM406.178 278.317C407.644 278.317 409.033 277.777 410.036 276.697C410.962 275.694 411.502 274.382 411.425 273.07L409.033 212.5C408.956 209.799 406.641 207.638 403.786 207.638L245.684 207.638C242.907 207.638 240.592 209.799 240.438 212.499L237.891 273.07C237.814 274.459 238.354 275.694 239.28 276.697C240.283 277.777 241.672 278.317 243.138 278.317L406.178 278.317Z" fill="#FDF2E9" fill-opacity="0.5"/>
<path d="M249.774 203.549L249.774 282.33L270.453 285.262C306.332 290.277 342.906 290.277 378.709 285.262L399.465 282.407L399.465 203.626L379.789 200.848C343.292 195.679 305.947 195.679 269.373 200.848L249.774 203.549Z" fill="#FDF2E9" fill-opacity="0.5"/>
<path d="M249.774 203.549L249.774 262.345L270.53 265.2C306.41 270.215 342.984 270.215 378.786 265.2L399.542 262.345L399.542 203.549L379.866 200.771C343.369 195.601 306.024 195.601 269.45 200.771L249.774 203.549Z" fill="#F1B47F" fill-opacity="0.5"/>
<path d="M399.542 282.33L399.542 203.549L378.786 200.694C360.885 198.225 342.752 196.99 324.619 196.99C306.487 196.99 288.431 198.225 270.453 200.694L249.697 203.549L249.697 282.33L269.373 285.107C287.66 287.731 306.101 288.965 324.542 288.965C342.984 288.965 361.502 287.654 379.712 285.107L399.542 282.33ZM395.375 278.703L379.249 281.018C361.271 283.564 342.906 284.876 324.619 284.876C306.332 284.876 287.968 283.564 269.99 281.018L253.863 278.703L253.863 207.098L271.07 204.706C288.74 202.237 306.718 201.003 324.619 201.003C342.521 201.003 360.499 202.237 378.169 204.706L395.375 207.098L395.375 278.703Z" fill="#FDF2E9" fill-opacity="0.5"/>
</g>
<g opacity="0.7">
<path d="M79.713 142.283L47.6915 110.262L12.3521 145.601L44.3736 177.623C54.0958 187.345 69.9908 187.345 79.713 177.623C89.5123 167.824 89.5123 152.006 79.713 142.283Z" fill="#F1B47F" fill-opacity="0.5"/>
<path d="M47.6914 110.262L15.6699 78.2406C5.87056 68.4413 -9.94728 68.4413 -19.6695 78.2406C-24.5306 83.1017 -26.9997 89.506 -26.9997 95.9103C-26.9997 102.315 -24.5306 108.719 -19.6695 113.58L12.352 145.602L47.6914 110.262Z" fill="#FDF2E9" fill-opacity="0.5"/>
<path d="M47.6914 110.262L15.6699 78.2406C10.8088 73.3795 4.40454 70.9104 -1.99976 70.9104C-8.40406 70.9104 -14.8084 73.3795 -19.6695 78.2406C-24.5306 83.1017 -26.9997 89.506 -26.9997 95.9103C-26.9997 102.315 -24.5306 108.719 -19.6695 113.58L12.352 145.602L47.6914 110.262ZM42.5989 110.262L12.352 140.509L-17.1232 111.034C-21.1355 107.021 -23.3732 101.62 -23.3732 95.9103C-23.3732 90.2005 -21.1355 84.7993 -17.1232 80.7869C-13.1109 76.7746 -7.70962 74.537 -1.99976 74.537C3.7101 74.537 9.1113 76.7746 13.1236 80.7869L42.5989 110.262Z" fill="#FDF2E9" fill-opacity="0.5"/>
<path d="M89.7437 74.7686C80.8702 68.8272 68.8332 69.8304 60.9629 77.6236C53.1697 85.4168 52.1666 97.5309 58.1079 106.404L89.7437 74.7686Z" fill="#FDF2E9" fill-opacity="0.5"/>
<path d="M96.1477 81.0955L64.512 112.731C73.3855 118.672 85.4225 117.669 93.2928 109.876C101.086 102.006 102.012 89.9689 96.1477 81.0955Z" fill="#FDF2E9" fill-opacity="0.5"/>
<path d="M96.148 81.0957C96.148 81.0186 96.0708 81.0185 96.0708 80.9414C95.2992 79.784 94.3733 78.6266 93.293 77.5464C92.2128 76.4661 91.1325 75.5401 89.898 74.7685C89.8208 74.7685 89.8208 74.6914 89.7436 74.6914L58.1079 106.327C58.1079 106.404 58.1851 106.404 58.1851 106.481C58.9567 107.639 59.8826 108.796 60.9629 109.876C62.0431 110.957 63.1233 111.883 64.3579 112.654C64.4351 112.654 64.4351 112.731 64.5122 112.731L96.148 81.0957Z" fill="#F1B47F" fill-opacity="0.5"/>
<path d="M93.2928 109.799C88.8175 114.275 83.0305 116.512 77.1663 116.512L77.1663 112.886C82.2589 112.886 87.12 110.88 90.7465 107.253C97.228 100.772 98.2311 90.5092 93.0613 82.9475C92.3669 81.9444 91.5953 81.0184 90.7465 80.0925C89.8978 79.2437 88.8947 78.4721 87.8916 77.7777C84.728 75.6172 81.0243 74.4599 77.1663 74.4599C72.0738 74.4599 67.2127 76.466 63.5861 80.0925C57.1047 86.574 56.1016 96.8363 61.2713 104.398C61.9658 105.401 62.7374 106.327 63.5861 107.253C64.4349 108.102 65.438 108.873 66.4411 109.568C69.6046 111.728 73.3083 112.886 77.1663 112.886L77.1663 116.512C72.691 116.512 68.2157 115.2 64.4349 112.577C63.2775 111.805 62.1201 110.879 61.0398 109.799C59.9596 108.719 59.0337 107.639 58.2621 106.404C52.2436 97.5307 53.1695 85.4166 61.0398 77.5463C65.5151 73.071 71.3021 70.8333 77.1663 70.8333C81.6416 70.8333 86.1169 72.145 89.8978 74.7684C91.0552 75.54 92.2126 76.466 93.2928 77.5463C94.3731 78.6265 95.299 79.7067 96.0706 80.9413C102.012 89.8147 101.086 102.006 93.2928 109.799Z" fill="#FDF2E9" fill-opacity="0.5"/>
</g>
<g opacity="0.7">
<path d="M148.54 189.814C129.023 189.814 113.201 205.636 113.201 225.154C113.201 244.671 129.023 260.493 148.54 260.493C168.057 260.493 183.879 244.671 183.879 225.154C183.879 205.636 168.057 189.814 148.54 189.814Z" fill="#FDF2E9" fill-opacity="0.5"/>
<path d="M171.457 232.87L156.256 232.87L156.256 247.993L140.901 247.993L140.901 232.87L125.7 232.87L125.7 217.515L140.901 217.515L140.901 202.314L156.256 202.314L156.256 217.515L171.457 217.515L171.457 232.87Z" fill="#F1B47F" fill-opacity="0.5"/>
<path d="M171.457 232.87L171.457 217.515L156.256 217.515L156.256 202.391L140.901 202.391L140.901 217.515L125.778 217.515L125.778 232.87L140.901 232.87L140.901 247.993L156.256 247.993L156.256 232.87L171.457 232.87ZM169.45 230.941L156.256 230.941L154.327 230.941L154.327 232.87L154.327 246.064L142.83 246.064L142.83 232.87L142.83 230.941L140.901 230.941L127.707 230.941L127.707 219.444L140.901 219.444L142.83 219.444L142.83 217.515L142.83 204.32L154.327 204.32L154.327 217.515L154.327 219.444L156.256 219.444L169.45 219.444L169.45 230.941Z" fill="#FDF2E9" fill-opacity="0.5"/>
</g>
<g opacity="0.7">
<path d="M148.54 695.445C129.023 695.445 113.201 711.267 113.201 730.785C113.201 750.302 129.023 766.124 148.54 766.124C168.057 766.124 183.879 750.302 183.879 730.785C183.879 711.267 168.057 695.445 148.54 695.445Z" fill="#FDF2E9" fill-opacity="0.5"/>
</g>
<g opacity="0.7">
<path d="M203.323 99.5366L148.154 99.5366C143.601 99.5366 139.898 95.8329 139.898 91.2804L139.898 8.25599C139.898 3.70354 143.601 -0.000116509 148.154 -0.000116111L203.323 -0.000111288C207.876 -0.00011089 211.58 3.70354 211.58 8.256L211.58 91.2804C211.58 95.8329 207.876 99.5366 203.323 99.5366Z" fill="#F1B47F" fill-opacity="0.5"/>
<path d="M152.32 108.564L199.157 108.564L199.157 99.6139L152.32 99.6139L152.32 108.564Z" fill="#FDF2E9" fill-opacity="0.5"/>
<path d="M144.142 131.404L206.873 131.404L206.873 108.487L144.142 108.487L144.142 131.404Z" fill="#F1B47F" fill-opacity="0.5"/>
<path d="M139.898 82.0981L191.672 82.0981L191.672 17.3608L139.898 17.3608L139.898 82.0981Z" fill="#FDF2E9" fill-opacity="0.5"/>
<path d="M181.256 54.9378L170.994 54.9378L170.994 65.2002L160.577 65.2002L160.577 54.9378L150.315 54.9378L150.315 44.5212L160.577 44.5212L160.577 34.2589L170.994 34.2589L170.994 44.5212L181.256 44.5212L181.256 54.9378Z" fill="#F1B47F" fill-opacity="0.5"/>
<path d="M211.58 91.2804L211.58 8.256C211.58 3.70354 207.876 -0.00011089 203.323 -0.000111288L148.154 -0.000116111C143.601 -0.000116509 139.898 3.70354 139.898 8.25599L139.898 91.2804C139.898 95.8329 143.601 99.5366 148.154 99.5366L203.323 99.5366C207.876 99.5366 211.58 95.8329 211.58 91.2804ZM208.262 91.2804C208.262 93.981 206.024 96.2187 203.323 96.2187L148.154 96.2187C145.453 96.2187 143.216 93.981 143.216 91.2804L143.216 8.25599C143.216 5.55538 145.453 3.31772 148.154 3.31772L203.323 3.31772C206.024 3.31772 208.262 5.55539 208.262 8.256L208.262 91.2804Z" fill="#FDF2E9" fill-opacity="0.5"/>
</g>
<g opacity="0.7">
<path d="M374.002 616.974C370.067 618.594 365.591 616.665 364.048 612.807C363.585 611.727 363.431 610.569 363.508 609.489L319.45 590.971L301.703 635.261C302.474 635.955 303.092 636.804 303.477 637.807C305.175 641.665 303.323 646.217 299.465 647.838C295.607 649.535 291.055 647.683 289.434 643.825C287.737 639.967 289.589 635.415 293.447 633.794C294.45 633.332 295.53 633.177 296.533 633.177L314.357 588.81L270.298 570.292C269.604 571.063 268.678 571.68 267.675 572.066C263.74 573.687 259.265 571.758 257.721 567.9C256.101 563.964 258.03 559.489 261.888 557.946C265.823 556.326 270.298 558.255 271.842 562.113C272.227 563.116 272.459 564.196 272.382 565.199L316.363 583.64L334.187 539.119C333.493 538.424 332.953 537.653 332.567 536.727C330.869 532.869 332.721 528.316 336.579 526.696C340.437 524.999 344.99 526.85 346.61 530.708C348.307 534.566 346.456 539.119 342.598 540.739C341.517 541.202 340.36 541.357 339.28 541.357L321.456 585.801L365.746 604.396C366.44 603.702 367.289 603.162 368.215 602.776C372.15 601.156 376.625 603.085 378.169 606.943C379.789 610.955 377.937 615.43 374.002 616.974Z" fill="#FDF2E9" fill-opacity="0.5"/>
<path d="M379.017 570.137C377.32 573.995 372.767 575.77 368.909 573.995C367.829 573.532 366.903 572.838 366.209 571.989L321.61 589.119L339.434 633.331C340.437 633.331 341.517 633.486 342.521 633.949C346.379 635.569 348.23 640.122 346.533 643.98C344.912 647.838 340.36 649.689 336.502 647.992C332.644 646.372 330.792 641.819 332.49 637.961C332.953 636.958 333.57 636.109 334.264 635.415L316.44 591.125L271.842 608.254C271.842 609.257 271.61 610.338 271.147 611.341C269.45 615.199 264.897 616.973 261.039 615.199C257.181 613.501 255.407 608.949 257.181 605.091C258.879 601.233 263.431 599.458 267.289 601.233C268.292 601.696 269.141 602.313 269.836 603.085L314.357 585.955L296.456 541.511C295.53 541.511 294.527 541.279 293.601 540.893C289.743 539.273 287.891 534.721 289.589 530.863C291.209 527.005 295.761 525.153 299.619 526.85C303.477 528.471 305.329 533.023 303.632 536.881C303.169 537.961 302.474 538.887 301.626 539.582L319.527 584.026L364.357 566.819C364.357 565.893 364.588 564.89 364.974 563.964C366.672 560.106 371.224 558.332 375.082 560.106C379.017 561.727 380.792 566.279 379.017 570.137Z" fill="#F1B47F" fill-opacity="0.5"/>
<path d="M374.542 587.498C374.542 590.662 371.919 593.285 368.755 593.208L366.672 593.208C364.048 593.208 361.656 594.983 361.039 597.606C359.882 602.313 358.03 606.788 355.561 610.801C354.172 613.038 354.558 615.97 356.41 617.822L357.876 619.288C360.113 621.526 360.113 625.152 357.876 627.467C355.638 629.705 352.011 629.705 349.697 627.467L348.231 626.001C346.379 624.149 343.447 623.764 341.209 625.152C337.197 627.622 332.721 629.473 328.015 630.554C325.391 631.171 323.616 633.486 323.616 636.186L323.616 638.27C323.616 641.433 320.993 644.057 317.829 643.98C314.666 643.98 312.042 641.356 312.12 638.193L312.12 636.109C312.12 633.486 310.345 631.094 307.721 630.477C303.015 629.319 298.539 627.467 294.527 624.998C292.289 623.609 289.357 623.995 287.505 625.847L286.039 627.313C283.802 629.551 280.175 629.551 277.86 627.313C275.623 625.075 275.623 621.449 277.86 619.134L279.326 617.668C281.178 615.816 281.564 612.884 280.175 610.646C277.706 606.634 275.854 602.159 274.774 597.452C274.157 594.828 271.842 593.054 269.141 593.054C268.447 593.054 267.752 593.054 267.058 593.054C263.894 593.054 261.348 590.43 261.348 587.267C261.348 584.103 263.972 581.48 267.135 581.557L269.218 581.557C271.842 581.557 274.234 579.782 274.851 577.159C276.009 572.452 277.86 567.977 280.33 563.964C281.718 561.727 281.333 558.795 279.481 556.943L278.015 555.477C275.777 553.239 275.777 549.613 278.015 547.298C280.252 545.06 283.879 545.06 286.194 547.298L287.66 548.764C289.512 550.616 292.444 551.001 294.681 549.613C298.694 547.143 303.169 545.292 307.876 544.211C310.499 543.594 312.274 541.279 312.274 538.579L312.274 536.495C312.274 533.332 314.897 530.708 318.061 530.785C321.225 530.785 323.848 533.409 323.771 536.572L323.771 538.656C323.771 541.279 325.545 543.671 328.169 544.288C332.876 545.446 337.351 547.298 341.363 549.767C343.601 551.156 346.533 550.77 348.385 548.918L349.851 547.452C352.089 545.214 355.715 545.214 358.03 547.452C360.268 549.69 360.268 553.316 358.03 555.631L356.564 557.097C354.712 558.949 354.326 561.881 355.715 564.119C358.184 568.131 360.036 572.606 361.116 577.313C361.734 579.937 364.048 581.711 366.749 581.711C367.443 581.711 368.138 581.711 368.832 581.711C371.996 581.711 374.542 584.335 374.542 587.498Z" fill="#F1B47F" fill-opacity="0.5"/>
<path d="M374.542 587.498C374.542 584.335 371.996 581.711 368.832 581.711C368.138 581.711 367.443 581.711 366.749 581.711C364.126 581.711 361.734 579.86 361.116 577.313C360.036 572.606 358.184 568.131 355.715 564.119C354.326 561.881 354.712 558.949 356.564 557.097L358.03 555.631C359.187 554.474 359.727 553.008 359.727 551.542C359.727 550.076 359.187 548.61 358.03 547.452C356.873 546.295 355.406 545.755 353.94 545.755C352.474 545.755 351.008 546.295 349.851 547.452L348.385 548.918C347.305 549.999 345.839 550.616 344.295 550.616C343.292 550.616 342.212 550.307 341.286 549.767C337.274 547.298 332.876 545.369 328.092 544.289C325.468 543.671 323.694 541.279 323.694 538.656L323.694 536.573C323.694 533.409 321.147 530.786 317.984 530.786C314.82 530.786 312.274 533.332 312.197 536.495L312.197 538.579C312.197 541.202 310.422 543.594 307.799 544.211C303.092 545.292 298.617 547.144 294.604 549.613C293.678 550.153 292.675 550.461 291.672 550.461C290.206 550.461 288.663 549.844 287.583 548.764L286.117 547.298C284.959 546.14 283.493 545.6 282.027 545.6C280.561 545.6 279.095 546.14 277.938 547.298C275.7 549.536 275.7 553.162 277.938 555.477L279.404 556.943C281.255 558.795 281.641 561.727 280.252 563.965C277.783 567.977 275.854 572.375 274.697 577.159C274.08 579.705 271.765 581.48 269.064 581.48L266.981 581.48C265.438 581.48 263.972 582.097 262.891 583.177C261.888 584.18 261.194 585.647 261.194 587.267C261.194 590.431 263.74 593.054 266.904 593.054C267.598 593.054 268.293 593.054 268.987 593.054C271.61 593.054 274.002 594.906 274.62 597.452C275.7 602.159 277.552 606.634 280.021 610.646C281.41 612.884 281.024 615.816 279.172 617.668L277.706 619.134C275.468 621.372 275.468 624.998 277.706 627.313C278.864 628.47 280.33 629.011 281.796 629.011C283.262 629.011 284.728 628.47 285.885 627.313L287.351 625.847C288.431 624.767 289.897 624.15 291.441 624.15C292.444 624.15 293.524 624.458 294.45 624.998C298.462 627.467 302.86 629.396 307.644 630.477C310.268 631.094 312.042 633.486 312.042 636.109L312.042 638.193C312.042 641.356 314.589 643.98 317.752 643.98L317.752 640.585C316.441 640.585 315.437 639.504 315.437 638.193L315.437 636.109C315.437 631.788 312.583 628.162 308.493 627.159C304.172 626.156 300.083 624.458 296.302 622.066C294.913 621.14 293.215 620.677 291.518 620.677C289.049 620.677 286.811 621.603 285.036 623.378L283.57 624.844C283.107 625.307 282.567 625.538 281.95 625.538C281.333 625.538 280.715 625.307 280.252 624.844C279.789 624.381 279.558 623.764 279.558 623.146C279.558 622.529 279.789 621.912 280.252 621.449L281.718 619.983C284.728 616.974 285.345 612.344 283.107 608.717C280.793 604.937 279.095 600.847 278.092 596.526C277.166 592.36 273.462 589.505 269.218 589.505L268.061 589.505L267.135 589.505C266.518 589.505 265.901 589.273 265.438 588.81C264.975 588.347 264.743 587.807 264.743 587.113C264.743 585.801 265.823 584.798 267.058 584.798L269.141 584.798C273.462 584.798 277.089 581.943 278.092 577.853C279.095 573.532 280.793 569.443 283.184 565.739C285.422 562.19 284.882 557.56 281.873 554.474L280.407 553.008C279.481 552.082 279.481 550.616 280.407 549.69C280.87 549.227 281.41 548.995 282.027 548.995C282.644 548.995 283.262 549.227 283.725 549.69L285.191 551.156C286.888 552.853 289.28 553.857 291.672 553.857C293.37 553.857 294.99 553.394 296.379 552.545C300.16 550.23 304.249 548.532 308.57 547.529C312.737 546.603 315.592 542.9 315.592 538.656L315.592 536.573C315.592 535.261 316.672 534.258 317.907 534.258C319.218 534.258 320.221 535.338 320.221 536.65L320.221 538.733C320.221 543.054 323.076 546.681 327.166 547.684C331.487 548.687 335.576 550.384 339.28 552.776C340.746 553.702 342.366 554.165 344.064 554.165C346.533 554.165 348.771 553.239 350.545 551.465L352.011 549.999C352.474 549.536 353.015 549.304 353.709 549.304C354.326 549.304 354.944 549.536 355.406 549.999C355.869 550.461 356.101 551.079 356.101 551.696C356.101 552.313 355.869 552.931 355.406 553.394L353.94 554.86C350.931 557.869 350.314 562.498 352.552 566.125C354.866 569.906 356.564 573.995 357.567 578.316C358.493 582.483 362.197 585.338 366.44 585.338L367.598 585.338L368.524 585.338C369.835 585.338 370.916 586.418 370.839 587.73C370.839 589.042 369.758 590.045 368.447 590.045L366.363 590.045C362.042 590.045 358.416 592.9 357.413 596.989C356.41 601.31 354.712 605.4 352.32 609.103C350.082 612.653 350.623 617.282 353.632 620.369L355.098 621.835C355.561 622.298 355.792 622.915 355.792 623.532C355.792 624.15 355.561 624.767 355.098 625.23C354.635 625.693 354.095 625.924 353.4 625.924C352.783 625.924 352.166 625.693 351.703 625.23L350.237 623.764C348.539 622.066 346.147 621.063 343.755 621.063C342.058 621.063 340.437 621.526 339.049 622.375C335.268 624.69 331.178 626.387 326.857 627.39C322.691 628.316 319.836 632.02 319.836 636.264L319.836 638.347C319.836 639.659 318.755 640.662 317.444 640.662L317.444 644.057C320.607 644.057 323.154 641.511 323.231 638.347L323.231 636.264C323.231 633.64 325.005 631.248 327.629 630.631C332.336 629.551 336.811 627.699 340.823 625.23C341.749 624.69 342.752 624.381 343.755 624.381C345.221 624.381 346.765 624.998 347.845 626.079L349.311 627.545C350.468 628.702 351.934 629.242 353.4 629.242C354.866 629.242 356.332 628.702 357.49 627.545C359.727 625.307 359.727 621.68 357.49 619.366L356.024 617.9C354.172 616.048 353.786 613.116 355.175 610.878C357.644 606.866 359.573 602.468 360.653 597.684C361.271 595.137 363.663 593.285 366.286 593.285L368.369 593.285C369.99 593.285 371.379 592.668 372.459 591.588C373.848 590.508 374.542 589.042 374.542 587.498Z" fill="#FDF2E9" fill-opacity="0.5"/>
</g>
<g opacity="0.7">
<path d="M253.709 116.975C254.867 113.117 258.956 110.956 262.737 112.191C263.817 112.5 264.743 113.04 265.515 113.734L305.484 92.5152L283.647 53.0091C282.644 53.1635 281.641 53.0863 280.638 52.7776C276.78 51.6974 274.542 47.6851 275.7 43.8271C276.78 39.969 280.792 37.7314 284.65 38.8888C288.508 39.969 290.746 43.9814 289.589 47.8394C289.28 48.8425 288.817 49.6912 288.2 50.4628L310.036 90.0461L349.928 68.827C349.851 67.8239 349.851 66.8208 350.16 65.8177C351.317 61.9597 355.406 59.7993 359.187 61.0338C363.045 62.1912 365.206 66.2807 363.971 70.0615C362.814 73.9196 358.724 76.0801 354.943 74.8455C353.94 74.5369 353.092 74.0739 352.32 73.3795L312.505 94.5985L334.419 134.336C335.345 134.259 336.271 134.336 337.197 134.568C341.055 135.648 343.292 139.66 342.135 143.518C341.055 147.376 337.042 149.614 333.184 148.456C329.326 147.376 327.089 143.364 328.246 139.506C328.555 138.426 329.095 137.5 329.789 136.728L307.876 97.0676L267.752 118.441C267.83 119.367 267.752 120.293 267.444 121.219C266.286 125.077 262.197 127.237 258.416 126.003C254.635 124.768 252.552 120.833 253.709 116.975Z" fill="#FDF2E9" fill-opacity="0.5"/>
<path d="M285.113 148.688C283.339 145.138 284.728 140.74 288.277 138.966C289.28 138.503 290.283 138.194 291.363 138.194L305.484 95.2158L262.351 81.7899C261.734 82.5616 260.962 83.1788 260.036 83.719C256.487 85.5708 252.089 84.1819 250.237 80.7097C248.385 77.1603 249.774 72.7621 253.246 70.9103C256.796 69.0584 261.194 70.4473 263.046 73.9195C263.509 74.8455 263.817 75.8486 263.894 76.7745L307.104 90.2003L321.224 47.2221C320.453 46.6048 319.836 45.8332 319.373 44.9073C317.598 41.3579 318.987 36.9598 322.536 35.1851C326.086 33.4104 330.484 34.7993 332.258 38.3487C334.033 41.8981 332.644 46.2962 329.095 48.0709C328.169 48.5338 327.166 48.7653 326.24 48.8425L312.12 91.7436L355.484 105.247C356.101 104.552 356.795 103.935 357.644 103.472C361.193 101.62 365.592 103.009 367.443 106.481C369.295 110.031 367.906 114.429 364.434 116.281C360.885 118.132 356.487 116.743 354.635 113.271C354.095 112.268 353.863 111.265 353.786 110.185L310.499 96.759L296.302 139.969C296.996 140.586 297.613 141.28 297.999 142.129C299.774 145.679 298.385 150.077 294.836 151.851C291.286 153.703 286.888 152.314 285.113 148.688Z" fill="#F1B47F" fill-opacity="0.5"/>
<path d="M275.083 135.031C272.768 133.102 272.382 129.706 274.311 127.392L275.546 125.848C277.166 123.919 277.243 121.064 275.7 119.135C272.922 115.509 270.762 111.42 269.373 107.253C268.601 104.861 266.209 103.395 263.74 103.626L261.734 103.858C258.725 104.166 256.101 101.929 255.793 98.9967C255.484 95.9874 257.722 93.364 260.654 93.0554L262.66 92.8238C265.129 92.5924 267.212 90.6633 267.521 88.1942C268.138 83.7961 269.373 79.398 271.456 75.2314C272.536 72.9937 271.919 70.2159 269.99 68.6727L268.447 67.4381C266.132 65.5091 265.823 62.1141 267.675 59.7993C269.604 57.4845 272.999 57.1759 275.314 59.0277L276.78 60.2622C278.709 61.8826 281.564 61.9597 283.57 60.4165C287.197 57.6388 291.286 55.4783 295.53 54.0894C297.922 53.3178 299.388 50.9258 299.157 48.4567L298.925 46.4505C298.617 43.4413 300.854 40.8179 303.786 40.5092C306.796 40.2006 309.419 42.4382 309.728 45.3703L309.959 47.3764C310.191 49.8456 312.12 51.9289 314.589 52.2376C318.987 52.8548 323.385 54.0894 327.552 56.1727C329.789 57.253 332.567 56.6357 334.11 54.7067C334.496 54.2437 334.959 53.7036 335.345 53.1634C337.274 50.8486 340.669 50.54 342.984 52.3918C345.299 54.3209 345.607 57.7159 343.755 60.0307L342.521 61.5739C340.9 63.5029 340.823 66.3579 342.366 68.2869C345.144 71.9135 347.305 76.0029 348.694 80.1695C349.465 82.5615 351.857 84.0276 354.326 83.7961L356.332 83.5646C359.342 83.256 361.965 85.4937 362.274 88.4257C362.582 91.435 360.345 94.0584 357.413 94.367L355.407 94.5986C352.937 94.83 350.854 96.7591 350.545 99.2282C349.928 103.626 348.616 108.024 346.61 112.191C345.53 114.429 346.147 117.206 348.076 118.75L349.619 119.984C351.934 121.913 352.243 125.308 350.391 127.623C348.462 129.938 345.067 130.247 342.752 128.395L341.209 127.16C339.28 125.54 336.425 125.463 334.496 127.006C330.87 129.784 326.78 131.944 322.613 133.333C320.221 134.105 318.755 136.497 318.987 138.966L319.218 140.972C319.527 143.981 317.289 146.605 314.357 146.913C311.348 147.222 308.725 144.984 308.416 142.052L308.184 140.046C307.953 137.577 306.024 135.493 303.555 135.185C299.157 134.568 294.759 133.333 290.592 131.25C288.354 130.169 285.576 130.787 284.033 132.716C283.647 133.179 283.184 133.719 282.799 134.259C280.793 136.574 277.397 136.882 275.083 135.031Z" fill="#F1B47F" fill-opacity="0.5"/>
<path d="M275.083 135.031C277.397 136.96 280.87 136.574 282.721 134.259C283.107 133.796 283.57 133.256 283.956 132.716C285.576 130.787 288.277 130.092 290.515 131.25C294.604 133.256 299.002 134.568 303.478 135.185C305.947 135.494 307.876 137.577 308.107 140.046L308.261 142.052C308.416 143.518 309.187 144.83 310.268 145.756C311.348 146.605 312.737 147.068 314.28 146.99C315.746 146.836 317.058 146.064 317.984 144.984C318.832 143.904 319.295 142.515 319.218 141.049L319.064 139.043C318.91 137.577 319.373 136.111 320.298 135.031C320.916 134.259 321.764 133.642 322.69 133.333C326.934 131.867 330.947 129.784 334.573 127.006C336.579 125.463 339.357 125.617 341.286 127.16L342.829 128.395C345.144 130.324 348.616 129.938 350.468 127.623C352.397 125.308 352.011 121.913 349.696 119.984L348.23 118.75C346.301 117.129 345.607 114.429 346.764 112.191C348.771 108.102 350.082 103.704 350.7 99.2282C350.854 98.2252 351.24 97.2992 351.857 96.6048C352.783 95.5245 354.095 94.7529 355.561 94.5986L357.567 94.3671C359.033 94.2128 360.345 93.4412 361.271 92.361C362.119 91.2807 362.582 89.8918 362.505 88.4258C362.196 85.4166 359.573 83.256 356.564 83.5647L354.558 83.7962C352.088 84.0277 349.697 82.5616 348.925 80.1696C347.459 75.9258 345.376 71.9134 342.598 68.2098C341.055 66.2036 341.209 63.4259 342.752 61.4969L343.987 59.9536C344.913 58.7962 345.298 57.3302 345.144 55.9414C344.99 54.5525 344.372 53.2407 343.215 52.3148C340.9 50.3858 337.428 50.7716 335.576 53.0864C335.19 53.5493 334.727 54.0894 334.342 54.6296C332.721 56.5586 330.021 57.253 327.783 56.0956C323.693 54.0895 319.295 52.7778 314.82 52.1605C312.351 51.8518 310.422 49.7685 310.19 47.2993L309.959 45.2932C309.65 42.2839 307.027 40.1234 304.018 40.4321C302.552 40.5864 301.24 41.3581 300.314 42.4383C299.465 43.5185 299.002 44.9074 299.079 46.3735L299.234 48.3796C299.388 49.8456 298.925 51.3117 297.999 52.3919C297.382 53.1635 296.533 53.7037 295.607 54.0895C291.363 55.5555 287.351 57.6388 283.647 60.4166C281.641 61.9598 278.863 61.8055 276.934 60.2623L275.468 59.0278C273.154 57.0987 269.681 57.4845 267.829 59.7994L270.299 61.8055C271.07 60.8796 272.459 60.7252 273.462 61.4968L274.928 62.7314C278.092 65.2777 282.49 65.432 285.653 62.9629C288.971 60.4166 292.675 58.4105 296.687 57.0987C298.231 56.5586 299.542 55.6327 300.545 54.3981C302.011 52.6235 302.706 50.3858 302.474 48.0709L302.32 46.0648C302.243 45.4475 302.397 44.9074 302.783 44.4444C303.169 43.9815 303.709 43.6729 304.326 43.5957C304.944 43.5185 305.484 43.75 305.947 44.1358C306.41 44.5216 306.718 45.0617 306.718 45.679L306.95 47.6851C307.336 51.6975 310.422 54.861 314.357 55.4012C318.524 55.9413 322.536 57.1759 326.317 59.0278C329.943 60.8024 334.264 59.8765 336.811 56.713L337.505 55.8641L338.045 55.1697C338.431 54.7068 338.971 54.3981 339.589 54.3981C340.206 54.321 340.746 54.4753 341.209 54.8611C342.135 55.6327 342.289 57.0216 341.518 58.0246L340.283 59.5678C337.737 62.7314 337.582 67.1296 340.051 70.2931C342.598 73.611 344.527 77.3147 345.916 81.327C347.227 85.1079 350.931 87.4998 354.943 87.114L356.95 86.8826C358.184 86.7283 359.264 87.6542 359.419 88.8887C359.496 89.506 359.342 90.0461 358.956 90.5091C358.57 90.9721 358.03 91.2807 357.413 91.3578L355.406 91.5894C353.092 91.8208 350.931 92.9782 349.542 94.7529C348.539 95.9875 347.922 97.4535 347.69 98.9967C347.15 103.163 345.916 107.176 344.064 110.957C342.289 114.583 343.215 118.904 346.379 121.45L347.613 122.453C348.539 123.225 348.693 124.614 347.922 125.617C347.15 126.543 345.761 126.697 344.758 125.926L343.292 124.691C340.129 122.145 335.73 121.99 332.567 124.46C329.249 127.006 325.545 129.012 321.533 130.324C319.99 130.864 318.678 131.79 317.675 133.024C316.209 134.799 315.514 137.037 315.746 139.352L315.977 141.358C316.055 141.975 315.9 142.515 315.514 142.978C315.129 143.441 314.589 143.75 313.971 143.827C313.354 143.904 312.814 143.673 312.351 143.364C311.888 142.978 311.579 142.438 311.579 141.821L311.425 139.815C311.039 135.802 307.953 132.639 304.018 132.098C299.851 131.558 295.839 130.324 292.058 128.472C288.431 126.697 284.11 127.623 281.564 130.787L280.87 131.636L280.329 132.33C279.558 133.256 278.169 133.41 277.166 132.639C276.24 131.867 276.086 130.478 276.857 129.475L278.092 127.932C280.638 124.768 280.792 120.37 278.323 117.207C275.777 113.889 273.848 110.185 272.459 106.173C271.147 102.392 267.444 99.9998 263.431 100.386L261.425 100.617C260.808 100.694 260.268 100.463 259.805 100.077C259.342 99.6912 259.033 99.151 259.033 98.5338C258.956 97.9165 259.11 97.3764 259.496 96.9134C259.882 96.4505 260.422 96.1418 261.039 96.1418L263.046 95.9103C265.36 95.6788 267.521 94.5214 268.91 92.7467C269.913 91.5122 270.53 90.0461 270.762 88.5029C271.302 84.3363 272.536 80.3239 274.388 76.5431C276.163 72.9166 275.237 68.5956 272.073 66.0493L270.607 64.8148C269.681 64.0432 269.527 62.6542 270.299 61.6511L267.829 59.645C265.9 61.9598 266.286 65.3549 268.601 67.2839L270.067 68.5184C271.996 70.1388 272.691 72.8394 271.533 75.077C269.527 79.1665 268.215 83.5647 267.598 88.04C267.444 89.0431 267.058 89.969 266.441 90.6635C265.515 91.7437 264.203 92.5153 262.737 92.6696L260.731 92.901C259.188 93.0554 257.953 93.827 257.027 94.9073C256.178 95.9875 255.715 97.3764 255.792 98.9196C256.101 101.929 258.725 104.089 261.734 103.781L263.74 103.549C266.209 103.318 268.601 104.784 269.373 107.176C270.839 111.419 272.922 115.432 275.7 119.058C277.243 121.065 277.089 123.842 275.545 125.771L274.311 127.315C273.385 128.472 272.999 129.938 273.076 131.327C273.231 132.716 273.925 134.028 275.083 135.031Z" fill="#FDF2E9" fill-opacity="0.5"/>
</g>
<g opacity="0.7">
<path d="M253.4 494.134C249.388 502.236 243.524 512.421 234.805 516.048L217.752 516.048L200.7 516.048C191.904 512.421 186.117 502.236 182.104 494.134C172.999 475.847 170.144 448.841 181.101 430.323C186.502 421.218 196.456 415.662 207.027 415.662L217.752 415.662L228.478 415.662C239.126 415.662 249.002 421.141 254.403 430.323C265.283 448.841 262.505 475.847 253.4 494.134Z" fill="#FDF2E9" fill-opacity="0.5"/>
<path d="M229.789 529.937L205.715 529.937C202.937 529.937 200.7 527.699 200.7 524.921L200.7 516.125L234.882 516.125L234.882 524.921C234.805 527.622 232.567 529.937 229.789 529.937Z" fill="#F1B47F" fill-opacity="0.5"/>
<path d="M210.885 541.974L224.542 541.974L224.542 529.86L210.885 529.86L210.885 541.974Z" fill="#FDF2E9" fill-opacity="0.5"/>
<path d="M228.632 557.715L228.632 544.057C228.632 542.977 227.706 542.051 226.626 542.051L210.422 542.051C209.342 542.051 208.416 542.977 208.416 544.057C208.416 547.838 205.329 550.924 201.549 550.924L190.206 550.924C189.126 550.924 188.2 551.85 188.2 552.931L188.2 557.792C188.2 558.872 189.126 559.798 190.206 559.798L226.626 559.798C227.706 559.721 228.632 558.795 228.632 557.715Z" fill="#F1B47F" fill-opacity="0.5"/>
<path d="M254.404 430.323C249.002 421.218 239.049 415.662 228.478 415.662L217.752 415.662L207.027 415.662C196.379 415.662 186.503 421.141 181.101 430.323C170.145 448.764 172.999 475.847 182.027 494.134C186.04 502.236 191.904 512.421 200.623 516.048C200.623 516.048 202.629 516.048 205.252 516.048C210.345 516.048 217.752 516.048 217.752 516.048C217.752 516.048 225.16 516.048 230.252 516.048C232.876 516.048 234.882 516.048 234.882 516.048C243.678 512.421 249.465 502.236 253.478 494.134C262.505 475.847 265.283 448.841 254.404 430.323ZM257.799 462.19C257.336 472.761 254.635 483.563 250.16 492.514C246.379 500.076 241.209 509.103 234.033 512.421C233.262 512.421 231.873 512.421 230.175 512.421L217.675 512.421L205.175 512.421C203.555 512.421 202.166 512.421 201.317 512.421C194.141 509.026 188.972 500.076 185.191 492.514C180.716 483.563 178.015 472.761 177.552 462.19C177.089 450.616 179.327 440.276 184.111 432.252C188.817 424.304 197.536 419.366 206.95 419.366L217.675 419.366L228.401 419.366C237.737 419.366 246.533 424.304 251.24 432.252C256.024 440.199 258.262 450.539 257.799 462.19Z" fill="#FDF2E9" fill-opacity="0.5"/>
<path d="M239.975 472.452L225.237 472.452L225.237 487.267L210.268 487.267L210.268 472.452L195.453 472.452L195.453 457.483L210.268 457.483L210.268 442.746L225.237 442.746L225.237 457.483L239.975 457.483L239.975 472.452Z" fill="#F1B47F" fill-opacity="0.5"/>
</g>
</g>
</g>
</svg>
