<svg width="390" height="617" viewBox="0 0 390 617" fill="none" xmlns="http://www.w3.org/2000/svg">
<mask id="mask0_456_475" style="mask-type:alpha" maskUnits="userSpaceOnUse" x="0" y="0" width="390" height="617">
<rect width="390" height="617" fill="#D9D9D9"/>
</mask>
<g mask="url(#mask0_456_475)">
<path d="M280.701 294.108C280.701 294.8 281.829 294.8 281.829 294.108C281.829 293.415 280.701 293.346 280.701 294.108Z" fill="#6DCAFF"/>
<path d="M232.847 331.369C232.847 332.061 233.975 332.061 233.975 331.369C233.975 330.676 232.847 330.676 232.847 331.369Z" fill="#6DCAFF"/>
<path d="M186.402 412.886C186.402 413.579 187.53 413.579 187.53 412.886C187.53 412.194 186.402 412.194 186.402 412.886Z" fill="#6DCAFF"/>
<path d="M227.631 531.181C227.631 531.873 228.759 531.873 228.759 531.181C228.759 530.488 227.631 530.488 227.631 531.181Z" fill="#6DCAFF"/>
<path d="M153.911 266.612C153.911 267.304 155.039 267.304 155.039 266.612C155.039 265.919 153.911 265.919 153.911 266.612Z" fill="#6DCAFF"/>
<path d="M214.382 142.916C214.382 143.608 215.509 143.608 215.509 142.916C215.439 142.223 214.382 142.223 214.382 142.916Z" fill="#6DCAFF"/>
<path d="M154.616 102.399C154.616 103.092 155.744 103.092 155.744 102.399C155.744 101.706 154.616 101.706 154.616 102.399Z" fill="#6DCAFF"/>
<path d="M302.549 94.0191C302.549 94.7117 303.677 94.7117 303.677 94.0191C303.606 93.3265 302.549 93.3265 302.549 94.0191Z" fill="#6DCAFF"/>
<path d="M329.542 394.463C329.542 395.156 330.669 395.156 330.669 394.463C330.669 393.771 329.542 393.771 329.542 394.463Z" fill="#6DCAFF"/>
<path d="M292.541 422.444C292.541 423.137 293.669 423.137 293.669 422.444C293.669 421.751 292.541 421.751 292.541 422.444Z" fill="#6DCAFF"/>
<path d="M323.128 459.428C323.128 460.121 324.256 460.121 324.256 459.428C324.256 458.736 323.128 458.736 323.128 459.428Z" fill="#6DCAFF"/>
<path d="M306.073 479.721C306.073 480.414 307.201 480.414 307.201 479.721C307.201 479.029 306.073 479.029 306.073 479.721Z" fill="#6DCAFF"/>
<path d="M345.893 609.72C345.893 610.412 347.021 610.412 347.021 609.72C347.021 608.958 345.893 608.958 345.893 609.72Z" fill="#6DCAFF"/>
<path d="M151.797 598.5C151.797 599.193 152.925 599.193 152.925 598.5C152.925 597.808 151.797 597.808 151.797 598.5Z" fill="#6DCAFF"/>
<path d="M99.8553 481.106C99.8553 481.799 100.983 481.799 100.983 481.106C100.983 480.414 99.8553 480.414 99.8553 481.106Z" fill="#6DCAFF"/>
<path d="M62.9251 460.19C62.9251 460.883 64.0527 460.883 64.0527 460.19C63.9823 459.428 62.9251 459.428 62.9251 460.19Z" fill="#6DCAFF"/>
<path d="M72.8626 313.431C72.8626 314.123 73.9902 314.123 73.9902 313.431C73.9902 312.738 72.8626 312.738 72.8626 313.431Z" fill="#6DCAFF"/>
<path d="M129.033 217.715C129.033 218.408 130.161 218.408 130.161 217.715C130.161 216.953 129.033 216.953 129.033 217.715Z" fill="#6DCAFF"/>
<path d="M249.902 249.851C249.902 250.544 251.03 250.544 251.03 249.851C251.03 249.159 249.902 249.159 249.902 249.851Z" fill="#6DCAFF"/>
<path d="M222.909 76.5655C222.909 77.2581 224.037 77.2581 224.037 76.5655C223.967 75.8037 222.909 75.8037 222.909 76.5655Z" fill="#6DCAFF"/>
<path d="M273.371 34.5948C273.371 35.2874 274.499 35.2874 274.499 34.5948C274.499 33.9022 273.371 33.9022 273.371 34.5948Z" fill="#6DCAFF"/>
<path d="M332.361 38.127C332.361 38.8196 333.489 38.8196 333.489 38.127C333.489 37.4345 332.361 37.3652 332.361 38.127Z" fill="#6DCAFF"/>
<path d="M369.362 131.765C369.362 132.458 370.49 132.458 370.49 131.765C370.49 131.003 369.362 131.003 369.362 131.765Z" fill="#6DCAFF"/>
<path d="M333.066 99.629C333.066 100.322 334.193 100.322 334.193 99.629C334.193 98.8671 333.066 98.8671 333.066 99.629Z" fill="#6DCAFF"/>
<path d="M317.42 110.779C317.42 111.472 318.547 111.472 318.547 110.779C318.547 110.087 317.42 110.087 317.42 110.779Z" fill="#6DCAFF"/>
<path d="M298.25 101.707C298.25 102.399 299.377 102.399 299.377 101.707C299.377 101.014 298.25 101.014 298.25 101.707Z" fill="#6DCAFF"/>
<path d="M308.892 86.3311C308.892 87.0237 310.02 87.0237 310.02 86.3311C310.02 85.6386 308.892 85.6386 308.892 86.3311Z" fill="#6DCAFF"/>
<path d="M274.076 82.7989C274.076 83.4915 275.204 83.4915 275.204 82.7989C275.204 82.1063 274.076 82.1063 274.076 82.7989Z" fill="#6DCAFF"/>
<path d="M279.785 109.394C279.785 110.087 280.913 110.087 280.913 109.394C280.913 108.702 279.785 108.702 279.785 109.394Z" fill="#6DCAFF"/>
<path d="M114.092 29.7467C114.092 30.4393 115.219 30.4393 115.219 29.7467C115.219 28.9848 114.092 28.9848 114.092 29.7467Z" fill="#6DCAFF"/>
<path d="M104.155 80.0284C104.155 80.721 105.282 80.721 105.282 80.0284C105.282 79.3358 104.155 79.3358 104.155 80.0284Z" fill="#6DCAFF"/>
<path d="M136.856 66.731C136.856 67.4236 137.983 67.4236 137.983 66.731C137.983 66.0385 136.856 66.0385 136.856 66.731Z" fill="#6DCAFF"/>
<path d="M111.273 183.432C111.273 184.125 112.4 184.125 112.4 183.432C112.33 182.739 111.273 182.739 111.273 183.432Z" fill="#6DCAFF"/>
<path d="M68.5633 207.88C68.5633 208.573 69.6909 208.573 69.6909 207.88C69.6909 207.188 68.5633 207.188 68.5633 207.88Z" fill="#6DCAFF"/>
<path d="M73.5672 305.743C73.5672 306.436 74.6948 306.436 74.6948 305.743C74.6948 305.05 73.5672 305.05 73.5672 305.743Z" fill="#6DCAFF"/>
<path d="M92.7371 354.64C92.7371 355.332 93.8647 355.332 93.8647 354.64C93.8647 353.947 92.7371 353.947 92.7371 354.64Z" fill="#6DCAFF"/>
<path d="M73.8489 513.866C73.8489 514.558 74.9766 514.558 74.9766 513.866C74.9766 513.173 73.8489 513.173 73.8489 513.866Z" fill="#6DCAFF"/>
<path d="M109.793 397.996C109.793 398.688 110.92 398.688 110.92 397.996C110.92 397.234 109.793 397.234 109.793 397.996Z" fill="#6DCAFF"/>
<path d="M215.086 346.259C215.086 346.952 216.214 346.952 216.214 346.259C216.143 345.567 215.086 345.567 215.086 346.259Z" fill="#6DCAFF"/>
<path d="M252.721 396.541C252.721 397.234 253.849 397.234 253.849 396.541C253.849 395.849 252.721 395.849 252.721 396.541Z" fill="#6DCAFF"/>
<path d="M326.018 344.182C326.018 344.874 327.146 344.874 327.146 344.182C327.075 343.489 326.018 343.489 326.018 344.182Z" fill="#6DCAFF"/>
<path d="M351.601 274.992C351.601 275.685 352.729 275.685 352.729 274.992C352.729 274.299 351.601 274.299 351.601 274.992Z" fill="#6DCAFF"/>
<path d="M314.601 223.256C314.601 223.948 315.729 223.948 315.729 223.256C315.729 222.563 314.601 222.563 314.601 223.256Z" fill="#6DCAFF"/>
<path d="M268.367 218.408C268.367 219.1 269.495 219.1 269.495 218.408C269.495 217.715 268.367 217.646 268.367 218.408Z" fill="#6DCAFF"/>
<path d="M291.132 198.115C291.132 198.807 292.259 198.807 292.259 198.115C292.259 197.422 291.132 197.422 291.132 198.115Z" fill="#6DCAFF"/>
<path d="M289.017 589.427C289.017 590.12 290.145 590.12 290.145 589.427C290.145 588.735 289.017 588.735 289.017 589.427Z" fill="#6DCAFF"/>
<path d="M242.784 599.193C242.784 599.885 243.912 599.885 243.912 599.193C243.912 598.5 242.784 598.5 242.784 599.193Z" fill="#6DCAFF"/>
<path d="M200.145 567.749C200.145 568.442 201.272 568.442 201.272 567.749C201.272 567.057 200.145 567.057 200.145 567.749Z" fill="#6DCAFF"/>
<path d="M207.263 499.321C207.263 500.014 208.391 500.014 208.391 499.321C208.391 498.56 207.263 498.56 207.263 499.321Z" fill="#6DCAFF"/>
<path d="M258.43 488.794C258.43 489.487 259.558 489.487 259.558 488.794C259.558 488.101 258.43 488.101 258.43 488.794Z" fill="#6DCAFF"/>
<path d="M300.364 535.613C300.364 536.306 301.492 536.306 301.492 535.613C301.492 534.921 300.364 534.921 300.364 535.613Z" fill="#6DCAFF"/>
<path d="M333.841 550.989C333.841 551.681 334.969 551.681 334.969 550.989C334.898 550.296 333.841 550.296 333.841 550.989Z" fill="#6DCAFF"/>
<path d="M77.7957 608.266C77.7957 608.958 78.9233 608.958 78.9233 608.266C78.9233 607.573 77.7957 607.573 77.7957 608.266Z" fill="#6DCAFF"/>
<path d="M138.97 517.467C138.97 518.16 140.098 518.16 140.098 517.467C140.098 516.775 138.97 516.775 138.97 517.467Z" fill="#6DCAFF"/>
<path d="M176.676 455.965C176.676 456.658 177.804 456.658 177.804 455.965C177.804 455.273 176.676 455.273 176.676 455.965Z" fill="#6DCAFF"/>
<path d="M165.259 356.718C165.259 357.41 166.386 357.41 166.386 356.718C166.386 356.025 165.259 356.025 165.259 356.718Z" fill="#6DCAFF"/>
<path d="M199.44 314.816C199.44 315.509 200.568 315.509 200.568 314.816C200.568 314.123 199.44 314.123 199.44 314.816Z" fill="#6DCAFF"/>
<path d="M141.789 337.187C141.789 337.879 142.917 337.879 142.917 337.187C142.917 336.494 141.789 336.494 141.789 337.187Z" fill="#6DCAFF"/>
<path d="M173.081 339.957C173.081 340.649 174.209 340.649 174.209 339.957C174.209 339.264 173.081 339.264 173.081 339.957Z" fill="#6DCAFF"/>
<path d="M93.4417 287.597C93.4417 288.29 94.5693 288.29 94.5693 287.597C94.5693 286.835 93.4417 286.835 93.4417 287.597Z" fill="#6DCAFF"/>
<path d="M97.0364 318.279C97.0364 318.971 98.1641 318.971 98.1641 318.279C98.1641 317.586 97.0364 317.586 97.0364 318.279Z" fill="#6DCAFF"/>
<path d="M187.318 262.387C187.318 263.08 188.446 263.08 188.446 262.387C188.446 261.694 187.318 261.694 187.318 262.387Z" fill="#6DCAFF"/>
<path d="M188.023 226.788C188.023 227.481 189.15 227.481 189.15 226.788C189.15 226.095 188.023 226.095 188.023 226.788Z" fill="#6DCAFF"/>
<path d="M230.028 395.849C230.028 396.541 231.155 396.541 231.155 395.849C231.085 395.156 230.028 395.156 230.028 395.849Z" fill="#6DCAFF"/>
<path d="M284.013 361.635C284.013 362.327 285.141 362.327 285.141 361.635C285.141 360.942 284.013 360.942 284.013 361.635Z" fill="#6DCAFF"/>
<path d="M347.303 438.512C347.303 439.205 348.43 439.205 348.43 438.512C348.43 437.82 347.303 437.82 347.303 438.512Z" fill="#6DCAFF"/>
<path d="M257.725 466.423C257.725 467.116 258.853 467.116 258.853 466.423C258.853 465.731 257.725 465.731 257.725 466.423Z" fill="#6DCAFF"/>
<path d="M275.486 567.056C275.486 567.749 276.613 567.749 276.613 567.056C276.613 566.364 275.486 566.364 275.486 567.056Z" fill="#6DCAFF"/>
<path d="M362.244 595.73C362.244 596.422 363.372 596.422 363.372 595.73C363.372 595.037 362.244 595.037 362.244 595.73Z" fill="#6DCAFF"/>
<path d="M218.963 428.4C218.963 429.093 220.09 429.093 220.09 428.4C220.09 427.638 218.963 427.638 218.963 428.4Z" fill="#6DCAFF"/>
<path d="M209.73 422.098C209.73 422.79 210.858 422.79 210.858 422.098C210.858 421.405 209.73 421.336 209.73 422.098Z" fill="#6DCAFF"/>
<path d="M219.315 424.868C219.315 425.561 220.443 425.561 220.443 424.868C220.443 424.176 219.315 424.176 219.315 424.868Z" fill="#6DCAFF"/>
<path d="M210.435 411.57C210.435 412.263 211.562 412.263 211.563 411.57C211.563 410.878 210.435 410.878 210.435 411.57Z" fill="#6DCAFF"/>
<path d="M196.903 397.996C196.903 398.688 198.031 398.688 198.031 397.996C198.031 397.234 196.903 397.234 196.903 397.996Z" fill="#6DCAFF"/>
<path d="M212.902 396.957C212.902 397.649 214.029 397.649 214.029 396.957C214.029 396.195 212.902 396.195 212.902 396.957Z" fill="#6DCAFF"/>
<path d="M201.907 412.263C201.907 412.956 203.035 412.956 203.035 412.263C203.035 411.571 201.907 411.571 201.907 412.263Z" fill="#6DCAFF"/>
<path d="M195.141 405.337C195.141 406.03 196.269 406.03 196.269 405.337C196.269 404.575 195.141 404.575 195.141 405.337Z" fill="#6DCAFF"/>
<path d="M202.26 402.844C202.26 403.537 203.387 403.537 203.387 402.844C203.387 402.151 202.26 402.151 202.26 402.844Z" fill="#6DCAFF"/>
<path d="M183.794 391.001C183.794 391.693 184.922 391.693 184.922 391.001C184.922 390.308 183.794 390.308 183.794 391.001Z" fill="#6DCAFF"/>
<path d="M169.557 371.747C169.557 372.439 170.685 372.439 170.685 371.747C170.685 371.054 169.557 371.054 169.557 371.747Z" fill="#6DCAFF"/>
<path d="M146.793 334.416C146.793 335.109 147.921 335.109 147.921 334.416C147.921 333.655 146.793 333.655 146.793 334.416Z" fill="#6DCAFF"/>
<path d="M157.788 340.65C157.788 341.342 158.916 341.342 158.916 340.65C158.916 339.957 157.788 339.957 157.788 340.65Z" fill="#6DCAFF"/>
<path d="M151.797 328.114C151.797 328.806 152.925 328.806 152.925 328.114C152.925 327.421 151.797 327.421 151.797 328.114Z" fill="#6DCAFF"/>
<path d="M141.79 321.465C141.79 322.158 142.917 322.158 142.917 321.465C142.917 320.772 141.79 320.772 141.79 321.465Z" fill="#6DCAFF"/>
<path d="M139.675 308.86C139.675 309.552 140.803 309.552 140.803 308.86C140.803 308.167 139.675 308.167 139.675 308.86Z" fill="#6DCAFF"/>
<path d="M132.909 305.743C132.909 306.436 134.037 306.436 134.037 305.743C134.037 305.05 132.909 305.05 132.909 305.743Z" fill="#6DCAFF"/>
<path d="M129.033 309.206C129.033 309.898 130.161 309.898 130.161 309.206C130.161 308.513 129.033 308.513 129.033 309.206Z" fill="#6DCAFF"/>
<path d="M133.262 313.431C133.262 314.123 134.39 314.123 134.39 313.431C134.39 312.738 133.262 312.738 133.262 313.431Z" fill="#6DCAFF"/>
<path d="M135.094 310.245C135.094 310.938 136.222 310.938 136.222 310.245C136.151 309.552 135.094 309.552 135.094 310.245Z" fill="#6DCAFF"/>
<path d="M122.619 299.441C122.619 300.133 123.747 300.133 123.747 299.441C123.747 298.748 122.619 298.748 122.619 299.441Z" fill="#6DCAFF"/>
<path d="M122.267 286.836C122.267 287.528 123.395 287.528 123.395 286.836C123.395 286.143 122.267 286.143 122.267 286.836Z" fill="#6DCAFF"/>
<path d="M111.977 280.602C111.977 281.295 113.105 281.295 113.105 280.602C113.105 279.84 111.977 279.84 111.977 280.602Z" fill="#6DCAFF"/>
<path d="M101.97 258.924C101.97 259.617 103.097 259.617 103.097 258.924C103.097 258.231 101.97 258.231 101.97 258.924Z" fill="#6DCAFF"/>
<path d="M79.6282 242.163C79.6282 242.856 80.7559 242.856 80.7559 242.163C80.7559 241.471 79.6282 241.471 79.6282 242.163Z" fill="#6DCAFF"/>
<path d="M86.3943 237.939C86.3943 238.631 87.522 238.631 87.522 237.939C87.4515 237.246 86.3943 237.246 86.3943 237.939Z" fill="#6DCAFF"/>
<path d="M80.3328 227.134C80.3328 227.827 81.4604 227.827 81.4604 227.134C81.4604 226.442 80.3328 226.442 80.3328 227.134Z" fill="#6DCAFF"/>
<path d="M65.744 231.636C65.744 232.329 66.8716 232.329 66.8716 231.636C66.8716 230.943 65.744 230.943 65.744 231.636Z" fill="#6DCAFF"/>
<path d="M84.9139 265.573C84.9139 266.265 86.0415 266.265 86.0415 265.573C86.0415 264.88 84.9139 264.88 84.9139 265.573Z" fill="#6DCAFF"/>
<path d="M118.391 262.041C118.391 262.733 119.519 262.733 119.519 262.041C119.448 261.348 118.391 261.348 118.391 262.041Z" fill="#6DCAFF"/>
<path d="M107.326 250.198C107.326 250.89 108.454 250.89 108.454 250.198C108.454 249.505 107.326 249.505 107.326 250.198Z" fill="#6DCAFF"/>
<path d="M113.034 271.114C113.034 271.806 114.162 271.806 114.162 271.114C114.162 270.421 113.034 270.421 113.034 271.114Z" fill="#6DCAFF"/>
<path d="M245.603 452.502C245.603 453.195 246.73 453.195 246.73 452.502C246.73 451.74 245.603 451.74 245.603 452.502Z" fill="#6DCAFF"/>
<path d="M257.725 431.517C257.725 432.21 258.853 432.21 258.853 431.517C258.853 430.825 257.725 430.825 257.725 431.517Z" fill="#6DCAFF"/>
<path d="M242.784 438.166C242.784 438.858 243.912 438.858 243.912 438.166C243.912 437.473 242.784 437.473 242.784 438.166Z" fill="#6DCAFF"/>
<path d="M225.728 448.624C225.728 449.316 226.856 449.316 226.856 448.624C226.856 447.931 225.728 447.931 225.728 448.624Z" fill="#6DCAFF"/>
<path d="M239.26 462.614C239.26 463.307 240.388 463.307 240.388 462.614C240.388 461.922 239.26 461.922 239.26 462.614Z" fill="#6DCAFF"/>
<path d="M237.428 449.316C237.428 450.009 238.555 450.009 238.555 449.316C238.555 448.624 237.428 448.624 237.428 449.316Z" fill="#6DCAFF"/>
<path d="M237.075 441.283C237.075 441.975 238.203 441.975 238.203 441.283C238.203 440.59 237.075 440.59 237.075 441.283Z" fill="#6DCAFF"/>
<path d="M286.551 444.815C286.551 445.507 287.678 445.507 287.678 444.815C287.608 444.053 286.551 444.053 286.551 444.815Z" fill="#6DCAFF"/>
<path d="M311.782 454.234C311.782 454.927 312.909 454.927 312.909 454.234C312.909 453.541 311.782 453.541 311.782 454.234Z" fill="#6DCAFF"/>
<path d="M300.012 479.375C300.012 480.067 301.139 480.067 301.139 479.375C301.139 478.682 300.012 478.682 300.012 479.375Z" fill="#6DCAFF"/>
<path d="M299.659 465.038C299.659 465.731 300.787 465.731 300.787 465.038C300.787 464.346 299.659 464.346 299.659 465.038Z" fill="#6DCAFF"/>
<path d="M279.432 479.375C279.432 480.067 280.56 480.067 280.56 479.375C280.56 478.682 279.432 478.682 279.432 479.375Z" fill="#6DCAFF"/>
<path d="M253.074 479.028C253.074 479.721 254.201 479.721 254.201 479.028C254.201 478.336 253.074 478.336 253.074 479.028Z" fill="#6DCAFF"/>
<path d="M253.849 497.174C253.849 497.867 254.977 497.867 254.977 497.174C254.906 496.482 253.849 496.482 253.849 497.174Z" fill="#6DCAFF"/>
<path d="M292.541 509.087C292.541 509.78 293.669 509.78 293.669 509.087C293.669 508.394 292.541 508.394 292.541 509.087Z" fill="#6DCAFF"/>
<path d="M306.778 497.521C306.778 498.213 307.905 498.213 307.905 497.521C307.905 496.828 306.778 496.828 306.778 497.521Z" fill="#6DCAFF"/>
<path d="M287.256 494.75C287.256 495.443 288.383 495.443 288.383 494.75C288.383 494.058 287.256 494.058 287.256 494.75Z" fill="#6DCAFF"/>
<path d="M290.779 483.6C290.779 484.292 291.907 484.292 291.907 483.6C291.907 482.838 290.779 482.838 290.779 483.6Z" fill="#6DCAFF"/>
<path d="M305.368 492.672C305.368 493.365 306.496 493.365 306.496 492.672C306.496 491.98 305.368 491.98 305.368 492.672Z" fill="#6DCAFF"/>
<path d="M287.96 472.033C287.96 472.726 289.088 472.726 289.088 472.033C289.088 471.341 287.96 471.341 287.96 472.033Z" fill="#6DCAFF"/>
<path d="M267.31 477.643C267.31 478.336 268.438 478.336 268.438 477.643C268.438 476.951 267.31 476.951 267.31 477.643Z" fill="#6DCAFF"/>
<path d="M271.962 494.404C271.962 495.096 273.089 495.096 273.089 494.404C273.089 493.711 271.962 493.711 271.962 494.404Z" fill="#6DCAFF"/>
<path d="M270.552 474.111C270.552 474.804 271.68 474.804 271.68 474.111C271.609 473.419 270.552 473.419 270.552 474.111Z" fill="#6DCAFF"/>
<path d="M242.079 479.721C242.079 480.414 243.207 480.414 243.207 479.721C243.207 479.028 242.079 479.028 242.079 479.721Z" fill="#6DCAFF"/>
<path d="M229.252 474.111C229.252 474.804 230.38 474.804 230.38 474.111C230.38 473.419 229.252 473.419 229.252 474.111Z" fill="#6DCAFF"/>
<path d="M229.252 461.229C229.252 461.922 230.38 461.922 230.38 461.229C230.38 460.537 229.252 460.467 229.252 461.229Z" fill="#6DCAFF"/>
<path d="M212.549 456.658C212.549 457.35 213.677 457.35 213.677 456.658C213.677 455.965 212.549 455.965 212.549 456.658Z" fill="#6DCAFF"/>
<path d="M211.492 439.551C211.492 440.244 212.62 440.244 212.62 439.551C212.62 438.859 211.492 438.859 211.492 439.551Z" fill="#6DCAFF"/>
<path d="M217.906 437.127C217.906 437.82 219.033 437.82 219.033 437.127C219.033 436.365 217.906 436.365 217.906 437.127Z" fill="#6DCAFF"/>
<path d="M259.84 401.805C259.84 402.498 260.967 402.498 260.967 401.805C260.967 401.112 259.84 401.112 259.84 401.805Z" fill="#6DCAFF"/>
<path d="M244.194 406.03C244.194 406.722 245.321 406.722 245.321 406.03C245.321 405.268 244.194 405.268 244.194 406.03Z" fill="#6DCAFF"/>
<path d="M243.841 392.732C243.841 393.425 244.969 393.425 244.969 392.732C244.969 392.039 243.841 392.039 243.841 392.732Z" fill="#6DCAFF"/>
<path d="M241.022 379.781C241.022 380.473 242.15 380.473 242.15 379.781C242.15 379.088 241.022 379.088 241.022 379.781Z" fill="#6DCAFF"/>
<path d="M214.029 389.615C214.029 390.308 215.157 390.308 215.157 389.615C215.086 388.853 214.029 388.853 214.029 389.615Z" fill="#6DCAFF"/>
<path d="M206.558 381.166C206.558 381.858 207.686 381.858 207.686 381.166C207.616 380.473 206.558 380.473 206.558 381.166Z" fill="#6DCAFF"/>
<path d="M214.029 370.708C214.029 371.4 215.157 371.4 215.157 370.708C215.086 370.015 214.029 370.015 214.029 370.708Z" fill="#6DCAFF"/>
<path d="M226.433 379.434C226.433 380.127 227.561 380.127 227.561 379.434C227.561 378.742 226.433 378.742 226.433 379.434Z" fill="#6DCAFF"/>
<path d="M187.318 412.263C187.318 412.956 188.446 412.956 188.446 412.263C188.446 411.571 187.318 411.571 187.318 412.263Z" fill="#6DCAFF"/>
<path d="M188.728 400.42C188.728 401.112 189.855 401.112 189.855 400.42C189.855 399.727 188.728 399.727 188.728 400.42Z" fill="#6DCAFF"/>
<path d="M180.905 423.829C180.905 424.522 182.032 424.522 182.032 423.829C182.032 423.137 180.905 423.137 180.905 423.829Z" fill="#6DCAFF"/>
<path d="M200.497 429.093C200.497 429.785 201.625 429.785 201.625 429.093C201.625 428.331 200.497 428.331 200.497 429.093Z" fill="#6DCAFF"/>
<path d="M197.608 463.999C197.608 464.692 198.735 464.692 198.735 463.999C198.735 463.307 197.608 463.307 197.608 463.999Z" fill="#6DCAFF"/>
<path d="M170.615 421.059C170.615 421.752 171.742 421.752 171.742 421.059C171.742 420.297 170.615 420.297 170.615 421.059Z" fill="#6DCAFF"/>
<path d="M163.144 402.498C163.144 403.19 164.272 403.19 164.272 402.498C164.272 401.805 163.144 401.805 163.144 402.498Z" fill="#6DCAFF"/>
<path d="M149.613 404.229C149.613 404.922 150.74 404.922 150.74 404.229C150.74 403.537 149.613 403.537 149.613 404.229Z" fill="#6DCAFF"/>
<path d="M149.26 418.566C149.26 419.258 150.388 419.258 150.388 418.566C150.388 417.873 149.26 417.873 149.26 418.566Z" fill="#6DCAFF"/>
<path d="M185.556 441.975C185.556 442.668 186.684 442.668 186.684 441.975C186.684 441.283 185.556 441.283 185.556 441.975Z" fill="#6DCAFF"/>
<path d="M202.048 604.803C202.048 605.495 203.176 605.495 203.176 604.803C203.176 604.11 202.048 604.11 202.048 604.803Z" fill="#6DCAFF"/>
<path d="M218.117 586.657C218.117 587.349 219.245 587.349 219.245 586.657C219.245 585.964 218.117 585.964 218.117 586.657Z" fill="#6DCAFF"/>
<path d="M193.943 606.672C193.943 607.365 195.071 607.365 195.071 606.672C195.071 605.98 193.943 605.98 193.943 606.672Z" fill="#6DCAFF"/>
<path d="M202.048 611.313C202.048 612.005 203.176 612.005 203.176 611.313C203.176 610.62 202.048 610.62 202.048 611.313Z" fill="#6DCAFF"/>
<path d="M145.595 581.947C145.595 582.64 146.723 582.64 146.723 581.947C146.723 581.255 145.595 581.255 145.595 581.947Z" fill="#6DCAFF"/>
<path d="M135.164 546.14C135.164 546.833 136.292 546.833 136.292 546.14C136.292 545.379 135.164 545.379 135.164 546.14Z" fill="#6DCAFF"/>
<path d="M116.7 551.266C116.7 551.958 117.827 551.958 117.827 551.266C117.827 550.504 116.7 550.504 116.7 551.266Z" fill="#6DCAFF"/>
<path d="M110.075 538.66C110.075 539.353 111.202 539.353 111.202 538.66C111.202 537.968 110.075 537.968 110.075 538.66Z" fill="#6DCAFF"/>
<path d="M94.4285 545.656C94.4285 546.348 95.5562 546.348 95.5562 545.656C95.5562 544.963 94.4285 544.963 94.4285 545.656Z" fill="#6DCAFF"/>
<path d="M85.407 544.686C85.407 545.379 86.5347 545.379 86.5347 544.686C86.5347 543.994 85.407 543.994 85.407 544.686Z" fill="#6DCAFF"/>
<path d="M119.518 581.947C119.518 582.64 120.646 582.64 120.646 581.947C120.646 581.255 119.518 581.255 119.518 581.947Z" fill="#6DCAFF"/>
<path d="M162.228 566.572C162.228 567.264 163.356 567.264 163.356 566.572C163.356 565.879 162.228 565.879 162.228 566.572Z" fill="#6DCAFF"/>
<path d="M188.304 538.66C188.304 539.353 189.432 539.353 189.432 538.66C189.362 537.968 188.304 537.968 188.304 538.66Z" fill="#6DCAFF"/>
<path d="M171.179 519.545C171.179 520.238 172.306 520.238 172.306 519.545C172.306 518.852 171.179 518.852 171.179 519.545Z" fill="#6DCAFF"/>
<path d="M168.36 530.765C168.36 531.458 169.487 531.458 169.487 530.765C169.487 530.003 168.36 530.003 168.36 530.765Z" fill="#6DCAFF"/>
<path d="M141.366 488.794C141.366 489.487 142.494 489.487 142.494 488.794C142.494 488.101 141.366 488.101 141.366 488.794Z" fill="#6DCAFF"/>
<path d="M145.595 471.549C145.595 472.241 146.723 472.241 146.723 471.549C146.723 470.856 145.595 470.856 145.595 471.549Z" fill="#6DCAFF"/>
<path d="M141.366 438.997C141.366 439.69 142.494 439.69 142.494 438.997C142.494 438.235 141.366 438.235 141.366 438.997Z" fill="#6DCAFF"/>
<path d="M122.831 446.892C122.831 447.585 123.958 447.585 123.958 446.892C123.958 446.2 122.831 446.2 122.831 446.892Z" fill="#6DCAFF"/>
<path d="M129.033 426.877C129.033 427.569 130.161 427.569 130.161 426.877C130.161 426.115 129.033 426.115 129.033 426.877Z" fill="#6DCAFF"/>
<path d="M142.776 388.646C142.776 389.338 143.904 389.338 143.904 388.646C143.904 387.953 142.776 387.953 142.776 388.646Z" fill="#6DCAFF"/>
<path d="M109.581 422.167C109.581 422.859 110.709 422.859 110.709 422.167C110.709 421.474 109.581 421.474 109.581 422.167Z" fill="#6DCAFF"/>
<path d="M105.775 440.382C105.775 441.075 106.903 441.075 106.903 440.382C106.903 439.69 105.775 439.62 105.775 440.382Z" fill="#6DCAFF"/>
<path d="M105.775 473.903C105.775 474.596 106.903 474.596 106.903 473.903C106.903 473.211 105.775 473.211 105.775 473.903Z" fill="#6DCAFF"/>
<path d="M80.1922 446.892C80.1922 447.585 81.3198 447.585 81.3198 446.892C81.3198 446.2 80.1922 446.2 80.1922 446.892Z" fill="#6DCAFF"/>
<path d="M64.5462 482.284C64.5462 482.976 65.6738 482.976 65.6738 482.284C65.6738 481.591 64.5462 481.591 64.5462 482.284Z" fill="#6DCAFF"/>
<path d="M90.1292 514.905C90.1292 515.597 91.2568 515.597 91.2568 514.905C91.2568 514.212 90.1292 514.212 90.1292 514.905Z" fill="#6DCAFF"/>
<path d="M116.7 508.394C116.7 509.087 117.827 509.087 117.827 508.394C117.827 507.702 116.7 507.702 116.7 508.394Z" fill="#6DCAFF"/>
<path d="M151.797 241.471C151.797 242.163 152.925 242.163 152.925 241.471C152.925 240.709 151.797 240.709 151.797 241.471Z" fill="#6DCAFF"/>
<path d="M136.856 247.704C136.856 248.397 137.983 248.397 137.983 247.704C137.983 247.012 136.856 247.012 136.856 247.704Z" fill="#6DCAFF"/>
<path d="M157.436 216.261C157.436 216.953 158.563 216.953 158.563 216.261C158.563 215.568 157.436 215.568 157.436 216.261Z" fill="#6DCAFF"/>
<path d="M124.029 229.558C124.029 230.251 125.157 230.251 125.157 229.558C125.157 228.866 124.029 228.866 124.029 229.558Z" fill="#6DCAFF"/>
<path d="M161.03 277.763C161.03 278.455 162.157 278.455 162.157 277.763C162.157 277.07 161.03 277.07 161.03 277.763Z" fill="#6DCAFF"/>
<path d="M185.909 298.055C185.909 298.748 187.036 298.748 187.036 298.055C187.036 297.363 185.909 297.363 185.909 298.055Z" fill="#6DCAFF"/>
<path d="M197.256 179.969C197.256 180.662 198.383 180.662 198.383 179.969C198.383 179.276 197.256 179.276 197.256 179.969Z" fill="#6DCAFF"/>
<path d="M125.439 147.14C125.439 147.833 126.566 147.833 126.566 147.14C126.566 146.378 125.439 146.378 125.439 147.14Z" fill="#6DCAFF"/>
<path d="M170.262 149.218C170.262 149.911 171.39 149.911 171.39 149.218C171.39 148.526 170.262 148.526 170.262 149.218Z" fill="#6DCAFF"/>
<path d="M179.495 166.671C179.495 167.364 180.623 167.364 180.623 166.671C180.623 165.979 179.495 165.979 179.495 166.671Z" fill="#6DCAFF"/>
<path d="M224.319 158.291C224.319 158.984 225.446 158.984 225.446 158.291C225.446 157.599 224.319 157.599 224.319 158.291Z" fill="#6DCAFF"/>
<path d="M206.558 128.925C206.558 129.618 207.686 129.618 207.686 128.925C207.616 128.233 206.558 128.233 206.558 128.925Z" fill="#6DCAFF"/>
<path d="M197.256 138.76C197.256 139.453 198.383 139.453 198.383 138.76C198.383 137.998 197.256 137.998 197.256 138.76Z" fill="#6DCAFF"/>
<path d="M217.2 156.213C217.2 156.906 218.328 156.906 218.328 156.213C218.328 155.521 217.2 155.521 217.2 156.213Z" fill="#6DCAFF"/>
<path d="M249.198 170.896C249.198 171.589 250.325 171.589 250.325 170.896C250.325 170.134 249.198 170.134 249.198 170.896Z" fill="#6DCAFF"/>
<path d="M229.252 117.775C229.252 118.467 230.38 118.467 230.38 117.775C230.38 117.082 229.252 117.082 229.252 117.775Z" fill="#6DCAFF"/>
<path d="M259.135 126.155C259.135 126.847 260.263 126.847 260.263 126.155C260.263 125.462 259.135 125.462 259.135 126.155Z" fill="#6DCAFF"/>
<path d="M257.02 91.941C257.02 92.6336 258.148 92.6336 258.148 91.941C258.148 91.1792 257.02 91.1792 257.02 91.941Z" fill="#6DCAFF"/>
<path d="M227.138 68.878C227.138 69.5706 228.266 69.5706 228.266 68.878C228.266 68.1162 227.138 68.1162 227.138 68.878Z" fill="#6DCAFF"/>
<path d="M330.247 0.519621C330.247 1.21221 331.375 1.21221 331.375 0.519621C331.375 -0.172967 330.247 -0.172967 330.247 0.519621Z" fill="#6DCAFF"/>
<path d="M266.958 50.6632C266.958 51.3558 268.085 51.3558 268.085 50.6632C268.085 49.9706 266.958 49.9706 266.958 50.6632Z" fill="#6DCAFF"/>
<path d="M228.548 286.143C228.548 286.836 229.675 286.836 229.675 286.143C229.675 285.45 228.548 285.45 228.548 286.143Z" fill="#6DCAFF"/>
<path d="M227.138 217.023C227.138 217.715 228.266 217.715 228.266 217.023C228.266 216.261 227.138 216.261 227.138 217.023Z" fill="#6DCAFF"/>
<path d="M219.315 231.636C219.315 232.329 220.443 232.329 220.443 231.636C220.443 230.943 219.315 230.943 219.315 231.636Z" fill="#6DCAFF"/>
<path d="M359.425 80.7213C359.425 81.4139 360.552 81.4139 360.552 80.7213C360.552 80.0287 359.425 80.0287 359.425 80.7213Z" fill="#6DCAFF"/>
<path d="M370.067 24.8292C370.067 25.5218 371.194 25.5218 371.194 24.8292C371.194 24.1366 370.067 24.1366 370.067 24.8292Z" fill="#6DCAFF"/>
<path d="M336.66 23.4439C336.66 24.1365 337.788 24.1365 337.788 23.4439C337.788 22.7513 336.66 22.7513 336.66 23.4439Z" fill="#6DCAFF"/>
<path d="M265.196 6.96054C265.196 7.65313 266.324 7.65313 266.324 6.96054C266.324 6.26795 265.196 6.26795 265.196 6.96054Z" fill="#6DCAFF"/>
<path d="M332.361 14.3712C332.361 15.0638 333.489 15.0638 333.489 14.3712C333.489 13.6093 332.361 13.6093 332.361 14.3712Z" fill="#6DCAFF"/>
<path d="M353.716 11.1851C353.716 11.8777 354.844 11.8777 354.844 11.1851C354.844 10.4233 353.716 10.4233 353.716 11.1851Z" fill="#6DCAFF"/>
<path d="M349.487 66.7306C349.487 67.4231 350.615 67.4231 350.615 66.7306C350.544 66.038 349.487 66.038 349.487 66.7306Z" fill="#6DCAFF"/>
<path d="M354.421 37.4342C354.421 38.1268 355.548 38.1268 355.548 37.4342C355.548 36.6723 354.421 36.6723 354.421 37.4342Z" fill="#6DCAFF"/>
<path d="M232.846 26.9073C232.846 27.5999 233.974 27.5999 233.974 26.9073C233.974 26.2147 232.846 26.2147 232.846 26.9073Z" fill="#6DCAFF"/>
<path d="M184.499 19.2193C184.499 19.9119 185.626 19.9119 185.626 19.2193C185.626 18.5267 184.499 18.5267 184.499 19.2193Z" fill="#6DCAFF"/>
<path d="M166.739 42.2828C166.739 42.9754 167.866 42.9754 167.866 42.2828C167.796 41.5902 166.739 41.5902 166.739 42.2828Z" fill="#6DCAFF"/>
<path d="M139.675 33.2096C139.675 33.9022 140.803 33.9022 140.803 33.2096C140.803 32.517 139.675 32.517 139.675 33.2096Z" fill="#6DCAFF"/>
<path d="M153.911 23.4444C153.911 24.137 155.039 24.137 155.039 23.4444C155.039 22.7518 153.911 22.7518 153.911 23.4444Z" fill="#6DCAFF"/>
<path d="M152.502 38.8194C152.502 39.512 153.629 39.512 153.629 38.8194C153.629 38.1268 152.502 38.1268 152.502 38.8194Z" fill="#6DCAFF"/>
<path d="M126.143 43.6676C126.143 44.3602 127.271 44.3602 127.271 43.6676C127.271 42.975 126.143 42.975 126.143 43.6676Z" fill="#6DCAFF"/>
<path d="M110.568 31.1319C110.568 31.8245 111.695 31.8245 111.695 31.1319C111.625 30.4393 110.568 30.4393 110.568 31.1319Z" fill="#6DCAFF"/>
<path d="M101.265 66.0382C101.265 66.7308 102.393 66.7308 102.393 66.0382C102.393 65.3456 101.265 65.3456 101.265 66.0382Z" fill="#6DCAFF"/>
<path d="M122.619 66.0382C122.619 66.7308 123.747 66.7308 123.747 66.0382C123.747 65.3456 122.619 65.3456 122.619 66.0382Z" fill="#6DCAFF"/>
<path d="M258.148 592.613C258.148 593.306 259.275 593.306 259.275 592.613C259.275 591.921 258.148 591.921 258.148 592.613Z" fill="#475293"/>
<path d="M219.667 525.086C219.667 525.778 220.795 525.778 220.795 525.086C220.795 524.393 219.667 524.393 219.667 525.086Z" fill="#475293"/>
<path d="M253.849 427.084C253.849 427.777 254.977 427.777 254.977 427.084C254.977 426.392 253.849 426.392 253.849 427.084Z" fill="#475293"/>
<path d="M283.52 320.357C283.52 321.049 284.647 321.049 284.647 320.357C284.577 319.664 283.52 319.664 283.52 320.357Z" fill="#475293"/>
<path d="M217.553 333.1C217.553 333.793 218.681 333.793 218.681 333.1C218.61 332.408 217.553 332.408 217.553 333.1Z" fill="#475293"/>
<path d="M338.281 540.323C338.281 541.015 339.409 541.015 339.409 540.323C339.409 539.63 338.281 539.63 338.281 540.323Z" fill="#475293"/>
<path d="M307.623 517.19C307.623 517.883 308.751 517.883 308.751 517.19C308.751 516.497 307.623 516.497 307.623 517.19Z" fill="#475293"/>
<path d="M332.995 486.508C332.995 487.201 334.123 487.201 334.123 486.508C334.053 485.816 332.995 485.816 332.995 486.508Z" fill="#475293"/>
<path d="M318.829 469.678C318.829 470.371 319.957 470.371 319.957 469.678C319.957 468.986 318.829 468.986 318.829 469.678Z" fill="#475293"/>
<path d="M351.813 362.05C351.813 362.743 352.94 362.743 352.94 362.05C352.94 361.358 351.813 361.358 351.813 362.05Z" fill="#475293"/>
<path d="M355.971 242.233C355.971 242.925 357.099 242.925 357.099 242.233C357.028 241.54 355.971 241.54 355.971 242.233Z" fill="#475293"/>
<path d="M222.204 237.592C222.204 238.285 223.332 238.285 223.332 237.592C223.332 236.9 222.204 236.9 222.204 237.592Z" fill="#475293"/>
<path d="M191.053 371.331C191.053 372.024 192.181 372.024 192.181 371.331C192.11 370.639 191.053 370.639 191.053 371.331Z" fill="#475293"/>
<path d="M148.062 468.57C148.062 469.263 149.189 469.263 149.189 468.57C149.119 467.878 148.062 467.878 148.062 468.57Z" fill="#475293"/>
<path d="M117.404 485.885C117.404 486.578 118.532 486.578 118.532 485.885C118.532 485.193 117.404 485.193 117.404 485.885Z" fill="#475293"/>
<path d="M125.65 607.434C125.65 608.127 126.777 608.127 126.777 607.434C126.777 606.742 125.65 606.742 125.65 607.434Z" fill="#475293"/>
<path d="M126.214 613.806C126.214 614.499 127.341 614.499 127.341 613.806C127.341 613.114 126.214 613.114 126.214 613.806Z" fill="#475293"/>
<path d="M142.142 573.29C142.142 573.982 143.27 573.982 143.27 573.29C143.27 572.597 142.142 572.597 142.142 573.29Z" fill="#475293"/>
<path d="M119.73 561.723C119.73 562.416 120.857 562.416 120.857 561.723C120.857 561.031 119.73 561.031 119.73 561.723Z" fill="#475293"/>
<path d="M156.237 537.414C156.237 538.106 157.365 538.106 157.365 537.414C157.365 536.721 156.237 536.721 156.237 537.414Z" fill="#475293"/>
<path d="M243.418 580.285C243.418 580.977 244.546 580.977 244.546 580.285C244.546 579.523 243.418 579.523 243.418 580.285Z" fill="#475293"/>
<path d="M274.64 538.591C274.64 539.284 275.768 539.284 275.768 538.591C275.768 537.899 274.64 537.899 274.64 538.591Z" fill="#475293"/>
<path d="M335.321 582.016C335.321 582.709 336.449 582.709 336.449 582.016C336.449 581.254 335.321 581.254 335.321 582.016Z" fill="#475293"/>
<path d="M304.663 378.811C304.663 379.503 305.791 379.503 305.791 378.811C305.791 378.118 304.663 378.118 304.663 378.811Z" fill="#475293"/>
<path d="M266.394 370.708C266.394 371.4 267.521 371.4 267.521 370.708C267.521 370.015 266.394 370.015 266.394 370.708Z" fill="#475293"/>
<path d="M231.085 396.749C231.085 397.441 232.212 397.441 232.212 396.749C232.212 396.056 231.085 396.056 231.085 396.749Z" fill="#475293"/>
<path d="M236.934 453.472C236.934 454.165 238.062 454.165 238.062 453.472C238.062 452.779 236.934 452.779 236.934 453.472Z" fill="#475293"/>
<path d="M279.362 462.199C279.362 462.891 280.489 462.891 280.489 462.199C280.489 461.506 279.362 461.506 279.362 462.199Z" fill="#475293"/>
<path d="M314.107 423.414C314.107 424.106 315.235 424.106 315.235 423.414C315.235 422.721 314.107 422.721 314.107 423.414Z" fill="#475293"/>
<path d="M341.805 410.67C341.805 411.363 342.933 411.363 342.933 410.67C342.933 409.977 341.805 409.977 341.805 410.67Z" fill="#475293"/>
<path d="M331.233 323.265C331.233 323.958 332.361 323.958 332.361 323.265C332.29 322.573 331.233 322.573 331.233 323.265Z" fill="#475293"/>
<path d="M284.647 340.026C284.647 340.719 285.775 340.719 285.775 340.026C285.775 339.333 284.647 339.333 284.647 340.026Z" fill="#475293"/>
<path d="M312.346 316.339C312.346 317.032 313.473 317.032 313.473 316.339C313.473 315.647 312.346 315.647 312.346 316.339Z" fill="#475293"/>
<path d="M352.377 292.03C352.377 292.722 353.504 292.722 353.504 292.03C353.504 291.337 352.377 291.337 352.377 292.03Z" fill="#475293"/>
<path d="M321.155 256.708C321.155 257.4 322.283 257.4 322.283 256.708C322.283 256.015 321.155 256.015 321.155 256.708Z" fill="#475293"/>
<path d="M290.568 274.646C290.568 275.338 291.695 275.338 291.695 274.646C291.695 273.953 290.568 273.953 290.568 274.646Z" fill="#475293"/>
<path d="M233.41 282.749C233.41 283.441 234.538 283.441 234.538 282.749C234.538 282.056 233.41 282.056 233.41 282.749Z" fill="#475293"/>
<path d="M197.467 241.679C197.467 242.371 198.594 242.371 198.594 241.679C198.594 240.986 197.467 240.986 197.467 241.679Z" fill="#475293"/>
<path d="M211.069 204.625C211.069 205.318 212.197 205.318 212.197 204.625C212.197 203.933 211.069 203.933 211.069 204.625Z" fill="#475293"/>
<path d="M278.164 196.522C278.164 197.214 279.292 197.214 279.292 196.522C279.292 195.829 278.164 195.829 278.164 196.522Z" fill="#475293"/>
<path d="M253.426 228.935C253.426 229.628 254.554 229.628 254.554 228.935C254.554 228.243 253.426 228.243 253.426 228.935Z" fill="#475293"/>
<path d="M274.64 243.41C274.64 244.103 275.768 244.103 275.768 243.41C275.768 242.717 274.64 242.717 274.64 243.41Z" fill="#475293"/>
<path d="M294.092 219.1C294.092 219.793 295.219 219.793 295.219 219.1C295.219 218.408 294.092 218.408 294.092 219.1Z" fill="#475293"/>
<path d="M361.257 190.704C361.257 191.397 362.384 191.397 362.384 190.704C362.384 190.011 361.257 190.011 361.257 190.704Z" fill="#475293"/>
<path d="M190.419 277.001C190.419 277.693 191.546 277.693 191.546 277.001C191.546 276.239 190.419 276.239 190.419 277.001Z" fill="#475293"/>
<path d="M152.149 329.637C152.149 330.33 153.277 330.33 153.277 329.637C153.277 328.944 152.149 328.944 152.149 329.637Z" fill="#475293"/>
<path d="M129.738 326.728C129.738 327.421 130.865 327.421 130.865 326.728C130.865 326.036 129.738 326.036 129.738 326.728Z" fill="#475293"/>
<path d="M129.738 363.228C129.738 363.92 130.865 363.92 130.865 363.228C130.865 362.535 129.738 362.535 129.738 363.228Z" fill="#475293"/>
<path d="M180.411 438.443C180.411 439.135 181.539 439.135 181.539 438.443C181.539 437.75 180.411 437.75 180.411 438.443Z" fill="#475293"/>
<path d="M211.633 489.417C211.633 490.11 212.76 490.11 212.76 489.417C212.76 488.655 211.633 488.655 211.633 489.417Z" fill="#475293"/>
<path d="M202.189 571.558C202.189 572.251 203.316 572.251 203.316 571.558C203.316 570.866 202.189 570.866 202.189 571.558Z" fill="#475293"/>
<path d="M230.45 606.326C230.45 607.019 231.578 607.019 231.578 606.326C231.578 605.564 230.45 605.564 230.45 606.326Z" fill="#475293"/>
<path d="M182.807 587.765C182.807 588.458 183.935 588.458 183.935 587.765C183.865 587.072 182.807 587.072 182.807 587.765Z" fill="#475293"/>
<path d="M208.673 585.479C208.673 586.172 209.8 586.172 209.8 585.479C209.8 584.787 208.673 584.787 208.673 585.479Z" fill="#475293"/>
<path d="M145.666 603.417C145.666 604.11 146.793 604.11 146.793 603.417C146.793 602.725 145.666 602.725 145.666 603.417Z" fill="#475293"/>
<path d="M255.822 539.145C255.822 539.838 256.95 539.838 256.95 539.145C256.95 538.453 255.822 538.453 255.822 539.145Z" fill="#475293"/>
<path d="M300.575 567.541C300.575 568.234 301.703 568.234 301.703 567.541C301.703 566.849 300.575 566.849 300.575 567.541Z" fill="#475293"/>
<path d="M353.011 503.892C353.011 504.585 354.139 504.585 354.139 503.892C354.139 503.131 353.011 503.131 353.011 503.892Z" fill="#475293"/>
<path d="M278.798 480.691C278.798 481.383 279.926 481.383 279.926 480.691C279.926 479.998 278.798 479.998 278.798 480.691Z" fill="#475293"/>
<path d="M293.528 397.372C293.528 398.065 294.655 398.065 294.655 397.372C294.655 396.68 293.528 396.68 293.528 397.372Z" fill="#475293"/>
<path d="M365.345 373.617C365.345 374.309 366.472 374.309 366.472 373.617C366.472 372.924 365.345 372.924 365.345 373.617Z" fill="#475293"/>
<path d="M362.385 301.864C362.385 302.557 363.512 302.557 363.512 301.864C363.512 301.172 362.385 301.172 362.385 301.864Z" fill="#475293"/>
<path d="M262.377 255.046C262.377 255.738 263.504 255.738 263.504 255.046C263.504 254.353 262.377 254.353 262.377 255.046Z" fill="#475293"/>
<path d="M292.048 148.387C292.048 149.079 293.175 149.079 293.175 148.387C293.105 147.694 292.048 147.694 292.048 148.387Z" fill="#475293"/>
<path d="M226.081 161.13C226.081 161.823 227.208 161.823 227.208 161.13C227.138 160.369 226.081 160.369 226.081 161.13Z" fill="#475293"/>
<path d="M341.523 314.47C341.523 315.162 342.651 315.162 342.651 314.47C342.58 313.777 341.523 313.777 341.523 314.47Z" fill="#475293"/>
<path d="M327.357 297.709C327.357 298.401 328.484 298.401 328.484 297.709C328.484 297.016 327.357 297.016 327.357 297.709Z" fill="#475293"/>
<path d="M360.341 190.011C360.341 190.704 361.468 190.704 361.468 190.011C361.468 189.319 360.341 189.319 360.341 190.011Z" fill="#475293"/>
<path d="M364.428 70.2628C364.428 70.9554 365.556 70.9554 365.556 70.2628C365.556 69.5009 364.428 69.5009 364.428 70.2628Z" fill="#475293"/>
<path d="M230.732 65.6226C230.732 66.3152 231.86 66.3152 231.86 65.6226C231.86 64.9301 230.732 64.9301 230.732 65.6226Z" fill="#475293"/>
<path d="M199.511 199.292C199.511 199.985 200.638 199.985 200.638 199.292C200.638 198.599 199.511 198.599 199.511 199.292Z" fill="#475293"/>
<path d="M156.519 296.532C156.519 297.224 157.647 297.224 157.647 296.532C157.647 295.839 156.519 295.839 156.519 296.532Z" fill="#475293"/>
<path d="M125.932 313.915C125.932 314.608 127.06 314.608 127.06 313.915C127.06 313.223 125.932 313.223 125.932 313.915Z" fill="#475293"/>
<path d="M313.191 206.841C313.191 207.534 314.319 207.534 314.319 206.841C314.319 206.149 313.191 206.149 313.191 206.841Z" fill="#475293"/>
<path d="M274.922 198.738C274.922 199.43 276.049 199.43 276.049 198.738C276.049 198.045 274.922 198.045 274.922 198.738Z" fill="#475293"/>
<path d="M239.612 224.779C239.612 225.472 240.74 225.472 240.74 224.779C240.74 224.087 239.612 224.087 239.612 224.779Z" fill="#475293"/>
<path d="M245.462 281.502C245.462 282.195 246.59 282.195 246.59 281.502C246.59 280.81 245.462 280.81 245.462 281.502Z" fill="#475293"/>
<path d="M287.889 290.16C287.889 290.852 289.017 290.852 289.017 290.16C289.017 289.467 287.889 289.467 287.889 290.16Z" fill="#475293"/>
<path d="M322.635 251.375C322.635 252.067 323.763 252.067 323.763 251.375C323.763 250.682 322.635 250.682 322.635 251.375Z" fill="#475293"/>
<path d="M350.333 238.631C350.333 239.324 351.46 239.324 351.46 238.631C351.46 237.938 350.333 237.938 350.333 238.631Z" fill="#475293"/>
<path d="M339.691 151.296C339.691 151.988 340.818 151.988 340.818 151.296C340.818 150.534 339.691 150.534 339.691 151.296Z" fill="#475293"/>
<path d="M293.176 168.056C293.176 168.749 294.303 168.749 294.303 168.056C294.303 167.364 293.176 167.364 293.176 168.056Z" fill="#475293"/>
<path d="M320.873 144.301C320.873 144.993 322 144.993 322 144.301C322 143.608 320.873 143.608 320.873 144.301Z" fill="#475293"/>
<path d="M360.905 119.991C360.905 120.683 362.032 120.683 362.032 119.991C362.032 119.298 360.905 119.298 360.905 119.991Z" fill="#475293"/>
<path d="M329.683 84.7379C329.683 85.4305 330.811 85.4305 330.811 84.7379C330.811 83.976 329.683 83.976 329.683 84.7379Z" fill="#475293"/>
<path d="M299.096 102.676C299.096 103.369 300.223 103.369 300.223 102.676C300.223 101.915 299.096 101.915 299.096 102.676Z" fill="#475293"/>
<path d="M241.938 110.779C241.938 111.472 243.066 111.472 243.066 110.779C243.066 110.018 241.938 110.018 241.938 110.779Z" fill="#475293"/>
<path d="M205.994 69.6397C205.994 70.3323 207.122 70.3323 207.122 69.6397C207.122 68.9472 205.994 68.9472 205.994 69.6397Z" fill="#475293"/>
<path d="M219.596 32.586C219.596 33.2786 220.724 33.2786 220.724 32.586C220.654 31.8934 219.596 31.8934 219.596 32.586Z" fill="#475293"/>
<path d="M286.692 24.483C286.692 25.1756 287.819 25.1756 287.819 24.483C287.819 23.7904 286.692 23.7904 286.692 24.483Z" fill="#475293"/>
<path d="M261.954 56.8961C261.954 57.5887 263.082 57.5887 263.082 56.8961C263.082 56.2035 261.954 56.2035 261.954 56.8961Z" fill="#475293"/>
<path d="M283.167 71.3712C283.167 72.0638 284.295 72.0638 284.295 71.3712C284.295 70.6786 283.167 70.6786 283.167 71.3712Z" fill="#475293"/>
<path d="M302.619 47.0611C302.619 47.7537 303.747 47.7537 303.747 47.0611C303.747 46.3685 302.619 46.3685 302.619 47.0611Z" fill="#475293"/>
<path d="M369.784 18.7345C369.784 19.4271 370.912 19.4271 370.912 18.7345C370.912 18.0419 369.784 18.0419 369.784 18.7345Z" fill="#475293"/>
<path d="M198.947 104.962C198.947 105.654 200.074 105.654 200.074 104.962C200.074 104.269 198.947 104.269 198.947 104.962Z" fill="#475293"/>
<path d="M160.677 157.598C160.677 158.291 161.805 158.291 161.805 157.598C161.805 156.906 160.677 156.906 160.677 157.598Z" fill="#475293"/>
<path d="M138.265 154.759C138.265 155.451 139.393 155.451 139.393 154.759C139.393 154.066 138.265 153.997 138.265 154.759Z" fill="#475293"/>
<path d="M138.265 191.189C138.265 191.882 139.393 191.882 139.393 191.189C139.393 190.496 138.265 190.496 138.265 191.189Z" fill="#475293"/>
<path d="M188.939 266.473C188.939 267.166 190.067 267.166 190.067 266.473C190.067 265.711 188.939 265.711 188.939 266.473Z" fill="#475293"/>
<path d="M220.16 317.379C220.16 318.071 221.288 318.071 221.288 317.379C221.288 316.686 220.16 316.686 220.16 317.379Z" fill="#475293"/>
<path d="M361.539 331.854C361.539 332.546 362.667 332.546 362.667 331.854C362.667 331.161 361.539 331.161 361.539 331.854Z" fill="#475293"/>
<path d="M287.325 308.721C287.325 309.414 288.453 309.414 288.453 308.721C288.453 307.959 287.325 307.959 287.325 308.721Z" fill="#475293"/>
<path d="M302.055 225.333C302.055 226.026 303.183 226.026 303.183 225.333C303.113 224.641 302.055 224.641 302.055 225.333Z" fill="#475293"/>
<path d="M373.872 201.647C373.872 202.34 375 202.34 375 201.647C375 200.885 373.872 200.885 373.872 201.647Z" fill="#475293"/>
<path d="M370.912 129.826C370.912 130.518 372.04 130.518 372.04 129.826C372.04 129.133 370.912 129.133 370.912 129.826Z" fill="#475293"/>
<path d="M226.927 146.517C226.927 147.21 228.054 147.21 228.054 146.517C228.054 145.824 226.927 145.824 226.927 146.517Z" fill="#475293"/>
<path d="M299.377 68.3932C299.377 69.0857 300.505 69.0857 300.505 68.3932C300.505 67.7006 299.377 67.7006 299.377 68.3932Z" fill="#475293"/>
<path d="M274.64 149.426C274.64 150.118 275.768 150.118 275.768 149.426C275.768 148.733 274.64 148.733 274.64 149.426Z" fill="#475293"/>
<path d="M255.822 142.5C255.822 143.192 256.95 143.192 256.95 142.5C256.879 141.807 255.822 141.807 255.822 142.5Z" fill="#475293"/>
<path d="M295.854 118.19C295.854 118.883 296.981 118.883 296.981 118.19C296.981 117.497 295.854 117.497 295.854 118.19Z" fill="#475293"/>
<path d="M264.632 82.8683C264.632 83.5608 265.759 83.5608 265.759 82.8683C265.759 82.1757 264.632 82.1757 264.632 82.8683Z" fill="#475293"/>
<path d="M233.974 100.806C233.974 101.499 235.102 101.499 235.102 100.806C235.102 100.114 233.974 100.114 233.974 100.806Z" fill="#475293"/>
<path d="M268.367 15.2022C268.367 15.8948 269.495 15.8948 269.495 15.2022C269.495 14.4404 268.367 14.4404 268.367 15.2022Z" fill="#475293"/>
<path d="M218.116 69.5704C218.116 70.263 219.244 70.263 219.244 69.5704C219.244 68.8778 218.116 68.8778 218.116 69.5704Z" fill="#475293"/>
<path d="M237.569 45.2603C237.569 45.9529 238.696 45.9529 238.696 45.2603C238.626 44.5678 237.569 44.5678 237.569 45.2603Z" fill="#475293"/>
<path d="M305.861 128.025C305.861 128.718 306.989 128.718 306.989 128.025C306.989 127.332 305.861 127.332 305.861 128.025Z" fill="#475293"/>
<path d="M153.982 104.893C153.982 105.585 155.11 105.585 155.11 104.893C155.11 104.2 153.982 104.2 153.982 104.893Z" fill="#475293"/>
<path d="M226.433 26.7686C226.433 27.4612 227.561 27.4612 227.561 26.7686C227.561 26.0761 226.433 26.0761 226.433 26.7686Z" fill="#475293"/>
<path d="M201.695 107.801C201.695 108.494 202.823 108.494 202.823 107.801C202.823 107.109 201.695 107.109 201.695 107.801Z" fill="#475293"/>
<path d="M182.807 100.876C182.807 101.568 183.935 101.568 183.935 100.876C183.935 100.114 182.807 100.114 182.807 100.876Z" fill="#475293"/>
<path d="M222.909 76.5655C222.909 77.2581 224.037 77.2581 224.037 76.5655C223.966 75.8037 222.909 75.8037 222.909 76.5655Z" fill="#475293"/>
<path d="M191.687 41.2437C191.687 41.9363 192.815 41.9363 192.815 41.2437C192.815 40.5512 191.687 40.5512 191.687 41.2437Z" fill="#475293"/>
<path d="M161.03 59.1817C161.03 59.8743 162.157 59.8743 162.157 59.1817C162.157 58.4891 161.03 58.4891 161.03 59.1817Z" fill="#475293"/>
<path d="M145.172 27.9459C145.172 28.6385 146.3 28.6385 146.3 27.9459C146.229 27.184 145.172 27.184 145.172 27.9459Z" fill="#475293"/>
<path d="M164.554 3.63583C164.554 4.32842 165.681 4.32842 165.681 3.63583C165.681 2.87399 164.554 2.87399 164.554 3.63583Z" fill="#475293"/>
<path d="M232.917 86.4005C232.917 87.0931 234.044 87.0931 234.044 86.4005C234.044 85.6386 232.917 85.6386 232.917 86.4005Z" fill="#475293"/>
<path d="M115.994 180.939C115.994 181.631 117.122 181.631 117.122 180.939C117.052 180.246 115.994 180.246 115.994 180.939Z" fill="#475293"/>
<path d="M188.446 102.815C188.446 103.507 189.573 103.507 189.573 102.815C189.503 102.122 188.446 102.122 188.446 102.815Z" fill="#475293"/>
<path d="M163.708 183.848C163.708 184.54 164.835 184.54 164.835 183.848C164.765 183.155 163.708 183.155 163.708 183.848Z" fill="#475293"/>
<path d="M144.82 176.852C144.82 177.545 145.947 177.545 145.947 176.852C145.947 176.16 144.82 176.16 144.82 176.852Z" fill="#475293"/>
<path d="M184.851 152.612C184.851 153.304 185.979 153.304 185.979 152.612C185.979 151.85 184.851 151.85 184.851 152.612Z" fill="#475293"/>
<path d="M153.63 117.29C153.63 117.982 154.757 117.982 154.757 117.29C154.757 116.597 153.63 116.597 153.63 117.29Z" fill="#475293"/>
<path d="M123.042 135.228C123.042 135.92 124.17 135.92 124.17 135.228C124.17 134.535 123.042 134.535 123.042 135.228Z" fill="#475293"/>
<path d="M107.114 103.992C107.114 104.685 108.242 104.685 108.242 103.992C108.242 103.23 107.114 103.23 107.114 103.992Z" fill="#475293"/>
<path d="M126.566 79.6822C126.566 80.3748 127.694 80.3748 127.694 79.6822C127.694 78.9204 126.566 78.9204 126.566 79.6822Z" fill="#475293"/>
<path d="M194.859 162.446C194.859 163.139 195.987 163.139 195.987 162.446C195.987 161.685 194.859 161.685 194.859 162.446Z" fill="#475293"/>
<path d="M288.101 125.185C288.101 125.878 289.229 125.878 289.229 125.185C289.229 124.493 288.101 124.493 288.101 125.185Z" fill="#475293"/>
<path d="M360.552 47.0611C360.552 47.7537 361.68 47.7537 361.68 47.0611C361.68 46.2993 360.552 46.2993 360.552 47.0611Z" fill="#475293"/>
<path d="M335.814 128.094C335.814 128.787 336.942 128.787 336.942 128.094C336.942 127.332 335.814 127.332 335.814 128.094Z" fill="#475293"/>
<path d="M316.927 121.099C316.927 121.791 318.054 121.791 318.054 121.099C318.054 120.406 316.927 120.406 316.927 121.099Z" fill="#475293"/>
<path d="M357.028 96.7892C357.028 97.4817 358.156 97.4817 358.156 96.7892C358.156 96.0966 357.028 96.0966 357.028 96.7892Z" fill="#475293"/>
<path d="M325.806 61.5362C325.806 62.2288 326.934 62.2288 326.934 61.5362C326.934 60.7744 325.806 60.7744 325.806 61.5362Z" fill="#475293"/>
<path d="M295.149 79.4742C295.149 80.1668 296.276 80.1668 296.276 79.4742C296.276 78.7124 295.149 78.7124 295.149 79.4742Z" fill="#475293"/>
<path d="M279.291 48.1695C279.291 48.8621 280.419 48.8621 280.419 48.1695C280.348 47.4769 279.291 47.4769 279.291 48.1695Z" fill="#475293"/>
<path d="M298.673 23.8595C298.673 24.5521 299.8 24.5521 299.8 23.8595C299.8 23.1669 298.673 23.1669 298.673 23.8595Z" fill="#475293"/>
<path d="M367.036 106.624C367.036 107.316 368.164 107.316 368.164 106.624C368.164 105.931 367.036 105.931 367.036 106.624Z" fill="#475293"/>
<path d="M280.7 297.363C280.7 298.055 281.828 298.055 281.828 297.363C281.828 296.67 280.7 296.67 280.7 297.363Z" fill="#475293"/>
<path d="M353.152 219.239C353.152 219.931 354.279 219.931 354.279 219.239C354.279 218.477 353.152 218.477 353.152 219.239Z" fill="#475293"/>
<path d="M328.414 300.272C328.414 300.964 329.542 300.964 329.542 300.272C329.542 299.51 328.414 299.51 328.414 300.272Z" fill="#475293"/>
<path d="M309.596 293.276C309.596 293.969 310.724 293.969 310.724 293.276C310.724 292.584 309.596 292.584 309.596 293.276Z" fill="#475293"/>
<path d="M349.628 268.966C349.628 269.659 350.755 269.659 350.755 268.966C350.755 268.274 349.628 268.274 349.628 268.966Z" fill="#475293"/>
<path d="M318.407 233.714C318.407 234.406 319.534 234.406 319.534 233.714C319.534 232.952 318.407 232.952 318.407 233.714Z" fill="#475293"/>
<path d="M287.819 251.652C287.819 252.345 288.947 252.345 288.947 251.652C288.876 250.89 287.819 250.89 287.819 251.652Z" fill="#475293"/>
<path d="M271.891 220.347C271.891 221.039 273.019 221.039 273.019 220.347C273.019 219.654 271.891 219.654 271.891 220.347Z" fill="#475293"/>
<path d="M291.343 196.037C291.343 196.73 292.471 196.73 292.471 196.037C292.471 195.344 291.343 195.344 291.343 196.037Z" fill="#475293"/>
<path d="M359.636 278.801C359.636 279.494 360.764 279.494 360.764 278.801C360.764 278.109 359.636 278.109 359.636 278.801Z" fill="#475293"/>
<path d="M277.318 203.932C277.318 204.625 278.445 204.625 278.445 203.932C278.445 203.24 277.318 203.24 277.318 203.932Z" fill="#475293"/>
<path d="M349.769 125.808C349.769 126.501 350.896 126.501 350.896 125.808C350.896 125.116 349.769 125.116 349.769 125.808Z" fill="#475293"/>
<path d="M325.032 206.841C325.032 207.534 326.159 207.534 326.159 206.841C326.159 206.149 325.032 206.149 325.032 206.841Z" fill="#475293"/>
<path d="M306.143 199.915C306.143 200.608 307.271 200.608 307.271 199.915C307.271 199.154 306.143 199.154 306.143 199.915Z" fill="#475293"/>
<path d="M346.245 175.606C346.245 176.298 347.373 176.298 347.373 175.606C347.302 174.844 346.245 174.844 346.245 175.606Z" fill="#475293"/>
<path d="M315.023 140.284C315.023 140.976 316.151 140.976 316.151 140.284C316.151 139.591 315.023 139.591 315.023 140.284Z" fill="#475293"/>
<path d="M284.366 158.222C284.366 158.914 285.493 158.914 285.493 158.222C285.493 157.529 284.366 157.529 284.366 158.222Z" fill="#475293"/>
<path d="M268.438 126.986C268.438 127.679 269.565 127.679 269.565 126.986C269.565 126.224 268.438 126.224 268.438 126.986Z" fill="#475293"/>
<path d="M287.889 102.676C287.889 103.369 289.017 103.369 289.017 102.676C289.017 101.915 287.889 101.915 287.889 102.676Z" fill="#475293"/>
<path d="M356.253 185.44C356.253 186.133 357.38 186.133 357.38 185.44C357.38 184.678 356.253 184.678 356.253 185.44Z" fill="#475293"/>
<path d="M249.972 189.458C249.972 190.15 251.1 190.15 251.1 189.458C251.03 188.765 249.972 188.765 249.972 189.458Z" fill="#475293"/>
<path d="M322.353 111.333C322.353 112.026 323.481 112.026 323.481 111.333C323.481 110.641 322.353 110.641 322.353 111.333Z" fill="#475293"/>
<path d="M297.616 192.366C297.616 193.059 298.743 193.059 298.743 192.366C298.743 191.674 297.616 191.674 297.616 192.366Z" fill="#475293"/>
<path d="M278.798 185.44C278.798 186.133 279.926 186.133 279.926 185.44C279.926 184.678 278.798 184.678 278.798 185.44Z" fill="#475293"/>
<path d="M318.829 161.13C318.829 161.823 319.957 161.823 319.957 161.13C319.957 160.369 318.829 160.369 318.829 161.13Z" fill="#475293"/>
<path d="M287.608 125.809C287.608 126.501 288.735 126.501 288.735 125.809C288.735 125.116 287.608 125.116 287.608 125.809Z" fill="#475293"/>
<path d="M257.02 143.747C257.02 144.439 258.148 144.439 258.148 143.747C258.148 143.054 257.02 143.054 257.02 143.747Z" fill="#475293"/>
<path d="M241.092 112.511C241.092 113.203 242.22 113.203 242.22 112.511C242.22 111.749 241.092 111.749 241.092 112.511Z" fill="#475293"/>
<path d="M260.544 88.2008C260.544 88.8934 261.672 88.8934 261.672 88.2008C261.672 87.4389 260.544 87.4389 260.544 88.2008Z" fill="#475293"/>
<path d="M328.837 170.965C328.837 171.658 329.965 171.658 329.965 170.965C329.965 170.204 328.837 170.204 328.837 170.965Z" fill="#475293"/>
<path d="M90.6224 155.867C90.6224 156.56 91.75 156.56 91.75 155.867C91.75 155.174 90.6224 155.174 90.6224 155.867Z" fill="#475293"/>
<path d="M163.074 77.7428C163.074 78.4354 164.201 78.4354 164.201 77.7428C164.131 76.9809 163.074 76.9809 163.074 77.7428Z" fill="#475293"/>
<path d="M138.336 158.776C138.336 159.469 139.463 159.469 139.463 158.776C139.393 158.014 138.336 158.014 138.336 158.776Z" fill="#475293"/>
<path d="M119.448 151.781C119.448 152.473 120.576 152.473 120.576 151.781C120.576 151.088 119.448 151.088 119.448 151.781Z" fill="#475293"/>
<path d="M159.479 127.471C159.479 128.163 160.607 128.163 160.607 127.471C160.607 126.778 159.479 126.778 159.479 127.471Z" fill="#475293"/>
<path d="M128.328 92.149C128.328 92.8416 129.456 92.8416 129.456 92.149C129.385 91.4564 128.328 91.4564 128.328 92.149Z" fill="#475293"/>
<path d="M97.6702 110.156C97.6702 110.849 98.7979 110.849 98.7979 110.156C98.7979 109.394 97.6702 109.394 97.6702 110.156Z" fill="#475293"/>
<path d="M81.742 78.8512C81.742 79.5438 82.8696 79.5438 82.8696 78.8512C82.8696 78.1586 81.742 78.1586 81.742 78.8512Z" fill="#475293"/>
<path d="M101.194 54.5411C101.194 55.2337 102.322 55.2337 102.322 54.5411C102.322 53.8485 101.194 53.8485 101.194 54.5411Z" fill="#475293"/>
<path d="M169.557 137.306C169.557 137.998 170.685 137.998 170.685 137.306C170.615 136.613 169.557 136.613 169.557 137.306Z" fill="#475293"/>
<path d="M358.015 606.118C358.015 606.811 359.143 606.811 359.143 606.118C359.072 605.426 358.015 605.426 358.015 606.118Z" fill="#475293"/>
<path d="M276.684 607.296C276.684 607.988 277.812 607.988 277.812 607.296C277.812 606.534 276.684 606.534 276.684 607.296Z" fill="#475293"/>
<path d="M296.136 582.986C296.136 583.679 297.263 583.679 297.263 582.986C297.263 582.224 296.136 582.224 296.136 582.986Z" fill="#475293"/>
<path d="M155.18 306.505C155.18 307.197 156.308 307.197 156.308 306.505C156.308 305.812 155.18 305.812 155.18 306.505Z" fill="#475293"/>
<path d="M184.851 199.846C184.851 200.539 185.979 200.539 185.979 199.846C185.979 199.154 184.851 199.154 184.851 199.846Z" fill="#475293"/>
<path d="M118.884 212.59C118.884 213.282 120.012 213.282 120.012 212.59C120.012 211.897 118.884 211.897 118.884 212.59Z" fill="#475293"/>
<path d="M234.326 365.929C234.326 366.621 235.454 366.621 235.454 365.929C235.454 365.236 234.326 365.236 234.326 365.929Z" fill="#475293"/>
<path d="M220.16 349.168C220.16 349.861 221.288 349.861 221.288 349.168C221.288 348.476 220.16 348.476 220.16 349.168Z" fill="#475293"/>
<path d="M253.144 241.54C253.144 242.233 254.271 242.233 254.271 241.54C254.271 240.778 253.144 240.778 253.144 241.54Z" fill="#475293"/>
<path d="M257.302 121.722C257.302 122.415 258.43 122.415 258.43 121.722C258.43 120.96 257.302 120.96 257.302 121.722Z" fill="#475293"/>
<path d="M204.797 108.355C204.797 108.424 204.866 108.424 204.797 108.355Z" fill="#475293"/>
<path d="M123.606 117.082C123.606 117.775 124.734 117.775 124.734 117.082C124.734 116.39 123.606 116.39 123.606 117.082Z" fill="#475293"/>
<path d="M92.3846 250.752C92.3846 251.444 93.5122 251.444 93.5122 250.752C93.5122 250.059 92.3846 250.059 92.3846 250.752Z" fill="#475293"/>
<path d="M49.3929 347.991C49.3929 348.683 50.5205 348.683 50.5205 347.991C50.5205 347.298 49.3929 347.298 49.3929 347.991Z" fill="#475293"/>
<path d="M18.7351 365.375C18.7351 366.067 19.8628 366.067 19.8628 365.375C19.8628 364.682 18.7351 364.682 18.7351 365.375Z" fill="#475293"/>
<path d="M206.065 258.301C206.065 258.993 207.192 258.993 207.192 258.301C207.192 257.608 206.065 257.608 206.065 258.301Z" fill="#475293"/>
<path d="M167.725 250.197C167.725 250.89 168.853 250.89 168.853 250.197C168.853 249.505 167.725 249.505 167.725 250.197Z" fill="#475293"/>
<path d="M132.416 276.239C132.416 276.931 133.543 276.931 133.543 276.239C133.543 275.546 132.416 275.546 132.416 276.239Z" fill="#475293"/>
<path d="M138.336 332.962C138.336 333.654 139.463 333.654 139.463 332.962C139.393 332.269 138.336 332.269 138.336 332.962Z" fill="#475293"/>
<path d="M180.693 341.619C180.693 342.312 181.821 342.312 181.821 341.619C181.821 340.926 180.693 340.926 180.693 341.619Z" fill="#475293"/>
<path d="M215.439 302.834C215.439 303.527 216.566 303.527 216.566 302.834C216.566 302.141 215.439 302.141 215.439 302.834Z" fill="#475293"/>
<path d="M243.136 290.16C243.136 290.852 244.264 290.852 244.264 290.16C244.264 289.398 243.136 289.398 243.136 290.16Z" fill="#475293"/>
<path d="M232.564 202.755C232.564 203.448 233.692 203.448 233.692 202.755C233.692 201.993 232.564 201.993 232.564 202.755Z" fill="#475293"/>
<path d="M186.05 219.516C186.05 220.208 187.177 220.208 187.177 219.516C187.107 218.823 186.05 218.823 186.05 219.516Z" fill="#475293"/>
<path d="M213.677 195.76C213.677 196.452 214.804 196.452 214.804 195.76C214.804 195.067 213.677 195.067 213.677 195.76Z" fill="#475293"/>
<path d="M253.779 171.45C253.779 172.143 254.906 172.143 254.906 171.45C254.836 170.757 253.779 170.757 253.779 171.45Z" fill="#475293"/>
<path d="M222.557 136.197C222.557 136.89 223.685 136.89 223.685 136.197C223.685 135.436 222.557 135.436 222.557 136.197Z" fill="#475293"/>
<path d="M191.899 154.135C191.899 154.828 193.026 154.828 193.026 154.135C193.026 153.373 191.899 153.373 191.899 154.135Z" fill="#475293"/>
<path d="M134.741 162.239C134.741 162.931 135.869 162.931 135.869 162.239C135.869 161.477 134.741 161.477 134.741 162.239Z" fill="#475293"/>
<path d="M98.8685 121.099C98.8685 121.791 99.9961 121.791 99.9961 121.099C99.9961 120.406 98.8685 120.406 98.8685 121.099Z" fill="#475293"/>
<path d="M112.4 84.0455C112.4 84.7381 113.528 84.7381 113.528 84.0455C113.528 83.3529 112.4 83.3529 112.4 84.0455Z" fill="#475293"/>
<path d="M179.565 75.942C179.565 76.6346 180.693 76.6346 180.693 75.942C180.622 75.2494 179.565 75.2494 179.565 75.942Z" fill="#475293"/>
<path d="M154.828 108.355C154.828 109.048 155.956 109.048 155.956 108.355C155.885 107.662 154.828 107.662 154.828 108.355Z" fill="#475293"/>
<path d="M175.971 122.831C175.971 123.523 177.099 123.523 177.099 122.831C177.099 122.138 175.971 122.138 175.971 122.831Z" fill="#475293"/>
<path d="M195.423 98.5206C195.423 99.2132 196.55 99.2132 196.55 98.5206C196.55 97.828 195.423 97.828 195.423 98.5206Z" fill="#475293"/>
<path d="M262.588 70.1934C262.588 70.886 263.716 70.886 263.716 70.1934C263.716 69.5009 262.588 69.5009 262.588 70.1934Z" fill="#475293"/>
<path d="M91.7503 156.421C91.7503 157.114 92.8779 157.114 92.8779 156.421C92.8779 155.728 91.7503 155.728 91.7503 156.421Z" fill="#475293"/>
<path d="M53.4808 209.127C53.4808 209.819 54.6084 209.819 54.6084 209.127C54.6084 208.365 53.4808 208.365 53.4808 209.127Z" fill="#475293"/>
<path d="M31.1394 206.218C31.1394 206.911 32.2671 206.911 32.2671 206.218C32.1966 205.526 31.1394 205.526 31.1394 206.218Z" fill="#475293"/>
<path d="M31.1394 242.648C31.1394 243.341 32.2671 243.341 32.2671 242.648C32.1966 241.956 31.1394 241.956 31.1394 242.648Z" fill="#475293"/>
<path d="M81.7425 317.933C81.7425 318.625 82.8701 318.625 82.8701 317.933C82.8701 317.24 81.7425 317.171 81.7425 317.933Z" fill="#475293"/>
<path d="M112.964 368.838C112.964 369.53 114.091 369.53 114.091 368.838C114.091 368.145 112.964 368.145 112.964 368.838Z" fill="#475293"/>
<path d="M254.342 383.313C254.342 384.005 255.47 384.005 255.47 383.313C255.47 382.62 254.342 382.62 254.342 383.313Z" fill="#475293"/>
<path d="M180.129 360.18C180.129 360.873 181.257 360.873 181.257 360.18C181.257 359.488 180.129 359.488 180.129 360.18Z" fill="#475293"/>
<path d="M194.859 276.793C194.859 277.485 195.987 277.485 195.987 276.793C195.987 276.1 194.859 276.1 194.859 276.793Z" fill="#475293"/>
<path d="M266.676 253.106C266.676 253.799 267.803 253.799 267.803 253.106C267.803 252.414 266.676 252.414 266.676 253.106Z" fill="#475293"/>
<path d="M263.786 181.285C263.786 181.977 264.914 181.977 264.914 181.285C264.844 180.592 263.786 180.592 263.786 181.285Z" fill="#475293"/>
<path d="M181.116 564.355C181.116 565.048 182.243 565.048 182.243 564.355C182.173 563.663 181.116 563.663 181.116 564.355Z" fill="#475293"/>
<path d="M115.149 577.099C115.149 577.792 116.276 577.792 116.276 577.099C116.206 576.337 115.149 576.337 115.149 577.099Z" fill="#475293"/>
<path d="M249.409 606.049C249.409 606.742 250.537 606.742 250.537 606.049C250.537 605.287 249.409 605.287 249.409 606.049Z" fill="#475293"/>
<path d="M253.567 486.231C253.567 486.924 254.695 486.924 254.695 486.231C254.624 485.469 253.567 485.469 253.567 486.231Z" fill="#475293"/>
<path d="M119.871 481.591C119.871 482.283 120.999 482.283 120.999 481.591C120.928 480.898 119.871 480.898 119.871 481.591Z" fill="#475293"/>
<path d="M88.6492 615.261C88.6492 615.953 89.7769 615.953 89.7769 615.261C89.7064 614.568 88.6492 614.568 88.6492 615.261Z" fill="#475293"/>
<path d="M163.99 614.706C163.99 615.399 165.117 615.399 165.117 614.706C165.117 614.014 163.99 614.014 163.99 614.706Z" fill="#475293"/>
<path d="M228.829 567.264C228.829 567.957 229.957 567.957 229.957 567.264C229.887 566.502 228.829 566.502 228.829 567.264Z" fill="#475293"/>
<path d="M182.243 584.025C182.243 584.718 183.371 584.718 183.371 584.025C183.371 583.332 182.243 583.332 182.243 584.025Z" fill="#475293"/>
<path d="M209.941 560.269C209.941 560.962 211.069 560.962 211.069 560.269C211.069 559.577 209.941 559.577 209.941 560.269Z" fill="#475293"/>
<path d="M249.972 535.959C249.972 536.652 251.1 536.652 251.1 535.959C251.1 535.267 249.972 535.267 249.972 535.959Z" fill="#475293"/>
<path d="M218.751 500.706C218.751 501.399 219.879 501.399 219.879 500.706C219.879 499.945 218.751 499.945 218.751 500.706Z" fill="#475293"/>
<path d="M188.164 518.645C188.164 519.337 189.292 519.337 189.292 518.645C189.292 517.883 188.164 517.883 188.164 518.645Z" fill="#475293"/>
<path d="M131.006 526.748C131.006 527.44 132.134 527.44 132.134 526.748C132.134 525.986 131.006 525.986 131.006 526.748Z" fill="#475293"/>
<path d="M95.1331 485.608C95.1331 486.301 96.2607 486.301 96.2607 485.608C96.1903 484.915 95.1331 484.915 95.1331 485.608Z" fill="#475293"/>
<path d="M108.665 448.555C108.665 449.247 109.792 449.247 109.792 448.555C109.792 447.862 108.665 447.862 108.665 448.555Z" fill="#475293"/>
<path d="M175.76 440.451C175.76 441.144 176.887 441.144 176.887 440.451C176.887 439.759 175.76 439.759 175.76 440.451Z" fill="#475293"/>
<path d="M151.022 472.864C151.022 473.557 152.149 473.557 152.149 472.864C152.149 472.172 151.022 472.172 151.022 472.864Z" fill="#475293"/>
<path d="M172.236 487.339C172.236 488.032 173.363 488.032 173.363 487.339C173.363 486.647 172.236 486.647 172.236 487.339Z" fill="#475293"/>
<path d="M191.687 463.03C191.687 463.722 192.815 463.722 192.815 463.03C192.815 462.337 191.687 462.337 191.687 463.03Z" fill="#475293"/>
<path d="M258.853 434.703C258.853 435.395 259.98 435.395 259.98 434.703C259.98 434.01 258.853 434.01 258.853 434.703Z" fill="#475293"/>
<path d="M88.0149 520.93C88.0149 521.623 89.1426 521.623 89.1426 520.93C89.1426 520.237 88.0149 520.237 88.0149 520.93Z" fill="#475293"/>
<path d="M49.7454 573.636C49.7454 574.329 50.873 574.329 50.873 573.636C50.873 572.874 49.7454 572.874 49.7454 573.636Z" fill="#475293"/>
<path d="M27.3338 570.727C27.3338 571.42 28.4614 571.42 28.4614 570.727C28.4614 570.035 27.3338 570.035 27.3338 570.727Z" fill="#475293"/>
<path d="M27.3333 607.157C27.3333 607.85 28.4609 607.85 28.4609 607.157C28.4609 606.465 27.3333 606.465 27.3333 607.157Z" fill="#475293"/>
<path d="M262.941 617.615C262.941 618.308 264.068 618.308 264.068 617.615C264.068 616.853 262.941 616.853 262.941 617.615Z" fill="#475293"/>
<path d="M259.98 545.794C259.98 546.487 261.108 546.487 261.108 545.794C261.108 545.101 259.98 545.101 259.98 545.794Z" fill="#475293"/>
<path d="M218.469 486.785C218.469 487.478 219.597 487.478 219.597 486.785C219.597 486.093 218.469 486.093 218.469 486.785Z" fill="#475293"/>
<path d="M248.14 380.127C248.14 380.819 249.268 380.819 249.268 380.127C249.268 379.365 248.14 379.365 248.14 380.127Z" fill="#475293"/>
<path d="M182.173 392.801C182.173 393.494 183.301 393.494 183.301 392.801C183.301 392.109 182.173 392.109 182.173 392.801Z" fill="#475293"/>
<path d="M297.616 546.21C297.616 546.902 298.743 546.902 298.743 546.21C298.743 545.517 297.616 545.517 297.616 546.21Z" fill="#475293"/>
<path d="M283.45 529.449C283.45 530.142 284.577 530.142 284.577 529.449C284.577 528.687 283.45 528.687 283.45 529.449Z" fill="#475293"/>
<path d="M316.433 421.751C316.433 422.444 317.561 422.444 317.561 421.751C317.561 421.059 316.433 421.059 316.433 421.751Z" fill="#475293"/>
<path d="M320.591 301.933C320.591 302.626 321.719 302.626 321.719 301.933C321.719 301.241 320.591 301.241 320.591 301.933Z" fill="#475293"/>
<path d="M186.895 297.293C186.895 297.986 188.022 297.986 188.022 297.293C188.022 296.601 186.895 296.601 186.895 297.293Z" fill="#475293"/>
<path d="M155.673 431.032C155.673 431.725 156.801 431.725 156.801 431.032C156.801 430.339 155.673 430.339 155.673 431.032Z" fill="#475293"/>
<path d="M112.682 528.272C112.682 528.964 113.81 528.964 113.81 528.272C113.81 527.579 112.682 527.579 112.682 528.272Z" fill="#475293"/>
<path d="M82.0242 545.656C82.0242 546.348 83.1519 546.348 83.1519 545.656C83.1519 544.894 82.0242 544.894 82.0242 545.656Z" fill="#475293"/>
<path d="M269.354 438.581C269.354 439.274 270.481 439.274 270.481 438.581C270.481 437.819 269.354 437.819 269.354 438.581Z" fill="#475293"/>
<path d="M231.085 430.478C231.085 431.171 232.212 431.171 232.212 430.478C232.142 429.716 231.085 429.716 231.085 430.478Z" fill="#475293"/>
<path d="M195.705 456.519C195.705 457.212 196.833 457.212 196.833 456.519C196.833 455.758 195.705 455.758 195.705 456.519Z" fill="#475293"/>
<path d="M201.625 513.242C201.625 513.935 202.752 513.935 202.752 513.242C202.752 512.48 201.625 512.48 201.625 513.242Z" fill="#475293"/>
<path d="M243.982 521.9C243.982 522.592 245.109 522.592 245.109 521.9C245.109 521.207 243.982 521.207 243.982 521.9Z" fill="#475293"/>
<path d="M278.798 483.115C278.798 483.807 279.926 483.807 279.926 483.115C279.855 482.422 278.798 482.422 278.798 483.115Z" fill="#475293"/>
<path d="M306.425 470.371C306.425 471.064 307.553 471.064 307.553 470.371C307.553 469.678 306.425 469.678 306.425 470.371Z" fill="#475293"/>
<path d="M295.853 382.966C295.853 383.659 296.981 383.659 296.981 382.966C296.981 382.274 295.853 382.274 295.853 382.966Z" fill="#475293"/>
<path d="M249.338 399.796C249.338 400.489 250.466 400.489 250.466 399.796C250.466 399.034 249.338 399.034 249.338 399.796Z" fill="#475293"/>
<path d="M276.966 376.041C276.966 376.733 278.093 376.733 278.093 376.041C278.093 375.348 276.966 375.348 276.966 376.041Z" fill="#475293"/>
<path d="M317.067 351.731C317.067 352.423 318.195 352.423 318.195 351.731C318.195 351.038 317.067 351.038 317.067 351.731Z" fill="#475293"/>
<path d="M285.846 316.409C285.846 317.101 286.973 317.101 286.973 316.409C286.973 315.716 285.846 315.716 285.846 316.409Z" fill="#475293"/>
<path d="M255.188 334.347C255.188 335.039 256.315 335.039 256.315 334.347C256.315 333.654 255.188 333.654 255.188 334.347Z" fill="#475293"/>
<path d="M198.101 342.45C198.101 343.143 199.229 343.143 199.229 342.45C199.158 341.757 198.101 341.757 198.101 342.45Z" fill="#475293"/>
<path d="M162.158 301.38C162.158 302.072 163.285 302.072 163.285 301.38C163.285 300.687 162.158 300.687 162.158 301.38Z" fill="#475293"/>
<path d="M175.689 264.326C175.689 265.019 176.816 265.019 176.816 264.326C176.816 263.634 175.689 263.634 175.689 264.326Z" fill="#475293"/>
<path d="M242.854 256.223C242.854 256.915 243.982 256.915 243.982 256.223C243.982 255.53 242.854 255.53 242.854 256.223Z" fill="#475293"/>
<path d="M218.116 288.636C218.116 289.329 219.244 289.329 219.244 288.636C219.244 287.943 218.116 287.943 218.116 288.636Z" fill="#475293"/>
<path d="M239.33 303.111C239.33 303.804 240.458 303.804 240.458 303.111C240.388 302.418 239.33 302.418 239.33 303.111Z" fill="#475293"/>
<path d="M258.712 278.801C258.712 279.494 259.839 279.494 259.839 278.801C259.839 278.109 258.712 278.109 258.712 278.801Z" fill="#475293"/>
<path d="M325.877 250.474C325.877 251.167 327.005 251.167 327.005 250.474C327.005 249.713 325.877 249.713 325.877 250.474Z" fill="#475293"/>
<path d="M155.11 336.702C155.11 337.394 156.237 337.394 156.237 336.702C156.167 336.009 155.11 336.009 155.11 336.702Z" fill="#475293"/>
<path d="M116.77 389.338C116.77 390.031 117.897 390.031 117.897 389.338C117.897 388.646 116.77 388.646 116.77 389.338Z" fill="#475293"/>
<path d="M94.4285 386.43C94.4285 387.122 95.5562 387.122 95.5562 386.43C95.5562 385.737 94.4285 385.737 94.4285 386.43Z" fill="#475293"/>
<path d="M94.4285 422.929C94.4285 423.621 95.5562 423.621 95.5562 422.929C95.5562 422.236 94.4285 422.236 94.4285 422.929Z" fill="#475293"/>
<path d="M145.031 498.144C145.031 498.836 146.159 498.836 146.159 498.144C146.159 497.451 145.031 497.451 145.031 498.144Z" fill="#475293"/>
<path d="M176.253 549.118C176.253 549.811 177.38 549.811 177.38 549.118C177.38 548.426 176.253 548.426 176.253 549.118Z" fill="#475293"/>
<path d="M317.631 563.594C317.631 564.286 318.759 564.286 318.759 563.594C318.759 562.832 317.631 562.832 317.631 563.594Z" fill="#475293"/>
<path d="M243.418 540.392C243.418 541.085 244.546 541.085 244.546 540.392C244.546 539.699 243.418 539.699 243.418 540.392Z" fill="#475293"/>
<path d="M258.148 457.073C258.148 457.766 259.275 457.766 259.275 457.073C259.275 456.381 258.148 456.381 258.148 457.073Z" fill="#475293"/>
<path d="M222.486 606.603C222.486 607.296 223.614 607.296 223.614 606.603C223.614 605.911 222.486 605.911 222.486 606.603Z" fill="#475293"/>
<path d="M336.167 614.083C336.167 614.776 337.294 614.776 337.294 614.083C337.294 613.391 336.167 613.391 336.167 614.083Z" fill="#475293"/>
<path d="M297.897 605.98C297.897 606.672 299.025 606.672 299.025 605.98C298.954 605.287 297.897 605.287 297.897 605.98Z" fill="#475293"/>
<path d="M144.467 604.11C144.467 604.803 145.595 604.803 145.595 604.11C145.524 603.417 144.467 603.417 144.467 604.11Z" fill="#475293"/>
<path d="M279.573 615.399C279.573 616.092 280.701 616.092 280.701 615.399C280.701 614.637 279.573 614.637 279.573 615.399Z" fill="#475293"/>
<path d="M308.469 611.313C308.469 612.005 309.597 612.005 309.597 611.313C309.597 610.62 308.469 610.62 308.469 611.313Z" fill="#475293"/>
<path d="M186.402 506.594C186.402 507.286 187.529 507.286 187.529 506.594C187.529 505.901 186.402 505.901 186.402 506.594Z" fill="#475293"/>
<path d="M220.583 408.592C220.583 409.285 221.711 409.285 221.711 408.592C221.64 407.9 220.583 407.9 220.583 408.592Z" fill="#475293"/>
<path d="M274.358 498.698C274.358 499.39 275.485 499.39 275.485 498.698C275.485 498.005 274.358 498.005 274.358 498.698Z" fill="#475293"/>
<path d="M157.717 352.839C157.717 353.531 158.845 353.531 158.845 352.839C158.845 352.146 157.717 352.146 157.717 352.839Z" fill="#475293"/>
<path d="M114.726 450.078C114.726 450.771 115.854 450.771 115.854 450.078C115.854 449.386 114.726 449.386 114.726 450.078Z" fill="#475293"/>
<path d="M84.1385 467.393C84.1385 468.086 85.2661 468.086 85.2661 467.393C85.1956 466.701 84.1385 466.701 84.1385 467.393Z" fill="#475293"/>
<path d="M122.971 518.922C122.971 519.614 124.099 519.614 124.099 518.922C124.099 518.229 122.971 518.229 122.971 518.922Z" fill="#475293"/>
<path d="M241.374 520.099C241.374 520.792 242.502 520.792 242.502 520.099C242.502 519.407 241.374 519.407 241.374 520.099Z" fill="#475293"/>
<path d="M271.398 360.319C271.398 361.012 272.525 361.012 272.525 360.319C272.525 359.626 271.398 359.626 271.398 360.319Z" fill="#475293"/>
<path d="M233.128 352.216C233.128 352.908 234.256 352.908 234.256 352.216C234.256 351.523 233.128 351.523 233.128 352.216Z" fill="#475293"/>
<path d="M197.748 378.257C197.748 378.95 198.876 378.95 198.876 378.257C198.876 377.564 197.748 377.564 197.748 378.257Z" fill="#475293"/>
<path d="M203.669 434.98C203.669 435.672 204.796 435.672 204.796 434.98C204.796 434.287 203.669 434.287 203.669 434.98Z" fill="#475293"/>
<path d="M246.096 443.706C246.096 444.399 247.224 444.399 247.224 443.706C247.224 443.014 246.096 443.014 246.096 443.706Z" fill="#475293"/>
<path d="M147.145 419.951C147.145 420.643 148.273 420.643 148.273 419.951C148.273 419.258 147.145 419.258 147.145 419.951Z" fill="#475293"/>
<path d="M178.367 470.925C178.367 471.618 179.495 471.618 179.495 470.925C179.425 470.163 178.367 470.163 178.367 470.925Z" fill="#475293"/>
<path d="M222.486 520.653C222.486 521.346 223.614 521.346 223.614 520.653C223.614 519.961 222.486 519.961 222.486 520.653Z" fill="#475293"/>
<path d="M245.462 462.199C245.462 462.891 246.59 462.891 246.59 462.199C246.59 461.506 245.462 461.506 245.462 462.199Z" fill="#475293"/>
<path d="M260.192 378.88C260.192 379.573 261.32 379.573 261.32 378.88C261.32 378.188 260.192 378.188 260.192 378.88Z" fill="#475293"/>
<path d="M79.6985 350.346C79.6985 351.038 80.8262 351.038 80.8262 350.346C80.8262 349.653 79.6985 349.653 79.6985 350.346Z" fill="#475293"/>
<path d="M221.077 364.821C221.077 365.513 222.205 365.513 222.205 364.821C222.134 364.128 221.077 364.128 221.077 364.821Z" fill="#475293"/>
<path d="M220.231 467.739C220.231 468.432 221.359 468.432 221.359 467.739C221.359 466.978 220.231 466.978 220.231 467.739Z" fill="#475293"/>
<path d="M86.535 463.099C86.535 463.792 87.6626 463.792 87.6626 463.099C87.6626 462.406 86.535 462.406 86.535 463.099Z" fill="#475293"/>
<path d="M216.707 517.467C216.707 518.16 217.834 518.16 217.834 517.467C217.834 516.775 216.707 516.775 216.707 517.467Z" fill="#475293"/>
<path d="M185.485 482.214C185.485 482.907 186.613 482.907 186.613 482.214C186.613 481.452 185.485 481.452 185.485 482.214Z" fill="#475293"/>
<path d="M154.828 500.152C154.828 500.845 155.956 500.845 155.956 500.152C155.956 499.391 154.828 499.391 154.828 500.152Z" fill="#475293"/>
<path d="M97.7405 508.256C97.7405 508.948 98.8682 508.948 98.8682 508.256C98.8682 507.494 97.7405 507.494 97.7405 508.256Z" fill="#475293"/>
<path d="M61.7972 467.116C61.7972 467.809 62.9248 467.809 62.9248 467.116C62.9248 466.423 61.7972 466.423 61.7972 467.116Z" fill="#475293"/>
<path d="M75.3289 430.063C75.3289 430.755 76.4565 430.755 76.4565 430.063C76.4565 429.37 75.3289 429.37 75.3289 430.063Z" fill="#475293"/>
<path d="M142.494 421.959C142.494 422.652 143.622 422.652 143.622 421.959C143.622 421.267 142.494 421.267 142.494 421.959Z" fill="#475293"/>
<path d="M117.757 454.372C117.757 455.065 118.884 455.065 118.884 454.372C118.884 453.68 117.757 453.68 117.757 454.372Z" fill="#475293"/>
<path d="M138.97 468.848C138.97 469.54 140.098 469.54 140.098 468.848C140.098 468.155 138.97 468.155 138.97 468.848Z" fill="#475293"/>
<path d="M158.422 444.537C158.422 445.23 159.55 445.23 159.55 444.537C159.479 443.845 158.422 443.845 158.422 444.537Z" fill="#475293"/>
<path d="M225.517 416.211C225.517 416.903 226.645 416.903 226.645 416.211C226.645 415.518 225.517 415.518 225.517 416.211Z" fill="#475293"/>
<path d="M54.7493 502.438C54.7493 503.13 55.877 503.13 55.877 502.438C55.877 501.745 54.7493 501.745 54.7493 502.438Z" fill="#475293"/>
<path d="M226.715 527.302C226.715 527.994 227.842 527.994 227.842 527.302C227.842 526.609 226.715 526.609 226.715 527.302Z" fill="#475293"/>
<path d="M185.203 468.293C185.203 468.986 186.331 468.986 186.331 468.293C186.331 467.601 185.203 467.601 185.203 468.293Z" fill="#475293"/>
<path d="M214.875 361.635C214.875 362.327 216.002 362.327 216.002 361.635C215.932 360.873 214.875 360.873 214.875 361.635Z" fill="#475293"/>
<path d="M148.908 374.309C148.908 375.002 150.035 375.002 150.035 374.309C149.965 373.617 148.908 373.617 148.908 374.309Z" fill="#475293"/>
<path d="M264.28 527.718C264.28 528.41 265.407 528.41 265.407 527.718C265.407 527.025 264.28 527.025 264.28 527.718Z" fill="#475293"/>
<path d="M250.184 510.957C250.184 511.649 251.312 511.649 251.312 510.957C251.312 510.195 250.184 510.195 250.184 510.957Z" fill="#475293"/>
<path d="M122.337 412.54C122.337 413.233 123.465 413.233 123.465 412.54C123.465 411.848 122.337 411.848 122.337 412.54Z" fill="#475293"/>
<path d="M79.346 509.779C79.346 510.472 80.4736 510.472 80.4736 509.779C80.4736 509.087 79.346 509.087 79.346 509.779Z" fill="#475293"/>
<path d="M48.7591 527.163C48.7591 527.856 49.8867 527.856 49.8867 527.163C49.8867 526.402 48.7591 526.402 48.7591 527.163Z" fill="#475293"/>
<path d="M236.018 420.089C236.018 420.782 237.146 420.782 237.146 420.089C237.146 419.327 236.018 419.327 236.018 420.089Z" fill="#475293"/>
<path d="M197.748 411.986C197.748 412.679 198.876 412.679 198.876 411.986C198.876 411.224 197.748 411.224 197.748 411.986Z" fill="#475293"/>
<path d="M162.439 438.027C162.439 438.72 163.567 438.72 163.567 438.027C163.567 437.265 162.439 437.265 162.439 438.027Z" fill="#475293"/>
<path d="M168.289 494.75C168.289 495.443 169.417 495.443 169.417 494.75C169.417 493.988 168.289 493.988 168.289 494.75Z" fill="#475293"/>
<path d="M210.717 503.408C210.717 504.1 211.844 504.1 211.844 503.408C211.844 502.715 210.717 502.715 210.717 503.408Z" fill="#475293"/>
<path d="M245.462 464.623C245.462 465.315 246.59 465.315 246.59 464.623C246.59 463.93 245.462 463.93 245.462 464.623Z" fill="#475293"/>
<path d="M273.16 451.879C273.16 452.572 274.288 452.572 274.288 451.879C274.288 451.186 273.16 451.186 273.16 451.879Z" fill="#475293"/>
<path d="M262.517 364.474C262.517 365.167 263.645 365.167 263.645 364.474C263.645 363.782 262.517 363.782 262.517 364.474Z" fill="#475293"/>
<path d="M216.002 381.304C216.002 381.997 217.13 381.997 217.13 381.304C217.13 380.542 216.002 380.542 216.002 381.304Z" fill="#475293"/>
<path d="M243.7 357.548C243.7 358.241 244.828 358.241 244.828 357.548C244.828 356.856 243.7 356.856 243.7 357.548Z" fill="#475293"/>
<path d="M83.5042 370.846C83.5042 371.539 84.6318 371.539 84.6318 370.846C84.6318 370.154 83.5042 370.154 83.5042 370.846Z" fill="#475293"/>
<path d="M61.0926 367.937C61.0926 368.63 62.2202 368.63 62.2202 367.937C62.2202 367.245 61.0926 367.245 61.0926 367.937Z" fill="#475293"/>
<path d="M61.0926 404.437C61.0926 405.129 62.2202 405.129 62.2202 404.437C62.2202 403.744 61.0926 403.744 61.0926 404.437Z" fill="#475293"/>
<path d="M111.766 479.652C111.766 480.344 112.894 480.344 112.894 479.652C112.894 478.959 111.766 478.959 111.766 479.652Z" fill="#475293"/>
<path d="M142.987 530.627C142.987 531.319 144.115 531.319 144.115 530.627C144.115 529.934 142.987 529.934 142.987 530.627Z" fill="#475293"/>
<path d="M210.153 521.9C210.153 522.592 211.28 522.592 211.28 521.9C211.28 521.207 210.153 521.207 210.153 521.9Z" fill="#475293"/>
<path d="M224.883 438.581C224.883 439.274 226.01 439.274 226.01 438.581C225.94 437.889 224.883 437.889 224.883 438.581Z" fill="#475293"/>
<path d="M198.453 397.441C198.453 398.134 199.581 398.134 199.581 397.441C199.581 396.749 198.453 396.749 198.453 397.441Z" fill="#475293"/>
<path d="M232.635 299.441C232.635 300.133 233.763 300.133 233.763 299.441C233.692 298.748 232.635 298.748 232.635 299.441Z" fill="#475293"/>
<path d="M286.409 389.546C286.409 390.239 287.537 390.239 287.537 389.546C287.537 388.854 286.409 388.854 286.409 389.546Z" fill="#475293"/>
<path d="M169.769 243.687C169.769 244.38 170.896 244.38 170.896 243.687C170.896 242.995 169.769 242.995 169.769 243.687Z" fill="#475293"/>
<path d="M126.778 340.927C126.778 341.619 127.905 341.619 127.905 340.927C127.905 340.234 126.778 340.234 126.778 340.927Z" fill="#475293"/>
<path d="M96.1902 358.31C96.1902 359.003 97.3179 359.003 97.3179 358.31C97.2474 357.618 96.1902 357.618 96.1902 358.31Z" fill="#475293"/>
<path d="M135.024 409.839C135.024 410.532 136.151 410.532 136.151 409.839C136.151 409.077 135.024 409.077 135.024 409.839Z" fill="#475293"/>
<path d="M253.426 410.947C253.426 411.639 254.554 411.639 254.554 410.947C254.554 410.254 253.426 410.254 253.426 410.947Z" fill="#475293"/>
<path d="M283.45 251.236C283.45 251.929 284.577 251.929 284.577 251.236C284.577 250.544 283.45 250.544 283.45 251.236Z" fill="#475293"/>
<path d="M245.18 243.133C245.18 243.826 246.308 243.826 246.308 243.133C246.308 242.441 245.18 242.441 245.18 243.133Z" fill="#475293"/>
<path d="M209.8 269.174C209.8 269.867 210.928 269.867 210.928 269.174C210.928 268.482 209.8 268.482 209.8 269.174Z" fill="#475293"/>
<path d="M215.72 325.897C215.72 326.59 216.848 326.59 216.848 325.897C216.848 325.205 215.72 325.205 215.72 325.897Z" fill="#475293"/>
<path d="M258.148 334.555C258.148 335.247 259.275 335.247 259.275 334.555C259.275 333.862 258.148 333.862 258.148 334.555Z" fill="#475293"/>
<path d="M159.198 310.868C159.198 311.561 160.325 311.561 160.325 310.868C160.325 310.106 159.198 310.106 159.198 310.868Z" fill="#475293"/>
<path d="M190.419 361.773C190.419 362.466 191.546 362.466 191.546 361.773C191.476 361.08 190.419 361.08 190.419 361.773Z" fill="#475293"/>
<path d="M234.538 411.57C234.538 412.263 235.666 412.263 235.666 411.57C235.666 410.809 234.538 410.809 234.538 411.57Z" fill="#475293"/>
<path d="M257.513 353.116C257.513 353.808 258.641 353.808 258.641 353.116C258.641 352.354 257.513 352.354 257.513 353.116Z" fill="#475293"/>
<path d="M272.243 269.728C272.243 270.421 273.371 270.421 273.371 269.728C273.371 269.036 272.243 269.036 272.243 269.728Z" fill="#475293"/>
<path d="M91.7503 241.194C91.7503 241.886 92.8779 241.886 92.8779 241.194C92.8779 240.501 91.7503 240.501 91.7503 241.194Z" fill="#475293"/>
<path d="M233.128 255.669C233.128 256.361 234.256 256.361 234.256 255.669C234.185 254.976 233.128 254.976 233.128 255.669Z" fill="#475293"/>
<path d="M232.283 358.587C232.283 359.28 233.41 359.28 233.41 358.587C233.41 357.895 232.283 357.895 232.283 358.587Z" fill="#475293"/>
<path d="M98.5862 353.947C98.5862 354.64 99.7139 354.64 99.7139 353.947C99.7139 353.255 98.5862 353.255 98.5862 353.947Z" fill="#475293"/>
<path d="M228.759 408.385C228.759 409.077 229.887 409.077 229.887 408.385C229.887 407.623 228.759 407.623 228.759 408.385Z" fill="#475293"/>
<path d="M197.537 373.063C197.537 373.755 198.665 373.755 198.665 373.063C198.665 372.37 197.537 372.37 197.537 373.063Z" fill="#475293"/>
<path d="M166.879 391.001C166.879 391.693 168.007 391.693 168.007 391.001C168.007 390.308 166.879 390.308 166.879 391.001Z" fill="#475293"/>
<path d="M109.792 399.104C109.792 399.796 110.92 399.796 110.92 399.104C110.92 398.411 109.792 398.411 109.792 399.104Z" fill="#475293"/>
<path d="M73.8489 358.034C73.8489 358.726 74.9766 358.726 74.9766 358.034C74.9766 357.272 73.8489 357.272 73.8489 358.034Z" fill="#475293"/>
<path d="M87.3807 320.98C87.3807 321.673 88.5083 321.673 88.5083 320.98C88.5083 320.287 87.3807 320.287 87.3807 320.98Z" fill="#475293"/>
<path d="M154.546 312.877C154.546 313.569 155.673 313.569 155.673 312.877C155.673 312.184 154.546 312.184 154.546 312.877Z" fill="#475293"/>
<path d="M129.808 345.29C129.808 345.982 130.936 345.982 130.936 345.29C130.936 344.597 129.808 344.597 129.808 345.29Z" fill="#475293"/>
<path d="M151.022 359.765C151.022 360.458 152.149 360.458 152.149 359.765C152.149 359.072 151.022 359.003 151.022 359.765Z" fill="#475293"/>
<path d="M170.473 335.455C170.473 336.148 171.601 336.148 171.601 335.455C171.531 334.762 170.473 334.762 170.473 335.455Z" fill="#475293"/>
<path d="M237.569 307.059C237.569 307.752 238.696 307.752 238.696 307.059C238.696 306.366 237.569 306.366 237.569 307.059Z" fill="#475293"/>
<path d="M66.8011 393.286C66.8011 393.979 67.9287 393.979 67.9287 393.286C67.9287 392.593 66.8011 392.593 66.8011 393.286Z" fill="#475293"/>
<path d="M238.766 418.219C238.766 418.912 239.894 418.912 239.894 418.219C239.894 417.527 238.766 417.527 238.766 418.219Z" fill="#475293"/>
<path d="M251.171 335.663C251.171 335.594 251.24 335.594 251.171 335.663Z" fill="#475293"/>
<path d="M197.255 359.141C197.255 359.834 198.383 359.834 198.383 359.141C198.383 358.449 197.255 358.449 197.255 359.141Z" fill="#475293"/>
<path d="M226.927 252.483C226.927 253.175 228.054 253.175 228.054 252.483C227.984 251.79 226.927 251.79 226.927 252.483Z" fill="#475293"/>
<path d="M160.959 265.227C160.959 265.919 162.087 265.919 162.087 265.227C162.016 264.534 160.959 264.534 160.959 265.227Z" fill="#475293"/>
<path d="M276.402 418.566C276.402 419.258 277.529 419.258 277.529 418.566C277.459 417.873 276.402 417.873 276.402 418.566Z" fill="#475293"/>
<path d="M262.236 401.805C262.236 402.497 263.363 402.497 263.363 401.805C263.363 401.112 262.236 401.112 262.236 401.805Z" fill="#475293"/>
<path d="M134.389 303.388C134.389 304.081 135.517 304.081 135.517 303.388C135.517 302.695 134.389 302.695 134.389 303.388Z" fill="#475293"/>
<path d="M91.3977 400.628C91.3977 401.32 92.5254 401.32 92.5254 400.628C92.5254 399.935 91.3977 399.935 91.3977 400.628Z" fill="#475293"/>
<path d="M60.8104 418.011C60.8104 418.704 61.938 418.704 61.938 418.011C61.938 417.319 60.8104 417.319 60.8104 418.011Z" fill="#475293"/>
<path d="M248.07 310.937C248.07 311.63 249.197 311.63 249.197 310.937C249.197 310.245 248.07 310.245 248.07 310.937Z" fill="#475293"/>
<path d="M209.8 302.834C209.8 303.527 210.928 303.527 210.928 302.834C210.928 302.141 209.8 302.141 209.8 302.834Z" fill="#475293"/>
<path d="M174.491 328.875C174.491 329.568 175.619 329.568 175.619 328.875C175.619 328.183 174.491 328.183 174.491 328.875Z" fill="#475293"/>
<path d="M180.341 385.598C180.341 386.291 181.468 386.291 181.468 385.598C181.468 384.906 180.341 384.906 180.341 385.598Z" fill="#475293"/>
<path d="M222.768 394.256C222.768 394.948 223.896 394.948 223.896 394.256C223.896 393.563 222.768 393.563 222.768 394.256Z" fill="#475293"/>
<path d="M257.513 355.471C257.513 356.163 258.641 356.163 258.641 355.471C258.641 354.778 257.513 354.778 257.513 355.471Z" fill="#475293"/>
<path d="M285.211 342.796C285.211 343.489 286.339 343.489 286.339 342.796C286.339 342.034 285.211 342.034 285.211 342.796Z" fill="#475293"/>
<path d="M274.569 255.392C274.569 256.084 275.697 256.084 275.697 255.392C275.697 254.63 274.569 254.63 274.569 255.392Z" fill="#475293"/>
<path d="M228.054 272.152C228.054 272.845 229.182 272.845 229.182 272.152C229.182 271.46 228.054 271.46 228.054 272.152Z" fill="#475293"/>
<path d="M255.752 248.397C255.752 249.089 256.879 249.089 256.879 248.397C256.879 247.704 255.752 247.704 255.752 248.397Z" fill="#475293"/>
<path d="M95.5559 261.764C95.5559 262.456 96.6836 262.456 96.6836 261.764C96.6836 261.002 95.5559 261.002 95.5559 261.764Z" fill="#475293"/>
<path d="M73.1439 258.855C73.1439 259.547 74.2715 259.547 74.2715 258.855C74.2715 258.162 73.1439 258.162 73.1439 258.855Z" fill="#475293"/>
<path d="M73.1439 295.285C73.1439 295.978 74.2715 295.978 74.2715 295.285C74.2715 294.592 73.1439 294.592 73.1439 295.285Z" fill="#475293"/>
<path d="M123.817 370.569C123.817 371.262 124.945 371.262 124.945 370.569C124.945 369.877 123.817 369.807 123.817 370.569Z" fill="#475293"/>
<path d="M155.039 421.474C155.039 422.167 156.167 422.167 156.167 421.474C156.167 420.782 155.039 420.782 155.039 421.474Z" fill="#475293"/>
<path d="M222.204 412.817C222.204 413.51 223.332 413.51 223.332 412.817C223.332 412.124 222.204 412.124 222.204 412.817Z" fill="#475293"/>
<path d="M236.934 329.429C236.934 330.122 238.062 330.122 238.062 329.429C237.992 328.737 236.934 328.737 236.934 329.429Z" fill="#475293"/>
<path d="M330.035 433.317C330.035 434.01 331.163 434.01 331.163 433.317C331.092 432.625 330.035 432.625 330.035 433.317Z" fill="#475293"/>
<path d="M327.075 361.565C327.075 362.258 328.203 362.258 328.203 361.565C328.203 360.873 327.075 360.873 327.075 361.565Z" fill="#475293"/>
<path d="M262.87 482.768C262.87 483.807 264.561 483.807 264.561 482.768C264.561 481.66 262.87 481.66 262.87 482.768Z" fill="white"/>
<path d="M247.224 493.434C247.224 494.473 248.916 494.473 248.916 493.434C248.916 492.395 247.224 492.395 247.224 493.434Z" fill="white"/>
<path d="M250.747 72.1329C250.747 73.1718 252.439 73.1718 252.439 72.1329C252.439 71.0941 250.747 71.0941 250.747 72.1329Z" fill="white"/>
<path d="M304.804 12.0162C304.804 13.0551 306.496 13.0551 306.496 12.0162C306.496 10.9081 304.804 10.9081 304.804 12.0162Z" fill="white"/>
<path d="M236.018 190.011C236.018 191.05 237.709 191.05 237.709 190.011C237.709 188.903 236.018 188.903 236.018 190.011Z" fill="white"/>
<path d="M242.995 427.777C242.995 428.816 244.687 428.816 244.687 427.777C244.687 426.738 242.995 426.738 242.995 427.777Z" fill="white"/>
<path d="M296.065 502.299C296.065 503.338 297.756 503.338 297.756 502.299C297.756 501.26 296.065 501.26 296.065 502.299Z" fill="white"/>
<path d="M297.968 546.556C297.968 547.595 299.659 547.595 299.659 546.556C299.659 545.517 297.968 545.517 297.968 546.556Z" fill="white"/>
<path d="M264.35 568.926C264.35 569.965 266.041 569.965 266.041 568.926C265.971 567.887 264.35 567.887 264.35 568.926Z" fill="white"/>
<path d="M158.14 384.906C158.14 385.945 159.832 385.945 159.832 384.906C159.832 383.867 158.14 383.867 158.14 384.906Z" fill="white"/>
<path d="M183.23 323.889C183.23 324.927 184.921 324.927 184.921 323.889C184.921 322.85 183.23 322.85 183.23 323.889Z" fill="white"/>
<path d="M323.128 263.356C323.128 264.395 324.82 264.395 324.82 263.356C324.749 262.248 323.128 262.248 323.128 263.356Z" fill="white"/>
<path d="M336.872 317.378C336.872 318.417 338.563 318.417 338.563 317.378C338.493 316.339 336.872 316.339 336.872 317.378Z" fill="white"/>
<path d="M298.955 278.247C298.955 279.286 300.646 279.286 300.646 278.247C300.576 277.208 298.955 277.208 298.955 278.247Z" fill="white"/>
<path d="M346.315 217.715C346.315 218.754 348.007 218.754 348.007 217.715C348.007 216.607 346.315 216.607 346.315 217.715Z" fill="white"/>
<path d="M342.087 228.866C342.087 229.904 343.778 229.904 343.778 228.866C343.708 227.827 342.087 227.827 342.087 228.866Z" fill="white"/>
<path d="M246.801 141.53C246.801 142.569 248.493 142.569 248.493 141.53C248.422 140.491 246.801 140.491 246.801 141.53Z" fill="white"/>
<path d="M234.679 50.6627C234.679 51.7016 236.37 51.7016 236.37 50.6627C236.37 49.6239 234.679 49.6239 234.679 50.6627Z" fill="white"/>
<path d="M211.21 42.2824C211.21 43.3212 212.901 43.3212 212.901 42.2824C212.901 41.2435 211.21 41.2435 211.21 42.2824Z" fill="white"/>
<path d="M108.806 127.54C108.806 128.579 110.497 128.579 110.497 127.54C110.497 126.501 108.806 126.501 108.806 127.54Z" fill="white"/>
<path d="M74.6948 170.896C74.6948 171.935 76.3862 171.935 76.3862 170.896C76.3862 169.788 74.6948 169.788 74.6948 170.896Z" fill="white"/>
<path d="M359.143 108.009C359.143 109.048 360.834 109.048 360.834 108.009C360.834 106.901 359.143 106.901 359.143 108.009Z" fill="white"/>
<path d="M322.142 39.5119C322.142 40.5507 323.833 40.5507 323.833 39.5119C323.833 38.473 322.142 38.473 322.142 39.5119Z" fill="white"/>
<path d="M147.921 293.83C147.921 294.869 149.612 294.869 149.612 293.83C149.612 292.791 147.921 292.791 147.921 293.83Z" fill="white"/>
<path d="M126.636 279.909C126.636 280.948 128.328 280.948 128.328 279.909C128.257 278.801 126.636 278.801 126.636 279.909Z" fill="white"/>
<path d="M121.632 367.937C121.632 368.976 123.324 368.976 123.324 367.937C123.324 366.898 121.632 366.829 121.632 367.937Z" fill="white"/>
<path d="M136.574 347.644C136.574 348.683 138.266 348.683 138.266 347.644C138.266 346.606 136.574 346.606 136.574 347.644Z" fill="white"/>
<path d="M99.5732 394.463C99.5732 395.502 101.265 395.502 101.265 394.463C101.265 393.424 99.5732 393.424 99.5732 394.463Z" fill="white"/>
<path d="M177.803 548.911C177.803 549.949 179.495 549.949 179.495 548.911C179.495 547.872 177.803 547.872 177.803 548.911Z" fill="white"/>
</g>
</svg>
