<svg width="390" height="612" viewBox="0 0 390 612" fill="none" xmlns="http://www.w3.org/2000/svg">
<mask id="mask0_456_4185" style="mask-type:alpha" maskUnits="userSpaceOnUse" x="0" y="0" width="390" height="612">
<rect width="390" height="612" fill="#0D6251"/>
</mask>
<g mask="url(#mask0_456_4185)">
<g opacity="0.1">
<path d="M364.678 428.218C364.678 396.548 340.76 370.674 311.16 370.392C311.16 402.062 335.078 427.935 364.678 428.218Z" fill="#52D589"/>
<path d="M310.896 489.013C340.496 489.013 364.679 463.423 364.943 431.752C335.211 431.752 311.161 457.343 310.896 489.013Z" fill="#52D589"/>
<path d="M368.247 431.187C368.247 462.857 392.165 488.73 421.765 489.013C421.765 457.343 397.847 431.611 368.247 431.187Z" fill="#52D589"/>
<path d="M422.029 370.392C392.429 370.392 368.247 395.982 367.982 427.652C397.582 427.652 421.633 402.062 422.029 370.392Z" fill="#52D589"/>
<path d="M364.678 550.374C364.678 518.704 340.76 492.831 311.16 492.548C311.16 524.359 335.078 550.091 364.678 550.374Z" fill="#52D589"/>
<path d="M310.896 611.17C340.496 611.17 364.679 585.579 364.943 553.909C335.211 554.05 311.161 579.5 310.896 611.17Z" fill="#52D589"/>
<path d="M368.246 553.343C368.246 585.013 392.164 610.887 421.765 611.17C421.765 579.499 397.847 553.767 368.246 553.343Z" fill="#52D589"/>
<path d="M422.029 492.548C392.429 492.548 368.247 518.138 367.982 549.809C397.582 549.809 421.633 524.218 422.029 492.548Z" fill="#52D589"/>
<path d="M251.035 428.218C251.035 396.548 227.117 370.674 197.517 370.392C197.517 402.062 221.435 427.935 251.035 428.218Z" fill="#9FD8CD"/>
<path d="M254.603 431.187C254.603 462.857 278.521 488.73 308.121 489.013C308.121 457.343 284.203 431.611 254.603 431.187Z" fill="#52D589"/>
<path d="M251.035 550.374C251.035 518.704 227.117 492.831 197.517 492.548C197.517 524.359 221.435 550.091 251.035 550.374Z" fill="#52D589"/>
<path d="M254.603 553.343C254.603 585.013 278.521 610.887 308.121 611.17C308.121 579.499 284.203 553.767 254.603 553.343Z" fill="#52D589"/>
<path d="M308.385 492.548C278.785 492.548 254.603 518.138 254.338 549.809C283.939 549.809 307.989 524.218 308.385 492.548Z" fill="#52D589"/>
<path d="M137.391 428.218C137.391 396.548 113.473 370.674 83.8726 370.392C83.8726 402.062 107.791 427.935 137.391 428.218Z" fill="#52D589"/>
<path d="M140.959 431.187C140.959 462.857 164.877 488.73 194.478 489.013C194.478 457.343 170.559 431.611 140.959 431.187Z" fill="#9FD8CD"/>
<path d="M194.742 370.392C165.142 370.392 140.959 395.982 140.695 427.652C170.295 427.652 194.346 402.062 194.742 370.392Z" fill="#9FD8CD"/>
<path d="M83.6087 611.17C113.209 611.17 137.391 585.579 137.656 553.909C107.923 554.05 83.873 579.5 83.6087 611.17Z" fill="#9FD8CD"/>
<path d="M194.742 492.548C165.142 492.548 140.959 518.138 140.695 549.809C170.295 549.809 194.346 524.218 194.742 492.548Z" fill="#52D589"/>
<path d="M79.7766 370.392C50.1764 370.392 25.9941 395.982 25.7298 427.652C55.33 427.652 79.3802 402.062 79.7766 370.392Z" fill="#86E1AD"/>
<path d="M364.678 183.622C364.678 151.952 340.76 126.079 311.16 125.796C311.16 157.466 335.078 183.339 364.678 183.622Z" fill="#52D589"/>
<path d="M368.247 186.591C368.247 218.261 392.165 244.135 421.765 244.418C421.765 212.747 397.847 187.015 368.247 186.591Z" fill="#52D589"/>
<path d="M422.029 125.796C392.429 125.796 368.247 151.387 367.982 183.057C397.582 183.057 421.633 157.466 422.029 125.796Z" fill="#52D589"/>
<path d="M364.678 305.779C364.678 274.109 340.76 248.235 311.16 247.952C311.16 279.764 335.078 305.496 364.678 305.779Z" fill="#52D589"/>
<path d="M310.896 366.574C340.496 366.574 364.679 340.983 364.943 309.313C335.211 309.455 311.161 334.904 310.896 366.574Z" fill="#9FD8CD"/>
<path d="M368.247 308.748C368.247 340.418 392.165 366.291 421.765 366.574C421.765 334.904 397.847 309.172 368.247 308.748Z" fill="#9FD8CD"/>
<path d="M422.029 247.952C392.429 247.952 368.247 273.543 367.982 305.213C397.582 305.213 421.633 279.623 422.029 247.952Z" fill="#52D589"/>
<path d="M251.035 183.622C251.035 151.952 227.117 126.079 197.517 125.796C197.517 157.466 221.435 183.339 251.035 183.622Z" fill="#52D589"/>
<path d="M254.603 186.591C254.603 218.261 278.521 244.135 308.121 244.418C308.121 212.747 284.203 187.015 254.603 186.591Z" fill="#52D589"/>
<path d="M308.385 125.796C278.785 125.796 254.603 151.387 254.338 183.057C283.939 183.057 307.989 157.466 308.385 125.796Z" fill="#52D589"/>
<path d="M251.035 305.779C251.035 274.109 227.117 248.235 197.517 247.952C197.517 279.764 221.435 305.496 251.035 305.779Z" fill="#52D589"/>
<path d="M197.252 366.574C226.853 366.574 251.035 340.983 251.299 309.313C221.567 309.455 197.517 334.904 197.252 366.574Z" fill="#9FD8CD"/>
<path d="M254.603 308.748C254.603 340.418 278.521 366.291 308.121 366.574C308.121 334.904 284.203 309.172 254.603 308.748Z" fill="#52D589"/>
<path d="M308.385 247.952C278.785 247.952 254.603 273.543 254.338 305.213C283.939 305.213 307.989 279.623 308.385 247.952Z" fill="#52D589"/>
<path d="M137.391 183.622C137.391 151.952 113.473 126.079 83.8726 125.796C83.8726 157.466 107.791 183.339 137.391 183.622Z" fill="#52D589"/>
<path d="M83.6087 244.418C113.209 244.418 137.391 218.827 137.656 187.157C107.923 187.157 83.873 212.748 83.6087 244.418Z" fill="#86E1AD"/>
<path d="M140.959 186.591C140.959 218.261 164.877 244.135 194.478 244.418C194.478 212.747 170.559 187.015 140.959 186.591Z" fill="#86E1AD"/>
<path d="M194.742 125.796C165.142 125.796 140.959 151.387 140.695 183.057C170.295 183.057 194.346 157.466 194.742 125.796Z" fill="#52D589"/>
<path d="M137.391 305.779C137.391 274.109 113.473 248.235 83.8726 247.952C83.8726 279.764 107.791 305.496 137.391 305.779Z" fill="#52D589"/>
<path d="M83.6087 366.574C113.209 366.574 137.391 340.983 137.656 309.313C107.923 309.455 83.873 334.904 83.6087 366.574Z" fill="#52D589"/>
<path d="M140.959 308.748C140.959 340.418 164.877 366.291 194.478 366.574C194.478 334.904 170.559 309.172 140.959 308.748Z" fill="#9FD8CD"/>
<path d="M364.678 61.1833C364.678 29.5131 340.76 3.6397 311.16 3.35693C311.16 35.1685 335.078 60.9005 364.678 61.1833Z" fill="#9FD8CD"/>
<path d="M310.896 121.979C340.496 121.979 364.679 96.3879 364.943 64.7178C335.211 64.8592 311.161 90.3084 310.896 121.979Z" fill="#52D589"/>
<path d="M368.247 64.1523C368.247 95.8225 392.165 121.696 421.765 121.979C421.765 90.3085 397.847 64.5765 368.247 64.1523Z" fill="#52D589"/>
<path d="M422.029 3.35693C392.429 3.35693 368.247 28.9476 367.982 60.6177C397.582 60.6177 421.633 35.0271 422.029 3.35693Z" fill="#9FD8CD"/>
<path d="M251.035 61.1833C251.035 29.5131 227.117 3.6397 197.517 3.35693C197.517 35.1685 221.435 60.9005 251.035 61.1833Z" fill="#52D589"/>
<path d="M197.252 121.979C226.853 121.979 251.035 96.3879 251.299 64.7178C221.567 64.8592 197.517 90.3084 197.252 121.979Z" fill="#52D589"/>
<path d="M137.391 61.1833C137.391 29.5131 113.473 3.6397 83.8726 3.35693C83.8726 35.1685 107.791 60.9005 137.391 61.1833Z" fill="#9FD8CD"/>
<path d="M83.6087 121.979C113.209 121.979 137.391 96.3879 137.656 64.7178C107.923 64.8592 83.873 90.3084 83.6087 121.979Z" fill="#9FD8CD"/>
<path d="M140.959 64.1523C140.959 95.8225 164.877 121.696 194.478 121.979C194.478 90.3085 170.559 64.5765 140.959 64.1523Z" fill="#9FD8CD"/>
<path d="M194.742 3.35693C165.142 3.35693 140.959 28.9476 140.695 60.6177C170.295 60.6177 194.346 35.0271 194.742 3.35693Z" fill="#9FD8CD"/>
<path d="M22.426 183.622C22.426 151.952 -1.49202 126.079 -31.0922 125.796C-31.0922 157.466 -7.1742 183.339 22.426 183.622Z" fill="#52D589"/>
<path d="M25.9942 186.591C25.9942 218.261 49.9122 244.135 79.5124 244.418C79.5125 212.747 55.5944 187.015 25.9942 186.591Z" fill="#52D589"/>
<path d="M79.7766 125.796C50.1764 125.796 25.9941 151.387 25.7298 183.057C55.33 183.057 79.3802 157.466 79.7766 125.796Z" fill="#52D589"/>
<path d="M79.7766 247.952C50.1764 247.952 25.9941 273.543 25.7298 305.213C55.33 305.213 79.3802 279.623 79.7766 247.952Z" fill="#52D589"/>
<path d="M-31.3566 121.979C-1.75642 121.979 22.4259 96.3879 22.6902 64.7178C-7.04218 64.8592 -31.0924 90.3084 -31.3566 121.979Z" fill="#52D589"/>
</g>
</g>
</svg>
