<svg width="1026" height="681" viewBox="0 0 1026 681" fill="none" xmlns="http://www.w3.org/2000/svg">
<g opacity="0.1">
<path d="M854.839 57.3506C825.238 57.3506 801.056 81.2686 800.792 110.869C830.392 110.869 854.574 86.9508 854.839 57.3506Z" fill="#52D589"/>
<path d="M854.839 170.994C825.238 170.994 801.056 194.912 800.792 224.512C830.392 224.512 854.574 200.594 854.839 170.994Z" fill="#9FD8CD"/>
<path d="M911.661 224.777C911.661 195.176 887.742 170.994 858.142 170.73C858.142 200.462 882.06 224.512 911.661 224.777Z" fill="#9FD8CD"/>
<path d="M800.792 113.644C800.792 143.244 824.71 167.426 854.31 167.69C854.31 138.09 830.392 114.04 800.792 113.644Z" fill="#52D589"/>
<path d="M969.011 170.994C939.411 170.994 915.228 194.912 914.964 224.512C944.696 224.512 968.747 200.594 969.011 170.994Z" fill="#9FD8CD"/>
<path d="M1025.83 224.777C1025.83 195.176 1001.91 170.994 972.315 170.73C972.447 200.462 996.233 224.512 1025.83 224.777Z" fill="#52D589"/>
<path d="M971.786 167.426C1001.39 167.426 1025.57 143.508 1025.83 113.908C996.233 113.908 972.182 137.826 971.786 167.426Z" fill="#52D589"/>
<path d="M914.964 113.644C914.964 143.244 938.882 167.426 968.482 167.69C968.482 138.09 944.564 114.04 914.964 113.644Z" fill="#52D589"/>
<path d="M854.839 284.638C825.238 284.638 801.056 308.556 800.792 338.156C830.392 338.156 854.574 314.238 854.839 284.638Z" fill="#52D589"/>
<path d="M911.661 338.42C911.661 308.82 887.742 284.638 858.142 284.374C858.142 314.106 882.06 338.156 911.661 338.42Z" fill="#52D589"/>
<path d="M857.614 281.07C887.214 281.07 911.396 257.152 911.661 227.552C882.06 227.552 858.01 251.47 857.614 281.07Z" fill="#9FD8CD"/>
<path d="M800.792 227.288C800.792 256.888 824.71 281.07 854.31 281.334C854.31 251.734 830.392 227.684 800.792 227.288Z" fill="#9FD8CD"/>
<path d="M1025.83 338.42C1025.83 308.82 1001.91 284.638 972.315 284.374C972.447 314.106 996.233 338.156 1025.83 338.42Z" fill="#52D589"/>
<path d="M971.786 281.07C1001.39 281.07 1025.57 257.152 1025.83 227.552C996.233 227.552 972.182 251.47 971.786 281.07Z" fill="#52D589"/>
<path d="M914.964 227.288C914.964 256.888 938.882 281.07 968.482 281.334C968.482 251.734 944.564 227.684 914.964 227.288Z" fill="#9FD8CD"/>
<path d="M854.839 398.282C825.238 398.282 801.056 422.2 800.792 451.8C830.392 451.8 854.574 427.882 854.839 398.282Z" fill="#9FD8CD"/>
<path d="M857.614 394.714C887.214 394.714 911.396 370.796 911.661 341.195C882.06 341.195 858.01 365.113 857.614 394.714Z" fill="#52D589"/>
<path d="M800.792 340.931C800.792 370.531 824.71 394.713 854.31 394.978C854.31 365.378 830.392 341.327 800.792 340.931Z" fill="#52D589"/>
<path d="M971.786 394.714C1001.39 394.714 1025.57 370.796 1025.83 341.195C996.233 341.195 972.182 365.113 971.786 394.714Z" fill="#52D589"/>
<path d="M914.964 340.931C914.964 370.531 938.882 394.713 968.482 394.978C968.482 365.378 944.564 341.327 914.964 340.931Z" fill="#52D589"/>
<path d="M626.23 57.3506C596.63 57.3506 572.447 81.2686 572.183 110.869C601.783 110.869 625.965 86.9508 626.23 57.3506Z" fill="#52D589"/>
<path d="M683.052 111.133C683.052 81.5325 659.134 57.3502 629.533 57.0859C629.533 86.8183 653.451 110.868 683.052 111.133Z" fill="#52D589"/>
<path d="M572.183 0C572.183 29.6002 596.101 53.7826 625.701 54.0468C625.701 24.4466 601.783 0.396432 572.183 0Z" fill="#52D589"/>
<path d="M740.402 57.3506C710.802 57.3506 686.62 81.2686 686.355 110.869C716.088 110.869 740.138 86.9508 740.402 57.3506Z" fill="#52D589"/>
<path d="M797.224 111.133C797.224 81.5325 773.306 57.3502 743.706 57.0859C743.838 86.8183 767.624 110.868 797.224 111.133Z" fill="#52D589"/>
<path d="M626.23 170.994C596.63 170.994 572.447 194.912 572.183 224.512C601.783 224.512 625.965 200.594 626.23 170.994Z" fill="#52D589"/>
<path d="M683.052 224.777C683.052 195.176 659.134 170.994 629.533 170.73C629.533 200.462 653.451 224.512 683.052 224.777Z" fill="#52D589"/>
<path d="M629.005 167.426C658.605 167.426 682.787 143.508 683.052 113.908C653.451 113.908 629.401 137.826 629.005 167.426Z" fill="#52D589"/>
<path d="M572.183 113.644C572.183 143.244 596.101 167.426 625.701 167.69C625.701 138.09 601.783 114.04 572.183 113.644Z" fill="#52D589"/>
<path d="M740.402 170.994C710.802 170.994 686.62 194.912 686.355 224.512C716.088 224.512 740.138 200.594 740.402 170.994Z" fill="#52D589"/>
<path d="M797.224 224.777C797.224 195.176 773.306 170.994 743.706 170.73C743.838 200.462 767.624 224.512 797.224 224.777Z" fill="#52D589"/>
<path d="M743.177 167.426C772.777 167.426 796.96 143.508 797.224 113.908C767.624 113.908 743.574 137.826 743.177 167.426Z" fill="#52D589"/>
<path d="M686.355 113.644C686.355 143.244 710.273 167.426 739.873 167.69C739.873 138.09 715.955 114.04 686.355 113.644Z" fill="#52D589"/>
<path d="M626.23 284.638C596.63 284.638 572.447 308.556 572.183 338.156C601.783 338.156 625.965 314.238 626.23 284.638Z" fill="#9FD8CD"/>
<path d="M629.005 281.07C658.605 281.07 682.787 257.152 683.052 227.552C653.451 227.552 629.401 251.47 629.005 281.07Z" fill="#52D589"/>
<path d="M740.402 284.638C710.802 284.638 686.62 308.556 686.355 338.156C716.088 338.156 740.138 314.238 740.402 284.638Z" fill="#52D589"/>
<path d="M743.177 281.07C772.777 281.07 796.96 257.152 797.224 227.552C767.624 227.552 743.574 251.47 743.177 281.07Z" fill="#52D589"/>
<path d="M686.355 227.288C686.355 256.888 710.273 281.07 739.873 281.334C739.873 251.734 715.955 227.684 686.355 227.288Z" fill="#52D589"/>
<path d="M626.23 398.282C596.63 398.282 572.447 422.2 572.183 451.8C601.783 451.8 625.965 427.882 626.23 398.282Z" fill="#52D589"/>
<path d="M629.005 394.714C658.605 394.714 682.787 370.796 683.052 341.195C653.451 341.195 629.401 365.113 629.005 394.714Z" fill="#9FD8CD"/>
<path d="M572.183 340.931C572.183 370.531 596.101 394.713 625.701 394.978C625.701 365.378 601.783 341.327 572.183 340.931Z" fill="#9FD8CD"/>
<path d="M797.224 452.064C797.224 422.464 773.306 398.281 743.706 398.017C743.838 427.749 767.624 451.8 797.224 452.064Z" fill="#9FD8CD"/>
<path d="M686.355 340.931C686.355 370.531 710.273 394.713 739.873 394.978C739.873 365.378 715.955 341.327 686.355 340.931Z" fill="#52D589"/>
<path d="M572.183 455.896C572.183 485.496 596.101 509.679 625.701 509.943C625.701 480.343 601.783 456.293 572.183 455.896Z" fill="#86E1AD"/>
<path d="M397.621 57.3506C368.021 57.3506 343.838 81.2686 343.574 110.869C373.174 110.869 397.357 86.9508 397.621 57.3506Z" fill="#52D589"/>
<path d="M400.396 53.7824C429.996 53.7824 454.178 29.8644 454.443 0.26416C424.843 0.26416 400.792 24.1822 400.396 53.7824Z" fill="#52D589"/>
<path d="M511.793 57.3506C482.193 57.3506 458.011 81.2686 457.746 110.869C487.479 110.869 511.529 86.9508 511.793 57.3506Z" fill="#52D589"/>
<path d="M568.615 111.133C568.615 81.5325 544.697 57.3502 515.097 57.0859C515.229 86.8183 539.015 110.868 568.615 111.133Z" fill="#52D589"/>
<path d="M514.568 53.7824C544.168 53.7824 568.351 29.8644 568.615 0.26416C539.015 0.26416 514.965 24.1822 514.568 53.7824Z" fill="#52D589"/>
<path d="M457.746 0C457.746 29.6002 481.664 53.7826 511.265 54.0468C511.265 24.4466 487.347 0.396432 457.746 0Z" fill="#52D589"/>
<path d="M397.621 170.994C368.021 170.994 343.838 194.912 343.574 224.512C373.174 224.512 397.357 200.594 397.621 170.994Z" fill="#52D589"/>
<path d="M400.396 167.426C429.996 167.426 454.178 143.508 454.443 113.908C424.843 113.908 400.792 137.826 400.396 167.426Z" fill="#52D589"/>
<path d="M343.574 113.644C343.574 143.244 367.492 167.426 397.092 167.69C397.092 138.09 373.174 114.04 343.574 113.644Z" fill="#52D589"/>
<path d="M511.793 170.994C482.193 170.994 458.011 194.912 457.746 224.512C487.479 224.512 511.529 200.594 511.793 170.994Z" fill="#52D589"/>
<path d="M568.615 224.777C568.615 195.176 544.697 170.994 515.097 170.73C515.229 200.462 539.015 224.512 568.615 224.777Z" fill="#9FD8CD"/>
<path d="M514.568 167.426C544.168 167.426 568.351 143.508 568.615 113.908C539.015 113.908 514.965 137.826 514.568 167.426Z" fill="#9FD8CD"/>
<path d="M457.746 113.644C457.746 143.244 481.664 167.426 511.265 167.69C511.265 138.09 487.347 114.04 457.746 113.644Z" fill="#52D589"/>
<path d="M397.621 284.638C368.021 284.638 343.838 308.556 343.574 338.156C373.174 338.156 397.357 314.238 397.621 284.638Z" fill="#52D589"/>
<path d="M400.396 281.07C429.996 281.07 454.178 257.152 454.443 227.552C424.843 227.552 400.792 251.47 400.396 281.07Z" fill="#52D589"/>
<path d="M343.574 227.288C343.574 256.888 367.492 281.07 397.092 281.334C397.092 251.734 373.174 227.684 343.574 227.288Z" fill="#52D589"/>
<path d="M511.793 284.638C482.193 284.638 458.011 308.556 457.746 338.156C487.479 338.156 511.529 314.238 511.793 284.638Z" fill="#52D589"/>
<path d="M568.615 338.42C568.615 308.82 544.697 284.638 515.097 284.374C515.229 314.106 539.015 338.156 568.615 338.42Z" fill="#9FD8CD"/>
<path d="M514.568 281.07C544.168 281.07 568.351 257.152 568.615 227.552C539.015 227.552 514.965 251.47 514.568 281.07Z" fill="#52D589"/>
<path d="M457.746 227.288C457.746 256.888 481.664 281.07 511.265 281.334C511.265 251.734 487.347 227.684 457.746 227.288Z" fill="#52D589"/>
<path d="M397.621 398.282C368.021 398.282 343.838 422.2 343.574 451.8C373.174 451.8 397.357 427.882 397.621 398.282Z" fill="#52D589"/>
<path d="M454.443 452.064C454.443 422.464 430.525 398.281 400.925 398.017C400.925 427.749 424.843 451.8 454.443 452.064Z" fill="#86E1AD"/>
<path d="M400.396 394.714C429.996 394.714 454.178 370.796 454.443 341.195C424.843 341.195 400.792 365.113 400.396 394.714Z" fill="#86E1AD"/>
<path d="M343.574 340.931C343.574 370.531 367.492 394.713 397.092 394.978C397.092 365.378 373.174 341.327 343.574 340.931Z" fill="#52D589"/>
<path d="M511.793 398.282C482.193 398.282 458.011 422.2 457.746 451.8C487.479 451.8 511.529 427.882 511.793 398.282Z" fill="#52D589"/>
<path d="M568.615 452.064C568.615 422.464 544.697 398.281 515.097 398.017C515.229 427.749 539.015 451.8 568.615 452.064Z" fill="#52D589"/>
<path d="M514.568 394.714C544.168 394.714 568.351 370.796 568.615 341.195C539.015 341.195 514.965 365.113 514.568 394.714Z" fill="#9FD8CD"/>
<path d="M169.012 57.3506C139.412 57.3506 115.229 81.2686 114.965 110.869C144.565 110.869 168.748 86.9508 169.012 57.3506Z" fill="#52D589"/>
<path d="M225.834 111.133C225.834 81.5325 201.916 57.3502 172.316 57.0859C172.316 86.8183 196.234 110.868 225.834 111.133Z" fill="#52D589"/>
<path d="M340.006 111.133C340.006 81.5325 316.088 57.3502 286.488 57.0859C286.62 86.8183 310.406 110.868 340.006 111.133Z" fill="#52D589"/>
<path d="M225.834 224.777C225.834 195.176 201.916 170.994 172.316 170.73C172.316 200.462 196.234 224.512 225.834 224.777Z" fill="#52D589"/>
<path d="M283.184 170.994C253.584 170.994 229.402 194.912 229.137 224.512C258.87 224.512 282.92 200.594 283.184 170.994Z" fill="#9FD8CD"/>
<path d="M340.006 224.777C340.006 195.176 316.088 170.994 286.488 170.73C286.62 200.462 310.406 224.512 340.006 224.777Z" fill="#52D589"/>
<path d="M285.959 167.426C315.56 167.426 339.742 143.508 340.006 113.908C310.406 113.908 286.356 137.826 285.959 167.426Z" fill="#52D589"/>
<path d="M229.137 113.644C229.137 143.244 253.056 167.426 282.656 167.69C282.656 138.09 258.738 114.04 229.137 113.644Z" fill="#9FD8CD"/>
<path d="M225.834 338.42C225.834 308.82 201.916 284.638 172.316 284.374C172.316 314.106 196.234 338.156 225.834 338.42Z" fill="#52D589"/>
<path d="M171.787 281.07C201.387 281.07 225.57 257.152 225.834 227.552C196.234 227.552 172.183 251.47 171.787 281.07Z" fill="#52D589"/>
<path d="M283.184 284.638C253.584 284.638 229.402 308.556 229.137 338.156C258.87 338.156 282.92 314.238 283.184 284.638Z" fill="#52D589"/>
<path d="M340.006 338.42C340.006 308.82 316.088 284.638 286.488 284.374C286.62 314.106 310.406 338.156 340.006 338.42Z" fill="#52D589"/>
<path d="M169.012 398.282C139.412 398.282 115.229 422.2 114.965 451.8C144.565 451.8 168.748 427.882 169.012 398.282Z" fill="#52D589"/>
<path d="M171.787 394.714C201.387 394.714 225.57 370.796 225.834 341.195C196.234 341.195 172.183 365.113 171.787 394.714Z" fill="#9FD8CD"/>
<path d="M114.965 340.931C114.965 370.531 138.883 394.713 168.483 394.978C168.483 365.378 144.565 341.327 114.965 340.931Z" fill="#52D589"/>
<path d="M283.184 398.282C253.584 398.282 229.402 422.2 229.137 451.8C258.87 451.8 282.92 427.882 283.184 398.282Z" fill="#9FD8CD"/>
<path d="M340.006 452.064C340.006 422.464 316.088 398.281 286.488 398.017C286.62 427.749 310.406 451.8 340.006 452.064Z" fill="#9FD8CD"/>
<path d="M285.959 394.714C315.56 394.714 339.742 370.796 340.006 341.195C310.406 341.195 286.356 365.113 285.959 394.714Z" fill="#9FD8CD"/>
<path d="M229.137 340.931C229.137 370.531 253.056 394.713 282.656 394.978C282.656 365.378 258.738 341.327 229.137 340.931Z" fill="#9FD8CD"/>
<path d="M397.621 513.247C368.021 513.247 343.838 537.165 343.574 566.765C373.174 566.765 397.357 542.847 397.621 513.247Z" fill="#52D589"/>
<path d="M400.396 509.679C429.996 509.679 454.178 485.761 454.443 456.16C424.843 456.16 400.792 480.078 400.396 509.679Z" fill="#52D589"/>
<path d="M343.574 455.896C343.574 485.496 367.492 509.679 397.092 509.943C397.092 480.343 373.174 456.293 343.574 455.896Z" fill="#52D589"/>
<path d="M457.746 455.896C457.746 485.496 481.664 509.679 511.265 509.943C511.265 480.343 487.347 456.293 457.746 455.896Z" fill="#52D589"/>
<path d="M169.012 513.247C139.412 513.247 115.229 537.165 114.965 566.765C144.565 566.765 168.748 542.847 169.012 513.247Z" fill="#86E1AD"/>
<path d="M225.834 567.029C225.834 537.429 201.916 513.247 172.316 512.982C172.316 542.715 196.234 566.765 225.834 567.029Z" fill="#52D589"/>
<path d="M171.787 509.679C201.387 509.679 225.57 485.761 225.834 456.16C196.234 456.16 172.183 480.078 171.787 509.679Z" fill="#9FD8CD"/>
<path d="M114.965 455.896C114.965 485.496 138.883 509.679 168.483 509.943C168.483 480.343 144.565 456.293 114.965 455.896Z" fill="#52D589"/>
<path d="M340.006 567.029C340.006 537.429 316.088 513.247 286.488 512.982C286.62 542.715 310.406 566.765 340.006 567.029Z" fill="#52D589"/>
<path d="M169.012 626.891C139.412 626.891 115.229 650.809 114.965 680.409C144.565 680.409 168.748 656.491 169.012 626.891Z" fill="#52D589"/>
<path d="M225.834 680.673C225.834 651.073 201.916 626.891 172.316 626.626C172.316 656.359 196.234 680.409 225.834 680.673Z" fill="#52D589"/>
<path d="M114.965 569.54C114.965 599.14 138.883 623.323 168.483 623.587C168.483 593.987 144.565 569.936 114.965 569.54Z" fill="#86E1AD"/>
<path d="M229.137 569.54C229.137 599.14 253.056 623.323 282.656 623.587C282.656 593.987 258.738 569.936 229.137 569.54Z" fill="#52D589"/>
<path d="M0 113.644C0 143.244 23.918 167.426 53.5183 167.69C53.5183 138.09 29.6002 114.04 0 113.644Z" fill="#52D589"/>
<path d="M54.0468 284.638C24.4466 284.638 0.264288 308.556 0 338.156C29.6002 338.156 53.7826 314.238 54.0468 284.638Z" fill="#52D589"/>
<path d="M56.8219 281.07C86.4221 281.07 110.604 257.152 110.869 227.552C81.2685 227.552 57.2183 251.47 56.8219 281.07Z" fill="#52D589"/>
<path d="M0 227.288C0 256.888 23.918 281.07 53.5183 281.334C53.5183 251.734 29.6002 227.684 0 227.288Z" fill="#52D589"/>
<path d="M110.869 452.064C110.869 422.464 86.9507 398.281 57.3505 398.017C57.3505 427.749 81.2685 451.8 110.869 452.064Z" fill="#52D589"/>
<path d="M110.869 567.029C110.869 537.429 86.9507 513.247 57.3505 512.982C57.3505 542.715 81.2685 566.765 110.869 567.029Z" fill="#86E1AD"/>
<path d="M56.8219 509.679C86.4221 509.679 110.604 485.761 110.869 456.16C81.2685 456.16 57.2183 480.078 56.8219 509.679Z" fill="#52D589"/>
<path d="M56.8219 623.322C86.4221 623.322 110.604 599.404 110.869 569.804C81.2685 569.804 57.2183 593.722 56.8219 623.322Z" fill="#86E1AD"/>
</g>
</svg>
