<svg width="312" height="638" viewBox="0 0 312 638" fill="none" xmlns="http://www.w3.org/2000/svg">
<mask id="mask0_456_2684" style="mask-type:alpha" maskUnits="userSpaceOnUse" x="0" y="0" width="312" height="1026">
<g opacity="0.1">
<g opacity="0.2">
<path d="M93.658 409.13L93.658 407.01L102.137 423.969L116.976 413.37L100.017 423.969L93.658 409.13Z" fill="#F1B47F"/>
<path d="M68.2202 438.803L100.018 423.965L102.137 423.965L70.3401 440.923L87.2986 483.32L110.617 474.84L87.2986 483.32L68.2202 438.803Z" fill="#F1B47F"/>
<path d="M59.7416 515.118L87.2993 483.321L102.138 506.639L91.539 532.077L108.498 544.796L87.2993 572.354L102.138 582.953L85.1795 572.354L106.378 544.796L91.539 532.077L102.138 506.639L87.2993 483.321L59.7416 515.118Z" fill="#F1B47F"/>
<path d="M36.4231 604.15L38.5429 604.15L83.0592 591.431L85.179 572.353L87.2988 572.353L83.0592 591.431L40.6627 604.15L59.7411 606.27L57.6213 635.947L63.9808 657.145L76.6997 678.344L87.2988 688.943L85.179 688.943L76.6997 678.344L63.9808 657.145L57.6213 635.947L59.7411 608.39L36.4231 604.15Z" fill="#F1B47F"/>
<path d="M49.1411 546.915L72.4592 546.915L91.5376 532.076L78.8186 508.758L91.5376 532.076L72.4592 546.915L49.1411 546.915Z" fill="#F1B47F"/>
<path d="M25.8244 417.607L25.8244 415.487L42.783 447.285L44.9028 483.322L34.3037 508.76L44.9028 483.322L42.783 447.285L25.8244 417.607Z" fill="#F1B47F"/>
<path d="M6.74464 631.712L27.9429 635.951L57.6204 633.831L78.8186 618.993L80.9385 618.993L57.6204 635.951L27.9429 635.951L6.74464 631.712Z" fill="#F1B47F"/>
<path d="M116.976 415.488C114.856 415.488 114.856 413.369 114.856 413.369C114.856 411.249 116.976 411.249 116.976 411.249C119.096 411.249 121.216 413.369 121.216 413.369C119.096 415.488 119.096 415.488 116.976 415.488Z" fill="#F1B47F"/>
<path d="M93.6588 411.248C91.539 411.248 91.539 409.128 91.539 409.128C91.539 407.008 93.6588 407.008 93.6588 404.888C95.7786 404.888 97.8984 407.008 97.8984 407.008C97.8984 411.248 95.7786 411.248 93.6588 411.248Z" fill="#F1B47F"/>
<path d="M102.138 430.328C97.8985 430.328 95.7786 428.208 95.7786 423.969C95.7786 419.729 97.8985 417.609 102.138 417.609C104.258 417.609 108.498 419.729 108.498 423.969C108.498 428.208 106.378 430.328 102.138 430.328Z" fill="#F1B47F"/>
<path d="M72.4592 449.407C66.0997 449.407 61.86 445.167 61.86 438.808C61.86 432.448 66.0997 428.209 70.3394 428.209C76.6988 428.209 80.9385 432.448 80.9385 438.808C80.9385 445.167 76.6988 449.407 72.4592 449.407Z" fill="#F1B47F"/>
<path d="M25.8237 428.209C19.4643 428.209 15.2246 423.969 15.2246 417.61C15.2246 411.25 19.4643 407.01 25.8237 407.01C32.1832 407.01 36.4229 411.25 36.4229 417.61C36.4229 423.969 32.1832 428.209 25.8237 428.209Z" fill="#F1B47F"/>
<path d="M42.7816 451.527C40.6618 451.527 36.4222 449.407 36.4222 445.167C36.4222 443.047 38.542 438.808 42.7816 438.808C44.9015 438.808 49.1411 440.927 49.1411 445.167C49.1411 449.407 47.0213 451.527 42.7816 451.527Z" fill="#F1B47F"/>
<path d="M6.74601 445.166C2.50637 445.166 0.386537 443.046 0.386538 438.807C0.386538 434.567 2.50637 432.447 6.74601 432.447C10.9857 432.447 13.1055 434.567 13.1055 438.807C13.1055 443.046 10.9857 445.166 6.74601 445.166Z" fill="#F1B47F"/>
<path d="M80.9392 597.794C76.6995 597.794 72.4599 593.554 72.4599 589.314C72.4599 585.075 76.6995 580.835 80.9392 580.835C85.1788 580.835 89.4185 585.075 89.4185 589.314C89.4185 593.554 85.1788 597.794 80.9392 597.794Z" fill="#F1B47F"/>
<path d="M40.6625 608.392C36.4228 608.392 34.303 606.272 34.303 602.032C34.303 597.793 36.4229 595.673 40.6625 595.673C44.9021 595.673 47.022 597.793 47.022 602.032C47.022 606.272 42.7823 608.392 40.6625 608.392Z" fill="#F1B47F"/>
<path d="M59.7412 612.629C57.6214 612.629 55.5016 610.509 55.5016 608.389C55.5016 606.269 57.6214 604.149 59.7412 604.149C61.8611 604.149 63.9809 606.269 63.9809 608.389C66.1007 610.509 63.9809 612.629 59.7412 612.629Z" fill="#F1B47F"/>
<path d="M78.8187 629.59C74.5791 629.59 72.4593 627.47 72.4593 623.231C72.4593 618.991 74.5791 616.871 78.8187 616.871C83.0584 616.871 85.1782 618.991 85.1782 623.231C85.1782 625.35 83.0584 629.59 78.8187 629.59Z" fill="#F1B47F"/>
<path d="M57.6212 640.188C55.5014 640.188 53.3816 638.068 53.3816 635.948C53.3816 633.828 55.5014 631.708 57.6212 631.708C59.741 631.708 61.8608 633.828 61.8608 635.948C61.8608 638.068 59.741 640.188 57.6212 640.188Z" fill="#F1B47F"/>
<path d="M30.0634 642.311C25.8237 642.311 23.7039 640.191 23.7039 635.951C23.7039 631.712 27.9436 629.592 30.0634 629.592C34.303 629.592 36.4229 631.712 36.4229 635.951C36.4229 640.191 34.303 642.311 30.0634 642.311Z" fill="#F1B47F"/>
<path d="M6.7456 638.069C4.62578 638.069 0.386126 635.949 0.386126 633.829C0.386126 631.71 2.50595 627.47 4.62577 627.47C6.74559 627.47 10.9852 629.59 10.9852 631.71C13.1051 635.949 8.86543 638.069 6.7456 638.069Z" fill="#F1B47F"/>
<path d="M36.4228 517.238C32.1831 517.238 30.0633 515.118 30.0633 510.879C30.0633 506.639 32.1831 504.519 36.4228 504.519C40.6624 504.519 42.7822 506.639 42.7822 510.879C42.7822 515.118 40.6624 517.238 36.4228 517.238Z" fill="#F1B47F"/>
<path d="M61.8607 521.477C57.6211 521.477 55.5013 519.357 55.5013 515.117C55.5013 510.878 57.6211 508.758 61.8607 508.758C66.1004 508.758 68.2202 510.878 68.2202 515.117C68.2202 519.357 66.1004 521.477 61.8607 521.477Z" fill="#F1B47F"/>
<path d="M80.9386 512.999C78.8188 512.999 76.6989 510.879 76.6989 508.759C76.6989 506.639 78.8188 504.519 80.9386 504.519C83.0584 504.519 85.1782 506.639 85.1782 508.759C85.1782 510.879 83.0584 512.999 80.9386 512.999Z" fill="#F1B47F"/>
<path d="M49.1417 551.156C47.0219 551.156 44.902 549.036 44.902 546.917C44.902 544.797 47.0219 542.677 49.1417 542.677C51.2615 542.677 53.3813 544.797 53.3813 546.917C53.3813 549.036 51.2615 551.156 49.1417 551.156Z" fill="#F1B47F"/>
<path d="M102.137 587.192C100.017 587.192 97.8972 585.072 97.8972 582.953C97.8972 580.833 100.017 578.713 102.137 578.713C104.257 578.713 106.376 580.833 106.376 582.953C106.376 585.072 104.257 587.192 102.137 587.192Z" fill="#F1B47F"/>
<path d="M87.2979 578.715C85.1781 578.715 83.0583 576.595 83.0583 574.475C83.0583 572.355 85.1781 570.236 87.2979 570.236C89.4178 570.236 91.5376 572.355 91.5376 574.475C91.5376 576.595 89.4178 578.715 87.2979 578.715Z" fill="#F1B47F"/>
<path d="M91.5386 536.318C89.4188 536.318 87.2989 534.199 87.2989 532.079C87.2989 529.959 89.4188 527.839 91.5386 527.839C93.6584 527.839 95.7782 529.959 95.7782 532.079C97.8981 534.199 95.7782 536.318 91.5386 536.318Z" fill="#F1B47F"/>
<path d="M110.617 479.085C108.497 479.085 106.378 476.965 106.378 474.845C106.378 472.725 108.497 470.605 110.617 470.605C112.737 470.605 114.857 472.725 114.857 474.845C116.977 476.965 114.857 479.085 110.617 479.085Z" fill="#F1B47F"/>
<path d="M104.257 515.119C100.018 515.119 97.8977 512.999 97.8977 508.76C97.8977 504.52 100.018 502.4 104.257 500.281C108.497 500.281 110.617 504.52 110.617 506.64C110.617 510.88 106.377 515.119 104.257 515.119Z" fill="#F1B47F"/>
<path d="M89.4184 491.801C85.1787 491.801 83.0589 489.681 83.0589 485.441C83.0589 481.202 85.1787 479.082 89.4184 479.082C93.658 479.082 95.7778 481.202 95.7778 485.441C95.7778 487.561 91.5382 491.801 89.4184 491.801Z" fill="#F1B47F"/>
<path d="M106.377 553.274C102.137 553.274 100.017 549.034 100.017 546.914C100.017 542.674 102.137 540.555 106.377 540.555C110.617 540.555 112.736 542.674 112.736 546.914C114.856 549.034 110.617 553.274 106.377 553.274Z" fill="#F1B47F"/>
<path d="M72.4599 553.274C68.2202 553.274 66.1004 551.154 66.1004 546.914C66.1004 542.674 68.2202 540.555 72.4599 540.555C76.6995 540.555 78.8193 542.674 78.8193 546.914C78.8193 551.154 76.6995 553.274 72.4599 553.274Z" fill="#F1B47F"/>
<path d="M44.902 491.802C40.6624 491.802 36.4228 487.563 36.4228 483.323C36.4228 479.083 40.6624 474.844 44.902 474.844C49.1417 474.844 53.3813 479.083 53.3813 483.323C53.3813 487.563 49.1417 491.802 44.902 491.802Z" fill="#F1B47F"/>
<path d="M271.723 629.592L273.843 629.592L280.203 644.431L297.161 633.831L297.161 635.951L280.203 646.55L271.723 629.592Z" fill="#F1B47F"/>
<path d="M297.161 638.068C295.041 638.068 295.041 635.948 295.041 635.948C295.041 633.828 297.161 633.828 297.161 631.708C299.281 631.708 301.401 633.828 301.401 633.828C299.281 635.948 299.281 638.068 297.161 638.068Z" fill="#F1B47F"/>
<path d="M273.843 633.829C271.723 633.829 271.723 631.71 269.603 631.71C269.603 629.59 271.723 627.47 271.723 627.47C273.843 627.47 275.963 629.59 275.963 629.59C275.963 629.59 275.963 633.829 273.843 633.829Z" fill="#F1B47F"/>
<path d="M206.009 648.668C199.649 648.668 195.41 644.428 195.41 638.069C195.41 631.709 199.649 627.47 206.009 627.47C212.368 627.47 216.608 631.709 216.608 638.069C216.608 644.428 212.368 648.668 206.009 648.668Z" fill="#F1B47F"/>
<path d="M114.857 97.5119L100.018 86.9128L119.096 61.4749L119.096 59.3551L104.257 46.6361L114.857 23.3181L102.138 -7.41283e-07L100.018 -8.33944e-07L114.857 23.3181L104.257 46.6361L119.096 59.3551L97.8979 86.9128L97.8979 89.0326L114.857 97.5119Z" fill="#F1B47F"/>
<path d="M49.1418 118.712L51.2616 118.712L93.6581 105.993L97.8977 86.915L100.018 89.0349L95.7779 105.993L53.3815 118.712L72.4599 120.832L72.4599 122.952L70.34 150.51L76.6995 171.708L89.4185 192.906L97.8977 205.625L89.4185 192.906L76.6995 171.708L70.34 150.51L72.4599 122.952L49.1418 118.712Z" fill="#F1B47F"/>
<path d="M42.7825 186.546L76.6997 171.708L42.7825 186.546L51.2618 203.505L42.7825 186.546Z" fill="#F1B47F"/>
<path d="M59.741 63.597L61.8608 61.4771L85.1789 61.4771L104.257 46.6384L91.5384 23.3203L104.257 46.6384L85.1789 61.4771L59.741 63.597Z" fill="#F1B47F"/>
<path d="M17.3446 148.389L17.3446 146.269L40.6626 150.508L70.3402 150.508L91.5384 133.55L93.6582 135.67L70.3402 150.508L40.6626 152.628L17.3446 148.389Z" fill="#F1B47F"/>
<path d="M93.6589 112.35C89.4192 112.35 85.1796 108.111 85.1796 103.871C85.1796 99.6313 89.4192 95.3916 93.6589 95.3916C97.8985 95.3916 102.138 99.6313 102.138 103.871C102.138 110.23 97.8985 112.35 93.6589 112.35Z" fill="#F1B47F"/>
<path d="M53.3822 125.071C49.1426 125.071 47.0227 122.951 47.0227 118.711C47.0227 114.471 49.1426 112.352 53.3822 112.352C57.6219 112.352 59.7417 114.471 59.7417 118.711C59.7417 120.831 55.502 125.071 53.3822 125.071Z" fill="#F1B47F"/>
<path d="M72.4601 127.192C70.3402 127.192 68.2204 125.072 68.2204 122.952C68.2204 120.832 70.3402 118.712 72.4601 118.712C74.5799 118.712 76.6997 120.832 76.6997 122.952C76.6997 125.072 74.5799 127.192 72.4601 127.192Z" fill="#F1B47F"/>
<path d="M91.5385 144.147C87.2988 144.147 85.179 139.907 85.179 137.787C85.179 133.548 87.2988 131.428 91.5385 131.428C95.7781 131.428 97.8979 133.548 97.8979 137.787C97.8979 139.907 95.7781 144.147 91.5385 144.147Z" fill="#F1B47F"/>
<path d="M70.3399 154.745C68.2201 154.745 66.1003 152.625 66.1003 150.506C66.1003 148.386 68.2201 146.266 70.3399 146.266C72.4598 146.266 74.5796 148.386 74.5796 150.506C74.5796 152.625 72.4598 154.745 70.3399 154.745Z" fill="#F1B47F"/>
<path d="M42.7831 158.985C38.5435 158.985 36.4236 156.865 36.4236 152.625C36.4236 148.386 40.6633 146.266 42.7831 146.266C47.0228 146.266 49.1426 148.386 49.1426 152.625C49.1426 154.745 47.0227 158.985 42.7831 158.985Z" fill="#F1B47F"/>
<path d="M19.4649 152.626C17.3451 152.626 13.1055 150.507 13.1055 148.387C13.1055 146.267 15.2253 142.027 17.3451 142.027C19.465 142.027 21.5848 144.147 23.7046 146.267C23.7046 150.507 21.5848 152.626 19.4649 152.626Z" fill="#F1B47F"/>
<path d="M42.7823 190.786C40.6625 190.786 36.4229 188.666 36.4229 186.547C36.4229 184.427 38.5427 182.307 40.6625 182.307C42.7823 182.307 47.022 184.427 47.022 186.547C47.022 188.666 44.9022 190.786 42.7823 190.786Z" fill="#F1B47F"/>
<path d="M51.2623 207.741C49.1425 207.741 47.0227 205.621 47.0227 203.501C47.0227 201.381 49.1425 199.261 51.2623 199.261C53.3821 199.261 55.502 201.381 55.502 203.501C55.502 205.621 53.3821 207.741 51.2623 207.741Z" fill="#F1B47F"/>
<path d="M76.6997 180.186C72.4601 180.186 68.2204 175.946 68.2204 173.826C68.2204 169.587 72.4601 165.347 74.5799 165.347C78.8196 165.347 83.0592 167.467 83.0592 171.707C85.179 175.946 80.9394 180.186 76.6997 180.186Z" fill="#F1B47F"/>
<path d="M89.4186 199.264C87.2987 199.264 85.1789 197.144 85.1789 195.024C85.1789 192.904 87.2987 190.784 89.4186 190.784C91.5384 190.784 93.6582 192.904 93.6582 195.024C93.6582 197.144 91.5384 199.264 89.4186 199.264Z" fill="#F1B47F"/>
<path d="M100.017 188.663C97.8974 188.663 97.8974 186.544 97.8974 186.544C97.8974 184.424 100.017 184.424 100.017 184.424C102.137 184.424 102.137 184.424 102.137 186.544C104.257 188.663 102.137 188.663 100.017 188.663Z" fill="#F1B47F"/>
<path d="M100.018 207.745C97.8985 207.745 97.8985 207.745 97.8985 205.625C97.8985 203.505 97.8985 203.505 100.018 203.505C102.138 203.505 102.138 205.625 102.138 205.625C102.138 205.625 102.138 207.745 100.018 207.745Z" fill="#F1B47F"/>
<path d="M49.1425 31.7951C44.9028 31.7951 42.783 29.6753 42.783 25.4356C42.783 21.196 44.9029 19.0762 49.1425 19.0762C53.3821 19.0762 55.502 21.196 55.502 25.4356C55.502 29.6753 51.2623 31.7951 49.1425 31.7951Z" fill="#F1B47F"/>
<path d="M74.5805 36.0393C70.3408 36.0393 68.221 33.9194 68.221 29.6798C68.221 25.4401 70.3408 23.3203 74.5805 23.3203C78.8201 23.3203 80.9399 25.4401 80.9399 29.6798C80.9399 33.9194 78.8201 36.0393 74.5805 36.0393Z" fill="#F1B47F"/>
<path d="M93.6583 27.5555C91.5385 27.5555 89.4187 25.4356 89.4187 23.3158C89.4187 21.196 91.5385 19.0762 93.6583 19.0762C95.7781 19.0762 97.8979 21.196 97.8979 23.3158C97.8979 25.4356 95.7781 27.5555 93.6583 27.5555Z" fill="#F1B47F"/>
<path d="M61.8609 65.7137C59.7411 65.7137 57.6213 63.5938 57.6213 61.474C57.6213 59.3542 59.7411 57.2344 61.8609 57.2344C63.9808 57.2344 66.1006 59.3542 66.1006 61.474C66.1006 63.5938 63.9808 65.7137 61.8609 65.7137Z" fill="#F1B47F"/>
<path d="M100.018 93.2723C97.8979 93.2723 95.778 91.1524 95.778 89.0326C95.778 86.9128 97.8979 84.793 100.018 84.793C102.138 84.793 104.257 86.9128 104.257 89.0326C104.257 91.1524 102.138 93.2723 100.018 93.2723Z" fill="#F1B47F"/>
<path d="M104.258 52.9956C102.138 52.9956 100.018 50.8758 100.018 48.756C100.018 44.5163 102.138 42.3965 104.258 42.3965C106.378 42.3965 108.497 44.5163 108.497 46.6361C110.617 48.756 108.497 52.9956 104.258 52.9956Z" fill="#F1B47F"/>
<path d="M114.856 29.6789C110.617 29.6789 108.497 27.5591 108.497 23.3194C108.497 19.0798 112.737 16.96 114.856 16.96C119.096 16.96 121.216 19.0798 121.216 23.3194C123.336 27.5591 119.096 29.6789 114.856 29.6789Z" fill="#F1B47F"/>
<path d="M112.737 61.4772C112.737 64.9894 115.584 67.8366 119.096 67.8366C122.608 67.8366 125.456 64.9894 125.456 61.4772C125.456 57.9649 122.608 55.1177 119.096 55.1177C115.584 55.1177 112.737 57.9649 112.737 61.4772Z" fill="#F1B47F"/>
<path d="M85.1796 69.9533C80.9399 69.9533 78.8201 67.8335 78.8201 63.5938C78.8201 59.3542 80.9399 57.2344 85.1796 57.2344C89.4192 57.2344 91.5391 59.3542 91.5391 63.5938C91.5391 65.7137 89.4192 69.9533 85.1796 69.9533Z" fill="#F1B47F"/>
<path d="M133.935 161.109L142.414 175.948L157.253 165.349L159.373 165.349L142.414 175.948L133.935 161.109Z" fill="#F1B47F"/>
<path d="M110.617 192.905L142.414 175.947L110.617 192.905L129.695 235.302L153.013 226.822L129.695 237.421L110.617 192.905Z" fill="#F1B47F"/>
<path d="M102.137 267.1L129.695 235.302L144.534 260.74L133.935 284.058L148.773 296.777L148.773 298.897L127.575 326.455L144.534 334.934L127.575 326.455L127.575 324.335L148.773 298.897L131.815 284.058L133.935 284.058L142.414 260.74L129.695 237.422L102.137 267.1Z" fill="#F1B47F"/>
<path d="M78.8192 356.128L80.9391 356.128L123.336 343.41L127.575 326.451L123.336 343.41L80.9391 356.128L102.137 360.368L100.017 387.926L106.377 409.124L119.096 430.322L127.575 443.041L119.096 430.322L104.257 409.124L97.8976 387.926L100.017 360.368L78.8192 356.128Z" fill="#F1B47F"/>
<path d="M70.3395 423.966L72.4593 423.966L104.257 409.127L106.376 409.127L72.4593 423.966L80.9386 440.924L70.3395 423.966Z" fill="#F1B47F"/>
<path d="M89.4192 301.016L89.4192 298.897L112.737 298.897L131.816 284.058L121.217 260.74L133.936 284.058L112.737 298.897L89.4192 301.016Z" fill="#F1B47F"/>
<path d="M66.0998 169.586L68.2196 169.586L85.1782 199.264L85.1782 235.301L74.5791 262.858L85.1782 235.301L85.1782 199.264L66.0998 169.586Z" fill="#F1B47F"/>
<path d="M47.022 385.81L47.022 383.69L70.3401 387.93L97.8977 387.93L121.216 373.091L100.018 387.93L70.3401 390.049L47.022 385.81Z" fill="#F1B47F"/>
<path d="M157.253 167.468C155.133 167.468 155.133 165.349 155.133 165.349C155.133 163.229 157.253 161.109 157.253 161.109C159.373 161.109 159.373 163.229 159.373 165.349C161.493 167.468 159.373 167.468 157.253 167.468Z" fill="#F1B47F"/>
<path d="M136.054 165.346C133.935 165.346 133.935 163.226 133.935 161.107C133.935 158.987 136.054 158.987 136.054 158.987C138.174 158.987 138.174 161.107 138.174 161.107C138.174 163.226 136.054 165.346 136.054 165.346Z" fill="#F1B47F"/>
<path d="M144.535 182.305C142.415 182.305 138.175 180.185 138.175 175.946C138.175 173.826 140.295 169.586 144.535 169.586C146.654 169.586 150.894 171.706 150.894 175.946C148.774 180.185 146.654 182.305 144.535 182.305Z" fill="#F1B47F"/>
<path d="M112.737 201.383C106.378 201.383 102.138 197.144 102.138 190.784C102.138 184.425 106.378 180.185 112.737 180.185C119.097 180.185 123.336 184.425 123.336 190.784C123.336 197.144 119.097 201.383 112.737 201.383Z" fill="#F1B47F"/>
<path d="M68.2202 180.185C61.8607 180.185 57.6211 175.945 57.6211 169.586C57.6211 163.226 61.8607 158.987 68.2202 158.987C74.5797 158.987 78.8193 163.226 78.8193 169.586C78.8193 175.945 72.4599 180.185 68.2202 180.185Z" fill="#F1B47F"/>
<path d="M85.1796 203.503C83.0598 203.503 78.8201 201.384 78.8201 197.144C78.8201 195.024 80.9399 190.784 85.1796 190.784C87.2994 190.784 91.5391 192.904 91.5391 197.144C89.4192 201.384 87.2994 203.503 85.1796 203.503Z" fill="#F1B47F"/>
<path d="M49.1425 199.264C44.9028 199.264 42.783 197.145 42.783 192.905C42.783 188.665 44.9029 186.545 49.1425 186.545C53.3821 186.545 55.502 188.665 55.502 192.905C55.502 195.025 53.3821 199.264 49.1425 199.264Z" fill="#F1B47F"/>
<path d="M123.336 351.892C119.096 351.892 114.856 347.652 114.856 343.413C114.856 339.173 119.096 334.933 123.336 334.933C127.575 334.933 131.815 339.173 131.815 343.413C131.815 347.652 127.575 349.772 123.336 351.892Z" fill="#F1B47F"/>
<path d="M80.9394 362.49C76.6997 362.49 74.5799 360.37 74.5799 356.13C74.5799 351.891 76.6997 349.771 80.9394 349.771C85.179 349.771 87.2988 351.891 87.2988 356.13C87.2988 358.25 85.179 362.49 80.9394 362.49Z" fill="#F1B47F"/>
<path d="M97.8972 360.371C97.8972 362.713 99.7953 364.611 102.137 364.611C104.478 364.611 106.376 362.713 106.376 360.371C106.376 358.03 104.478 356.132 102.137 356.132C99.7953 356.132 97.8972 358.03 97.8972 360.371Z" fill="#F1B47F"/>
<path d="M119.097 381.569C114.857 381.569 112.737 379.449 112.737 375.21C112.737 370.97 114.857 368.85 119.097 366.73C123.336 366.73 125.456 370.97 125.456 373.09C127.576 377.33 123.336 381.569 119.097 381.569Z" fill="#F1B47F"/>
<path d="M97.8975 392.17C95.7776 392.17 93.6578 390.05 93.6578 387.93C93.6578 385.81 95.7776 383.69 97.8975 383.69C100.017 383.69 102.137 385.81 102.137 387.93C104.257 390.05 102.137 392.17 97.8975 392.17Z" fill="#F1B47F"/>
<path d="M72.4599 396.409C68.2202 396.409 66.1004 394.29 66.1004 390.05C66.1004 385.81 70.34 383.69 72.4599 383.69C76.6995 383.69 78.8193 385.81 78.8193 390.05C78.8193 392.17 76.6995 396.409 72.4599 396.409Z" fill="#F1B47F"/>
<path d="M49.1417 390.046C47.0219 390.046 42.7822 387.926 42.7822 385.806C42.7822 383.686 44.902 379.447 47.0219 379.447C49.1417 379.447 53.3813 381.567 53.3813 383.686C53.3813 387.926 51.2615 390.046 49.1417 390.046Z" fill="#F1B47F"/>
<path d="M72.4601 430.326C70.3402 430.326 66.1006 428.206 66.1006 426.086C66.1006 423.966 68.2204 419.727 70.3403 419.727C72.4601 419.727 76.6997 421.846 76.6997 423.966C76.6997 426.086 74.5799 430.326 72.4601 430.326Z" fill="#F1B47F"/>
<path d="M80.9386 445.165C78.8188 445.165 76.6989 443.045 76.6989 440.925C76.6989 438.805 78.8188 436.686 80.9386 436.686C83.0584 436.686 85.1782 438.805 85.1782 440.925C85.1782 443.045 83.0584 445.165 80.9386 445.165Z" fill="#F1B47F"/>
<path d="M106.378 417.603C102.138 417.603 97.8985 413.363 97.8985 409.124C97.8985 404.884 102.138 400.645 104.258 400.645C108.498 400.645 112.737 404.884 112.737 407.004C112.737 413.363 110.617 417.603 106.378 417.603Z" fill="#F1B47F"/>
<path d="M119.097 436.683C116.977 436.683 114.857 434.563 114.857 432.443C114.857 430.324 116.977 428.204 119.097 428.204C121.217 428.204 123.336 430.324 123.336 432.443C123.336 434.563 121.217 436.683 119.097 436.683Z" fill="#F1B47F"/>
<path d="M129.695 428.204C127.575 428.204 127.575 426.084 127.575 426.084C127.575 423.965 127.575 423.965 129.695 423.965C131.815 423.965 131.815 426.084 131.815 426.084C131.815 426.084 131.815 428.204 129.695 428.204Z" fill="#F1B47F"/>
<path d="M129.695 445.164C127.575 445.164 127.575 445.164 127.575 443.044C127.575 440.925 129.695 440.925 129.695 440.925C131.815 440.925 131.815 443.044 131.815 443.044L129.695 445.164Z" fill="#F1B47F"/>
<path d="M76.7002 269.22C72.4606 269.22 70.3408 267.1 70.3408 262.86C70.3408 258.621 72.4606 256.501 76.7002 256.501C80.9399 256.501 83.0597 258.621 83.0597 262.86C85.1795 267.1 80.9399 269.22 76.7002 269.22Z" fill="#F1B47F"/>
<path d="M104.257 273.459C100.018 273.459 97.8977 271.339 97.8977 267.099C97.8977 262.86 100.018 260.74 104.257 260.74C108.497 260.74 110.617 262.86 110.617 267.099C110.617 271.339 106.377 273.459 104.257 273.459Z" fill="#F1B47F"/>
<path d="M121.216 264.98C119.097 264.98 116.977 262.86 116.977 260.74C116.977 258.621 119.097 256.501 121.216 256.501C123.336 256.501 125.456 258.621 125.456 260.74C127.576 262.86 125.456 264.98 121.216 264.98Z" fill="#F1B47F"/>
<path d="M91.5377 303.133C89.4179 303.133 87.298 301.013 87.298 298.893C87.298 296.773 89.4179 294.654 91.5377 294.654C93.6575 294.654 95.7773 296.773 95.7773 298.893C95.7773 301.013 93.6575 303.133 91.5377 303.133Z" fill="#F1B47F"/>
<path d="M144.534 339.174C142.414 339.174 140.294 337.054 140.294 334.934C140.294 332.815 142.414 330.695 144.534 330.695C146.654 330.695 148.773 332.815 148.773 334.934C148.773 337.054 146.654 339.174 144.534 339.174Z" fill="#F1B47F"/>
<path d="M129.696 330.692C127.576 330.692 125.456 328.572 125.456 326.452C125.456 324.332 127.576 322.212 129.696 322.212C131.816 322.212 133.936 324.332 133.936 326.452C133.936 328.572 131.816 330.692 129.696 330.692Z" fill="#F1B47F"/>
<path d="M133.935 290.417C131.815 290.417 129.695 288.297 129.695 286.178C129.695 284.058 131.815 281.938 133.935 281.938C136.054 281.938 138.174 284.058 138.174 286.178C138.174 288.297 136.054 290.417 133.935 290.417Z" fill="#F1B47F"/>
<path d="M153.013 231.061C150.893 231.061 148.774 228.941 148.774 226.821C148.774 224.701 150.893 222.582 153.013 222.582C155.133 222.582 157.253 224.701 157.253 226.821C157.253 228.941 155.133 231.061 153.013 231.061Z" fill="#F1B47F"/>
<path d="M144.535 267.098C140.295 267.098 138.175 264.978 138.175 260.738C138.175 256.498 142.415 254.379 144.535 254.379C148.774 254.379 150.894 258.618 150.894 260.738C153.014 264.978 148.774 267.098 144.535 267.098Z" fill="#F1B47F"/>
<path d="M129.696 243.778C125.456 243.778 123.336 241.658 121.217 237.418C121.217 233.179 123.336 231.059 127.576 231.059C131.816 231.059 133.935 233.179 136.055 237.418C138.175 239.538 133.935 243.778 129.696 243.778Z" fill="#F1B47F"/>
<path d="M148.774 305.256C144.535 305.256 142.415 303.136 142.415 298.896C142.415 294.657 144.535 292.537 148.774 292.537C153.014 292.537 155.134 294.657 155.134 298.896C155.134 303.136 153.014 305.256 148.774 305.256Z" fill="#F1B47F"/>
<path d="M112.737 307.376C108.497 307.376 106.377 305.256 106.377 301.016C106.377 296.776 108.497 294.657 112.737 294.657C116.976 292.537 121.216 296.776 121.216 298.896C121.216 303.136 116.976 307.376 112.737 307.376Z" fill="#F1B47F"/>
<path d="M87.298 243.779C83.0584 243.779 78.8187 239.539 78.8187 235.299C78.8187 231.06 83.0584 226.82 87.298 226.82C91.5377 226.82 95.7773 231.06 95.7773 235.299C95.7773 239.539 91.5377 243.779 87.298 243.779Z" fill="#F1B47F"/>
<path d="M284.443 144.149L286.563 144.149L292.922 158.987L307.761 148.388L309.881 150.508L292.922 161.107L284.443 144.149Z" fill="#F1B47F"/>
<path d="M261.124 175.942L292.921 161.104L261.124 175.942L280.202 220.459L303.52 211.979L280.202 220.459L261.124 175.942Z" fill="#F1B47F"/>
<path d="M252.646 252.257L280.203 220.459L295.042 243.778L284.443 269.215L299.282 281.934L278.083 309.492L295.042 320.091L278.083 309.492L299.282 281.934L284.443 269.215L292.922 243.778L280.203 220.459L252.646 252.257Z" fill="#F1B47F"/>
<path d="M229.327 341.289L231.447 341.289L273.843 328.57L278.083 309.491L273.843 328.57L231.447 341.289L252.645 343.409L250.525 370.966L256.885 394.284L269.604 415.483L278.083 426.082L269.604 415.483L254.765 394.284L248.405 370.966L252.645 343.409L229.327 341.289Z" fill="#F1B47F"/>
<path d="M269.603 415.486L280.202 409.127L282.322 409.127L271.723 415.486L269.603 415.486Z" fill="#F1B47F"/>
<path d="M222.968 409.123L222.968 407.003L254.765 394.284L256.885 394.284L222.968 409.123L231.447 426.081L222.968 409.123Z" fill="#F1B47F"/>
<path d="M239.926 284.056L263.244 284.056L284.442 269.217L271.723 245.899L271.723 243.78L284.442 269.217L263.244 284.056L239.926 284.056Z" fill="#F1B47F"/>
<path d="M218.728 152.626L235.686 184.424L237.806 220.461L227.207 245.898L225.087 245.898L235.686 220.461L235.686 184.424L218.728 152.626Z" fill="#F1B47F"/>
<path d="M197.529 368.85L220.847 373.09L250.524 370.97L271.723 356.131L250.524 373.09L220.847 373.09L197.529 368.85Z" fill="#F1B47F"/>
<path d="M309.88 152.625C307.76 152.625 307.76 150.505 307.76 150.505C305.641 148.385 307.76 146.266 307.76 146.266C309.88 146.266 312 148.385 312 150.505L309.88 152.625Z" fill="#F1B47F"/>
<path d="M286.563 148.387C284.443 148.387 282.323 148.387 282.323 146.267C282.323 144.147 284.443 142.027 284.443 142.027C286.563 142.027 288.683 144.147 288.683 144.147C288.683 148.387 288.683 148.387 286.563 148.387Z" fill="#F1B47F"/>
<path d="M295.041 167.467C292.922 167.467 288.682 165.347 288.682 161.108C288.682 156.868 290.802 154.748 295.041 154.748C299.281 154.748 301.401 156.868 301.401 161.108C299.281 163.228 297.161 167.467 295.041 167.467Z" fill="#F1B47F"/>
<path d="M263.244 186.545C256.885 186.545 252.645 182.306 252.645 175.946C252.645 169.587 256.885 165.347 263.244 165.347C269.604 165.347 273.843 169.587 273.843 175.946C273.843 182.306 269.604 186.545 263.244 186.545Z" fill="#F1B47F"/>
<path d="M218.727 163.227C212.368 163.227 208.128 158.987 208.128 152.628C208.128 148.388 212.368 144.149 218.727 144.149C225.087 144.149 229.326 148.388 229.326 154.748C229.326 158.987 225.087 163.227 218.727 163.227Z" fill="#F1B47F"/>
<path d="M235.686 188.665C233.566 188.665 229.326 186.545 229.326 182.306C229.326 180.186 231.446 175.946 233.566 175.946C235.686 175.946 239.925 178.066 239.925 182.306C239.925 186.545 237.805 188.665 235.686 188.665Z" fill="#F1B47F"/>
<path d="M193.29 175.945C193.29 179.458 196.137 182.305 199.649 182.305C203.162 182.305 206.009 179.458 206.009 175.945C206.009 172.433 203.162 169.586 199.649 169.586C196.137 169.586 193.29 172.433 193.29 175.945Z" fill="#F1B47F"/>
<path d="M273.842 334.932C269.603 334.932 265.363 330.692 265.363 326.452C265.363 322.213 269.603 317.973 273.842 317.973C278.082 317.973 282.322 322.213 282.322 326.452C282.322 330.692 278.082 334.932 273.842 334.932Z" fill="#F1B47F"/>
<path d="M231.447 345.53C227.207 345.53 225.087 343.41 225.087 339.171C225.087 334.931 227.207 332.811 231.447 332.811C235.686 332.811 237.806 334.931 237.806 339.171C237.806 343.41 235.686 345.53 231.447 345.53Z" fill="#F1B47F"/>
<path d="M252.645 349.771C250.525 349.771 248.405 347.651 248.405 345.531C248.405 341.291 250.525 339.172 252.645 339.172C254.765 339.172 256.885 341.291 256.885 343.411C256.885 347.651 254.765 349.771 252.645 349.771Z" fill="#F1B47F"/>
<path d="M271.724 364.606C267.484 364.606 265.364 360.366 265.364 358.247C265.364 354.007 267.484 351.887 271.724 351.887C275.963 351.887 278.083 356.127 278.083 358.247C278.083 362.486 273.843 364.606 271.724 364.606Z" fill="#F1B47F"/>
<path d="M250.525 377.326C248.405 377.326 246.285 375.206 246.285 373.087C246.285 370.967 248.405 368.847 250.525 368.847C252.645 368.847 254.765 370.967 254.765 373.087C254.765 375.206 252.645 377.326 250.525 377.326Z" fill="#F1B47F"/>
<path d="M222.967 379.449C218.727 379.449 216.607 377.329 216.607 373.09C216.607 368.85 218.727 366.73 222.967 366.73C227.206 366.73 229.326 370.97 229.326 373.09C229.326 377.329 227.206 379.449 222.967 379.449Z" fill="#F1B47F"/>
<path d="M199.649 375.208C197.529 375.208 193.29 373.088 193.29 370.968C193.29 368.849 195.41 366.729 199.649 364.609C201.769 364.609 206.009 366.729 206.009 368.849C203.889 373.088 201.769 375.208 199.649 375.208Z" fill="#F1B47F"/>
<path d="M222.967 413.363C220.848 413.363 216.608 411.243 216.608 407.004C216.608 404.884 218.728 402.764 220.848 400.644C225.087 402.764 227.207 404.884 227.207 409.124C227.207 411.243 225.087 413.363 222.967 413.363Z" fill="#F1B47F"/>
<path d="M231.447 430.322C229.328 430.322 227.208 428.202 227.208 426.082C227.208 423.962 229.328 421.843 231.447 421.843C233.567 421.843 235.687 423.962 235.687 426.082C235.687 428.202 233.567 430.322 231.447 430.322Z" fill="#F1B47F"/>
<path d="M256.885 400.646C252.645 400.646 248.405 398.526 248.405 394.286C248.405 390.047 250.525 385.807 254.765 385.807C259.004 385.807 263.244 390.047 263.244 392.166C263.244 398.526 261.124 400.646 256.885 400.646Z" fill="#F1B47F"/>
<path d="M269.604 421.845C267.484 421.845 265.364 419.725 265.364 417.605C265.364 415.486 267.484 413.366 269.604 413.366C271.723 413.366 273.843 415.486 273.843 417.605C273.843 419.725 271.723 421.845 269.604 421.845Z" fill="#F1B47F"/>
<path d="M280.202 411.245C278.082 411.245 278.082 409.125 278.082 409.125C278.082 407.005 280.202 407.005 280.202 407.005C282.322 407.005 282.322 409.125 282.322 409.125C282.322 411.245 282.322 411.245 280.202 411.245Z" fill="#F1B47F"/>
<path d="M280.202 428.204C278.082 428.204 278.082 426.084 278.082 426.084C278.082 423.964 278.082 423.964 280.202 423.964C282.322 423.964 282.322 426.084 282.322 426.084C282.322 428.204 280.202 428.204 280.202 428.204Z" fill="#F1B47F"/>
<path d="M227.207 254.376C222.967 254.376 220.848 252.257 220.848 248.017C220.848 243.777 222.967 241.657 227.207 241.657C231.447 241.657 233.567 243.777 233.567 248.017C235.686 250.137 231.447 254.376 227.207 254.376Z" fill="#F1B47F"/>
<path d="M254.764 258.615C250.524 258.615 248.405 256.496 248.405 252.256C248.405 248.016 250.524 245.896 254.764 245.896C259.004 245.896 261.124 248.016 261.124 252.256C261.124 256.496 259.004 258.615 254.764 258.615Z" fill="#F1B47F"/>
<path d="M271.724 250.137C269.604 250.137 267.484 248.017 267.484 245.897C267.484 243.777 269.604 241.657 271.724 241.657C273.843 241.657 275.963 243.777 275.963 245.897C278.083 248.017 275.963 250.137 271.724 250.137Z" fill="#F1B47F"/>
<path d="M242.046 288.295C239.927 288.295 237.807 286.175 237.807 284.055C237.807 281.935 239.927 279.816 242.046 279.816C244.166 279.816 246.286 281.935 246.286 284.055C246.286 286.175 244.166 288.295 242.046 288.295Z" fill="#F1B47F"/>
<path d="M295.042 324.331C292.922 324.331 290.802 322.211 290.802 320.091C290.802 317.972 292.922 315.852 295.042 315.852C297.162 315.852 299.282 317.972 299.282 320.091C299.282 322.211 297.162 322.211 295.042 324.331Z" fill="#F1B47F"/>
<path d="M280.203 315.854C278.083 315.854 275.963 313.734 275.963 311.614C275.963 309.494 278.083 307.375 280.203 307.375C282.323 307.375 284.442 309.494 284.442 311.614C284.442 313.734 282.323 315.854 280.203 315.854Z" fill="#F1B47F"/>
<path d="M284.442 273.457C282.323 273.457 280.203 271.337 280.203 269.217C280.203 267.098 282.323 264.978 284.442 264.978C286.562 264.978 288.682 267.098 288.682 269.217C288.682 271.337 286.562 273.457 284.442 273.457Z" fill="#F1B47F"/>
<path d="M303.521 216.223C301.401 216.223 299.281 214.103 299.281 211.983C299.281 209.863 301.401 207.743 303.521 207.743C305.64 207.743 307.76 209.863 307.76 211.983C307.76 214.103 305.64 216.223 303.521 216.223Z" fill="#F1B47F"/>
<path d="M288.682 243.779C288.682 247.291 291.529 250.138 295.041 250.138C298.554 250.138 301.401 247.291 301.401 243.779C301.401 240.266 298.554 237.419 295.041 237.419C291.529 237.419 288.682 240.266 288.682 243.779Z" fill="#F1B47F"/>
<path d="M280.203 228.94C275.963 228.94 273.843 224.7 271.723 222.58C271.723 218.341 275.963 216.221 278.083 216.221C282.322 216.221 284.442 218.341 286.562 222.58C288.682 224.7 284.442 228.94 280.203 228.94Z" fill="#F1B47F"/>
<path d="M299.282 290.413C295.042 290.413 292.922 288.293 292.922 284.053C292.922 279.813 295.042 277.694 299.282 277.694C303.521 277.694 305.641 279.813 305.641 284.053C307.761 286.173 303.521 290.413 299.282 290.413Z" fill="#F1B47F"/>
<path d="M265.363 290.413C261.124 290.413 259.004 288.293 259.004 284.053C259.004 279.813 261.124 277.694 265.363 277.694C269.603 277.694 271.723 279.813 271.723 284.053C271.723 288.293 267.483 290.413 265.363 290.413Z" fill="#F1B47F"/>
<path d="M237.807 226.819C233.567 226.819 229.328 222.579 229.328 218.34C229.328 214.1 233.567 209.86 237.807 209.86C242.046 209.86 246.286 214.1 246.286 218.34C246.286 222.579 242.046 226.819 237.807 226.819Z" fill="#F1B47F"/>
<path d="M208.129 421.848L216.608 436.687L231.447 426.088L216.608 436.687L208.129 421.848Z" fill="#F1B47F"/>
<path d="M184.811 453.644L216.608 436.686L184.811 453.644L203.889 496.041L227.207 487.561L201.769 498.16L184.811 453.644Z" fill="#F1B47F"/>
<path d="M176.331 527.839L203.889 496.042L216.608 521.48L208.129 544.798L222.967 559.637L201.769 587.194L216.608 595.674L201.769 587.194L222.967 559.637L206.009 544.798L216.608 521.48L201.769 498.162L176.331 527.839Z" fill="#F1B47F"/>
<path d="M153.013 616.868L197.529 604.149L201.769 587.19L197.529 604.149L155.133 616.868L176.331 621.108L172.092 648.665L178.451 669.864L193.29 691.062L201.769 703.781L191.17 691.062L178.451 669.864L172.092 648.665L174.211 621.108L153.013 616.868Z" fill="#F1B47F"/>
<path d="M163.613 561.755L163.613 559.635L186.931 559.635L206.01 544.797L193.291 521.479L195.41 521.479L208.129 544.797L208.129 546.916L186.931 559.635L163.613 561.755Z" fill="#F1B47F"/>
<path d="M140.294 430.325L142.414 430.325L159.373 460.003L159.373 496.04L148.773 523.597L159.373 496.04L157.253 460.003L140.294 430.325Z" fill="#F1B47F"/>
<path d="M121.216 453.646L159.373 457.885L121.216 453.646Z" fill="#F1B47F"/>
<path d="M121.216 646.549L121.216 644.429L144.534 648.669L172.092 648.669L195.41 633.83L172.092 648.669L142.414 650.789L121.216 646.549Z" fill="#F1B47F"/>
<path d="M231.447 428.207C229.327 428.207 229.327 426.088 229.327 426.088C229.327 423.968 231.447 421.848 231.447 421.848C233.567 421.848 233.567 423.968 233.567 426.088C235.687 428.207 233.567 428.207 231.447 428.207Z" fill="#F1B47F"/>
<path d="M208.13 426.086C208.13 426.086 206.01 423.966 206.01 421.846C206.01 419.726 208.13 419.726 208.13 419.726C210.249 419.726 212.369 421.846 210.249 421.846C212.369 423.966 210.249 426.086 208.13 426.086Z" fill="#F1B47F"/>
<path d="M218.728 443.044C216.609 443.044 212.369 440.924 212.369 436.685C212.369 434.565 214.489 430.325 218.728 430.325C220.848 430.325 225.088 432.445 225.088 436.685C222.968 440.924 220.848 443.044 218.728 443.044Z" fill="#F1B47F"/>
<path d="M186.931 462.123C180.572 462.123 176.332 457.883 176.332 451.524C176.332 445.164 180.572 440.925 186.931 440.925C193.291 440.925 197.53 445.164 197.53 451.524C197.53 457.883 193.291 462.123 186.931 462.123Z" fill="#F1B47F"/>
<path d="M142.414 440.925C136.055 440.925 131.815 436.685 131.815 430.325C131.815 423.966 136.055 419.726 142.414 419.726C148.774 419.726 153.013 423.966 153.013 430.325C150.893 436.685 146.654 440.925 142.414 440.925Z" fill="#F1B47F"/>
<path d="M159.373 464.242C157.254 464.242 153.014 462.123 153.014 457.883C153.014 455.763 155.134 451.523 159.373 451.523C161.493 451.523 165.733 453.643 165.733 457.883C163.613 462.123 161.493 464.242 159.373 464.242Z" fill="#F1B47F"/>
<path d="M116.977 453.644C116.977 457.157 119.824 460.004 123.336 460.004C126.849 460.004 129.696 457.157 129.696 453.644C129.696 450.132 126.849 447.285 123.336 447.285C119.824 447.285 116.977 450.132 116.977 453.644Z" fill="#F1B47F"/>
<path d="M197.529 612.631C193.29 612.631 189.05 608.392 189.05 604.152C189.05 599.912 193.29 595.673 197.529 595.673C201.769 595.673 206.009 599.912 206.009 604.152C206.009 608.392 201.769 612.631 197.529 612.631Z" fill="#F1B47F"/>
<path d="M155.134 623.229C150.894 623.229 148.774 621.109 148.774 616.87C148.774 612.63 150.894 610.51 155.134 610.51C159.373 610.51 161.493 612.63 161.493 616.87C161.493 618.989 159.373 623.229 155.134 623.229Z" fill="#F1B47F"/>
<path d="M176.331 625.35C174.211 625.35 172.092 623.231 172.092 621.111C172.092 618.991 174.211 616.871 176.331 616.871C178.451 616.871 180.571 618.991 180.571 621.111C180.571 623.231 178.451 625.35 176.331 625.35Z" fill="#F1B47F"/>
<path d="M193.291 642.306C189.051 642.306 186.931 640.186 186.931 635.946C186.931 631.707 189.051 629.587 193.291 629.587C197.53 629.587 199.65 633.827 199.65 635.946C201.77 638.066 197.53 642.306 193.291 642.306Z" fill="#F1B47F"/>
<path d="M150.894 529.959C146.654 529.959 144.534 527.839 144.534 523.6C144.534 519.36 146.654 517.24 150.894 517.24C155.134 517.24 157.253 519.36 157.253 523.6C157.253 527.839 155.134 529.959 150.894 529.959Z" fill="#F1B47F"/>
<path d="M178.451 534.197C174.211 534.197 172.092 532.078 172.092 527.838C172.092 523.598 174.211 521.479 178.451 521.479C182.691 521.479 184.811 523.598 184.811 527.838C182.691 532.078 180.571 534.197 178.451 534.197Z" fill="#F1B47F"/>
<path d="M195.41 525.72C193.29 525.72 191.17 523.6 191.17 521.48C191.17 519.36 193.29 517.24 195.41 517.24C197.53 517.24 199.649 519.36 199.649 521.48C199.649 523.6 197.53 525.72 195.41 525.72Z" fill="#F1B47F"/>
<path d="M163.613 565.994C161.493 565.994 159.373 563.874 159.373 561.754C159.373 559.634 161.493 557.515 163.613 557.515C165.733 557.515 167.852 559.634 167.852 561.754C169.972 561.754 167.852 565.994 163.613 565.994Z" fill="#F1B47F"/>
<path d="M218.728 599.913C216.608 599.913 214.488 597.793 214.488 595.674C214.488 593.554 216.608 591.434 218.728 591.434C220.847 591.434 222.967 593.554 222.967 595.674C222.967 597.793 220.847 599.913 218.728 599.913Z" fill="#F1B47F"/>
<path d="M201.77 591.431C199.65 591.431 197.53 589.311 197.53 587.191C197.53 585.071 199.65 582.951 201.77 582.951C203.889 582.951 206.009 585.071 206.009 587.191C208.129 589.311 206.009 591.431 201.77 591.431Z" fill="#F1B47F"/>
<path d="M208.129 551.156C206.009 551.156 203.889 549.036 203.889 546.917C203.889 544.797 206.009 542.677 208.129 542.677C210.248 542.677 212.368 544.797 212.368 546.917C212.368 549.036 210.248 551.156 208.129 551.156Z" fill="#F1B47F"/>
<path d="M227.208 491.8C225.088 491.8 222.968 489.681 222.968 487.561C222.968 485.441 225.088 483.321 227.208 483.321C229.327 483.321 231.447 485.441 231.447 487.561C231.447 489.681 229.327 491.8 227.208 491.8Z" fill="#F1B47F"/>
<path d="M218.728 527.837C214.489 527.837 212.369 525.717 212.369 521.478C212.369 517.238 214.489 515.118 218.728 515.118C222.968 515.118 225.088 517.238 225.088 521.478C225.088 525.717 222.968 527.837 218.728 527.837Z" fill="#F1B47F"/>
<path d="M203.889 504.52C199.649 504.52 197.53 502.401 197.53 498.161C197.53 493.921 199.649 491.801 203.889 489.682C208.129 489.682 210.249 493.921 210.249 496.041C210.249 500.281 208.129 504.52 203.889 504.52Z" fill="#F1B47F"/>
<path d="M222.968 565.993C218.729 565.993 216.609 563.873 216.609 559.634C216.609 555.394 218.729 553.274 222.968 551.154C227.208 551.154 229.328 555.394 229.328 557.514C229.328 563.873 227.208 565.993 222.968 565.993Z" fill="#F1B47F"/>
<path d="M186.931 568.112C182.691 568.112 180.572 565.992 180.572 561.752C180.572 557.513 182.691 555.393 186.931 555.393C191.171 555.393 193.291 557.513 193.291 561.752C193.291 563.872 191.171 568.112 186.931 568.112Z" fill="#F1B47F"/>
<path d="M159.373 504.518C155.133 504.518 150.893 500.279 150.893 496.039C150.893 491.799 155.133 487.56 159.373 487.56C163.612 487.56 167.852 491.799 167.852 496.039C169.972 500.279 165.732 504.518 159.373 504.518Z" fill="#F1B47F"/>
</g>
<path d="M70.3394 671.987L102.137 688.945L70.3394 671.987L87.2979 629.59L110.616 638.069L112.736 638.069L87.2979 627.47L70.3394 671.987Z" fill="#A9EAC5"/>
<path d="M59.7416 597.79L87.2993 629.588L102.138 604.15L91.539 580.832L108.498 565.993L87.2993 538.435L102.138 529.956L85.1795 538.435L106.378 565.993L91.539 580.832L102.138 604.15L87.2993 627.468L61.8614 597.79L59.7416 597.79Z" fill="#A9EAC5"/>
<path d="M36.4235 508.761L38.5434 508.761L80.9399 521.48L85.1795 538.438L87.2993 538.438L83.0597 521.48L40.6632 508.761L59.7416 504.521L57.6218 476.963L63.9813 455.765L76.7002 434.567L85.1795 421.848L76.7002 434.567L63.9813 455.765L57.6218 476.963L59.7416 504.521L36.4235 508.761Z" fill="#A9EAC5"/>
<path d="M78.8193 432.448L87.2986 440.927L89.4185 438.807L78.8193 432.448Z" fill="#A9EAC5"/>
<path d="M30.0633 440.923L63.9805 455.762L30.0633 440.923L38.5426 423.965L30.0633 440.923Z" fill="#A9EAC5"/>
<path d="M49.1411 563.875L49.1411 565.995L72.4592 565.995L91.5376 580.834L78.8186 604.152L91.5376 580.834L91.5376 578.714L72.4592 565.995L49.1411 563.875Z" fill="#A9EAC5"/>
<path d="M25.8244 695.306L44.9028 665.628L44.9028 629.591L34.3037 602.033L44.9028 629.591L42.783 665.628L25.8244 695.306Z" fill="#A9EAC5"/>
<path d="M4.6248 479.084L4.6248 481.203L27.9429 476.964L57.6204 476.964L78.8186 491.803L80.9385 491.803L57.6204 476.964L27.9429 474.844L4.6248 479.084Z" fill="#A9EAC5"/>
<path d="M80.9392 512.996C76.6995 512.996 72.4599 517.236 72.4599 521.476C72.4599 525.715 76.6995 529.955 80.9392 529.955C85.1788 529.955 89.4185 525.715 89.4185 521.476C89.4185 517.236 85.1788 512.996 80.9392 512.996Z" fill="#A9EAC5"/>
<path d="M40.6625 502.397C36.4229 502.397 34.303 504.517 34.303 508.757C34.303 512.997 36.4228 515.116 40.6625 515.116C44.9021 515.116 47.022 512.997 47.022 508.757C47.022 506.637 42.7823 502.397 40.6625 502.397Z" fill="#A9EAC5"/>
<path d="M59.7408 500.281C57.621 500.281 55.5012 502.401 55.5012 504.52C55.5012 506.64 57.621 508.76 59.7408 508.76C61.8606 508.76 63.9805 506.64 63.9805 504.52C63.9805 502.401 61.8606 500.281 59.7408 500.281Z" fill="#A9EAC5"/>
<path d="M78.8192 483.321C74.5796 483.321 72.4598 485.441 72.4598 489.681C72.4598 493.92 74.5796 496.04 78.8192 496.04C83.0589 496.04 85.1787 493.92 85.1787 489.681C85.1787 487.561 83.0589 483.321 78.8192 483.321Z" fill="#A9EAC5"/>
<path d="M57.6212 472.722C55.5014 472.722 53.3816 474.842 53.3816 476.962C53.3816 479.081 55.5014 481.201 57.6212 481.201C59.741 481.201 61.8608 479.081 61.8608 476.962C61.8608 474.842 59.741 472.722 57.6212 472.722Z" fill="#A9EAC5"/>
<path d="M30.0634 468.484C25.8237 468.484 23.7039 470.603 23.7039 474.843C23.7039 479.083 27.9436 481.203 30.0634 481.203C34.303 481.203 36.4229 479.083 36.4229 474.843C36.4229 472.723 34.303 468.484 30.0634 468.484Z" fill="#A9EAC5"/>
<path d="M6.74522 474.844C4.6254 474.844 0.385744 476.964 0.385744 479.084C0.385744 481.203 2.50556 485.443 4.62539 485.443C6.74521 485.443 8.86504 483.323 10.9849 479.084C10.9849 476.964 8.86504 474.844 6.74522 474.844Z" fill="#A9EAC5"/>
<path d="M30.0641 434.564C27.9442 434.564 23.7046 436.684 23.7046 438.804C23.7046 440.924 25.8244 443.044 30.0641 445.163C32.1839 445.163 34.3037 443.043 34.3037 440.924C34.3037 438.804 32.1839 436.684 30.0641 434.564Z" fill="#A9EAC5"/>
<path d="M38.5426 419.727C36.4228 419.727 34.3029 421.846 34.3029 423.966C34.3029 426.086 36.4228 428.206 38.5426 428.206C40.6624 428.206 42.7822 426.086 42.7822 423.966C42.7822 421.846 40.6624 419.727 38.5426 419.727Z" fill="#A9EAC5"/>
<path d="M63.9807 447.285C59.741 447.285 55.5014 451.525 55.5014 453.645C55.5014 457.884 59.741 462.124 63.9807 462.124C68.2203 462.124 72.46 457.884 72.46 455.764C70.3401 451.525 68.2203 447.285 63.9807 447.285Z" fill="#A9EAC5"/>
<path d="M76.6988 428.204C74.579 428.204 72.4592 430.324 72.4592 432.443C72.4592 434.563 74.579 436.683 76.6988 436.683C78.8186 436.683 80.9385 434.563 80.9385 432.443C80.9385 430.324 78.8186 428.204 76.6988 428.204Z" fill="#A9EAC5"/>
<path d="M87.299 436.686C85.1792 436.686 85.1792 438.806 85.1792 438.806C85.1792 440.925 85.1792 440.925 87.299 440.925C89.4188 440.925 89.4188 440.925 89.4188 438.806C91.5386 438.806 89.4188 436.686 87.299 436.686Z" fill="#A9EAC5"/>
<path d="M87.2986 419.727C85.1788 419.727 85.1788 421.846 85.1788 421.846C85.1788 423.966 87.2986 423.966 87.2986 423.966C89.4184 423.966 89.4185 421.846 89.4185 421.846L87.2986 419.727Z" fill="#A9EAC5"/>
<path d="M36.4228 595.673C32.1831 595.673 30.0633 597.793 30.0633 602.033C30.0633 606.272 32.1831 608.392 36.4228 608.392C40.6624 608.392 42.7822 606.272 42.7822 602.033C42.7822 597.793 40.6624 595.673 36.4228 595.673Z" fill="#A9EAC5"/>
<path d="M61.8607 591.434C57.6211 591.434 55.5013 593.554 55.5013 597.794C55.5013 602.033 57.6211 604.153 61.8607 604.153C66.1004 604.153 68.2202 602.033 68.2202 597.794C68.2202 593.554 66.1004 591.434 61.8607 591.434Z" fill="#A9EAC5"/>
<path d="M80.9386 599.911C78.8188 599.911 76.6989 602.031 76.6989 604.151C76.6989 606.271 78.8188 608.391 80.9386 608.391C83.0584 608.391 85.1782 606.271 85.1782 604.151C85.1782 602.031 83.0584 599.911 80.9386 599.911Z" fill="#A9EAC5"/>
<path d="M49.1417 561.753C47.0219 561.753 44.902 563.873 44.902 565.993C44.902 568.113 47.0219 570.233 49.1417 570.233C51.2615 570.233 53.3813 568.113 53.3813 565.993C53.3813 563.873 51.2615 561.753 49.1417 561.753Z" fill="#A9EAC5"/>
<path d="M102.137 525.718C100.017 525.718 97.8972 527.838 97.8972 529.957C97.8972 532.077 100.017 534.197 102.137 534.197C104.257 534.197 106.376 532.077 106.376 529.957C106.376 527.838 104.257 525.718 102.137 525.718Z" fill="#A9EAC5"/>
<path d="M87.2979 534.195C85.1781 534.195 83.0583 536.314 83.0583 538.434C83.0583 540.554 85.1781 542.674 87.2979 542.674C89.4178 542.674 91.5376 540.554 91.5376 538.434C91.5376 536.314 89.4178 534.195 87.2979 534.195Z" fill="#A9EAC5"/>
<path d="M91.5386 574.475C89.4188 574.475 87.2989 576.595 87.2989 578.714C87.2989 580.834 89.4188 582.954 91.5386 582.954C93.6584 582.954 95.7782 580.834 95.7782 578.714C97.8981 576.595 95.7782 574.475 91.5386 574.475Z" fill="#A9EAC5"/>
<path d="M110.617 633.831C108.497 633.831 106.378 635.95 106.378 638.07C106.378 640.19 108.497 642.31 110.617 642.31C112.737 642.31 114.857 640.19 114.857 638.07C116.977 635.95 114.857 633.831 110.617 633.831Z" fill="#A9EAC5"/>
<path d="M104.257 597.789C100.018 597.789 97.8977 599.909 97.8977 604.149C97.8977 608.388 100.018 610.508 104.257 612.628C108.497 612.628 110.617 608.388 110.617 606.269C110.617 599.909 108.497 597.789 104.257 597.789Z" fill="#A9EAC5"/>
<path d="M89.4184 621.11C85.1787 621.11 83.0589 623.229 83.0589 627.469C83.0589 631.709 85.1787 633.829 89.4184 633.829C93.658 633.829 95.7778 631.709 95.7778 627.469C95.7778 623.229 93.658 621.11 89.4184 621.11Z" fill="#A9EAC5"/>
<path d="M106.377 559.637C102.137 559.637 100.017 563.877 100.017 565.996C100.017 570.236 102.137 572.356 106.377 572.356C110.617 572.356 112.736 570.236 112.736 565.996C114.856 561.757 110.617 559.637 106.377 559.637Z" fill="#A9EAC5"/>
<path d="M72.4599 557.515C68.2202 557.515 66.1004 559.635 66.1004 563.874C66.1004 568.114 68.2202 570.234 72.4599 570.234C76.6995 570.234 78.8193 568.114 78.8193 563.874C78.8193 561.755 76.6995 557.515 72.4599 557.515Z" fill="#A9EAC5"/>
<path d="M44.9019 621.11C40.6622 621.11 36.4226 625.349 36.4226 629.589C36.4226 633.829 40.6622 638.068 44.9019 638.068C49.1415 638.068 53.3812 633.829 53.3812 629.589C55.501 625.349 51.2614 621.11 44.9019 621.11Z" fill="#A9EAC5"/>
<path d="M121.217 466.366L129.696 451.527L144.535 462.126L129.696 449.407L121.217 466.366Z" fill="#A9EAC5"/>
<path d="M97.8984 434.567L129.696 451.526L97.8984 434.567L116.977 392.171L140.295 400.65L114.857 390.051L97.8984 434.567Z" fill="#A9EAC5"/>
<path d="M89.419 360.371L116.977 392.169L129.696 366.731L121.216 341.293L136.055 328.574L114.857 301.016L129.696 292.537L114.857 301.016L133.935 328.574L119.097 341.293L129.696 366.731L114.857 390.049L89.419 360.371Z" fill="#A9EAC5"/>
<path d="M63.9812 271.342L66.101 271.342L110.617 284.061L114.857 301.02L110.617 284.061L68.2208 271.342L87.2992 267.103L85.1794 239.545L91.5389 218.347L104.258 197.148L114.857 184.429L112.737 184.429L104.258 197.148L91.5389 218.347L85.1794 239.545L87.2992 267.103L63.9812 271.342Z" fill="#A9EAC5"/>
<path d="M106.378 195.028L116.978 203.507L116.978 201.388L106.378 195.028Z" fill="#A9EAC5"/>
<path d="M57.6224 203.504L91.5395 218.343L57.6224 203.504L68.2215 186.546L66.1016 186.546L57.6224 203.504Z" fill="#A9EAC5"/>
<path d="M76.701 326.456L76.701 328.576L100.019 328.576L119.097 341.295L106.379 366.733L108.498 366.733L121.217 341.295L119.097 341.295L100.019 326.456L76.701 326.456Z" fill="#A9EAC5"/>
<path d="M53.382 457.887L55.5019 457.887L72.4604 428.209L72.4604 392.172L61.8613 364.614L72.4604 392.172L72.4604 428.209L53.382 457.887Z" fill="#A9EAC5"/>
<path d="M34.3037 241.664L34.3037 243.784L55.502 239.544L85.1795 239.544L108.498 254.383L85.1795 239.544L55.502 237.425L34.3037 241.664Z" fill="#A9EAC5"/>
<path d="M144.535 457.884C142.415 457.884 142.415 460.004 142.415 460.004C142.415 462.124 144.535 462.124 144.535 462.124C146.655 462.124 146.655 460.004 146.655 457.884C148.774 460.004 146.655 457.884 144.535 457.884Z" fill="#A9EAC5"/>
<path d="M123.336 462.123C121.216 462.123 121.216 464.243 121.216 464.243C121.216 466.363 123.336 466.363 123.336 466.363C125.456 466.363 125.456 464.243 125.456 464.243L123.336 462.123Z" fill="#A9EAC5"/>
<path d="M131.816 445.163C129.696 445.163 125.457 447.283 125.457 451.523C125.457 453.643 127.577 457.882 131.816 457.882C133.936 457.882 138.176 455.762 138.176 451.523C136.056 447.283 133.936 445.163 131.816 445.163Z" fill="#A9EAC5"/>
<path d="M100.019 426.087C93.6596 426.087 89.4199 430.327 89.4199 436.686C89.4199 443.046 93.6596 447.285 100.019 447.285C106.379 447.285 110.618 443.046 110.618 436.686C110.618 430.327 106.379 426.087 100.019 426.087Z" fill="#A9EAC5"/>
<path d="M55.502 447.285C49.1425 447.285 44.9028 451.525 44.9028 457.884C44.9028 464.244 49.1425 468.483 55.502 468.483C61.8614 468.483 66.1011 464.244 66.1011 457.884C63.9813 451.525 59.7416 447.285 55.502 447.285Z" fill="#A9EAC5"/>
<path d="M72.4613 423.965C70.3415 423.965 66.1019 426.085 66.1019 430.324C66.1019 432.444 68.2217 436.684 72.4613 436.684C74.5811 436.684 78.8208 434.564 78.8208 430.324C76.701 426.085 74.5811 423.965 72.4613 423.965Z" fill="#A9EAC5"/>
<path d="M36.4242 428.209C32.1846 428.209 30.0647 430.329 30.0647 434.568C30.0647 438.808 32.1846 440.928 36.4242 440.928C40.6639 440.928 42.7837 438.808 42.7837 434.568C42.7837 432.449 38.544 428.209 36.4242 428.209Z" fill="#A9EAC5"/>
<path d="M108.498 275.577C104.259 275.577 100.019 279.817 100.019 284.056C100.019 288.296 104.259 292.536 108.498 292.536C112.738 292.536 116.978 288.296 116.978 284.056C116.978 279.817 114.858 275.577 108.498 275.577Z" fill="#A9EAC5"/>
<path d="M68.2216 264.978C63.9819 264.978 61.8621 267.098 61.8621 271.338C61.8621 275.577 63.9819 277.697 68.2216 277.697C72.4612 277.697 74.5811 275.577 74.5811 271.338C74.5811 269.218 70.3414 264.978 68.2216 264.978Z" fill="#A9EAC5"/>
<path d="M89.419 262.861C87.2992 262.861 85.1794 264.981 85.1794 267.101C85.1794 269.221 87.2992 271.341 89.419 271.341C91.5389 271.341 93.6587 269.221 93.6587 267.101C93.6587 264.981 91.5389 262.861 89.419 262.861Z" fill="#A9EAC5"/>
<path d="M106.378 245.902C102.139 245.902 100.019 248.022 100.019 252.262C100.019 256.501 104.258 258.621 106.378 258.621C110.618 258.621 112.738 254.381 112.738 252.262C112.738 250.142 110.618 245.902 106.378 245.902Z" fill="#A9EAC5"/>
<path d="M85.1803 235.303C83.0605 235.303 80.9406 237.423 80.9406 239.542C80.9406 241.662 83.0605 243.782 85.1803 243.782C87.3001 243.782 89.4199 241.662 89.4199 239.542C89.4199 237.423 87.3001 235.303 85.1803 235.303Z" fill="#A9EAC5"/>
<path d="M57.6226 231.064C53.3829 231.064 51.2631 235.304 51.2631 237.424C51.2631 241.663 55.5028 243.783 57.6226 243.783C61.8622 243.783 63.9821 241.663 63.9821 237.424C66.1019 235.304 61.8622 231.064 57.6226 231.064Z" fill="#A9EAC5"/>
<path d="M34.3042 237.425C32.1844 237.425 30.0646 239.544 27.9448 241.664C27.9448 243.784 30.0646 248.024 32.1844 248.024C34.3042 248.024 38.5439 245.904 38.5439 243.784C40.6637 239.544 38.5439 237.425 34.3042 237.425Z" fill="#A9EAC5"/>
<path d="M57.6217 197.145C55.5019 197.145 51.2622 199.265 51.2622 201.385C51.2622 203.504 53.382 207.744 55.5019 205.624C57.6217 205.624 61.8613 203.504 61.8613 201.385C61.8613 199.265 59.7415 197.145 57.6217 197.145Z" fill="#A9EAC5"/>
<path d="M66.1016 182.307C63.9818 182.307 61.862 184.427 61.862 186.547C61.862 188.667 63.9818 190.786 66.1016 190.786C68.2215 190.786 70.3413 188.667 70.3413 186.547C70.3413 184.427 68.2215 182.307 66.1016 182.307Z" fill="#A9EAC5"/>
<path d="M91.5391 209.866C87.2995 209.866 83.0598 214.106 83.0598 218.345C83.0598 222.585 87.2994 224.705 89.4193 226.825C93.6589 226.825 97.8986 222.585 97.8986 220.465C100.018 214.106 95.7787 209.866 91.5391 209.866Z" fill="#A9EAC5"/>
<path d="M104.259 188.668C102.139 188.668 100.019 190.788 100.019 195.027C100.019 197.147 102.139 199.267 104.259 199.267C106.379 199.267 108.498 197.147 108.498 195.027C110.618 192.907 106.379 188.668 104.259 188.668Z" fill="#A9EAC5"/>
<path d="M116.977 199.267C114.857 199.267 114.857 201.386 114.857 201.386C114.857 203.506 116.977 203.506 116.977 203.506C119.097 203.506 119.097 201.386 119.097 201.386L116.977 199.267Z" fill="#A9EAC5"/>
<path d="M114.858 182.307C112.738 182.307 112.738 184.427 112.738 184.427C112.738 186.547 114.858 186.547 114.858 186.547C116.978 186.547 116.978 184.427 116.978 184.427C116.978 184.427 116.978 182.307 114.858 182.307Z" fill="#A9EAC5"/>
<path d="M63.9818 358.254C59.7422 358.254 57.6224 360.374 57.6224 364.613C57.6224 368.853 59.7422 370.973 63.9818 370.973C68.2215 370.973 70.3413 368.853 70.3413 364.613C70.3413 360.374 68.2215 358.254 63.9818 358.254Z" fill="#A9EAC5"/>
<path d="M91.539 354.015C87.2993 354.015 85.1795 356.135 85.1795 360.374C85.1795 364.614 87.2993 366.734 91.539 366.734C95.7786 366.734 97.8984 364.614 97.8984 360.374C95.7786 356.135 93.6588 354.015 91.539 354.015Z" fill="#A9EAC5"/>
<path d="M108.498 362.492C106.378 362.492 104.258 364.612 104.258 366.732C104.258 368.852 106.378 370.971 108.498 370.971C110.618 370.971 112.738 368.852 112.738 366.732C112.738 364.612 110.618 362.492 108.498 362.492Z" fill="#A9EAC5"/>
<path d="M76.7007 322.218C74.5809 322.218 72.4611 324.338 72.4611 326.457C72.4611 328.577 74.5809 330.697 76.7007 330.697C78.8205 330.697 80.9404 328.577 80.9404 326.457C83.0602 324.338 80.9403 322.218 76.7007 322.218Z" fill="#A9EAC5"/>
<path d="M131.816 288.299C129.696 288.299 127.576 290.418 127.576 292.538C127.576 294.658 129.696 296.778 131.816 296.778C133.935 296.778 136.055 294.658 136.055 292.538C133.935 290.418 133.935 288.299 131.816 288.299Z" fill="#A9EAC5"/>
<path d="M114.857 294.659C112.738 294.659 110.618 296.779 110.618 298.899C110.618 301.019 112.738 303.138 114.857 303.138C116.977 303.138 119.097 301.019 119.097 298.899C121.217 298.899 119.097 294.659 114.857 294.659Z" fill="#A9EAC5"/>
<path d="M121.216 337.055C119.097 337.055 116.977 339.175 116.977 341.295C116.977 343.415 119.097 345.535 121.216 345.535C123.336 345.535 125.456 343.415 125.456 341.295C125.456 339.175 123.336 337.055 121.216 337.055Z" fill="#A9EAC5"/>
<path d="M140.295 394.289C138.175 394.289 136.055 396.409 136.055 398.529C136.055 400.649 138.175 402.769 140.295 402.769C142.415 402.769 144.535 400.649 144.535 398.529C144.535 396.409 142.415 394.289 140.295 394.289Z" fill="#A9EAC5"/>
<path d="M131.816 360.37C127.577 360.37 125.457 362.49 125.457 366.73C125.457 370.969 127.577 373.089 131.816 373.089C136.056 373.089 138.176 368.849 138.176 366.73C138.176 362.49 136.056 360.37 131.816 360.37Z" fill="#A9EAC5"/>
<path d="M116.977 383.69C112.737 383.69 110.617 387.93 110.617 390.05C110.617 394.29 112.737 396.409 116.977 396.409C121.217 396.409 123.336 392.17 123.336 390.05C123.336 385.81 121.217 383.69 116.977 383.69Z" fill="#A9EAC5"/>
<path d="M136.056 322.218C131.816 322.218 129.697 324.338 129.697 328.577C129.697 332.817 131.816 334.937 136.056 334.937C140.296 334.937 142.416 332.817 142.416 328.577C142.416 324.338 140.296 322.218 136.056 322.218Z" fill="#A9EAC5"/>
<path d="M100.019 320.096C95.7793 320.096 93.6595 322.216 93.6595 326.455C93.6595 330.695 95.7793 332.815 100.019 332.815C104.259 332.815 106.378 330.695 106.378 326.455C106.378 324.335 104.259 320.096 100.019 320.096Z" fill="#A9EAC5"/>
<path d="M72.4605 383.69C68.2208 383.69 63.9812 387.93 63.9812 392.17C63.9812 396.409 68.2208 400.649 72.4605 400.649C76.7001 400.649 80.9398 396.409 80.9398 392.17C83.0596 387.93 78.8199 383.69 72.4605 383.69Z" fill="#A9EAC5"/>
<path d="M271.724 481.2L273.844 481.2L280.204 466.361L295.042 476.96L297.162 476.96L280.204 466.361L271.724 481.2Z" fill="#A9EAC5"/>
<path d="M248.405 449.405L280.203 466.363L248.405 449.405L267.484 407.008L290.802 415.488L267.484 404.888L265.364 404.888L248.405 449.405Z" fill="#A9EAC5"/>
<path d="M239.927 375.209L267.485 407.006L282.324 381.569L271.725 358.251L286.563 343.412L265.365 315.854L280.204 307.375L265.365 315.854L286.563 343.412L269.605 358.251L280.204 381.569L267.485 404.887L239.927 375.209Z" fill="#A9EAC5"/>
<path d="M216.609 286.179L261.126 298.898L265.365 315.857L261.126 298.898L218.729 286.179L237.808 281.94L235.688 254.382L242.047 233.184L254.766 211.985L265.365 199.266L263.245 199.266L254.766 211.985L242.047 233.184L235.688 254.382L237.808 281.94L216.609 286.179Z" fill="#A9EAC5"/>
<path d="M256.885 209.866L267.484 218.345L267.484 216.225L256.885 209.866Z" fill="#A9EAC5"/>
<path d="M208.129 218.342L242.046 233.181L208.129 218.342L218.728 201.383L216.608 201.383L208.129 218.342Z" fill="#A9EAC5"/>
<path d="M227.208 341.294L227.208 343.414L250.526 343.414L269.604 358.252L259.005 381.57L271.724 358.252L271.724 356.132L250.526 341.294L227.208 341.294Z" fill="#A9EAC5"/>
<path d="M206.01 472.724L222.969 443.047L222.969 407.01L212.37 379.452L222.969 407.01L222.969 443.047L206.01 472.724Z" fill="#A9EAC5"/>
<path d="M184.812 449.403L186.932 449.403L222.969 445.163L184.812 449.403Z" fill="#A9EAC5"/>
<path d="M184.811 256.502L184.811 258.622L206.009 254.382L235.686 254.382L259.004 269.221L235.686 254.382L206.009 252.262L184.811 256.502Z" fill="#A9EAC5"/>
<path d="M295.042 472.722C292.922 472.722 292.922 474.842 292.922 474.842C292.922 476.961 295.042 479.081 295.042 479.081C297.162 479.081 299.282 476.961 299.282 476.961C299.282 474.842 297.162 472.722 295.042 472.722Z" fill="#A9EAC5"/>
<path d="M273.844 476.961C271.724 476.961 271.724 479.081 269.604 479.081C269.604 481.2 271.724 483.32 271.724 483.32C273.844 483.32 275.964 481.2 275.964 481.2C275.964 479.081 275.964 476.961 273.844 476.961Z" fill="#A9EAC5"/>
<path d="M282.323 460.001C278.083 460.001 275.964 462.121 275.964 466.36C275.964 468.48 278.083 472.72 282.323 472.72C284.443 472.72 288.683 470.6 288.683 466.36C286.563 462.121 284.443 460.001 282.323 460.001Z" fill="#A9EAC5"/>
<path d="M250.526 440.925C244.166 440.925 239.927 445.164 239.927 451.524C239.927 457.883 244.166 462.123 250.526 462.123C256.885 462.123 261.125 457.883 261.125 451.524C261.125 445.164 256.885 440.925 250.526 440.925Z" fill="#A9EAC5"/>
<path d="M206.009 462.123C199.649 462.123 195.41 466.363 195.41 472.722C195.41 479.082 199.649 483.321 206.009 483.321C212.368 483.321 216.608 479.082 216.608 472.722C216.608 466.363 212.368 462.123 206.009 462.123Z" fill="#A9EAC5"/>
<path d="M222.968 438.802C220.848 438.802 216.609 440.922 216.609 445.162C216.609 447.282 218.729 451.521 222.968 451.521C225.088 451.521 229.328 449.402 229.328 445.162C227.208 440.922 225.088 438.802 222.968 438.802Z" fill="#A9EAC5"/>
<path d="M186.931 443.046C182.691 443.046 180.572 445.166 180.572 449.405C180.572 453.645 182.691 455.765 186.931 455.765C191.171 455.765 193.291 453.645 193.291 449.405C193.291 447.286 191.171 443.046 186.931 443.046Z" fill="#A9EAC5"/>
<path d="M261.124 290.415C256.885 290.415 252.645 294.654 252.645 298.894C252.645 303.134 256.885 307.373 261.124 307.373C265.364 307.373 269.604 303.134 269.604 298.894C267.484 294.654 265.364 290.415 261.124 290.415Z" fill="#A9EAC5"/>
<path d="M218.728 279.816C214.489 279.816 212.369 281.936 212.369 286.175C212.369 290.415 214.489 292.535 218.728 292.535C222.968 292.535 225.088 290.415 225.088 286.175C225.088 284.056 222.968 279.816 218.728 279.816Z" fill="#A9EAC5"/>
<path d="M239.927 277.699C237.808 277.699 235.688 279.819 235.688 281.939C235.688 284.058 237.808 286.178 239.927 286.178C242.047 286.178 244.167 284.058 244.167 281.939C244.167 279.819 242.047 277.699 239.927 277.699Z" fill="#A9EAC5"/>
<path d="M256.885 260.74C252.646 260.74 250.526 264.979 250.526 267.099C250.526 271.339 252.646 273.459 256.885 273.459C261.125 273.459 263.245 269.219 263.245 267.099C263.245 264.979 261.125 260.74 256.885 260.74Z" fill="#A9EAC5"/>
<path d="M235.687 250.14C233.567 250.14 231.447 252.26 231.447 254.38C231.447 256.5 233.567 258.619 235.687 258.619C237.807 258.619 239.927 256.5 239.927 254.38C239.927 252.26 237.807 250.14 235.687 250.14Z" fill="#A9EAC5"/>
<path d="M208.129 245.902C203.89 245.902 201.77 248.022 201.77 252.261C201.77 256.501 206.01 258.621 208.129 258.621C212.369 258.621 214.489 254.381 214.489 252.261C216.609 250.141 212.369 245.902 208.129 245.902Z" fill="#A9EAC5"/>
<path d="M184.812 252.262C182.692 252.262 180.572 254.382 178.452 258.622C178.452 260.742 180.572 264.981 182.692 264.981C184.812 264.981 189.051 262.862 189.051 260.742C191.171 254.382 189.051 252.262 184.812 252.262Z" fill="#A9EAC5"/>
<path d="M208.129 211.983C206.01 211.983 201.77 214.102 201.77 216.222C201.77 218.342 203.89 220.462 206.01 222.582C208.129 222.582 210.249 220.462 212.369 218.342C214.489 216.222 210.249 211.983 208.129 211.983Z" fill="#A9EAC5"/>
<path d="M218.729 197.145C216.609 197.145 214.489 199.265 214.489 201.385C214.489 203.504 216.609 205.624 218.729 205.624C220.849 205.624 222.969 203.504 222.969 201.385C220.849 199.265 220.849 197.145 218.729 197.145Z" fill="#A9EAC5"/>
<path d="M242.047 224.704C237.807 224.704 233.567 228.943 233.567 231.063C233.567 235.303 237.807 239.542 242.047 239.542C246.286 239.542 250.526 235.303 250.526 233.183C250.526 228.943 246.286 224.704 242.047 224.704Z" fill="#A9EAC5"/>
<path d="M254.765 203.505C252.645 203.505 250.525 205.625 250.525 207.745C250.525 209.865 252.645 211.985 254.765 211.985C256.884 211.985 259.004 209.865 259.004 207.745C261.124 207.745 259.004 203.505 254.765 203.505Z" fill="#A9EAC5"/>
<path d="M267.484 214.104C265.364 214.104 265.364 216.224 265.364 216.224C265.364 218.344 265.364 218.344 267.484 218.344C269.604 218.344 269.604 216.224 269.604 216.224L267.484 214.104Z" fill="#A9EAC5"/>
<path d="M265.365 197.145C263.245 197.145 263.245 199.265 263.245 199.265C263.245 201.385 263.245 201.385 265.365 201.385C267.484 201.385 267.484 199.265 267.484 199.265C267.484 199.265 267.484 197.145 265.365 197.145Z" fill="#A9EAC5"/>
<path d="M214.489 373.091C210.249 373.091 208.129 375.211 208.129 379.45C208.129 383.69 210.249 385.81 214.489 385.81C218.728 385.81 220.848 383.69 220.848 379.45C220.848 375.211 218.728 373.091 214.489 373.091Z" fill="#A9EAC5"/>
<path d="M242.046 368.852C237.806 368.852 235.686 370.972 235.686 375.212C235.686 379.451 237.806 381.571 242.046 381.571C246.285 381.571 248.405 379.451 248.405 375.212C248.405 370.972 244.166 368.852 242.046 368.852Z" fill="#A9EAC5"/>
<path d="M259.005 377.33C256.885 377.33 254.765 379.45 254.765 381.569C254.765 383.689 256.885 385.809 259.005 385.809C261.125 385.809 263.245 383.689 263.245 381.569C265.364 379.45 263.245 377.33 259.005 377.33Z" fill="#A9EAC5"/>
<path d="M227.208 337.055C225.088 337.055 222.968 339.175 222.968 341.295C222.968 343.415 225.088 345.534 227.208 345.534C229.327 345.534 231.447 343.415 231.447 341.295C233.567 341.295 231.447 337.055 227.208 337.055Z" fill="#A9EAC5"/>
<path d="M282.324 303.136C280.204 303.136 278.084 305.256 278.084 307.376C278.084 309.496 280.204 311.616 282.324 311.616C284.444 311.616 286.563 309.496 286.563 307.376C286.563 305.256 284.444 303.136 282.324 303.136Z" fill="#A9EAC5"/>
<path d="M265.364 311.613C263.244 311.613 261.125 313.733 261.125 315.853C261.125 317.973 263.244 320.092 265.364 320.092C267.484 320.092 269.604 317.973 269.604 315.853C271.724 313.733 269.604 311.613 265.364 311.613Z" fill="#A9EAC5"/>
<path d="M271.724 351.893C269.604 351.893 267.485 354.013 267.485 356.133C267.485 358.253 269.604 360.373 271.724 360.373C273.844 360.373 275.964 358.253 275.964 356.133C275.964 354.013 273.844 351.893 271.724 351.893Z" fill="#A9EAC5"/>
<path d="M290.802 409.127C288.682 409.127 286.562 411.247 286.562 413.367C286.562 415.486 288.682 417.606 290.802 417.606C292.922 417.606 295.042 415.486 295.042 413.367C295.042 413.367 292.922 411.247 290.802 409.127Z" fill="#A9EAC5"/>
<path d="M282.323 375.208C278.083 375.208 275.964 379.447 275.964 381.567C275.964 385.807 280.203 387.927 282.323 387.927C286.563 387.927 288.683 385.807 288.683 381.567C288.683 377.328 286.563 375.208 282.323 375.208Z" fill="#A9EAC5"/>
<path d="M267.484 398.528C263.245 398.528 261.125 400.648 261.125 404.888C261.125 409.127 263.245 411.247 267.484 411.247C271.724 411.247 273.844 407.007 273.844 404.888C275.964 400.648 271.724 398.528 267.484 398.528Z" fill="#A9EAC5"/>
<path d="M286.563 337.055C282.323 337.055 280.203 341.295 280.203 343.415C280.203 347.654 282.323 349.774 286.563 349.774C290.803 349.774 292.922 347.654 292.922 343.415C292.922 339.175 290.803 337.055 286.563 337.055Z" fill="#A9EAC5"/>
<path d="M250.526 334.933C246.286 334.933 244.166 337.053 244.166 341.293C244.166 345.532 246.286 347.652 250.526 347.652C254.765 347.652 256.885 345.532 256.885 341.293C256.885 339.173 254.765 334.933 250.526 334.933Z" fill="#A9EAC5"/>
<path d="M225.089 398.528C220.849 398.528 216.609 402.768 216.609 407.007C216.609 411.247 220.849 415.487 225.089 415.487C229.328 415.487 233.568 411.247 233.568 407.007C233.568 402.768 229.328 398.528 225.089 398.528Z" fill="#A9EAC5"/>
<path d="M193.291 205.626L195.411 205.626L201.77 190.787L218.729 201.386L218.729 199.267L201.77 188.667L193.291 205.626Z" fill="#A9EAC5"/>
<path d="M169.973 173.828L201.771 190.786L201.771 188.666L169.973 173.828L189.052 129.311L212.37 139.91L212.37 137.791L189.052 129.311L169.973 173.828Z" fill="#A9EAC5"/>
<path d="M161.494 97.5155L189.051 129.313L203.89 105.995L193.291 80.5569L208.13 67.838L186.932 40.2803L203.89 31.801L201.77 29.6812L186.932 40.2803L208.13 67.838L191.171 80.5569L201.77 105.995L189.051 129.313L161.494 97.5155Z" fill="#A9EAC5"/>
<path d="M148.774 65.7173L172.092 65.7173L191.171 80.5561L180.572 105.994L193.291 80.5561L172.092 65.7173L148.774 65.7173Z" fill="#A9EAC5"/>
<path d="M127.577 197.147L144.536 167.469L146.656 131.432L133.937 103.875L144.536 131.432L144.536 165.349L127.577 197.147Z" fill="#A9EAC5"/>
<path d="M108.498 173.829L144.535 169.589L144.535 167.469L108.498 173.829Z" fill="#A9EAC5"/>
<path d="M218.729 197.145C216.609 197.145 216.609 199.265 216.609 199.265C216.609 201.385 218.729 201.385 218.729 203.504C220.849 203.504 220.849 201.385 222.969 201.385C220.849 199.265 218.729 197.145 218.729 197.145Z" fill="#A9EAC5"/>
<path d="M195.41 201.383C193.291 201.383 193.291 203.503 193.291 203.503C193.291 205.623 195.41 205.623 195.41 205.623C197.53 205.623 197.53 203.503 197.53 203.503C197.53 203.503 197.53 201.383 195.41 201.383Z" fill="#A9EAC5"/>
<path d="M203.891 184.429C201.771 184.429 197.532 186.549 197.532 190.789C197.532 192.908 199.651 197.148 203.891 197.148C206.011 197.148 210.25 195.028 210.25 190.789C210.25 186.549 206.011 184.429 203.891 184.429Z" fill="#A9EAC5"/>
<path d="M172.093 163.231C167.853 163.231 163.614 167.471 163.614 173.83C163.614 180.19 167.853 184.429 174.213 184.429C180.572 184.429 184.812 180.19 184.812 173.83C182.692 169.59 178.453 163.231 172.093 163.231Z" fill="#A9EAC5"/>
<path d="M116.978 195.028C116.978 200.882 121.723 205.627 127.577 205.627C133.43 205.627 138.176 200.882 138.176 195.028C138.176 189.175 133.43 184.429 127.577 184.429C121.723 184.429 116.978 189.175 116.978 195.028Z" fill="#A9EAC5"/>
<path d="M144.535 161.109C142.415 161.109 138.175 163.229 138.175 167.468C138.175 169.588 140.295 173.828 144.535 173.828C146.654 173.828 150.894 171.708 150.894 167.468C148.774 165.349 146.654 161.109 144.535 161.109Z" fill="#A9EAC5"/>
<path d="M108.498 167.469C104.259 167.469 102.139 169.589 102.139 173.829C102.139 178.068 104.259 180.188 108.498 180.188C112.738 180.188 114.858 178.068 114.858 173.829C114.858 171.709 112.738 167.469 108.498 167.469Z" fill="#A9EAC5"/>
<path d="M182.692 14.8433C178.452 14.8433 174.213 19.0829 174.213 23.3226C174.213 27.5622 178.452 31.8019 182.692 31.8019C186.932 31.8019 191.171 27.5622 191.171 23.3226C191.171 19.0829 186.932 14.8433 182.692 14.8433Z" fill="#A9EAC5"/>
<path d="M140.296 4.24365C136.057 4.24365 133.937 6.36348 133.937 10.6031C133.937 14.8428 136.057 16.9626 140.296 16.9626C144.536 16.9626 146.656 14.8428 146.656 10.6031C146.656 6.36348 144.536 4.24365 140.296 4.24365Z" fill="#A9EAC5"/>
<path d="M161.494 2.12207C159.374 2.12207 157.254 4.24189 157.254 6.36172C157.254 8.48154 159.374 10.6014 161.494 10.6014C163.614 10.6014 165.733 8.48154 165.733 6.36172C165.733 4.24189 163.614 2.12207 161.494 2.12207Z" fill="#A9EAC5"/>
<path d="M136.057 95.3921C131.817 95.3921 129.697 97.5119 129.697 101.752C129.697 105.991 131.817 108.111 136.057 108.111C140.296 108.111 142.416 105.991 142.416 101.752C144.536 99.6317 140.296 95.3921 136.057 95.3921Z" fill="#A9EAC5"/>
<path d="M163.614 91.1538C159.374 91.1538 157.254 93.2736 157.254 97.5133C157.254 101.753 159.374 103.873 163.614 103.873C167.853 103.873 169.973 101.753 169.973 97.5133C169.973 95.3935 165.733 91.1538 163.614 91.1538Z" fill="#A9EAC5"/>
<path d="M180.572 99.6362C178.452 99.6362 176.333 101.756 176.333 103.876C176.333 105.996 178.452 108.116 180.572 108.116C184.812 110.235 186.932 108.116 186.932 105.996C186.932 101.756 184.812 99.6362 180.572 99.6362Z" fill="#A9EAC5"/>
<path d="M150.895 61.478C148.775 61.478 146.655 63.5978 146.655 65.7177C146.655 67.8375 148.775 69.9573 150.895 69.9573C153.014 69.9573 155.134 67.8375 155.134 65.7177C155.134 63.5978 153.014 61.478 150.895 61.478Z" fill="#A9EAC5"/>
<path d="M182.692 40.2811C182.692 42.6226 184.59 44.5208 186.932 44.5208C189.273 44.5208 191.171 42.6226 191.171 40.2811C191.171 37.9397 189.273 36.0415 186.932 36.0415C184.59 36.0415 182.692 37.9397 182.692 40.2811Z" fill="#A9EAC5"/>
<path d="M193.291 76.3159C191.171 76.3159 189.051 78.4357 189.051 80.5556C189.051 82.6754 191.171 84.7952 193.291 84.7952C195.411 84.7952 197.531 82.6754 197.531 80.5556C197.531 78.4357 195.411 76.3159 193.291 76.3159Z" fill="#A9EAC5"/>
<path d="M212.37 133.55C210.25 133.55 208.13 135.67 208.13 137.79C208.13 139.91 210.25 142.029 212.37 142.029C214.49 142.029 216.609 139.91 216.609 137.79C216.609 135.67 214.49 133.55 212.37 133.55Z" fill="#A9EAC5"/>
<path d="M203.89 97.5142C199.65 97.5142 197.53 101.754 197.53 103.874C197.53 108.113 199.65 110.233 203.89 110.233C208.129 110.233 210.249 105.993 210.249 103.874C212.369 101.754 208.129 97.5142 203.89 97.5142Z" fill="#A9EAC5"/>
<path d="M189.052 122.951C184.813 122.951 182.693 125.071 182.693 129.31C182.693 133.55 184.813 135.67 189.052 135.67C193.292 135.67 195.412 133.55 195.412 129.31C197.532 125.071 193.292 122.951 189.052 122.951Z" fill="#A9EAC5"/>
<path d="M208.129 59.356C203.89 59.356 201.77 61.4758 201.77 65.7154C201.77 69.9551 203.89 72.0749 208.129 72.0749C212.369 72.0749 214.489 67.8353 214.489 65.7154C214.489 63.5956 212.369 59.356 208.129 59.356Z" fill="#A9EAC5"/>
<path d="M172.092 59.356C167.853 59.356 165.733 61.4758 165.733 65.7154C165.733 69.9551 167.853 72.0749 172.092 72.0749C176.332 72.0749 178.452 69.9551 178.452 65.7154C180.572 61.4758 176.332 59.356 172.092 59.356Z" fill="#A9EAC5"/>
<path d="M146.655 122.951C142.415 122.951 138.176 127.19 138.176 131.43C138.176 135.67 142.415 139.909 146.655 139.909C150.895 139.909 155.134 135.67 155.134 131.43C155.134 127.19 150.895 122.951 146.655 122.951Z" fill="#A9EAC5"/>
<path d="M184.811 659.266L216.608 674.104L184.811 659.266L203.889 614.749L227.207 623.229L203.889 614.749L201.769 614.749L184.811 659.266Z" fill="#A9EAC5"/>
<path d="M176.331 582.953L203.889 614.75L218.728 591.432L216.608 591.432L208.129 565.994L222.967 553.275L201.769 525.718L216.608 515.118L201.769 525.718L222.967 553.275L206.009 565.994L216.608 591.432L203.889 614.75L176.331 582.953Z" fill="#A9EAC5"/>
<path d="M153.013 493.92L197.529 506.639L201.769 525.718L197.529 506.639L155.133 493.92L174.211 491.8L172.092 464.243L178.451 440.925L191.17 419.726L201.769 409.127L199.649 409.127L191.17 419.726L178.451 440.925L172.092 464.243L174.211 491.8L153.013 493.92Z" fill="#A9EAC5"/>
<path d="M144.534 428.206L178.451 440.925L144.534 426.086L155.133 409.127L153.013 409.127L144.534 428.206Z" fill="#A9EAC5"/>
<path d="M163.613 551.155L186.931 551.155L206.01 565.993L195.41 589.311L208.129 565.993L186.931 551.155L163.613 551.155Z" fill="#A9EAC5"/>
<path d="M140.294 682.584L142.414 682.584L159.373 650.787L159.373 614.75L148.773 589.312L159.373 614.75L159.373 650.787L140.294 682.584Z" fill="#A9EAC5"/>
<path d="M121.216 466.363L142.414 462.123L172.092 464.243L195.41 479.082L172.092 464.243L142.414 462.123L121.216 466.363Z" fill="#A9EAC5"/>
<path d="M197.529 500.281C193.29 500.281 189.05 504.52 189.05 508.76C189.05 513 193.29 517.239 197.529 517.239C201.769 517.239 206.009 513 206.009 508.76C203.889 504.52 201.769 500.281 197.529 500.281Z" fill="#A9EAC5"/>
<path d="M155.134 489.682C150.894 489.682 148.774 491.801 148.774 496.041C148.774 500.281 150.894 502.401 155.134 502.401C159.373 502.401 161.493 500.281 161.493 496.041C161.493 491.801 159.373 489.682 155.134 489.682Z" fill="#A9EAC5"/>
<path d="M176.331 485.443C174.211 485.443 172.092 487.562 172.092 489.682C172.092 491.802 174.211 493.922 176.331 493.922C178.451 493.922 180.571 491.802 180.571 489.682C180.571 487.562 178.451 485.443 176.331 485.443Z" fill="#A9EAC5"/>
<path d="M193.29 470.605C189.05 470.605 186.93 472.725 186.93 476.964C186.93 481.204 189.05 483.324 193.29 483.324C197.53 483.324 199.649 479.084 199.649 476.964C199.649 472.725 197.53 468.485 193.29 470.605Z" fill="#A9EAC5"/>
<path d="M172.092 457.884C169.973 457.884 167.853 460.004 167.853 462.124C167.853 464.243 169.973 466.363 172.092 466.363C174.212 466.363 176.332 464.243 176.332 462.124C176.332 460.004 174.212 457.884 172.092 457.884Z" fill="#A9EAC5"/>
<path d="M144.535 455.763C140.295 455.763 138.175 457.883 138.175 462.122C138.175 466.362 140.295 468.482 144.535 468.482C148.774 468.482 150.894 464.242 150.894 462.122C153.014 457.883 148.774 455.763 144.535 455.763Z" fill="#A9EAC5"/>
<path d="M121.216 460.006C119.097 460.006 114.857 462.126 114.857 464.246C114.857 466.366 116.977 470.605 119.097 470.605C121.216 470.605 125.456 468.485 125.456 466.366C127.576 462.126 125.456 460.006 121.216 460.006Z" fill="#A9EAC5"/>
<path d="M144.535 421.848C142.415 421.848 138.175 423.968 138.175 426.088C138.175 428.207 140.295 432.447 142.415 430.327C144.535 430.327 146.655 428.207 146.655 426.088C148.774 423.968 146.655 421.848 144.535 421.848Z" fill="#A9EAC5"/>
<path d="M155.133 404.889C153.013 404.889 150.893 407.008 150.893 409.128C150.893 411.248 153.013 413.368 155.133 413.368C157.253 413.368 159.373 411.248 159.373 409.128C157.253 407.008 157.253 404.889 155.133 404.889Z" fill="#A9EAC5"/>
<path d="M178.452 434.564C174.212 434.564 169.973 438.804 169.973 440.924C169.973 445.163 174.212 449.403 178.452 449.403C182.692 449.403 184.811 445.163 186.931 440.924C186.931 436.684 182.692 434.564 178.452 434.564Z" fill="#A9EAC5"/>
<path d="M191.17 413.366C189.051 413.366 186.931 415.486 186.931 417.606C186.931 419.726 189.051 421.845 191.17 421.845C193.29 421.845 195.41 419.726 195.41 417.606C197.53 415.486 195.41 413.366 191.17 413.366Z" fill="#A9EAC5"/>
<path d="M203.889 423.965C201.769 423.965 201.769 426.085 201.769 426.085C201.769 428.204 203.889 428.205 203.889 428.205C206.009 428.205 206.009 428.204 206.009 426.085C206.009 423.965 203.889 423.965 203.889 423.965Z" fill="#A9EAC5"/>
<path d="M201.77 407.011C199.65 407.011 199.65 407.011 199.65 409.131C199.65 411.25 201.77 411.25 201.77 411.25C203.89 411.25 203.89 409.131 203.89 409.131C203.89 407.011 203.89 407.011 201.77 407.011Z" fill="#A9EAC5"/>
<path d="M150.894 580.835C146.654 580.835 144.534 582.955 144.534 587.195C144.534 591.434 146.654 593.554 150.894 593.554C155.134 593.554 157.253 591.434 157.253 587.195C157.253 585.075 155.134 580.835 150.894 580.835Z" fill="#A9EAC5"/>
<path d="M178.451 576.596C174.211 576.596 172.092 578.716 172.092 582.956C172.092 587.195 174.211 589.315 178.451 589.315C182.691 589.315 184.811 587.195 184.811 582.956C182.691 578.716 180.571 576.596 178.451 576.596Z" fill="#A9EAC5"/>
<path d="M195.41 585.073C193.29 585.073 191.17 587.193 191.17 589.313C191.17 591.433 193.29 593.553 195.41 593.553C197.53 593.553 199.649 591.433 199.649 589.313C199.649 587.193 197.53 585.073 195.41 585.073Z" fill="#A9EAC5"/>
<path d="M163.613 546.916C161.493 546.916 159.373 549.036 159.373 551.156C159.373 553.276 161.493 555.395 163.613 555.395C165.733 555.395 167.852 553.276 167.852 551.156C169.972 549.036 167.852 546.916 163.613 546.916Z" fill="#A9EAC5"/>
<path d="M218.728 510.88C216.608 510.88 214.488 513 214.488 515.12C214.488 517.239 216.608 519.359 218.728 519.359C220.847 519.359 222.967 517.239 222.967 515.12C222.967 513 220.847 510.88 218.728 510.88Z" fill="#A9EAC5"/>
<path d="M201.77 519.357C199.65 519.357 197.53 521.477 197.53 523.597C197.53 525.716 199.65 527.836 201.77 527.836C203.889 527.836 206.009 525.716 206.009 523.597C208.129 521.477 206.009 519.357 201.77 519.357Z" fill="#A9EAC5"/>
<path d="M208.129 561.753C206.009 561.753 203.889 563.873 203.889 565.993C203.889 568.113 206.009 570.233 208.129 570.233C210.248 570.233 212.368 568.113 212.368 565.993C212.368 563.873 210.248 561.753 208.129 561.753Z" fill="#A9EAC5"/>
<path d="M227.208 618.993C225.088 618.993 222.968 621.113 222.968 623.233C222.968 625.352 225.088 627.472 227.208 627.472C229.327 627.472 231.447 625.352 231.447 623.233C231.447 621.113 229.327 618.993 227.208 618.993Z" fill="#A9EAC5"/>
<path d="M218.728 582.951C214.489 582.951 212.369 587.191 212.369 589.311C212.369 593.551 216.609 595.67 218.728 595.67C222.968 595.67 225.088 593.551 225.088 589.311C225.088 587.191 222.968 582.951 218.728 582.951Z" fill="#A9EAC5"/>
<path d="M203.889 606.272C199.649 606.272 197.53 608.392 197.53 612.631C197.53 616.871 201.769 618.991 203.889 621.111C208.129 621.111 210.249 616.871 210.249 614.751C210.249 610.512 208.129 606.272 203.889 606.272Z" fill="#A9EAC5"/>
<path d="M222.968 544.799C218.729 544.799 216.609 546.919 216.609 551.159C216.609 555.398 220.848 557.518 222.968 557.518C227.208 557.518 229.328 555.398 229.328 551.159C229.328 549.039 227.208 544.799 222.968 544.799Z" fill="#A9EAC5"/>
<path d="M186.931 544.799C182.691 544.799 180.572 546.919 180.572 551.159C180.572 555.398 182.691 557.518 186.931 557.518C191.171 557.518 193.291 555.398 193.291 551.159C193.291 546.919 191.171 544.799 186.931 544.799Z" fill="#A9EAC5"/>
<path d="M161.492 608.394C157.253 608.394 153.013 612.633 153.013 616.873C153.013 621.113 157.253 625.352 161.492 625.352C165.732 625.352 169.972 621.113 169.972 616.873C169.972 612.633 165.732 608.394 161.492 608.394Z" fill="#A9EAC5"/>
</g>
</mask>
<g mask="url(#mask0_456_2684)">
<rect x="-39" width="390" height="638" fill="#D9D9D9"/>
</g>
</svg>
