<svg width="1026" height="445" viewBox="0 0 1026 445" fill="none" xmlns="http://www.w3.org/2000/svg">
<g opacity="0.2">
<g opacity="0.7">
<path d="M730.322 127.855L672.76 185.416C669.674 188.58 666.896 192.052 664.581 195.833L639.504 234.953L620.754 256.095L604.088 274.845C602.853 276.234 602.93 278.394 604.242 279.783C605.554 281.095 607.714 281.172 609.18 279.937L627.93 263.271L649.072 244.521L688.192 219.521C691.973 217.129 695.446 214.351 698.609 211.265L698.918 210.956L756.094 153.78L730.322 127.855Z" fill="#FDF2E9" fill-opacity="0.5"/>
<path d="M760.723 123.225C767.822 130.324 767.822 141.898 760.723 148.996L755.785 153.935L730.013 128.163L734.952 123.225C742.05 116.126 753.624 116.126 760.723 123.225Z" fill="#F1B47F" fill-opacity="0.5"/>
<path d="M687.052 185.461L698.455 196.864L737.138 158.181L725.735 146.777L687.052 185.461Z" fill="#F1B47F" fill-opacity="0.5"/>
<path d="M620.754 256.018L604.088 274.768C602.853 276.157 602.93 278.317 604.242 279.706C605.554 281.018 607.714 281.095 609.18 279.86L627.93 263.194L620.754 256.018Z" fill="#F1B47F" fill-opacity="0.5"/>
<path d="M687.052 185.461L698.455 196.864L737.138 158.181L725.735 146.777L687.052 185.461Z" fill="#F1B47F" fill-opacity="0.5"/>
<path d="M734.952 123.225L730.013 128.163L755.785 153.935L760.723 148.996C764.272 145.447 766.047 140.74 766.047 136.111C766.047 131.481 764.272 126.774 760.723 123.225C753.624 116.126 742.05 116.126 734.952 123.225ZM747.837 121.913C751.618 121.913 755.168 123.379 757.868 126.08C760.569 128.78 762.035 132.33 762.035 136.111C762.035 139.892 760.569 143.441 757.868 146.142L755.785 148.225L735.723 128.163L737.807 126.08C740.507 123.456 744.057 121.913 747.837 121.913Z" fill="#FDF2E9" fill-opacity="0.5"/>
</g>
<g opacity="0.7">
<path d="M377.468 163.117L435.03 105.555C438.116 102.392 440.894 98.9194 443.209 95.1386L468.286 56.0183L487.036 34.8764L503.702 16.1265C504.937 14.7376 504.86 12.5771 503.548 11.1882C502.236 9.8765 500.076 9.79934 498.61 11.0339L479.86 27.7005L458.718 46.4505L419.598 71.4504C415.817 73.8424 412.345 76.6201 409.181 79.7065L408.872 80.0152L351.697 137.191L377.468 163.117Z" fill="#FDF2E9" fill-opacity="0.5"/>
<path d="M347.067 167.669C339.968 160.57 339.968 148.996 347.067 141.898L352.005 136.959L377.777 162.731L372.838 167.669C365.74 174.768 354.243 174.768 347.067 167.669Z" fill="#F1B47F" fill-opacity="0.5"/>
<path d="M420.782 105.444L409.379 94.0408L370.696 132.724L382.099 144.127L420.782 105.444Z" fill="#F1B47F" fill-opacity="0.5"/>
<path d="M487.113 34.8764L503.779 16.1265C505.014 14.7376 504.937 12.5771 503.625 11.1882C502.313 9.8765 500.153 9.79934 498.687 11.0339L479.937 27.7005L487.113 34.8764Z" fill="#F1B47F" fill-opacity="0.5"/>
<path d="M420.782 105.444L409.379 94.0408L370.696 132.724L382.099 144.127L420.782 105.444Z" fill="#F1B47F" fill-opacity="0.5"/>
<path d="M372.916 167.669L377.854 162.731L352.082 136.959L347.144 141.898C343.595 145.447 341.82 150.154 341.82 154.783C341.82 159.413 343.595 164.12 347.144 167.669C354.243 174.768 365.74 174.768 372.916 167.669ZM360.03 168.981C356.249 168.981 352.7 167.515 349.999 164.814C347.298 162.114 345.832 158.564 345.832 154.783C345.832 151.003 347.298 147.453 349.999 144.753L352.082 142.669L372.144 162.731L370.061 164.814C367.36 167.515 363.811 168.981 360.03 168.981Z" fill="#FDF2E9" fill-opacity="0.5"/>
</g>
<g opacity="0.7">
<path d="M212.345 3.93518L272.839 1.54321C275.308 1.46605 277.7 2.31482 279.475 4.0895C281.326 5.86419 282.329 8.33332 282.329 10.8796L282.329 173.919C282.329 176.466 281.249 178.935 279.475 180.709C277.623 182.484 275.308 183.333 272.762 183.256L212.191 180.709C207.253 180.478 203.395 176.388 203.395 171.373L203.395 13.2716C203.472 8.25615 207.407 4.16666 212.345 3.93518ZM278.317 10.8796C278.317 9.41356 277.777 8.02468 276.697 7.02159C275.694 6.09567 274.382 5.55555 273.07 5.63271L212.499 8.02467C209.799 8.10183 207.638 10.4166 207.638 13.2716L207.638 171.373C207.638 174.151 209.799 176.466 212.499 176.62L273.07 179.166C274.459 179.243 275.694 178.703 276.697 177.777C277.777 176.774 278.317 175.385 278.317 173.919L278.317 10.8796Z" fill="#FDF2E9" fill-opacity="0.5"/>
<path d="M203.549 167.283L282.329 167.283L285.262 146.604C290.277 110.725 290.277 74.151 285.262 38.3486L282.407 17.5925L203.626 17.5925L200.848 37.2684C195.679 73.7652 195.679 111.111 200.848 147.685L203.549 167.283Z" fill="#FDF2E9" fill-opacity="0.5"/>
<path d="M203.549 167.283L262.345 167.283L265.2 146.527C270.215 110.648 270.215 74.0738 265.2 38.2715L262.345 17.5154L203.549 17.5154L200.771 37.1912C195.601 73.688 195.601 111.034 200.771 147.608L203.549 167.283Z" fill="#F1B47F" fill-opacity="0.5"/>
<path d="M282.329 17.5154L203.549 17.5154L200.694 38.2715C198.225 56.1727 196.99 74.3053 196.99 92.438C196.99 110.571 198.225 128.626 200.694 146.604L203.549 167.361L282.329 167.361L285.107 147.685C287.731 129.398 288.965 110.956 288.965 92.5152C288.965 74.0738 287.654 55.5554 285.107 37.3456L282.329 17.5154ZM278.703 21.682L281.018 37.8085C283.564 55.7869 284.876 74.151 284.876 92.438C284.876 110.725 283.564 129.089 281.018 147.067L278.703 163.194L207.098 163.194L204.706 145.987C202.237 128.318 201.003 110.339 201.003 92.438C201.003 74.5368 202.237 56.5585 204.706 38.8888L207.098 21.682L278.703 21.682Z" fill="#FDF2E9" fill-opacity="0.5"/>
</g>
<g opacity="0.7">
<path d="M803.161 92.8238L863.732 90.4318C866.201 90.3547 868.593 91.2034 870.368 92.9781C872.22 94.7528 873.223 97.2219 873.223 99.7682L873.223 262.808C873.223 265.354 872.143 267.823 870.368 269.598C868.516 271.373 866.201 272.221 863.655 272.144L803.084 269.598C798.146 269.366 794.288 265.277 794.288 260.262L794.288 102.16C794.365 97.1448 798.223 92.9781 803.161 92.8238ZM869.133 99.7682C869.133 98.3022 868.593 96.9133 867.513 95.9102C866.51 94.9843 865.198 94.4442 863.886 94.5213L803.316 96.9133C800.615 96.9904 798.454 99.3052 798.454 102.16L798.454 260.262C798.454 263.039 800.615 265.354 803.316 265.508L863.886 268.055C865.275 268.132 866.51 267.592 867.513 266.666C868.593 265.663 869.133 264.274 869.133 262.808L869.133 99.7682Z" fill="#FDF2E9" fill-opacity="0.5"/>
<path d="M794.442 256.172L873.223 256.172L876.078 235.416C881.093 199.536 881.093 162.962 876.078 127.16L873.223 106.404L794.442 106.404L791.664 126.08C786.495 162.577 786.495 199.922 791.664 236.496L794.442 256.172Z" fill="#FDF2E9" fill-opacity="0.5"/>
<path d="M794.442 256.172L853.238 256.172L856.093 235.416C861.109 199.536 861.109 162.962 856.093 127.16L853.238 106.404L794.442 106.404L791.664 126.08C786.495 162.577 786.495 199.922 791.664 236.496L794.442 256.172Z" fill="#F1B47F" fill-opacity="0.5"/>
<path d="M873.146 106.404L794.365 106.404L791.51 127.16C789.041 145.061 787.806 163.194 787.806 181.327C787.806 199.459 789.041 217.515 791.51 235.493L794.365 256.249L873.146 256.249L875.923 236.573C878.547 218.286 879.781 199.845 879.781 181.404C879.781 162.962 878.47 144.444 875.923 126.234L873.146 106.404ZM869.596 110.571L871.911 126.697C874.457 144.675 875.769 163.04 875.769 181.327C875.769 199.536 874.457 217.978 871.911 235.956L869.596 252.083L797.991 252.083L795.599 234.876C793.13 217.206 791.896 199.228 791.896 181.327C791.896 163.425 793.13 145.447 795.599 127.777L797.991 110.571L869.596 110.571Z" fill="#FDF2E9" fill-opacity="0.5"/>
</g>
<g opacity="0.7">
<path d="M142.284 337.345L110.262 369.366L145.601 404.706L177.623 372.684C187.345 362.962 187.345 347.067 177.623 337.345C167.824 327.545 152.006 327.545 142.284 337.345Z" fill="#F1B47F" fill-opacity="0.5"/>
<path d="M110.262 369.366L78.2406 401.388C68.4412 411.187 68.4412 427.005 78.2406 436.727C83.1017 441.588 89.506 444.057 95.9103 444.057C102.315 444.057 108.719 441.588 113.58 436.727L145.601 404.706L110.262 369.366Z" fill="#FDF2E9" fill-opacity="0.5"/>
<path d="M110.262 369.366L78.2406 401.388C73.3795 406.249 70.9103 412.653 70.9103 419.057C70.9103 425.462 73.3795 431.866 78.2406 436.727C83.1016 441.588 89.506 444.057 95.9103 444.057C102.315 444.057 108.719 441.588 113.58 436.727L145.601 404.706L110.262 369.366ZM110.262 374.459L140.509 404.706L111.034 434.181C107.021 438.193 101.62 440.431 95.9103 440.431C90.2004 440.431 84.7992 438.193 80.7869 434.181C76.7745 430.168 74.5369 424.767 74.5369 419.057C74.5369 413.348 76.7745 407.946 80.7869 403.934L110.262 374.459Z" fill="#FDF2E9" fill-opacity="0.5"/>
<path d="M74.7684 327.314C68.827 336.187 69.8302 348.224 77.6234 356.095C85.4166 363.888 97.5307 364.891 106.404 358.95L74.7684 327.314Z" fill="#FDF2E9" fill-opacity="0.5"/>
<path d="M81.0956 320.91L112.731 352.545C118.673 343.672 117.669 331.635 109.876 323.764C102.006 315.971 89.969 315.045 81.0956 320.91Z" fill="#FDF2E9" fill-opacity="0.5"/>
<path d="M81.0956 320.909C81.0184 320.909 81.0184 320.987 80.9412 320.987C79.7838 321.758 78.6265 322.684 77.5463 323.764C76.466 324.845 75.54 325.925 74.7684 327.159C74.7684 327.237 74.6913 327.237 74.6913 327.314L106.327 358.95C106.404 358.95 106.404 358.872 106.481 358.872C107.639 358.101 108.796 357.175 109.876 356.095C110.957 355.014 111.883 353.934 112.654 352.7C112.654 352.622 112.731 352.622 112.731 352.545L81.0956 320.909Z" fill="#F1B47F" fill-opacity="0.5"/>
<path d="M109.799 323.764C114.274 328.24 116.512 334.027 116.512 339.891L112.886 339.891C112.886 334.798 110.879 329.937 107.253 326.311C100.771 319.829 90.5091 318.826 82.9474 323.996C81.9443 324.69 81.0184 325.462 80.0924 326.311C79.2437 327.159 78.4721 328.163 77.7776 329.166C75.6171 332.329 74.4598 336.033 74.4598 339.891C74.4598 344.984 76.4659 349.845 80.0924 353.471C86.5739 359.953 96.8362 360.956 104.398 355.786C105.401 355.091 106.327 354.32 107.253 353.471C108.102 352.622 108.873 351.619 109.568 350.616C111.728 347.453 112.886 343.749 112.886 339.891L116.512 339.891C116.512 344.366 115.2 348.842 112.577 352.622C111.805 353.78 110.879 354.937 109.799 356.017C108.719 357.098 107.639 358.024 106.404 358.795C97.5306 364.814 85.4165 363.888 77.5462 356.017C73.0709 351.542 70.8332 345.755 70.8332 339.891C70.8332 335.416 72.1449 330.94 74.7684 327.159C75.54 326.002 76.466 324.845 77.5462 323.764C78.6264 322.684 79.7066 321.758 80.9412 320.987C89.8146 315.045 102.006 315.971 109.799 323.764Z" fill="#FDF2E9" fill-opacity="0.5"/>
</g>
<g opacity="0.7">
<path d="M981.787 102.16L949.766 134.182L985.105 169.521L1017.13 137.5C1026.85 127.777 1026.85 111.882 1017.13 102.16C1007.4 92.3609 991.509 92.3609 981.787 102.16Z" fill="#F1B47F" fill-opacity="0.5"/>
<path d="M949.766 134.182L917.744 166.203C907.945 176.003 907.945 191.82 917.744 201.543C922.605 206.404 929.01 208.873 935.414 208.873C941.818 208.873 948.223 206.404 953.084 201.543L985.105 169.521L949.766 134.182Z" fill="#FDF2E9" fill-opacity="0.5"/>
<path d="M949.766 134.182L917.744 166.203C912.883 171.064 910.414 177.469 910.414 183.873C910.414 190.277 912.883 196.682 917.744 201.543C922.605 206.404 929.01 208.873 935.414 208.873C941.818 208.873 948.223 206.404 953.084 201.543L985.105 169.521L949.766 134.182ZM949.766 139.274L980.013 169.521L950.537 198.996C946.525 203.009 941.124 205.246 935.414 205.246C929.704 205.246 924.303 203.009 920.291 198.996C916.278 194.984 914.041 189.583 914.041 183.873C914.041 178.163 916.278 172.762 920.291 168.749L949.766 139.274Z" fill="#FDF2E9" fill-opacity="0.5"/>
<path d="M914.272 92.1294C908.331 101.003 909.334 113.04 917.127 120.91C924.92 128.703 937.034 129.706 945.908 123.765L914.272 92.1294Z" fill="#FDF2E9" fill-opacity="0.5"/>
<path d="M920.599 85.7251L952.235 117.361C958.176 108.487 957.173 96.4504 949.38 88.5801C941.587 80.7869 929.473 79.8609 920.599 85.7251Z" fill="#FDF2E9" fill-opacity="0.5"/>
<path d="M920.599 85.7251C920.522 85.7251 920.522 85.8023 920.445 85.8023C919.287 86.5739 918.13 87.4998 917.05 88.58C915.97 89.6603 915.044 90.7405 914.272 91.9751C914.272 92.0522 914.195 92.0522 914.195 92.1294L945.831 123.765C945.908 123.765 945.908 123.688 945.985 123.688C947.142 122.916 948.3 121.99 949.38 120.91C950.46 119.83 951.386 118.75 952.158 117.515C952.158 117.438 952.235 117.438 952.235 117.361L920.599 85.7251Z" fill="#F1B47F" fill-opacity="0.5"/>
<path d="M949.38 88.58C953.855 93.0553 956.093 98.8423 956.093 104.706L952.466 104.706C952.466 99.6139 950.46 94.7528 946.834 91.1263C940.352 84.6448 930.09 83.6417 922.528 88.8115C921.525 89.5059 920.599 90.2775 919.673 91.1263C918.824 91.975 918.053 92.9781 917.358 93.9812C915.198 97.1448 914.041 100.848 914.041 104.706C914.041 109.799 916.047 114.66 919.673 118.287C926.155 124.768 936.417 125.771 943.979 120.601C944.982 119.907 945.908 119.135 946.834 118.287C947.682 117.438 948.454 116.435 949.148 115.432C951.309 112.268 952.466 108.564 952.466 104.706L956.093 104.706C956.093 109.182 954.781 113.657 952.158 117.438C951.386 118.595 950.46 119.753 949.38 120.833C948.3 121.913 947.219 122.839 945.985 123.611C937.111 129.629 924.997 128.703 917.127 120.833C912.652 116.358 910.414 110.571 910.414 104.706C910.414 100.231 911.726 95.7559 914.349 91.975C915.121 90.8176 916.047 89.6602 917.127 88.58C918.207 87.4997 919.287 86.5738 920.522 85.8022C929.395 79.8609 941.51 80.7868 949.38 88.58Z" fill="#FDF2E9" fill-opacity="0.5"/>
</g>
<g opacity="0.7">
<path d="M189.814 268.518C189.814 288.035 205.636 303.857 225.154 303.857C244.671 303.857 260.493 288.035 260.493 268.518C260.493 249 244.671 233.178 225.154 233.178C205.636 233.178 189.814 249 189.814 268.518Z" fill="#FDF2E9" fill-opacity="0.5"/>
<path d="M232.87 245.601L232.87 260.802L247.993 260.802L247.993 276.156L232.87 276.156L232.87 291.357L217.515 291.357L217.515 276.156L202.314 276.156L202.314 260.802L217.515 260.802L217.515 245.601L232.87 245.601Z" fill="#F1B47F" fill-opacity="0.5"/>
<path d="M232.87 245.601L217.515 245.601L217.515 260.802L202.391 260.802L202.391 276.156L217.515 276.156L217.515 291.28L232.87 291.28L232.87 276.156L247.993 276.156L247.993 260.802L232.87 260.802L232.87 245.601ZM230.941 247.607L230.941 260.802L230.941 262.731L232.87 262.731L246.064 262.731L246.064 274.227L232.87 274.227L230.941 274.227L230.941 276.156L230.941 289.351L219.444 289.351L219.444 276.156L219.444 274.227L217.515 274.227L204.32 274.227L204.32 262.731L217.515 262.731L219.444 262.731L219.444 260.802L219.444 247.607L230.941 247.607Z" fill="#FDF2E9" fill-opacity="0.5"/>
</g>
<g opacity="0.7">
<path d="M695.446 268.518C695.446 288.035 711.268 303.857 730.785 303.857C750.302 303.857 766.124 288.035 766.124 268.518C766.124 249 750.302 233.178 730.785 233.178C711.268 233.178 695.446 249 695.446 268.518Z" fill="#FDF2E9" fill-opacity="0.5"/>
<path d="M738.424 245.601L738.424 260.802L753.624 260.802L753.624 276.156L738.424 276.156L738.424 291.357L723.069 291.357L723.069 276.156L707.868 276.156L707.868 260.802L723.069 260.802L723.069 245.601L738.424 245.601Z" fill="#F1B47F" fill-opacity="0.5"/>
<path d="M738.424 245.601L723.069 245.601L723.069 260.802L707.946 260.802L707.946 276.156L723.069 276.156L723.069 291.28L738.424 291.28L738.424 276.156L753.624 276.156L753.624 260.802L738.501 260.802L738.501 245.601L738.424 245.601ZM736.495 247.607L736.495 260.802L736.495 262.731L738.424 262.731L751.618 262.731L751.618 274.227L738.424 274.227L736.495 274.227L736.495 276.156L736.495 289.351L724.998 289.351L724.998 276.156L724.998 274.227L723.069 274.227L709.875 274.227L709.875 262.731L723.069 262.731L724.998 262.731L724.998 260.802L724.998 247.607L736.495 247.607Z" fill="#FDF2E9" fill-opacity="0.5"/>
</g>
<g opacity="0.7">
<path d="M99.5368 213.734L99.5368 268.904C99.5368 273.456 95.833 277.16 91.2806 277.16L8.25615 277.16C3.7037 277.16 4.66196e-05 273.456 4.68186e-05 268.904L4.92302e-05 213.734C4.94292e-05 209.181 3.7037 205.478 8.25615 205.478L91.2806 205.478C95.833 205.478 99.5368 209.181 99.5368 213.734Z" fill="#F1B47F" fill-opacity="0.5"/>
<path d="M108.564 264.737L108.564 217.901L99.6139 217.901L99.6139 264.737L108.564 264.737Z" fill="#FDF2E9" fill-opacity="0.5"/>
<path d="M131.404 272.916L131.404 210.185L108.487 210.185L108.487 272.916L131.404 272.916Z" fill="#F1B47F" fill-opacity="0.5"/>
<path d="M82.0985 277.16L82.0985 225.385L17.3611 225.385L17.3611 277.16L82.0985 277.16Z" fill="#FDF2E9" fill-opacity="0.5"/>
<path d="M54.9381 235.802L54.9381 246.064L65.2005 246.064L65.2005 256.481L54.9381 256.481L54.9381 266.743L44.5215 266.743L44.5215 256.481L34.2591 256.481L34.2591 246.064L44.5215 246.064L44.5215 235.802L54.9381 235.802Z" fill="#F1B47F" fill-opacity="0.5"/>
<path d="M91.2806 205.478L8.25615 205.478C3.7037 205.478 4.94292e-05 209.181 4.92302e-05 213.734L4.68186e-05 268.904C4.66196e-05 273.456 3.7037 277.16 8.25615 277.16L91.2806 277.16C95.833 277.16 99.5368 273.456 99.5368 268.904L99.5368 213.734C99.5368 209.181 95.833 205.478 91.2806 205.478ZM91.2806 208.796C93.9812 208.796 96.2188 211.033 96.2188 213.734L96.2188 268.904C96.2188 271.604 93.9812 273.842 91.2806 273.842L8.25615 273.842C5.55554 273.842 3.31788 271.604 3.31788 268.904L3.31788 213.734C3.31788 211.033 5.55555 208.796 8.25615 208.796L91.2806 208.796Z" fill="#FDF2E9" fill-opacity="0.5"/>
</g>
<g opacity="0.7">
<path d="M616.974 43.0555C618.594 46.9906 616.665 51.4659 612.807 53.0091C611.727 53.4721 610.569 53.6264 609.489 53.5493L590.97 97.6078L635.26 115.355C635.955 114.583 636.804 113.966 637.807 113.58C641.665 111.882 646.217 113.734 647.838 117.592C649.535 121.45 647.683 126.003 643.825 127.623C639.967 129.321 635.415 127.469 633.794 123.611C633.331 122.608 633.177 121.527 633.177 120.524L588.81 102.7L570.292 146.759C571.063 147.453 571.68 148.379 572.066 149.382C573.687 153.317 571.758 157.793 567.9 159.336C563.964 160.956 559.489 159.027 557.946 155.169C556.326 151.234 558.255 146.759 562.113 145.216C563.116 144.83 564.196 144.598 565.199 144.676L583.64 100.694L539.119 82.8702C538.424 83.5646 537.653 84.1047 536.727 84.4905C532.869 86.188 528.316 84.3362 526.696 80.4782C524.998 76.6202 526.85 72.0677 530.708 70.4474C534.566 68.7498 539.119 70.6017 540.739 74.4597C541.202 75.5399 541.356 76.6973 541.356 77.7776L585.801 95.6016L604.396 51.3116C603.702 50.6172 603.162 49.7684 602.776 48.8425C601.156 44.9073 603.085 40.432 606.943 38.8888C610.955 37.2684 615.43 39.1203 616.974 43.0555Z" fill="#FDF2E9" fill-opacity="0.5"/>
<path d="M570.137 38.04C573.995 39.7376 575.77 44.29 573.995 48.148C573.532 49.2283 572.838 50.1542 571.989 50.8487L589.119 95.4473L633.331 77.6233C633.331 76.6202 633.486 75.5399 633.949 74.5368C635.569 70.6788 640.122 68.827 643.98 70.5245C647.838 72.1449 649.689 76.6973 647.992 80.5554C646.372 84.4134 641.819 86.2652 637.961 84.5677C636.958 84.1047 636.109 83.4874 635.415 82.793L591.125 100.617L608.254 145.216C609.257 145.216 610.338 145.447 611.341 145.91C615.199 147.608 616.973 152.16 615.199 156.018C613.501 159.876 608.949 161.651 605.091 159.876C601.233 158.179 599.458 153.626 601.233 149.768C601.696 148.765 602.313 147.916 603.085 147.222L585.955 102.7L541.511 120.602C541.511 121.527 541.279 122.531 540.893 123.456C539.273 127.314 534.721 129.166 530.863 127.469C527.005 125.848 525.153 121.296 526.85 117.438C528.471 113.58 533.023 111.728 536.881 113.426C537.961 113.889 538.887 114.583 539.582 115.432L584.026 97.5306L566.819 52.7005C565.893 52.7005 564.89 52.469 563.964 52.0832C560.106 50.3857 558.332 45.8332 560.106 41.9752C561.727 38.04 566.279 36.2654 570.137 38.04Z" fill="#F1B47F" fill-opacity="0.5"/>
<path d="M587.498 42.5153C590.662 42.5153 593.285 45.1388 593.208 48.3023L593.208 50.3857C593.208 53.0091 594.983 55.4011 597.606 56.0184C602.313 57.1758 606.788 59.0276 610.801 61.4967C613.038 62.8856 615.97 62.4998 617.822 60.648L619.288 59.1819C621.526 56.9443 625.152 56.9443 627.467 59.1819C629.705 61.4196 629.705 65.0461 627.467 67.3609L626.001 68.827C624.149 70.6788 623.763 73.6109 625.152 75.8486C627.622 79.8609 629.473 84.3362 630.554 89.043C631.171 91.6664 633.486 93.4411 636.186 93.4411L638.27 93.4411C641.433 93.4411 644.057 96.0645 643.979 99.2281C643.979 102.392 641.356 105.015 638.192 104.938L636.109 104.938C633.486 104.938 631.094 106.713 630.476 109.336C629.319 114.043 627.467 118.518 624.998 122.531C623.609 124.768 623.995 127.7 625.847 129.552L627.313 131.018C629.551 133.256 629.551 136.882 627.313 139.197C625.075 141.435 621.449 141.435 619.134 139.197L617.668 137.731C615.816 135.879 612.884 135.493 610.646 136.882C606.634 139.351 602.159 141.203 597.452 142.284C594.828 142.901 593.054 145.216 593.054 147.916C593.054 148.611 593.054 149.305 593.054 150C593.054 153.163 590.43 155.709 587.267 155.709C584.103 155.709 581.48 153.086 581.557 149.922L581.557 147.839C581.557 145.216 579.782 142.824 577.159 142.206C572.452 141.049 567.977 139.197 563.964 136.728C561.727 135.339 558.795 135.725 556.943 137.577L555.477 139.043C553.239 141.28 549.612 141.28 547.298 139.043C545.06 136.805 545.06 133.179 547.298 130.864L548.764 129.398C550.616 127.546 551.001 124.614 549.612 122.376C547.143 118.364 545.291 113.889 544.211 109.182C543.594 106.558 541.279 104.784 538.579 104.784L536.495 104.784C533.332 104.784 530.708 102.16 530.785 98.9966C530.785 95.8331 533.409 93.2096 536.572 93.2868L538.656 93.2868C541.279 93.2868 543.671 91.5121 544.288 88.8886C545.446 84.1819 547.298 79.7066 549.767 75.6942C551.156 73.4566 550.77 70.5245 548.918 68.6726L547.452 67.2066C545.214 64.9689 545.214 61.3424 547.452 59.0276C549.69 56.79 553.316 56.79 555.631 59.0276L557.097 60.4937C558.949 62.3455 561.881 62.7313 564.119 61.3424C568.131 58.8733 572.606 57.0214 577.313 55.9412C579.936 55.3239 581.711 53.0091 581.711 50.3085C581.711 49.6141 581.711 48.9196 581.711 48.2252C581.711 45.0616 584.335 42.5153 587.498 42.5153Z" fill="#F1B47F" fill-opacity="0.5"/>
<path d="M587.498 42.5153C584.335 42.5153 581.711 45.0616 581.711 48.2252C581.711 48.9196 581.711 49.6141 581.711 50.3085C581.711 52.932 579.859 55.3239 577.313 55.9412C572.606 57.0214 568.131 58.8733 564.119 61.3424C561.881 62.7313 558.949 62.3455 557.097 60.4937L555.631 59.0276C554.474 57.8702 553.008 57.3301 551.542 57.3301C550.076 57.3301 548.61 57.8702 547.452 59.0276C546.295 60.185 545.755 61.6511 545.755 63.1171C545.755 64.5832 546.295 66.0492 547.452 67.2066L548.918 68.6726C549.998 69.7529 550.616 71.2189 550.616 72.7621C550.616 73.7652 550.307 74.8455 549.767 75.7714C547.298 79.7837 545.369 84.1819 544.289 88.9658C543.671 91.5892 541.279 93.3639 538.656 93.3639L536.573 93.3639C533.409 93.3639 530.786 95.9102 530.786 99.0738C530.786 102.237 533.332 104.784 536.495 104.861L538.579 104.861C541.202 104.861 543.594 106.635 544.211 109.259C545.292 113.966 547.143 118.441 549.613 122.453C550.153 123.379 550.461 124.382 550.461 125.385C550.461 126.851 549.844 128.395 548.764 129.475L547.298 130.941C546.14 132.098 545.6 133.564 545.6 135.03C545.6 136.497 546.14 137.963 547.298 139.12C549.535 141.358 553.162 141.358 555.477 139.12L556.943 137.654C558.795 135.802 561.727 135.416 563.964 136.805C567.977 139.274 572.375 141.203 577.159 142.361C579.705 142.978 581.48 145.293 581.48 147.993L581.48 150.077C581.48 151.62 582.097 153.086 583.177 154.166C584.18 155.169 585.646 155.864 587.267 155.864C590.43 155.864 593.054 153.317 593.054 150.154C593.054 149.459 593.054 148.765 593.054 148.071C593.054 145.447 594.906 143.055 597.452 142.438C602.159 141.358 606.634 139.506 610.646 137.037C612.884 135.648 615.816 136.034 617.668 137.885L619.134 139.351C621.372 141.589 624.998 141.589 627.313 139.351C628.47 138.194 629.011 136.728 629.011 135.262C629.011 133.796 628.47 132.33 627.313 131.172L625.847 129.706C624.767 128.626 624.149 127.16 624.149 125.617C624.149 124.614 624.458 123.534 624.998 122.608C627.467 118.595 629.396 114.197 630.477 109.413C631.094 106.79 633.486 105.015 636.109 105.015L638.193 105.015C641.356 105.015 643.98 102.469 643.98 99.3053L640.585 99.3053C640.585 100.617 639.504 101.62 638.193 101.62L636.109 101.62C631.788 101.62 628.162 104.475 627.159 108.564C626.156 112.885 624.458 116.975 622.066 120.756C621.14 122.145 620.677 123.842 620.677 125.54C620.677 128.009 621.603 130.247 623.378 132.021L624.844 133.487C625.307 133.95 625.538 134.49 625.538 135.108C625.538 135.725 625.307 136.342 624.844 136.805C624.381 137.268 623.764 137.5 623.146 137.5C622.529 137.5 621.912 137.268 621.449 136.805L619.983 135.339C616.973 132.33 612.344 131.713 608.717 133.95C604.937 136.265 600.847 137.963 596.526 138.966C592.359 139.892 589.504 143.595 589.504 147.839L589.504 148.996L589.504 149.922C589.504 150.54 589.273 151.157 588.81 151.62C588.347 152.083 587.807 152.314 587.112 152.314C585.801 152.314 584.798 151.234 584.798 150L584.798 147.916C584.798 143.595 581.943 139.969 577.853 138.966C573.532 137.963 569.443 136.265 565.739 133.873C562.19 131.635 557.56 132.176 554.474 135.185L553.008 136.651C552.082 137.577 550.616 137.577 549.69 136.651C549.227 136.188 548.995 135.648 548.995 135.03C548.995 134.413 549.227 133.796 549.69 133.333L551.156 131.867C552.853 130.169 553.856 127.777 553.856 125.385C553.856 123.688 553.393 122.068 552.545 120.679C550.23 116.898 548.532 112.808 547.529 108.487C546.603 104.321 542.9 101.466 538.656 101.466L536.573 101.466C535.261 101.466 534.258 100.386 534.258 99.1509C534.258 97.8392 535.338 96.8361 536.65 96.8361L538.733 96.8361C543.054 96.8361 546.68 93.9812 547.684 89.8917C548.687 85.5707 550.384 81.4813 552.776 77.7776C553.702 76.3115 554.165 74.6911 554.165 72.9936C554.165 70.5245 553.239 68.2868 551.464 66.5122L549.998 65.0461C549.535 64.5832 549.304 64.043 549.304 63.3486C549.304 62.7313 549.535 62.114 549.998 61.6511C550.461 61.1881 551.079 60.9566 551.696 60.9566C552.313 60.9566 552.93 61.1881 553.393 61.6511L554.86 63.1171C557.869 66.1264 562.498 66.7436 566.125 64.506C569.906 62.1912 573.995 60.4937 578.316 59.4906C582.483 58.5647 585.338 54.861 585.338 50.6171L585.338 49.4597L585.338 48.5338C585.338 47.2221 586.418 46.1419 587.73 46.219C589.041 46.219 590.045 47.2993 590.045 48.611L590.045 50.6943C590.045 55.0153 592.9 58.6418 596.989 59.6449C601.31 60.648 605.399 62.3455 609.103 64.7375C612.653 66.9751 617.282 66.435 620.369 63.4257L621.835 61.9597C622.298 61.4967 622.915 61.2653 623.532 61.2653C624.149 61.2653 624.767 61.4967 625.23 61.9597C625.693 62.4227 625.924 62.9628 625.924 63.6572C625.924 64.2745 625.693 64.8918 625.23 65.3548L623.764 66.8208C622.066 68.5183 621.063 70.9103 621.063 73.3023C621.063 74.9998 621.526 76.6202 622.375 78.009C624.69 81.7899 626.387 85.8794 627.39 90.2004C628.316 94.367 632.02 97.2219 636.264 97.2219L638.347 97.2219C639.659 97.2219 640.662 98.3022 640.662 99.6139L644.057 99.6139C644.057 96.4503 641.51 93.9041 638.347 93.8269L636.264 93.8269C633.64 93.8269 631.248 92.0522 630.631 89.4288C629.551 84.722 627.699 80.2467 625.23 76.2344C624.69 75.3084 624.381 74.3053 624.381 73.3023C624.381 71.8362 624.998 70.293 626.078 69.2128L627.544 67.7467C628.702 66.5893 629.242 65.1233 629.242 63.6572C629.242 62.1912 628.702 60.7251 627.544 59.5677C625.307 57.3301 621.68 57.3301 619.365 59.5677L617.899 61.0338C616.048 62.8856 613.115 63.2714 610.878 61.8825C606.866 59.4134 602.467 57.4844 597.683 56.4042C595.137 55.7869 593.285 53.3949 593.285 50.7715L593.285 48.6881C593.285 47.0678 592.668 45.6789 591.588 44.5986C590.508 43.2098 589.042 42.5153 587.498 42.5153Z" fill="#FDF2E9" fill-opacity="0.5"/>
</g>
<g opacity="0.7">
<path d="M116.975 163.348C113.117 162.191 110.957 158.101 112.191 154.321C112.5 153.24 113.04 152.314 113.734 151.543L92.5153 111.574L53.0093 133.41C53.1636 134.413 53.0864 135.416 52.7778 136.419C51.6975 140.277 47.6852 142.515 43.8272 141.358C39.9692 140.277 37.7315 136.265 38.8889 132.407C39.9692 128.549 43.9816 126.311 47.8396 127.469C48.8427 127.777 49.6913 128.24 50.4629 128.858L90.0462 107.021L68.8271 67.1295C67.824 67.2066 66.8209 67.2066 65.8179 66.898C61.9598 65.7406 59.7994 61.6511 61.034 57.8702C62.1914 54.0122 66.2808 51.8517 70.0617 53.0863C73.9197 54.2437 76.0802 58.3332 74.8457 62.1141C74.537 63.1171 74.074 63.9659 73.3796 64.7375L94.5987 104.552L134.336 82.6387C134.259 81.7128 134.336 80.7868 134.568 79.8609C135.648 76.0029 139.66 73.7653 143.518 74.9227C147.376 76.0029 149.614 80.0152 148.456 83.8733C147.376 87.7313 143.364 89.9689 139.506 88.8115C138.426 88.5029 137.5 87.9627 136.728 87.2683L97.0678 109.182L118.441 149.305C119.367 149.228 120.293 149.305 121.219 149.614C125.077 150.771 127.237 154.861 126.003 158.642C124.768 162.422 120.833 164.506 116.975 163.348Z" fill="#FDF2E9" fill-opacity="0.5"/>
<path d="M148.688 131.944C145.139 133.719 140.74 132.33 138.966 128.78C138.503 127.777 138.194 126.774 138.194 125.694L95.2159 111.574L81.7901 154.706C82.5617 155.324 83.179 156.095 83.7191 157.021C85.5709 160.57 84.182 164.969 80.7098 166.82C77.1604 168.672 72.7622 167.283 70.9104 163.811C69.0586 160.262 70.4475 155.864 73.9197 154.012C74.8456 153.549 75.8487 153.24 76.7747 153.163L90.2005 109.953L47.2222 95.833C46.605 96.6046 45.8334 97.2219 44.9074 97.6849C41.3581 99.4595 36.9599 98.0707 35.1853 94.5213C33.4106 90.9719 34.7994 86.5738 38.3488 84.7991C41.8982 83.0244 46.2963 84.4133 48.071 87.9627C48.5339 88.8886 48.7654 89.8917 48.8426 90.8176L91.7437 104.938L105.247 61.5739C104.552 60.9566 103.935 60.2621 103.472 59.4134C101.62 55.864 103.009 51.4659 106.481 49.614C110.031 47.7622 114.429 49.1511 116.281 52.6233C118.133 56.1726 116.744 60.5708 113.271 62.4226C112.268 62.9627 111.265 63.1942 110.185 63.2714L96.7591 106.558L139.969 120.756C140.586 120.061 141.281 119.444 142.129 119.058C145.679 117.284 150.077 118.672 151.852 122.222C153.703 125.771 152.315 130.169 148.688 131.944Z" fill="#F1B47F" fill-opacity="0.5"/>
<path d="M135.031 141.975C133.102 144.29 129.707 144.676 127.392 142.747L125.849 141.512C123.92 139.892 121.065 139.814 119.136 141.358C115.509 144.135 111.42 146.296 107.253 147.685C104.861 148.456 103.395 150.848 103.626 153.318L103.858 155.324C104.166 158.333 101.929 160.956 98.9967 161.265C95.9875 161.574 93.3641 159.336 93.0554 156.404L92.8239 154.398C92.5924 151.929 90.6634 149.845 88.1943 149.537C83.7961 148.919 79.3981 147.685 75.2314 145.601C72.9938 144.521 70.216 145.139 68.6728 147.068L67.4382 148.611C65.5092 150.926 62.1142 151.234 59.7994 149.382C57.4846 147.453 57.1759 144.058 59.0278 141.743L60.2623 140.277C61.8827 138.348 61.9598 135.493 60.4166 133.487C57.6388 129.861 55.4784 125.771 54.0895 121.527C53.3179 119.136 50.9259 117.669 48.4568 117.901L46.4506 118.132C43.4414 118.441 40.818 116.203 40.5093 113.271C40.2007 110.262 42.4383 107.639 45.3704 107.33L47.3765 107.099C49.8456 106.867 51.929 104.938 52.2376 102.469C52.8549 98.0708 54.0895 93.6726 56.1728 89.506C57.253 87.2683 56.6357 84.4905 54.7067 82.9473C54.2438 82.5615 53.7036 82.0986 53.1635 81.7128C50.8487 79.7838 50.5401 76.3887 52.3919 74.0739C54.3209 71.7591 57.716 71.4505 60.0308 73.3023L61.574 74.5369C63.503 76.1572 66.358 76.2344 68.287 74.6912C71.9135 71.9134 76.0029 69.7529 80.1696 68.3641C82.5616 67.5925 84.0277 65.2005 83.7962 62.7314L83.5647 60.7252C83.256 57.7159 85.4937 55.0925 88.4258 54.7839C91.4351 54.4752 94.0585 56.7129 94.3671 59.645L94.5986 61.6511C94.8301 64.1202 96.7591 66.2036 99.2282 66.5122C103.626 67.1295 108.024 68.4412 112.191 70.4474C114.429 71.5276 117.207 70.9103 118.75 68.9813L119.984 67.4381C121.913 65.1233 125.308 64.8147 127.623 66.6665C129.938 68.5955 130.247 71.9906 128.395 74.3054L127.16 75.8486C125.54 77.7776 125.463 80.6325 127.006 82.5615C129.784 86.1881 131.944 90.2776 133.333 94.4442C134.105 96.8362 136.497 98.3022 138.966 98.0708L140.972 97.8393C143.981 97.5306 146.605 99.7683 146.913 102.7C147.222 105.71 144.984 108.333 142.052 108.642L140.046 108.873C137.577 109.105 135.494 111.034 135.185 113.503C134.568 117.901 133.333 122.299 131.25 126.466C130.17 128.703 130.787 131.481 132.716 133.024C133.179 133.41 133.719 133.873 134.259 134.259C136.574 136.265 136.882 139.66 135.031 141.975Z" fill="#F1B47F" fill-opacity="0.5"/>
<path d="M135.031 141.975C136.96 139.66 136.574 136.188 134.259 134.336C133.796 133.95 133.256 133.487 132.716 133.101C130.787 131.481 130.092 128.78 131.25 126.543C133.256 122.453 134.568 118.055 135.185 113.58C135.493 111.111 137.577 109.182 140.046 108.95L142.052 108.796C143.518 108.642 144.83 107.87 145.756 106.79C146.605 105.71 147.068 104.321 146.99 102.777C146.836 101.311 146.064 99.9997 144.984 99.0737C143.904 98.225 142.515 97.762 141.049 97.8392L139.043 97.9935C137.577 98.1478 136.111 97.6849 135.031 96.7589C134.259 96.1417 133.642 95.2929 133.333 94.367C131.867 90.1232 129.784 86.1108 127.006 82.4843C125.463 80.4781 125.617 77.7003 127.16 75.7713L128.395 74.2281C130.324 71.9133 129.938 68.4411 127.623 66.5893C125.308 64.6603 121.913 65.0461 119.984 67.3609L118.75 68.8269C117.129 70.7559 114.429 71.4504 112.191 70.293C108.102 68.2868 103.703 66.9751 99.2282 66.3578C98.2251 66.2035 97.2992 65.8177 96.6047 65.2004C95.5245 64.2745 94.7529 62.9627 94.5986 61.4967L94.367 59.4905C94.2127 58.0245 93.4411 56.7128 92.3609 55.7868C91.2807 54.9381 89.8918 54.4751 88.4257 54.5523C85.4165 54.8609 83.256 57.4844 83.5646 60.4936L83.7961 62.4998C84.0276 64.9689 82.5615 67.3609 80.1695 68.1325C75.9257 69.5985 71.9134 71.6818 68.2097 74.4596C66.2035 76.0028 63.4258 75.8485 61.4968 74.3053L59.9536 73.0707C58.7962 72.1448 57.3302 71.759 55.9413 71.9133C54.5524 72.0676 53.2406 72.6849 52.3147 73.8423C50.3857 76.1571 50.7715 79.6294 53.0863 81.4812C53.5493 81.867 54.0894 82.33 54.6295 82.7158C56.5585 84.3361 57.253 87.0367 56.0956 89.2744C54.0894 93.3639 52.7777 97.762 52.1604 102.237C51.8518 104.706 49.7684 106.635 47.2993 106.867L45.2931 107.098C42.2839 107.407 40.1234 110.03 40.432 113.04C40.5863 114.506 41.358 115.818 42.4382 116.743C43.5185 117.592 44.9074 118.055 46.3734 117.978L48.3795 117.824C49.8456 117.669 51.3116 118.132 52.3918 119.058C53.1634 119.676 53.7036 120.524 54.0894 121.45C55.5555 125.694 57.6388 129.706 60.4165 133.41C61.9597 135.416 61.8054 138.194 60.2622 140.123L59.0277 141.589C57.0987 143.904 57.4845 147.376 59.7993 149.228L61.8054 146.759C60.8795 145.987 60.7252 144.598 61.4968 143.595L62.7313 142.129C65.2776 138.966 65.432 134.567 62.9628 131.404C60.4166 128.086 58.4104 124.382 57.0987 120.37C56.5586 118.827 55.6326 117.515 54.3981 116.512C52.6234 115.046 50.3857 114.351 48.0709 114.583L46.0647 114.737C45.4475 114.814 44.9074 114.66 44.4444 114.274C43.9814 113.889 43.6728 113.348 43.5956 112.731C43.5185 112.114 43.7499 111.574 44.1357 111.111C44.5215 110.648 45.0617 110.339 45.6789 110.339L47.6851 110.108C51.6974 109.722 54.861 106.635 55.4011 102.7C55.9412 98.5336 57.1759 94.5213 59.0277 90.7404C60.8024 87.1139 59.8765 82.7929 56.7129 80.2466L55.8641 79.5522L55.1697 79.0121C54.7067 78.6263 54.3981 78.0861 54.3981 77.4689C54.3209 76.8516 54.4752 76.3115 54.861 75.8485C55.6326 74.9226 57.0215 74.7683 58.0246 75.5399L59.5678 76.7744C62.7314 79.3207 67.1295 79.475 70.2931 77.0059C73.611 74.4596 77.3146 72.5306 81.3269 71.1417C85.1078 69.83 87.4998 66.1263 87.114 62.114L86.8825 60.1078C86.7282 58.8732 87.6541 57.793 88.8887 57.6387C89.506 57.5615 90.0461 57.7158 90.509 58.1016C90.972 58.4874 91.2806 59.0276 91.3578 59.6448L91.5893 61.651C91.8208 63.9658 92.9782 66.1263 94.7528 67.5152C95.9874 68.5183 97.4535 69.1356 98.9967 69.367C103.163 69.9072 107.176 71.1417 110.956 72.9936C114.583 74.7683 118.904 73.8423 121.45 70.6788L122.453 69.4442C123.225 68.5183 124.614 68.364 125.617 69.1356C126.543 69.9072 126.697 71.296 125.926 72.2991L124.691 73.7652C122.145 76.9287 121.99 81.3269 124.46 84.4905C127.006 87.8083 129.012 91.512 130.324 95.5244C130.864 97.0676 131.79 98.3793 133.024 99.3824C134.799 100.848 137.037 101.543 139.352 101.311L141.358 101.08C141.975 101.003 142.515 101.157 142.978 101.543C143.441 101.929 143.75 102.469 143.827 103.086C143.904 103.703 143.672 104.243 143.364 104.706C142.978 105.169 142.438 105.478 141.821 105.478L139.814 105.632C135.802 106.018 132.639 109.105 132.098 113.04C131.558 117.206 130.324 121.219 128.472 125C126.697 128.626 127.623 132.947 130.787 135.493L131.635 136.188L132.33 136.728C133.256 137.5 133.41 138.888 132.639 139.892C131.867 140.817 130.478 140.972 129.475 140.2L127.932 138.966C124.768 136.419 120.37 136.265 117.206 138.734C113.889 141.28 110.185 143.209 106.173 144.598C102.392 145.91 99.9998 149.614 100.386 153.626L100.617 155.632C100.694 156.249 100.463 156.79 100.077 157.253C99.6911 157.716 99.151 158.024 98.5337 158.024C97.9164 158.101 97.3763 157.947 96.9134 157.561C96.4504 157.175 96.1418 156.635 96.1418 156.018L95.9102 154.012C95.6788 151.697 94.5214 149.537 92.7467 148.148C91.5121 147.145 90.0461 146.527 88.5029 146.296C84.3362 145.756 80.3239 144.521 76.543 142.669C72.9165 140.895 68.5955 141.821 66.0493 144.984L64.8147 146.45C64.0431 147.376 62.6542 147.53 61.6511 146.759L59.6449 149.228C61.9597 151.157 65.3548 150.771 67.2838 148.456L68.5184 146.99C70.1387 145.061 72.8393 144.367 75.077 145.524C79.1665 147.53 83.5646 148.842 88.0399 149.459C89.043 149.614 89.969 150 90.6634 150.617C91.7436 151.543 92.5152 152.854 92.6696 154.32L92.901 156.327C93.0553 157.87 93.827 159.104 94.9072 160.03C95.9875 160.879 97.3763 161.342 98.9195 161.265C101.929 160.956 104.089 158.333 103.781 155.324L103.549 153.317C103.318 150.848 104.784 148.456 107.176 147.685C111.419 146.219 115.432 144.135 119.058 141.358C121.064 139.814 123.842 139.969 125.771 141.512L127.315 142.746C128.472 143.672 129.938 144.058 131.327 143.981C132.716 143.827 134.027 143.132 135.031 141.975Z" fill="#FDF2E9" fill-opacity="0.5"/>
</g>
<g opacity="0.7">
<path d="M984.025 346.527C980.167 345.369 978.006 341.28 979.241 337.499C979.55 336.419 980.09 335.493 980.784 334.721L959.565 294.752L920.059 316.589C920.213 317.592 920.136 318.595 919.828 319.598C918.747 323.456 914.735 325.693 910.877 324.536C907.019 323.456 904.781 319.443 905.939 315.585C907.019 311.727 911.031 309.49 914.889 310.647C915.892 310.956 916.741 311.419 917.513 312.036L957.096 290.123L935.877 250.231C934.874 250.308 933.871 250.308 932.868 249.999C929.01 248.842 926.849 244.752 928.084 240.971C929.241 237.113 933.331 234.953 937.111 236.188C940.969 237.345 943.13 241.434 941.895 245.215C941.587 246.218 941.124 247.067 940.429 247.839L961.648 287.653L1001.39 265.74C1001.31 264.814 1001.39 263.888 1001.62 262.962C1002.7 259.104 1006.71 256.867 1010.57 258.024C1014.43 259.104 1016.66 263.116 1015.51 266.975C1014.43 270.833 1010.41 273.07 1006.56 271.913C1005.48 271.604 1004.55 271.064 1003.78 270.37L964.118 292.283L985.491 332.406C986.417 332.329 987.343 332.406 988.269 332.715C992.127 333.872 994.287 337.962 993.053 341.743C991.972 345.524 987.883 347.684 984.025 346.527Z" fill="#FDF2E9" fill-opacity="0.5"/>
<path d="M1015.81 315.122C1012.27 316.897 1007.87 315.508 1006.09 311.959C1005.63 310.956 1005.32 309.953 1005.32 308.872L962.266 294.752L948.84 337.885C949.611 338.502 950.229 339.274 950.769 340.2C952.621 343.749 951.232 348.147 947.76 349.999C944.21 351.851 939.812 350.462 937.96 346.99C936.108 343.44 937.497 339.042 940.969 337.19C941.895 336.727 942.898 336.419 943.824 336.342L957.25 293.132L914.272 279.011C913.655 279.783 912.883 280.4 911.957 280.863C908.408 282.638 904.01 281.249 902.235 277.7C900.46 274.15 901.849 269.752 905.399 267.978C908.948 266.203 913.346 267.592 915.121 271.141C915.584 272.067 915.815 273.07 915.892 273.996L958.871 288.039L972.374 244.675C971.679 244.058 971.062 243.363 970.599 242.515C968.747 238.965 970.136 234.567 973.608 232.715C977.158 230.863 981.556 232.252 983.408 235.725C985.259 239.197 983.871 243.672 980.398 245.524C979.395 246.064 978.392 246.296 977.312 246.373L963.886 289.66L1007.1 303.857C1007.71 303.163 1008.41 302.545 1009.26 302.16C1012.81 300.385 1017.2 301.774 1018.98 305.323C1020.83 308.95 1019.36 313.348 1015.81 315.122Z" fill="#F1B47F" fill-opacity="0.5"/>
<path d="M1002.08 325.153C1000.15 327.468 996.756 327.854 994.441 325.925L992.898 324.69C990.969 323.07 988.114 322.993 986.185 324.536C982.559 327.314 978.469 329.474 974.303 330.863C971.911 331.635 970.445 334.027 970.676 336.496L970.908 338.502C971.216 341.511 968.979 344.135 966.047 344.443C963.037 344.752 960.414 342.514 960.105 339.582L959.874 337.576C959.642 335.107 957.713 333.024 955.244 332.715C950.846 332.098 946.448 330.863 942.281 328.78C940.043 327.7 937.266 328.317 935.723 330.246L934.488 331.789C932.559 334.104 929.164 334.413 926.849 332.561C924.534 330.632 924.226 327.237 926.077 324.922L927.312 323.456C928.932 321.527 929.01 318.672 927.466 316.666C924.689 313.039 922.528 308.95 921.139 304.706C920.368 302.314 917.976 300.848 915.507 301.079L913.5 301.311C910.491 301.619 907.868 299.382 907.559 296.45C907.25 293.44 909.488 290.817 912.42 290.508L914.426 290.277C916.895 290.045 918.979 288.116 919.287 285.647C919.905 281.249 921.139 276.851 923.223 272.684C924.303 270.447 923.686 267.669 921.757 266.126C921.294 265.74 920.753 265.277 920.213 264.891C917.898 262.962 917.59 259.567 919.442 257.252C921.371 254.938 924.766 254.629 927.081 256.481L928.624 257.715C930.553 259.336 933.408 259.413 935.337 257.87C938.963 255.092 943.053 252.931 947.219 251.542C949.611 250.771 951.077 248.379 950.846 245.91L950.614 243.904C950.306 240.894 952.543 238.271 955.476 237.962C958.485 237.654 961.108 239.891 961.417 242.823L961.648 244.83C961.88 247.299 963.809 249.382 966.278 249.691C970.676 250.308 975.074 251.62 979.241 253.626C981.479 254.706 984.256 254.089 985.8 252.16L987.034 250.617C988.963 248.302 992.358 247.993 994.673 249.845C996.988 251.774 997.296 255.169 995.445 257.484L994.21 259.027C992.59 260.956 992.512 263.811 994.056 265.74C996.833 269.366 998.994 273.456 1000.38 277.623C1001.15 280.015 1003.55 281.481 1006.02 281.249L1008.02 281.018C1011.03 280.709 1013.65 282.947 1013.96 285.879C1014.27 288.888 1012.03 291.511 1009.1 291.82L1007.1 292.052C1004.63 292.283 1002.54 294.212 1002.23 296.681C1001.62 301.079 1000.38 305.477 998.299 309.644C997.219 311.882 997.837 314.66 999.766 316.203C1000.23 316.589 1000.77 317.052 1001.31 317.437C1003.62 319.366 1004.01 322.839 1002.08 325.153Z" fill="#F1B47F" fill-opacity="0.5"/>
<path d="M1002.08 325.153C1004.01 322.838 1003.62 319.366 1001.31 317.514C1000.85 317.129 1000.31 316.666 999.766 316.28C997.837 314.659 997.142 311.959 998.3 309.721C1000.31 305.632 1001.62 301.234 1002.23 296.758C1002.54 294.289 1004.63 292.36 1007.1 292.129L1009.1 291.974C1010.57 291.82 1011.88 291.048 1012.81 289.968C1013.65 288.888 1014.12 287.499 1014.04 285.956C1013.89 284.49 1013.11 283.178 1012.03 282.252C1010.95 281.403 1009.56 280.94 1008.1 281.018L1006.09 281.172C1004.63 281.326 1003.16 280.863 1002.08 279.937C1001.31 279.32 1000.69 278.471 1000.38 277.545C998.917 273.302 996.833 269.289 994.056 265.663C992.512 263.657 992.667 260.879 994.21 258.95L995.445 257.407C997.374 255.092 996.988 251.62 994.673 249.768C992.358 247.839 988.963 248.225 987.034 250.539L985.8 252.005C984.179 253.934 981.479 254.629 979.241 253.471C975.151 251.465 970.753 250.154 966.278 249.536C965.275 249.382 964.349 248.996 963.655 248.379C962.574 247.453 961.803 246.141 961.648 244.675L961.417 242.669C961.263 241.203 960.491 239.891 959.411 238.965C958.33 238.117 956.942 237.654 955.476 237.731C952.466 238.039 950.306 240.663 950.614 243.672L950.846 245.678C951.077 248.147 949.611 250.539 947.219 251.311C942.976 252.777 938.963 254.86 935.26 257.638C933.253 259.181 930.476 259.027 928.547 257.484L927.003 256.249C925.846 255.323 924.38 254.937 922.991 255.092C921.602 255.246 920.29 255.863 919.365 257.021C917.436 259.336 917.821 262.808 920.136 264.66C920.599 265.045 921.139 265.508 921.679 265.894C923.608 267.515 924.303 270.215 923.145 272.453C921.139 276.542 919.828 280.94 919.21 285.416C918.902 287.885 916.818 289.814 914.349 290.045L912.343 290.277C909.334 290.586 907.173 293.209 907.482 296.218C907.636 297.684 908.408 298.996 909.488 299.922C910.568 300.771 911.957 301.234 913.423 301.156L915.429 301.002C916.895 300.848 918.361 301.311 919.442 302.237C920.213 302.854 920.753 303.703 921.139 304.629C922.605 308.872 924.689 312.885 927.466 316.588C929.01 318.595 928.855 321.372 927.312 323.301L926.078 324.767C924.148 327.082 924.534 330.555 926.849 332.406L928.855 329.937C927.929 329.166 927.775 327.777 928.547 326.774L929.781 325.308C932.327 322.144 932.482 317.746 930.013 314.582C927.466 311.264 925.46 307.561 924.148 303.548C923.608 302.005 922.682 300.693 921.448 299.69C919.673 298.224 917.436 297.53 915.121 297.761L913.115 297.916C912.497 297.993 911.957 297.839 911.494 297.453C911.031 297.067 910.723 296.527 910.645 295.91C910.568 295.292 910.8 294.752 911.186 294.289C911.571 293.826 912.111 293.518 912.729 293.518L914.735 293.286C918.747 292.9 921.911 289.814 922.451 285.879C922.991 281.712 924.226 277.7 926.078 273.919C927.852 270.292 926.926 265.971 923.763 263.425L922.914 262.731L922.219 262.191C921.757 261.805 921.448 261.265 921.448 260.647C921.371 260.03 921.525 259.49 921.911 259.027C922.682 258.101 924.071 257.947 925.074 258.718L926.618 259.953C929.781 262.499 934.179 262.653 937.343 260.184C940.661 257.638 944.364 255.709 948.377 254.32C952.158 253.008 954.55 249.305 954.164 245.292L953.932 243.286C953.778 242.052 954.704 240.971 955.939 240.817C956.556 240.74 957.096 240.894 957.559 241.28C958.022 241.666 958.33 242.206 958.408 242.823L958.639 244.829C958.871 247.144 960.028 249.305 961.803 250.694C963.037 251.697 964.503 252.314 966.047 252.545C970.213 253.086 974.226 254.32 978.006 256.172C981.633 257.947 985.954 257.021 988.5 253.857L989.735 252.391C990.506 251.465 991.895 251.311 992.898 252.083C993.824 252.854 993.979 254.243 993.207 255.246L991.972 256.712C989.426 259.876 989.272 264.274 991.741 267.437C994.287 270.755 996.293 274.459 997.605 278.471C998.145 280.015 999.071 281.326 1000.31 282.329C1002.08 283.795 1004.32 284.49 1006.63 284.258L1008.64 284.027C1009.26 283.95 1009.8 284.104 1010.26 284.49C1010.72 284.876 1011.03 285.416 1011.11 286.033C1011.19 286.65 1010.95 287.19 1010.65 287.653C1010.26 288.116 1009.72 288.425 1009.1 288.425L1007.1 288.579C1003.08 288.965 999.92 292.052 999.38 295.987C998.84 300.153 997.605 304.166 995.753 307.947C993.979 311.573 994.904 315.894 998.068 318.44L998.917 319.135L999.611 319.675C1000.54 320.447 1000.69 321.835 999.92 322.838C999.148 323.764 997.759 323.919 996.756 323.147L995.213 321.913C992.05 319.366 987.651 319.212 984.488 321.681C981.17 324.227 977.466 326.156 973.454 327.545C969.673 328.857 967.281 332.561 967.667 336.573L967.898 338.579C967.976 339.196 967.744 339.737 967.358 340.2C966.972 340.663 966.432 340.971 965.815 340.971C965.198 341.048 964.658 340.894 964.195 340.508C963.732 340.122 963.423 339.582 963.423 338.965L963.192 336.959C962.96 334.644 961.803 332.484 960.028 331.095C958.793 330.092 957.327 329.474 955.784 329.243C951.618 328.703 947.605 327.468 943.824 325.616C940.198 323.842 935.877 324.767 933.331 327.931L932.096 329.397C931.324 330.323 929.936 330.477 928.932 329.706L926.926 332.175C929.241 334.104 932.636 333.718 934.565 331.403L935.8 329.937C937.42 328.008 940.121 327.314 942.358 328.471C946.448 330.477 950.846 331.789 955.321 332.406C956.324 332.561 957.25 332.946 957.945 333.564C959.025 334.49 959.797 335.801 959.951 337.267L960.182 339.274C960.337 340.817 961.108 342.051 962.189 342.977C963.269 343.826 964.658 344.289 966.201 344.212C969.21 343.903 971.371 341.28 971.062 338.271L970.83 336.264C970.599 333.795 972.065 331.403 974.457 330.632C978.701 329.166 982.713 327.082 986.34 324.305C988.346 322.761 991.124 322.916 993.053 324.459L994.596 325.693C995.753 326.619 997.219 327.005 998.608 326.928C999.766 327.005 1001.15 326.311 1002.08 325.153Z" fill="#FDF2E9" fill-opacity="0.5"/>
</g>
<g opacity="0.7">
<path d="M494.134 163.657C502.236 167.669 512.421 173.534 516.048 182.253L516.048 199.305L516.048 216.357C512.421 225.154 502.236 230.941 494.134 234.953C475.847 244.058 448.841 246.913 430.323 235.956C421.218 230.555 415.662 220.601 415.662 210.03L415.662 199.305L415.662 188.58C415.662 177.932 421.141 168.055 430.323 162.654C448.841 151.774 475.847 154.552 494.134 163.657Z" fill="#FDF2E9" fill-opacity="0.5"/>
<path d="M529.937 187.268L529.937 211.342C529.937 214.12 527.699 216.357 524.921 216.357L516.125 216.357L516.125 182.175L524.921 182.175C527.622 182.253 529.937 184.49 529.937 187.268Z" fill="#F1B47F" fill-opacity="0.5"/>
<path d="M541.974 206.172L541.974 192.515L529.86 192.515L529.86 206.172L541.974 206.172Z" fill="#FDF2E9" fill-opacity="0.5"/>
<path d="M557.714 188.425L544.057 188.425C542.977 188.425 542.051 189.351 542.051 190.432L542.051 206.635C542.051 207.715 542.977 208.641 544.057 208.641C547.838 208.641 550.924 211.728 550.924 215.509L550.924 226.851C550.924 227.931 551.85 228.857 552.93 228.857L557.792 228.857C558.872 228.857 559.798 227.931 559.798 226.851L559.798 190.432C559.721 189.351 558.795 188.425 557.714 188.425Z" fill="#F1B47F" fill-opacity="0.5"/>
<path d="M430.323 162.654C421.218 168.055 415.662 178.009 415.662 188.58L415.662 199.305L415.662 210.03C415.662 220.678 421.141 230.555 430.323 235.956C448.764 246.913 475.847 244.058 494.134 235.03C502.236 231.018 512.421 225.154 516.048 216.435C516.048 216.435 516.048 214.428 516.048 211.805C516.048 206.712 516.048 199.305 516.048 199.305C516.048 199.305 516.048 191.898 516.048 186.805C516.048 184.182 516.048 182.175 516.048 182.175C512.421 173.379 502.236 167.592 494.134 163.58C475.847 154.552 448.841 151.774 430.323 162.654ZM462.19 159.259C472.761 159.722 483.563 162.422 492.514 166.898C500.076 170.679 509.103 175.848 512.421 183.024C512.421 183.796 512.421 185.185 512.421 186.882L512.421 199.382L512.421 211.882C512.421 213.503 512.421 214.891 512.421 215.74C509.026 222.916 500.076 228.086 492.514 231.867C483.563 236.342 472.761 239.043 462.19 239.506C450.616 239.969 440.276 237.731 432.252 232.947C424.304 228.24 419.366 219.521 419.366 210.107L419.366 199.382L419.366 188.657C419.366 179.321 424.304 170.524 432.252 165.817C440.199 161.034 450.539 158.796 462.19 159.259Z" fill="#FDF2E9" fill-opacity="0.5"/>
<path d="M472.452 177.083L472.452 191.82L487.267 191.82L487.267 206.79L472.452 206.79L472.452 221.604L457.483 221.604L457.483 206.79L442.746 206.79L442.746 191.82L457.483 191.82L457.483 177.083L472.452 177.083Z" fill="#F1B47F" fill-opacity="0.5"/>
</g>
</g>
</svg>
