<svg width="390" height="463" viewBox="0 0 390 463" fill="none" xmlns="http://www.w3.org/2000/svg">
<mask id="mask0_456_4046" style="mask-type:alpha" maskUnits="userSpaceOnUse" x="0" y="0" width="390" height="463">
<rect width="390" height="463" fill="#5F366F"/>
</mask>
<g mask="url(#mask0_456_4046)">
<g opacity="0.2">
<path d="M200.487 -19.7222L239.75 -19.7222C249.73 -19.7222 259.447 -15.7128 266.407 -8.49592L279.275 4.60139" stroke="#D6BBE1" stroke-miterlimit="10"/>
<path d="M278.094 7.27445C278.094 9.26734 279.681 10.8829 281.639 10.8829C283.597 10.8829 285.185 9.26734 285.185 7.27445C285.185 5.28157 283.597 3.66602 281.639 3.66602C279.681 3.66602 278.094 5.28157 278.094 7.27445Z" stroke="#D6BBE1" stroke-miterlimit="10"/>
<path d="M34.3745 230.73L-23.2724 230.73" stroke="#C59FD5" stroke-miterlimit="10"/>
<path d="M411.377 230.73L366.599 230.73" stroke="#C59FD5" stroke-miterlimit="10"/>
<path d="M118.153 230.73C118.153 277.01 155.015 314.526 200.487 314.526C245.959 314.526 282.821 277.01 282.821 230.73C282.821 184.451 245.959 146.934 200.487 146.934C155.015 146.934 118.153 184.451 118.153 230.73Z" stroke="#C59FD5" stroke-width="1.2418" stroke-miterlimit="10"/>
<path d="M123.931 230.73C123.931 273.762 158.206 308.646 200.487 308.646C242.768 308.646 277.043 273.762 277.043 230.73C277.043 187.699 242.768 152.815 200.487 152.815C158.206 152.815 123.931 187.699 123.931 230.73Z" stroke="#C59FD5" stroke-width="6.2089" stroke-miterlimit="10" stroke-dasharray="0.7 1.4"/>
<path d="M200.487 8.4773L200.487 -89.3516" stroke="#C59FD5" stroke-width="3" stroke-miterlimit="10"/>
<path d="M200.487 538.918L200.487 440.956" stroke="#C59FD5" stroke-width="3" stroke-miterlimit="10"/>
<path d="M191.295 17.8323C191.295 22.999 195.41 27.1875 200.487 27.1875C205.563 27.1875 209.679 22.999 209.679 17.8323C209.679 12.6655 205.563 8.47705 200.487 8.47705C195.41 8.47705 191.295 12.6655 191.295 17.8323Z" stroke="#C59FD5" stroke-width="3" stroke-miterlimit="10"/>
<path d="M183.022 423.047C183.022 432.864 190.841 440.822 200.487 440.822C210.132 440.822 217.952 432.864 217.952 423.047C217.952 413.23 210.132 405.272 200.487 405.272C190.841 405.272 183.022 413.23 183.022 423.047Z" stroke="#C59FD5" stroke-width="3" stroke-miterlimit="10"/>
<path d="M303.175 119.002L303.175 57.6588C303.175 49.7737 300.154 42.1559 294.639 36.6764L258.922 0.324679C253.406 -5.28845 246.053 -8.36231 238.305 -8.36231L200.487 -8.36231" stroke="#C59FD5" stroke-miterlimit="10"/>
<path d="M183.022 423.047L146.254 423.047L112.506 388.834C108.435 384.691 106.072 378.944 106.072 373.063L106.072 357.026" stroke="#C59FD5" stroke-miterlimit="10"/>
<path d="M212.83 410.484L230.82 392.041L230.82 377.073" stroke="#C59FD5" stroke-miterlimit="10"/>
<path d="M217.952 423.047L267.457 423.047C269.689 423.047 271.79 422.111 273.235 420.641L291.75 401.797C293.326 400.193 294.114 398.055 294.114 395.917L294.114 358.229" stroke="#C59FD5" stroke-miterlimit="10"/>
<path d="M104.759 106.573L104.759 90.5358C104.759 82.3834 107.91 74.4983 113.688 68.7516L155.315 26.3858C160.961 20.639 168.709 17.2979 176.719 17.2979L191.295 17.2979" stroke="#C59FD5" stroke-miterlimit="10"/>
<path d="M206.921 24.5146L218.346 36.1418C222.942 40.8195 225.568 47.2345 225.568 53.9168L225.568 84.388" stroke="#C59FD5" stroke-miterlimit="10"/>
<path d="M200.487 447.504C200.487 463.943 194.052 479.847 182.628 491.474L162.537 511.922C156.365 518.203 152.951 526.623 152.951 535.31L152.951 616.967C152.951 625.788 149.537 634.208 143.365 640.355L132.991 650.913C126.82 657.195 123.405 665.614 123.405 674.301L123.405 731.635" stroke="#C59FD5" stroke-width="0.5" stroke-miterlimit="10"/>
<path d="M345.195 193.042L368.569 169.253C374.609 163.106 378.024 154.686 378.024 145.865L378.024 -60.3505C378.024 -69.0375 381.438 -77.4572 387.478 -83.7386C393.519 -89.8863 396.933 -98.306 396.933 -107.127L396.933 -276.456" stroke="#C59FD5" stroke-miterlimit="10"/>
<path d="M58.0109 272.294L45.1421 285.391C38.9703 291.673 35.5561 300.093 35.5561 308.78L35.5561 614.027C35.5561 622.848 38.9703 631.267 45.1421 637.415L60.5058 653.052C66.6776 659.333 70.0918 667.753 70.0918 676.44L70.0918 731.635" stroke="#C59FD5" stroke-miterlimit="10" stroke-linecap="round"/>
<path d="M117.496 377.073L283.477 377.073L366.468 230.73L283.609 84.6554C283.477 84.3881 283.215 84.2544 282.952 84.2544L117.234 84.2544L34.2431 230.597L117.496 377.073Z" stroke="#C59FD5" stroke-width="2" stroke-miterlimit="10"/>
<path d="M126.819 360.5L274.154 360.5L347.821 230.597L274.285 101.094C274.154 100.96 274.023 100.826 273.76 100.826L126.819 100.826L53.1522 230.73L126.819 360.5Z" stroke="#C59FD5" stroke-width="2" stroke-miterlimit="10" stroke-linecap="round"/>
<path d="M130.234 354.62L270.74 354.62L340.993 230.73L270.871 107.108C270.74 106.974 270.609 106.841 270.346 106.841L130.103 106.841L59.8495 230.73L130.234 354.62Z" stroke="#C59FD5" stroke-width="2.0359" stroke-miterlimit="10"/>
<path d="M364.367 230.73C364.367 231.985 365.366 233.002 366.599 233.002C367.832 233.002 368.832 231.985 368.832 230.73C368.832 229.475 367.832 228.458 366.599 228.458C365.366 228.458 364.367 229.475 364.367 230.73Z" fill="#D6BBE1" stroke="#C59FD5" stroke-miterlimit="10"/>
<path d="M30.5662 230.73C30.5662 232.871 32.2711 234.606 34.3743 234.606C36.4774 234.606 38.1824 232.871 38.1824 230.73C38.1824 228.59 36.4774 226.855 34.3743 226.855C32.2711 226.855 30.5662 228.59 30.5662 230.73Z" fill="#C59FD5" stroke="#D6BBE1" stroke-miterlimit="10"/>
<path d="M43.1725 249.173C43.1725 250.133 43.9368 250.911 44.8796 250.911C45.8224 250.911 46.5867 250.133 46.5867 249.173C46.5867 248.214 45.8224 247.436 44.8796 247.436C43.9368 247.436 43.1725 248.214 43.1725 249.173Z" fill="#C59FD5" stroke="#D6BBE1" stroke-miterlimit="10"/>
<path d="M55.3849 272.294C55.3849 273.77 56.5607 274.967 58.0112 274.967C59.4616 274.967 60.6375 273.77 60.6375 272.294C60.6375 270.818 59.4616 269.621 58.0112 269.621C56.5607 269.621 55.3849 270.818 55.3849 272.294Z" fill="#C59FD5" stroke="#D6BBE1" stroke-miterlimit="10"/>
<path d="M102.92 357.16C102.92 359.005 104.39 360.501 106.203 360.501C108.016 360.501 109.486 359.005 109.486 357.16C109.486 355.314 108.016 353.818 106.203 353.818C104.39 353.818 102.92 355.314 102.92 357.16Z" fill="#C59FD5" stroke="#D6BBE1" stroke-miterlimit="10"/>
<path d="M115.395 377.073C115.395 378.254 116.336 379.211 117.496 379.211C118.657 379.211 119.597 378.254 119.597 377.073C119.597 375.892 118.657 374.934 117.496 374.934C116.336 374.934 115.395 375.892 115.395 377.073Z" fill="#C59FD5" stroke="#D6BBE1" stroke-miterlimit="10"/>
<path d="M143.759 423.314C143.759 424.79 144.935 425.987 146.385 425.987C147.836 425.987 149.012 424.79 149.012 423.314C149.012 421.838 147.836 420.641 146.385 420.641C144.935 420.641 143.759 421.838 143.759 423.314Z" fill="#C59FD5" stroke="#D6BBE1" stroke-miterlimit="10"/>
<path d="M227.406 377.073C227.406 378.992 228.935 380.548 230.82 380.548C232.706 380.548 234.235 378.992 234.235 377.073C234.235 375.154 232.706 373.598 230.82 373.598C228.935 373.598 227.406 375.154 227.406 377.073Z" fill="#D6BBE1" stroke="#C59FD5" stroke-miterlimit="10"/>
<path d="M291.75 358.496C291.75 359.825 292.808 360.902 294.114 360.902C295.419 360.902 296.478 359.825 296.478 358.496C296.478 357.167 295.419 356.09 294.114 356.09C292.808 356.09 291.75 357.167 291.75 358.496Z" fill="#D6BBE1" stroke="#C59FD5" stroke-miterlimit="10"/>
<path d="M343.225 193.042C343.225 194.149 344.107 195.047 345.195 195.047C346.283 195.047 347.165 194.149 347.165 193.042C347.165 191.935 346.283 191.038 345.195 191.038C344.107 191.038 343.225 191.935 343.225 193.042Z" fill="#D6BBE1" stroke="#C59FD5" stroke-miterlimit="10"/>
<path d="M300.679 119.002C300.679 120.405 301.797 121.542 303.174 121.542C304.552 121.542 305.669 120.405 305.669 119.002C305.669 117.6 304.552 116.463 303.174 116.463C301.797 116.463 300.679 117.6 300.679 119.002Z" fill="#D6BBE1" stroke="#C59FD5" stroke-miterlimit="10"/>
<path d="M223.598 84.2544C223.598 85.3616 224.48 86.2591 225.568 86.2591C226.656 86.2591 227.538 85.3616 227.538 84.2544C227.538 83.1473 226.656 82.2498 225.568 82.2498C224.48 82.2498 223.598 83.1473 223.598 84.2544Z" fill="#D6BBE1" stroke="#C59FD5" stroke-miterlimit="10"/>
<path d="M102.789 106.44C102.789 107.621 103.73 108.578 104.89 108.578C106.05 108.578 106.991 107.621 106.991 106.44C106.991 105.259 106.05 104.301 104.89 104.301C103.73 104.301 102.789 105.259 102.789 106.44Z" fill="#D6BBE1" stroke="#C59FD5" stroke-miterlimit="10"/>
<path d="M375.66 6.87338C375.66 8.20197 376.718 9.27901 378.024 9.27901C379.329 9.27902 380.387 8.20198 380.387 6.87338C380.387 5.54479 379.329 4.46777 378.024 4.46777C376.718 4.46777 375.66 5.54479 375.66 6.87338Z" fill="#D6BBE1" stroke="#C59FD5" stroke-miterlimit="10"/>
<path d="M300.154 76.9039C300.154 78.6016 301.507 79.9778 303.175 79.9778C304.843 79.9778 306.195 78.6016 306.195 76.9039C306.195 75.2063 304.843 73.8301 303.175 73.8301C301.507 73.8301 300.154 75.2063 300.154 76.9039Z" fill="#D6BBE1" stroke="#C59FD5" stroke-miterlimit="10"/>
<path d="M135.224 501.764L135.224 451.914C135.224 449.509 137.194 447.638 139.426 447.638C141.79 447.638 143.628 449.642 143.628 451.914L143.628 501.764C143.628 504.17 141.658 506.041 139.426 506.041C137.194 506.041 135.224 504.036 135.224 501.764Z" stroke="#C59FD5" stroke-miterlimit="10"/>
<path d="M47.1118 369.455L47.1118 572.463" stroke="#C59FD5" stroke-width="5" stroke-miterlimit="10" stroke-dasharray="1 2"/>
<path d="M363.185 142.658L363.185 -53" stroke="#C59FD5" stroke-miterlimit="10" stroke-linecap="round"/>
<path d="M251.043 242.09L231.608 230.597L251.043 219.103L251.043 242.09ZM251.962 243.828L251.962 217.5L229.507 230.73L251.962 243.828Z" fill="#C59FD5"/>
<path d="M169.365 230.73L149.931 242.224L149.931 219.371L169.365 230.73ZM171.335 230.73L148.88 217.5L148.88 243.828L171.335 230.73Z" fill="#C59FD5"/>
<path d="M211.78 282.184L189.325 282.184L200.618 262.404L211.78 282.184ZM213.487 283.12L200.487 260.266L187.487 283.12L213.487 283.12Z" fill="#C59FD5"/>
<path d="M211.78 179.277L200.487 199.056L189.194 179.277L211.78 179.277ZM213.487 178.208L187.618 178.208L200.618 201.061L213.487 178.208Z" fill="#C59FD5"/>
<path d="M63.5261 179.41L30.5662 157.626" stroke="#C59FD5" stroke-width="5" stroke-miterlimit="10" stroke-dasharray="1 2"/>
<path d="M376.579 230.73L321.296 328.559" stroke="#C59FD5" stroke-width="2" stroke-miterlimit="10"/>
<path d="M373.428 230.73C373.428 232.502 374.839 233.938 376.579 233.938C378.32 233.938 379.731 232.502 379.731 230.73C379.731 228.959 378.32 227.523 376.579 227.523C374.839 227.523 373.428 228.959 373.428 230.73Z" fill="#D6BBE1" stroke="#C59FD5" stroke-miterlimit="10"/>
<path d="M138.375 36.4091L124.062 51.1101L123.931 36.2754L138.244 21.708L138.375 36.4091Z" fill="#C59FD5"/>
<path d="M138.375 9.01172L124.062 23.5791L123.931 15.9613L138.244 1.26025L138.375 9.01172Z" fill="#C59FD5"/>
<path d="M277.174 425.987L291.619 411.42L291.619 426.254L277.306 440.822L277.174 425.987Z" fill="#C59FD5"/>
<path d="M277.174 453.518L291.619 438.951L291.619 446.569L277.306 461.27L277.174 453.518Z" fill="#C59FD5"/>
<path d="M335.215 -29.0771L336.923 -27.3397C339.943 -24.2659 341.519 -20.2565 341.519 -15.9798L341.519 36.6767" stroke="#C59FD5" stroke-miterlimit="10"/>
<path d="M338.367 39.6169C338.367 41.3884 339.778 42.8244 341.518 42.8244C343.259 42.8244 344.67 41.3884 344.67 39.6169C344.67 37.8455 343.259 36.4094 341.518 36.4094C339.778 36.4094 338.367 37.8455 338.367 39.6169Z" stroke="#C59FD5" stroke-miterlimit="10"/>
<path d="M79.1524 476.772C79.1524 486.589 86.9717 494.547 96.6172 494.547C106.263 494.547 114.082 486.589 114.082 476.772C114.082 466.956 106.263 458.998 96.6172 458.998C86.9717 458.998 79.1524 466.956 79.1524 476.772Z" stroke="#C59FD5" stroke-miterlimit="10"/>
</g>
</g>
</svg>
