<svg width="1027" height="448" viewBox="0 0 1027 448" fill="none" xmlns="http://www.w3.org/2000/svg">
<g opacity="0.2">
<path d="M262.278 218.719V179.456C262.278 169.476 266.287 159.759 273.504 152.799L286.601 139.93" stroke="#D6BBE1" stroke-miterlimit="10"/>
<path d="M289.274 141.112C291.267 141.112 292.883 139.525 292.883 137.567C292.883 135.609 291.267 134.021 289.274 134.021C287.282 134.021 285.666 135.609 285.666 137.567C285.666 139.525 287.282 141.112 289.274 141.112Z" stroke="#D6BBE1" stroke-miterlimit="10"/>
<path d="M512.73 384.831V442.478" stroke="#C59FD5" stroke-miterlimit="10"/>
<path d="M512.73 7.82825V52.6064" stroke="#C59FD5" stroke-miterlimit="10"/>
<path d="M512.73 301.053C559.01 301.053 596.526 264.191 596.526 218.719C596.526 173.247 559.01 136.385 512.73 136.385C466.451 136.385 428.934 173.247 428.934 218.719C428.934 264.191 466.451 301.053 512.73 301.053Z" stroke="#C59FD5" stroke-width="1.2418" stroke-miterlimit="10"/>
<path d="M512.73 295.275C555.762 295.275 590.646 261 590.646 218.719C590.646 176.438 555.762 142.163 512.73 142.163C469.699 142.163 434.815 176.438 434.815 218.719C434.815 261 469.699 295.275 512.73 295.275Z" stroke="#C59FD5" stroke-width="6.2089" stroke-miterlimit="10" stroke-dasharray="0.7 1.4"/>
<path d="M290.477 218.719H192.648" stroke="#C59FD5" stroke-width="3" stroke-miterlimit="10"/>
<path d="M820.918 218.719H722.956" stroke="#C59FD5" stroke-width="3" stroke-miterlimit="10"/>
<path d="M299.832 227.911C304.999 227.911 309.188 223.796 309.188 218.719C309.188 213.642 304.999 209.527 299.832 209.527C294.666 209.527 290.477 213.642 290.477 218.719C290.477 223.796 294.666 227.911 299.832 227.911Z" stroke="#C59FD5" stroke-width="3" stroke-miterlimit="10"/>
<path d="M705.047 236.184C714.864 236.184 722.822 228.365 722.822 218.719C722.822 209.074 714.864 201.254 705.047 201.254C695.23 201.254 687.272 209.074 687.272 218.719C687.272 228.365 695.23 236.184 705.047 236.184Z" stroke="#C59FD5" stroke-width="3" stroke-miterlimit="10"/>
<path d="M185.699 225.547C189.537 225.547 192.648 222.49 192.648 218.719C192.648 214.948 189.537 211.891 185.699 211.891C181.86 211.891 178.749 214.948 178.749 218.719C178.749 222.49 181.86 225.547 185.699 225.547Z" stroke="#C59FD5" stroke-width="3" stroke-miterlimit="10"/>
<path d="M826.531 224.234C829.631 224.234 832.144 221.765 832.144 218.719C832.144 215.673 829.631 213.204 826.531 213.204C823.431 213.204 820.918 215.673 820.918 218.719C820.918 221.765 823.431 224.234 826.531 224.234Z" stroke="#C59FD5" stroke-width="3" stroke-miterlimit="10"/>
<path d="M401.002 116.031H339.659C331.774 116.031 324.156 119.051 318.676 124.567L282.325 160.284C276.712 165.799 273.638 173.153 273.638 180.9V218.719" stroke="#C59FD5" stroke-miterlimit="10"/>
<path d="M705.047 236.184V272.952L670.834 306.7C666.691 310.77 660.944 313.134 655.063 313.134H639.026" stroke="#C59FD5" stroke-miterlimit="10"/>
<path d="M692.484 206.375L674.041 188.385H659.073" stroke="#C59FD5" stroke-miterlimit="10"/>
<path d="M705.047 201.254V151.749C705.047 149.516 704.111 147.415 702.641 145.971L683.797 127.456C682.193 125.88 680.055 125.092 677.917 125.092H640.229" stroke="#C59FD5" stroke-miterlimit="10"/>
<path d="M388.573 314.447H372.536C364.383 314.447 356.498 311.295 350.751 305.518L308.386 263.891C302.639 258.244 299.298 250.497 299.298 242.487V227.911" stroke="#C59FD5" stroke-miterlimit="10"/>
<path d="M306.515 212.285L318.142 200.86C322.819 196.264 329.234 193.638 335.917 193.638H366.388" stroke="#C59FD5" stroke-miterlimit="10"/>
<path d="M143.333 258.245V267.568C143.333 272.164 141.462 276.497 138.254 279.649L117.138 300.396" stroke="#D6BBE1" stroke-width="0.75" stroke-miterlimit="10"/>
<path d="M166.721 296.326L186.367 315.498" stroke="#D6BBE1" stroke-width="0.75" stroke-miterlimit="10"/>
<path d="M238.355 218.719H231.673C223.654 218.719 216.036 221.871 210.29 227.386L187.703 249.578C181.957 255.224 174.205 258.376 166.186 258.376H5.54401" stroke="#C59FD5" stroke-width="2" stroke-miterlimit="10"/>
<path d="M253.457 218.719H240.36C222.986 218.719 206.414 211.891 194.118 199.941L170.062 176.304C163.246 169.607 153.891 165.799 144.268 165.799H5.54401" stroke="#C59FD5" stroke-miterlimit="10"/>
<path d="M159.905 122.072L184.095 98.1725" stroke="#C59FD5" stroke-miterlimit="10"/>
<path d="M185.699 211.891V162.254C185.699 152.668 181.823 143.607 175.007 136.91L142.932 105.395C136.116 98.6978 126.761 94.8896 117.138 94.8896H5.54401" stroke="#C59FD5" stroke-miterlimit="10"/>
<path d="M185.699 225.547V264.942C185.699 273.214 182.358 281.093 176.477 286.871L148.011 314.71C142.13 320.487 134.111 323.77 125.692 323.77H5.54401" stroke="#C59FD5" stroke-width="0.75" stroke-miterlimit="10"/>
<path d="M178.749 218.719H143.333L73.4362 287.396H5.54401" stroke="#C59FD5" stroke-miterlimit="10"/>
<path d="M832.01 218.719H854.329C857.136 218.719 859.809 217.669 861.814 215.699L904.313 173.941C910.594 167.769 919.014 164.355 927.701 164.355H1013.9" stroke="#C59FD5" stroke-width="1.5" stroke-miterlimit="10"/>
<path d="M1013.9 83.0714H905.115C896.294 83.0714 887.875 86.4856 881.727 92.6574L836.02 137.567C829.739 143.739 826.264 152.011 826.264 160.547V212.547" stroke="#C59FD5" stroke-miterlimit="10"/>
<path d="M747.413 218.719H752.358C764.92 218.719 776.948 213.86 785.903 205.062L804.212 187.072C810.493 180.9 813.968 172.628 813.968 164.092V122.466L823.724 112.88C830.006 106.708 838.425 103.294 847.112 103.294H1014.04" stroke="#C59FD5" stroke-width="2" stroke-miterlimit="10"/>
<path d="M729.504 218.719C745.943 218.719 761.847 225.153 773.474 236.578L793.922 256.669C800.203 262.841 808.623 266.255 817.31 266.255H898.967C907.788 266.255 916.208 269.669 922.355 275.841L932.913 286.214C939.195 292.386 947.614 295.8 956.301 295.8H1013.64" stroke="#C59FD5" stroke-width="0.5" stroke-miterlimit="10"/>
<path d="M785.234 218.719C796.193 218.719 806.751 223.052 814.503 230.669L906.585 321.144C912.866 327.316 921.286 330.73 929.973 330.73H1013.77" stroke="#C59FD5" stroke-width="1.3" stroke-miterlimit="10"/>
<path d="M858.606 218.719L863.016 223.052C869.298 229.224 877.717 232.638 886.404 232.638H1013.77" stroke="#C59FD5" stroke-miterlimit="10"/>
<path d="M475.042 74.0106L451.253 50.6367C445.106 44.5962 436.686 41.1821 427.865 41.1821H221.65C212.963 41.1821 204.543 37.7679 198.262 31.7274C192.114 25.687 183.694 22.2728 174.873 22.2728H5.54401" stroke="#C59FD5" stroke-miterlimit="10"/>
<path d="M554.294 361.195L567.392 374.064C573.673 380.235 582.093 383.65 590.78 383.65H896.027C904.848 383.65 913.267 380.235 919.415 374.064L935.052 358.7C941.333 352.528 949.753 349.114 958.44 349.114H1013.64" stroke="#C59FD5" stroke-miterlimit="10" stroke-linecap="round"/>
<path d="M32.9413 135.991H100.967C103.373 135.991 105.377 134.021 105.377 131.658C105.377 129.294 103.373 127.324 100.967 127.324H32.9413C30.5357 127.324 28.531 129.294 28.531 131.658C28.6647 134.021 30.5357 135.991 32.9413 135.991Z" stroke="#C59FD5" stroke-miterlimit="10"/>
<path d="M659.073 301.71V135.728L512.73 52.7378L366.655 135.597C366.388 135.728 366.254 135.991 366.254 136.254V301.972L512.597 384.963L659.073 301.71Z" stroke="#C59FD5" stroke-width="2" stroke-miterlimit="10"/>
<path d="M642.501 292.386V145.052L512.597 71.3844L383.094 144.92C382.96 145.052 382.827 145.183 382.827 145.446V292.386L512.73 366.053L642.501 292.386Z" stroke="#C59FD5" stroke-width="2" stroke-miterlimit="10" stroke-linecap="round"/>
<path d="M636.62 288.972V148.466L512.73 78.2128L389.108 148.335C388.974 148.466 388.841 148.597 388.841 148.86V289.103L512.73 359.356L636.62 288.972Z" stroke="#C59FD5" stroke-width="2.0359" stroke-miterlimit="10"/>
<path d="M512.73 447.206C514.059 447.206 515.136 446.147 515.136 444.842C515.136 443.537 514.059 442.478 512.73 442.478C511.402 442.478 510.325 443.537 510.325 444.842C510.325 446.147 511.402 447.206 512.73 447.206Z" stroke="#C59FD5" stroke-miterlimit="10"/>
<path d="M512.73 7.82834C514.649 7.82834 516.205 6.29977 516.205 4.41418C516.205 2.52858 514.649 1 512.73 1C510.811 1 509.255 2.52858 509.255 4.41418C509.255 6.29977 510.811 7.82834 512.73 7.82834Z" stroke="#C59FD5" stroke-miterlimit="10"/>
<path d="M512.73 54.8389C513.985 54.8389 515.002 53.8395 515.002 52.6066C515.002 51.3737 513.985 50.3743 512.73 50.3743C511.476 50.3743 510.458 51.3737 510.458 52.6066C510.458 53.8395 511.476 54.8389 512.73 54.8389Z" fill="#D6BBE1" stroke="#C59FD5" stroke-miterlimit="10"/>
<path d="M512.73 388.64C514.871 388.64 516.606 386.935 516.606 384.832C516.606 382.728 514.871 381.023 512.73 381.023C510.59 381.023 508.855 382.728 508.855 384.832C508.855 386.935 510.59 388.64 512.73 388.64Z" fill="#C59FD5" stroke="#D6BBE1" stroke-miterlimit="10"/>
<path d="M531.174 376.033C532.133 376.033 532.911 375.269 532.911 374.326C532.911 373.383 532.133 372.619 531.174 372.619C530.214 372.619 529.436 373.383 529.436 374.326C529.436 375.269 530.214 376.033 531.174 376.033Z" fill="#C59FD5" stroke="#D6BBE1" stroke-miterlimit="10"/>
<path d="M554.294 363.821C555.771 363.821 556.967 362.645 556.967 361.195C556.967 359.744 555.771 358.568 554.294 358.568C552.818 358.568 551.621 359.744 551.621 361.195C551.621 362.645 552.818 363.821 554.294 363.821Z" fill="#C59FD5" stroke="#D6BBE1" stroke-miterlimit="10"/>
<path d="M639.159 316.285C641.005 316.285 642.501 314.816 642.501 313.003C642.501 311.19 641.005 309.72 639.159 309.72C637.314 309.72 635.818 311.19 635.818 313.003C635.818 314.816 637.314 316.285 639.159 316.285Z" fill="#C59FD5" stroke="#D6BBE1" stroke-miterlimit="10"/>
<path d="M659.073 303.811C660.254 303.811 661.211 302.87 661.211 301.71C661.211 300.549 660.254 299.609 659.073 299.609C657.892 299.609 656.934 300.549 656.934 301.71C656.934 302.87 657.892 303.811 659.073 303.811Z" fill="#C59FD5" stroke="#D6BBE1" stroke-miterlimit="10"/>
<path d="M705.314 275.447C706.79 275.447 707.987 274.271 707.987 272.82C707.987 271.37 706.79 270.194 705.314 270.194C703.838 270.194 702.641 271.37 702.641 272.82C702.641 274.271 703.838 275.447 705.314 275.447Z" fill="#C59FD5" stroke="#D6BBE1" stroke-miterlimit="10"/>
<path d="M659.073 191.8C660.992 191.8 662.548 190.271 662.548 188.385C662.548 186.5 660.992 184.971 659.073 184.971C657.154 184.971 655.598 186.5 655.598 188.385C655.598 190.271 657.154 191.8 659.073 191.8Z" fill="#D6BBE1" stroke="#C59FD5" stroke-miterlimit="10"/>
<path d="M640.496 127.456C641.824 127.456 642.901 126.397 642.901 125.092C642.901 123.787 641.824 122.728 640.496 122.728C639.167 122.728 638.09 123.787 638.09 125.092C638.09 126.397 639.167 127.456 640.496 127.456Z" fill="#D6BBE1" stroke="#C59FD5" stroke-miterlimit="10"/>
<path d="M475.042 75.9804C476.149 75.9804 477.047 75.0986 477.047 74.0107C477.047 72.9229 476.149 72.041 475.042 72.041C473.935 72.041 473.038 72.9229 473.038 74.0107C473.038 75.0986 473.935 75.9804 475.042 75.9804Z" fill="#D6BBE1" stroke="#C59FD5" stroke-miterlimit="10"/>
<path d="M401.002 118.526C402.405 118.526 403.542 117.409 403.542 116.031C403.542 114.653 402.405 113.536 401.002 113.536C399.6 113.536 398.463 114.653 398.463 116.031C398.463 117.409 399.6 118.526 401.002 118.526Z" fill="#D6BBE1" stroke="#C59FD5" stroke-miterlimit="10"/>
<path d="M366.254 195.608C367.362 195.608 368.259 194.726 368.259 193.638C368.259 192.55 367.362 191.668 366.254 191.668C365.147 191.668 364.25 192.55 364.25 193.638C364.25 194.726 365.147 195.608 366.254 195.608Z" fill="#D6BBE1" stroke="#C59FD5" stroke-miterlimit="10"/>
<path d="M388.44 316.417C389.621 316.417 390.578 315.476 390.578 314.316C390.578 313.155 389.621 312.215 388.44 312.215C387.259 312.215 386.301 313.155 386.301 314.316C386.301 315.476 387.259 316.417 388.44 316.417Z" fill="#D6BBE1" stroke="#C59FD5" stroke-miterlimit="10"/>
<path d="M850.721 269.8C852.714 269.8 854.329 268.213 854.329 266.255C854.329 264.297 852.714 262.709 850.721 262.709C848.728 262.709 847.113 264.297 847.113 266.255C847.113 268.213 848.728 269.8 850.721 269.8Z" fill="#D6BBE1" stroke="#C59FD5" stroke-miterlimit="10"/>
<path d="M858.606 220.951C859.861 220.951 860.878 219.952 860.878 218.719C860.878 217.486 859.861 216.487 858.606 216.487C857.351 216.487 856.334 217.486 856.334 218.719C856.334 219.952 857.351 220.951 858.606 220.951Z" fill="#D6BBE1" stroke="#C59FD5" stroke-miterlimit="10"/>
<path d="M813.835 180.506C815.458 180.506 816.775 179.213 816.775 177.618C816.775 176.022 815.458 174.729 813.835 174.729C812.211 174.729 810.894 176.022 810.894 177.618C810.894 179.213 812.211 180.506 813.835 180.506Z" fill="#D6BBE1" stroke="#C59FD5" stroke-miterlimit="10"/>
<path d="M813.835 124.961C815.237 124.961 816.374 123.844 816.374 122.466C816.374 121.088 815.237 119.971 813.835 119.971C812.432 119.971 811.295 121.088 811.295 122.466C811.295 123.844 812.432 124.961 813.835 124.961Z" fill="#D6BBE1" stroke="#C59FD5" stroke-miterlimit="10"/>
<path d="M73.4362 291.205C75.5767 291.205 77.3119 289.5 77.3119 287.396C77.3119 285.293 75.5767 283.588 73.4362 283.588C71.2957 283.588 69.5604 285.293 69.5604 287.396C69.5604 289.5 71.2957 291.205 73.4362 291.205Z" fill="#D6BBE1" stroke="#C59FD5" stroke-miterlimit="10"/>
<path d="M143.333 221.608C144.957 221.608 146.273 220.315 146.273 218.719C146.273 217.124 144.957 215.83 143.333 215.83C141.709 215.83 140.393 217.124 140.393 218.719C140.393 220.315 141.709 221.608 143.333 221.608Z" fill="#D6BBE1" stroke="#C59FD5" stroke-miterlimit="10"/>
<path d="M238.222 44.5963C240.141 44.5963 241.696 43.0677 241.696 41.1821C241.696 39.2965 240.141 37.7679 238.222 37.7679C236.302 37.7679 234.747 39.2965 234.747 41.1821C234.747 43.0677 236.302 44.5963 238.222 44.5963Z" fill="#D6BBE1" stroke="#C59FD5" stroke-miterlimit="10"/>
<path d="M288.873 43.5458C290.202 43.5458 291.279 42.4876 291.279 41.1821C291.279 39.8767 290.202 38.8185 288.873 38.8185C287.545 38.8185 286.468 39.8767 286.468 41.1821C286.468 42.4876 287.545 43.5458 288.873 43.5458Z" fill="#D6BBE1" stroke="#C59FD5" stroke-miterlimit="10"/>
<path d="M358.904 119.051C360.601 119.051 361.978 117.699 361.978 116.031C361.978 114.363 360.601 113.011 358.904 113.011C357.206 113.011 355.83 114.363 355.83 116.031C355.83 117.699 357.206 119.051 358.904 119.051Z" fill="#D6BBE1" stroke="#C59FD5" stroke-miterlimit="10"/>
<path d="M973.675 127.456H914.47C911.663 127.456 909.258 125.092 909.258 122.334C909.258 119.577 911.663 117.213 914.47 117.213H973.675C976.482 117.213 978.887 119.577 978.887 122.334C978.887 125.092 976.482 127.456 973.675 127.456Z" stroke="#C59FD5" stroke-miterlimit="10"/>
<path d="M783.764 283.982H733.914C731.509 283.982 729.638 282.012 729.638 279.78C729.638 277.416 731.642 275.578 733.914 275.578H783.764C786.17 275.578 788.041 277.548 788.041 279.78C788.041 282.012 786.036 283.982 783.764 283.982Z" stroke="#C59FD5" stroke-miterlimit="10"/>
<path d="M651.455 372.094H854.463" stroke="#C59FD5" stroke-width="5" stroke-miterlimit="10" stroke-dasharray="1 2"/>
<path d="M895.893 243.8H1027" stroke="#C59FD5" stroke-width="2" stroke-miterlimit="10" stroke-linecap="round"/>
<path d="M1 175.123H134.78" stroke="#C59FD5" stroke-width="2" stroke-miterlimit="10" stroke-linecap="round"/>
<path d="M424.658 56.0208H229" stroke="#C59FD5" stroke-miterlimit="10" stroke-linecap="round"/>
<path d="M524.09 168.163L512.597 187.598L501.103 168.163H524.09ZM525.828 167.244H499.499L512.73 189.699L525.828 167.244Z" fill="#C59FD5"/>
<path d="M512.73 249.841L524.224 269.275H501.37L512.73 249.841ZM512.73 247.871L499.499 270.326H525.828L512.73 247.871Z" fill="#C59FD5"/>
<path d="M564.184 207.426V229.881L544.404 218.588L564.184 207.426ZM565.12 205.719L542.266 218.719L565.12 231.719V205.719Z" fill="#C59FD5"/>
<path d="M461.277 207.426L481.056 218.719L461.277 230.012V207.426ZM460.207 205.719V231.588L483.061 218.588L460.207 205.719Z" fill="#C59FD5"/>
<path d="M461.41 355.68L439.626 388.64" stroke="#C59FD5" stroke-width="5" stroke-miterlimit="10" stroke-dasharray="1 2"/>
<path d="M512.73 42.6266L610.559 97.9099" stroke="#C59FD5" stroke-width="2" stroke-miterlimit="10"/>
<path d="M512.73 45.7781C514.502 45.7781 515.938 44.3671 515.938 42.6265C515.938 40.886 514.502 39.475 512.73 39.475C510.959 39.475 509.523 40.886 509.523 42.6265C509.523 44.3671 510.959 45.7781 512.73 45.7781Z" fill="#D6BBE1" stroke="#C59FD5" stroke-miterlimit="10"/>
<path d="M166.053 22.1415L140.927 46.8285C134.646 53.0003 126.093 56.4145 117.272 56.4145H11.5581" stroke="#C59FD5" stroke-miterlimit="10"/>
<path d="M166.053 25.0306C167.677 25.0306 168.993 23.7372 168.993 22.1417C168.993 20.5462 167.677 19.2528 166.053 19.2528C164.429 19.2528 163.113 20.5462 163.113 22.1417C163.113 23.7372 164.429 25.0306 166.053 25.0306Z" fill="#D6BBE1" stroke="#C59FD5" stroke-miterlimit="10"/>
<path d="M104.977 25.687C106.969 25.687 108.585 24.0997 108.585 22.1416C108.585 20.1834 106.969 18.5961 104.977 18.5961C102.984 18.5961 101.368 20.1834 101.368 22.1416C101.368 24.0997 102.984 25.687 104.977 25.687Z" fill="#C59FD5"/>
<path d="M104.977 19.9091C106.313 19.9091 107.249 20.9596 107.249 22.1415C107.249 23.4546 106.179 24.3738 104.977 24.3738C103.64 24.3738 102.705 23.3233 102.705 22.1415C102.571 20.8283 103.64 19.9091 104.977 19.9091ZM104.977 17.2828C102.17 17.2828 100.032 19.5152 100.032 22.1415C100.032 24.8991 102.304 27.0001 104.977 27.0001C107.783 27.0001 109.921 24.7678 109.921 22.1415C109.921 19.3839 107.649 17.2828 104.977 17.2828Z" fill="#D6BBE1"/>
<path d="M159.905 125.486C161.824 125.486 163.38 123.957 163.38 122.072C163.38 120.186 161.824 118.657 159.905 118.657C157.986 118.657 156.43 120.186 156.43 122.072C156.43 123.957 157.986 125.486 159.905 125.486Z" fill="#C59FD5" stroke="#D6BBE1" stroke-width="2" stroke-miterlimit="10"/>
<path d="M184.095 101.849C182.09 101.849 180.353 100.273 180.353 98.1724C180.353 96.0714 181.957 94.4956 184.095 94.4956C186.233 94.4956 187.837 96.0714 187.837 98.1724C187.837 100.273 186.1 101.849 184.095 101.849Z" fill="#C59FD5"/>
<path d="M184.095 95.9401C185.431 95.9401 186.501 96.9906 186.501 98.3038C186.501 99.6169 185.431 100.667 184.095 100.667C182.759 100.667 181.689 99.6169 181.689 98.3038C181.689 96.9906 182.759 95.9401 184.095 95.9401ZM184.095 93.3138C181.288 93.3138 179.016 95.5462 179.016 98.3038C179.016 101.061 181.288 103.294 184.095 103.294C186.902 103.294 189.174 101.061 189.174 98.3038C189.04 95.5462 186.902 93.3138 184.095 93.3138Z" fill="#D6BBE1"/>
<path d="M980.09 177.355H937.858L946.412 168.688H988.644L980.09 177.355Z" fill="#C59FD5"/>
<path d="M99.6306 249.709H57.3985L65.8182 240.911H108.184L99.6306 249.709Z" fill="#C59FD5"/>
<path d="M318.409 280.831L333.11 295.144L318.275 295.275L303.708 280.962L318.409 280.831Z" fill="#C59FD5"/>
<path d="M291.012 280.831L305.579 295.144L297.961 295.275L283.26 280.962L291.012 280.831Z" fill="#C59FD5"/>
<path d="M264.416 280.831L278.984 295.144L274.039 295.275L259.471 280.962L264.416 280.831Z" fill="#C59FD5"/>
<path d="M229.936 280.831L244.503 295.144L242.632 295.275L228.064 280.962L229.936 280.831Z" fill="#C59FD5"/>
<path d="M707.987 142.031L693.42 127.587H708.254L722.822 141.9L707.987 142.031Z" fill="#C59FD5"/>
<path d="M735.518 142.032L720.951 127.587H728.569L743.27 141.9L735.518 142.032Z" fill="#C59FD5"/>
<path d="M762.114 142.032L747.546 127.587H752.491L767.059 141.9L762.114 142.032Z" fill="#C59FD5"/>
<path d="M796.594 142.032L782.027 127.587H783.898L798.465 141.9L796.594 142.032Z" fill="#C59FD5"/>
<path d="M903.377 270.982H864.754L870.1 276.497H908.723L903.377 270.982Z" fill="#C59FD5"/>
<path d="M115.668 303.942C116.849 303.942 117.807 303.001 117.807 301.841C117.807 300.68 116.849 299.74 115.668 299.74C114.487 299.74 113.53 300.68 113.53 301.841C113.53 303.001 114.487 303.942 115.668 303.942Z" stroke="#D6BBE1" stroke-width="0.75" stroke-miterlimit="10"/>
<path d="M188.104 319.306C189.359 319.306 190.376 318.306 190.376 317.073C190.376 315.84 189.359 314.841 188.104 314.841C186.85 314.841 185.832 315.84 185.832 317.073C185.832 318.306 186.85 319.306 188.104 319.306Z" stroke="#D6BBE1" stroke-width="0.75" stroke-miterlimit="10"/>
<path d="M232.876 140.718C250.738 140.718 265.218 126.491 265.218 108.94C265.218 91.3896 250.738 77.1621 232.876 77.1621C215.014 77.1621 200.533 91.3896 200.533 108.94C200.533 126.491 215.014 140.718 232.876 140.718Z" stroke="#C59FD5" stroke-miterlimit="10"/>
<path d="M232.876 140.849V163.829" stroke="#C59FD5" stroke-miterlimit="10"/>
<path d="M252.923 83.9904L254.66 82.2834C257.734 79.2631 261.743 77.6874 266.02 77.6874H318.676" stroke="#C59FD5" stroke-miterlimit="10"/>
<path d="M321.617 80.839C323.388 80.839 324.824 79.428 324.824 77.6874C324.824 75.9469 323.388 74.5359 321.617 74.5359C319.845 74.5359 318.409 75.9469 318.409 77.6874C318.409 79.428 319.845 80.839 321.617 80.839Z" stroke="#C59FD5" stroke-miterlimit="10"/>
<path d="M232.876 169.607C234.5 169.607 235.816 168.314 235.816 166.718C235.816 165.123 234.5 163.83 232.876 163.83C231.252 163.83 229.936 165.123 229.936 166.718C229.936 168.314 231.252 169.607 232.876 169.607Z" stroke="#C59FD5" stroke-miterlimit="10"/>
<path d="M758.772 340.053C768.589 340.053 776.547 332.234 776.547 322.589C776.547 312.943 768.589 305.124 758.772 305.124C748.956 305.124 740.998 312.943 740.998 322.589C740.998 332.234 748.956 340.053 758.772 340.053Z" stroke="#C59FD5" stroke-miterlimit="10"/>
<path d="M758.773 334.013C765.194 334.013 770.4 328.898 770.4 322.588C770.4 316.279 765.194 311.164 758.773 311.164C752.351 311.164 747.145 316.279 747.145 322.588C747.145 328.898 752.351 334.013 758.773 334.013Z" fill="#D6BBE1"/>
<path d="M776.681 322.588H796.193C802.608 322.588 808.756 320.093 813.3 315.629C817.844 311.164 823.992 308.669 830.407 308.669H858.339" stroke="#C59FD5" stroke-miterlimit="10"/>
<path d="M776.681 325.215C778.157 325.215 779.354 324.039 779.354 322.588C779.354 321.138 778.157 319.962 776.681 319.962C775.205 319.962 774.008 321.138 774.008 322.588C774.008 324.039 775.205 325.215 776.681 325.215Z" fill="#D6BBE1" stroke="#C59FD5" stroke-miterlimit="10"/>
<path d="M863.016 313.265C865.6 313.265 867.694 311.207 867.694 308.669C867.694 306.131 865.6 304.073 863.016 304.073C860.433 304.073 858.339 306.131 858.339 308.669C858.339 311.207 860.433 313.265 863.016 313.265Z" fill="#D6BBE1" stroke="#C59FD5" stroke-miterlimit="10"/>
</g>
</svg>
