<svg width="396" height="1303" viewBox="0 0 396 1303" fill="none" xmlns="http://www.w3.org/2000/svg">
<path d="M395.71 0.988646C395.71 1.15036 395.672 1.35253 395.558 1.51424C395.179 2.20154 394.762 2.92924 394.345 3.61653C394.08 4.10168 393.474 4.22298 393.057 3.93998C392.602 3.65698 392.489 3.01006 392.754 2.56534C393.133 1.87804 393.55 1.19081 393.929 0.503518C394.194 0.0183706 394.762 -0.143405 395.217 0.139598C395.558 0.301314 395.71 0.665214 395.71 0.988646Z" fill="white" fill-opacity="0.2"/>
<path d="M392.072 7.13403C392.072 7.33618 392.034 7.53845 391.921 7.70019C391.087 9.0343 390.177 10.4088 389.306 11.7025C389.003 12.1473 388.396 12.2687 387.98 11.9452C387.563 11.6217 387.449 10.9748 387.752 10.5301C388.624 9.23644 389.495 7.90222 390.329 6.60851C390.632 6.16381 391.201 6.04247 391.655 6.32543C391.921 6.48718 392.072 6.81066 392.072 7.13403ZM386.729 14.9369C386.729 15.139 386.653 15.3816 386.54 15.5433C385.592 16.7966 384.645 18.0903 383.66 19.3436C383.319 19.7883 382.713 19.8287 382.334 19.465C381.917 19.1011 381.879 18.4542 382.22 18.0499C383.167 16.837 384.153 15.5837 385.062 14.3304C385.403 13.8857 385.971 13.8049 386.388 14.1688C386.616 14.371 386.729 14.6539 386.729 14.9369ZM380.894 22.3757C380.894 22.6184 380.818 22.861 380.666 23.0631C379.643 24.276 378.62 25.4484 377.559 26.6208C377.18 27.0251 376.612 27.0251 376.233 26.6612C375.854 26.257 375.854 25.6505 376.195 25.2463C377.256 24.0738 378.279 22.9014 379.264 21.729C379.605 21.3247 380.212 21.2843 380.591 21.6482C380.78 21.8098 380.894 22.0928 380.894 22.3757ZM374.566 29.37C374.566 29.6531 374.452 29.8956 374.263 30.0978C373.164 31.2297 372.065 32.3214 370.928 33.4534C370.549 33.8173 369.943 33.8173 369.602 33.3726C369.261 32.9683 369.261 32.3214 369.678 31.9575C370.776 30.866 371.913 29.7743 372.974 28.6422C373.353 28.238 373.959 28.2784 374.3 28.6827C374.49 28.8445 374.566 29.087 374.566 29.37ZM367.859 35.8791C367.859 36.1621 367.745 36.4451 367.518 36.6472C366.381 37.6984 365.206 38.7495 363.994 39.7602C363.577 40.1241 362.971 40.0433 362.667 39.5985C362.326 39.1538 362.402 38.5474 362.819 38.1836C363.994 37.1728 365.168 36.1621 366.305 35.111C366.684 34.7471 367.29 34.7875 367.631 35.2322C367.783 35.3939 367.859 35.6366 367.859 35.8791ZM360.811 41.9435C360.811 42.2668 360.697 42.5499 360.432 42.7521C359.219 43.7223 358.007 44.6926 356.756 45.6224C356.339 45.9459 355.733 45.8246 355.43 45.3799C355.127 44.9352 355.24 44.2883 355.657 43.965C356.87 43.035 358.082 42.0647 359.295 41.0944C359.712 40.771 360.318 40.8518 360.621 41.2965C360.735 41.4987 360.811 41.7413 360.811 41.9435ZM353.459 47.5631C353.459 47.8865 353.308 48.21 353.043 48.4121C351.792 49.3015 350.542 50.2313 349.253 51.0803C348.799 51.3634 348.23 51.2421 347.927 50.7974C347.662 50.3123 347.776 49.7058 348.192 49.3823C349.443 48.4929 350.731 47.6035 351.944 46.7141C352.361 46.3906 352.967 46.512 353.27 46.9971C353.422 47.1992 353.459 47.361 353.459 47.5631ZM345.843 52.8188C345.843 53.1422 345.691 53.5061 345.388 53.6678C344.1 54.5168 342.812 55.3254 341.485 56.1744C341.031 56.4574 340.462 56.2958 340.197 55.8107C339.932 55.3254 340.083 54.719 340.538 54.436C341.826 53.6274 343.153 52.7784 344.403 51.9698C344.858 51.6869 345.426 51.8081 345.691 52.2932C345.805 52.455 345.843 52.6571 345.843 52.8188ZM337.999 57.7108C337.999 58.0746 337.81 58.3981 337.507 58.6002C336.218 59.3683 334.854 60.1769 333.49 60.9451C333.035 61.228 332.467 61.0259 332.202 60.5408C331.936 60.0557 332.126 59.4491 332.581 59.1661C333.907 58.3979 335.271 57.6299 336.559 56.8617C337.014 56.5787 337.582 56.7809 337.848 57.266C337.961 57.3873 337.999 57.5491 337.999 57.7108ZM330.004 62.2793C330.004 62.6431 329.814 63.007 329.473 63.1687C328.147 63.8964 326.783 64.624 325.419 65.3518C324.964 65.5944 324.396 65.3923 324.168 64.9071C323.941 64.422 324.131 63.8155 324.585 63.573C325.949 62.8452 327.313 62.1174 328.64 61.3898C329.094 61.1472 329.663 61.3494 329.928 61.8345C329.966 61.9558 330.004 62.1175 330.004 62.2793ZM321.857 66.5647C321.857 66.9285 321.667 67.2924 321.326 67.4945C319.962 68.1819 318.598 68.8691 317.196 69.5565C316.704 69.7991 316.173 69.5564 315.946 69.0713C315.718 68.5456 315.946 67.9797 316.4 67.7372C317.802 67.0499 319.167 66.3625 320.493 65.6753C320.948 65.4326 321.516 65.6348 321.743 66.1604C321.819 66.2412 321.857 66.4029 321.857 66.5647ZM313.596 70.6075C313.596 71.0118 313.369 71.3757 313.028 71.5375C311.626 72.1843 310.262 72.8312 308.86 73.478C308.367 73.6802 307.837 73.478 307.609 72.9525C307.42 72.4269 307.609 71.8608 308.102 71.6183C309.504 70.9714 310.868 70.3246 312.27 69.6777C312.763 69.4351 313.293 69.6777 313.521 70.2032C313.558 70.3246 313.596 70.4458 313.596 70.6075ZM305.26 74.4484C305.26 74.8527 305.033 75.2164 304.692 75.3782C303.29 75.9846 301.888 76.6316 300.485 77.2379C299.993 77.4401 299.462 77.1975 299.235 76.6719C299.046 76.1464 299.273 75.5803 299.766 75.3378C301.168 74.7313 302.57 74.1249 303.934 73.478C304.426 73.2759 304.957 73.5186 305.184 74.0037C305.222 74.1654 305.26 74.2866 305.26 74.4484ZM296.848 78.0869C296.848 78.4912 296.62 78.8551 296.242 79.0168C294.839 79.6233 293.437 80.2296 292.035 80.7957C291.543 80.9978 291.012 80.7552 290.823 80.2297C290.633 79.7041 290.861 79.1381 291.353 78.9359C292.755 78.3296 294.157 77.7634 295.559 77.157C296.052 76.9548 296.583 77.1975 296.81 77.7231C296.848 77.8444 296.848 77.9656 296.848 78.0869ZM288.436 81.6446C288.436 82.0489 288.208 82.4128 287.829 82.5746C286.427 83.1406 285.025 83.7471 283.585 84.313C283.093 84.5151 282.562 84.2322 282.373 83.7469C282.183 83.2214 282.411 82.6554 282.903 82.4532C284.305 81.8872 285.707 81.2808 287.109 80.7148C287.602 80.5127 288.132 80.7552 288.322 81.2809C288.436 81.4021 288.436 81.5234 288.436 81.6446ZM279.986 85.1216C279.986 85.5259 279.758 85.9302 279.379 86.0514C277.977 86.6174 276.537 87.1835 275.135 87.7495C274.643 87.9517 274.112 87.6687 273.923 87.1431C273.733 86.6175 273.999 86.0514 274.491 85.8492C275.893 85.2832 277.333 84.7173 278.735 84.1512C279.228 83.9491 279.758 84.2322 279.948 84.7173C279.948 84.879 279.986 85.0004 279.986 85.1216ZM272.028 598.044L272.028 598.287C272.028 598.853 271.611 599.297 271.081 599.297C270.55 599.297 270.134 598.853 270.134 598.287L270.134 598.044C270.134 596.548 270.133 595.012 270.096 593.475C270.096 592.909 270.512 592.465 271.005 592.424C271.536 592.424 271.952 592.869 271.99 593.395C272.028 594.971 272.028 596.508 272.028 598.044ZM271.952 603.138C271.914 604.796 271.839 606.413 271.763 608.03C271.725 608.596 271.27 609 270.778 609C270.247 608.96 269.868 608.515 269.868 607.949C269.944 606.372 270.02 604.755 270.058 603.138C270.058 602.572 270.512 602.127 271.043 602.168C271.573 602.127 271.952 602.572 271.952 603.138ZM271.801 588.584C271.801 589.109 271.422 589.554 270.891 589.594C270.361 589.635 269.906 589.19 269.906 588.624C269.83 587.047 269.755 585.43 269.641 583.813C269.603 583.247 269.982 582.762 270.512 582.721C271.043 582.681 271.498 583.085 271.536 583.651C271.649 585.268 271.763 586.926 271.839 588.503C271.801 588.584 271.801 588.584 271.801 588.584ZM271.498 88.5176C271.498 88.9219 271.27 89.3262 270.891 89.4475L266.647 91.1455C266.155 91.3477 265.624 91.0647 265.435 90.5391C265.245 90.0135 265.511 89.4475 266.003 89.2454L270.247 87.5474C270.74 87.3452 271.27 87.6282 271.46 88.1538C271.498 88.275 271.498 88.3964 271.498 88.5176ZM271.46 612.801C271.46 612.841 271.46 612.841 271.46 612.881C271.346 614.499 271.157 616.116 271.005 617.733C270.929 618.299 270.475 618.703 269.944 618.622C269.414 618.541 269.035 618.056 269.11 617.49C269.3 615.914 269.451 614.296 269.565 612.72C269.603 612.154 270.058 611.749 270.588 611.79C271.081 611.83 271.46 612.275 271.46 612.801ZM271.119 578.921C271.119 579.447 270.74 579.891 270.247 579.932C269.717 579.972 269.262 579.568 269.224 579.042C269.073 577.466 268.921 575.848 268.731 574.231C268.656 573.665 269.035 573.18 269.565 573.099C270.096 573.018 270.55 573.423 270.626 573.989C270.816 575.606 270.967 577.223 271.119 578.84C271.119 578.881 271.119 578.921 271.119 578.921ZM270.399 622.423C270.399 622.463 270.399 622.503 270.399 622.584C270.171 624.201 269.906 625.819 269.641 627.395C269.565 627.961 269.035 628.325 268.542 628.204C268.012 628.123 267.67 627.557 267.784 627.032C268.049 625.455 268.315 623.878 268.542 622.261C268.618 621.695 269.11 621.331 269.603 621.412C270.058 621.493 270.399 621.897 270.399 622.423ZM270.058 569.339C270.058 569.825 269.717 570.269 269.262 570.35C268.731 570.431 268.277 570.027 268.201 569.501C267.974 567.924 267.746 566.307 267.519 564.73C267.443 564.164 267.784 563.679 268.315 563.558C268.845 563.477 269.3 563.841 269.414 564.407C269.679 566.024 269.906 567.641 270.096 569.218C270.02 569.218 270.058 569.259 270.058 569.339ZM268.731 631.964C268.731 632.045 268.731 632.126 268.694 632.166C268.353 633.743 268.012 635.36 267.633 636.937C267.519 637.462 266.988 637.786 266.496 637.664C266.003 637.543 265.7 636.977 265.814 636.451C266.193 634.915 266.534 633.338 266.837 631.762C266.951 631.236 267.443 630.872 267.974 630.994C268.428 631.074 268.731 631.479 268.731 631.964ZM268.58 559.758C268.58 560.243 268.277 560.647 267.822 560.768C267.292 560.89 266.799 560.526 266.723 559.96C266.458 558.383 266.155 556.806 265.852 555.23C265.738 554.664 266.079 554.138 266.572 554.017C267.102 553.896 267.595 554.259 267.708 554.785C268.012 556.362 268.315 557.979 268.58 559.556C268.542 559.636 268.58 559.717 268.58 559.758ZM266.723 550.257C266.723 550.702 266.42 551.146 265.965 551.227C265.473 551.349 264.942 551.025 264.829 550.459C264.487 548.923 264.146 547.306 263.805 545.769C263.692 545.244 263.995 544.678 264.487 544.556C264.98 544.435 265.511 544.759 265.624 545.284C265.965 546.861 266.344 548.438 266.647 550.014C266.723 550.136 266.723 550.216 266.723 550.257ZM266.496 641.343C266.496 641.424 266.496 641.546 266.458 641.626C266.041 643.203 265.586 644.739 265.094 646.276C264.942 646.801 264.412 647.084 263.881 646.923C263.389 646.761 263.123 646.154 263.275 645.629C263.73 644.133 264.184 642.597 264.601 641.02C264.753 640.494 265.283 640.171 265.776 640.333C266.231 640.494 266.496 640.899 266.496 641.343ZM264.601 540.877C264.601 541.322 264.336 541.726 263.881 541.848C263.389 542.009 262.858 541.686 262.707 541.12C262.328 539.584 261.911 538.007 261.532 536.471C261.38 535.945 261.683 535.379 262.176 535.217C262.669 535.056 263.199 535.379 263.351 535.905C263.768 537.481 264.146 539.058 264.563 540.594C264.563 540.675 264.601 540.797 264.601 540.877ZM263.654 650.561C263.654 650.682 263.616 650.804 263.578 650.925C263.048 652.461 262.479 653.957 261.911 655.453C261.721 655.979 261.153 656.221 260.66 655.979C260.168 655.776 259.94 655.17 260.168 654.645C260.736 653.189 261.304 651.693 261.835 650.197C262.024 649.672 262.555 649.389 263.048 649.591C263.426 649.753 263.654 650.116 263.654 650.561ZM263.01 91.9136C263.01 92.3179 262.782 92.7222 262.403 92.8435C261.001 93.4095 259.561 93.9755 258.159 94.5415C257.667 94.7436 257.136 94.4607 256.947 93.9351C256.757 93.4094 257.023 92.8435 257.515 92.6414C258.917 92.0753 260.357 91.5094 261.759 90.9434C262.252 90.7412 262.782 91.0242 262.972 91.5498C263.01 91.671 263.01 91.7924 263.01 91.9136ZM262.138 531.538C262.138 531.983 261.873 532.387 261.456 532.509C260.963 532.67 260.433 532.347 260.281 531.821C259.865 530.285 259.41 528.749 258.955 527.212C258.804 526.687 259.069 526.121 259.561 525.959C260.054 525.797 260.585 526.08 260.736 526.606C261.191 528.142 261.646 529.719 262.062 531.255C262.138 531.336 262.138 531.457 262.138 531.538ZM260.168 659.456C260.168 659.617 260.13 659.739 260.092 659.86C259.448 661.315 258.804 662.811 258.122 664.226C257.894 664.711 257.326 664.913 256.833 664.671C256.378 664.428 256.189 663.822 256.416 663.296C257.098 661.881 257.743 660.426 258.387 658.97C258.614 658.445 259.183 658.243 259.637 658.485C259.978 658.728 260.168 659.092 260.168 659.456ZM259.41 522.28C259.41 522.684 259.145 523.089 258.766 523.25C258.273 523.412 257.743 523.129 257.553 522.603C257.098 521.108 256.606 519.571 256.113 518.035C255.924 517.509 256.189 516.943 256.682 516.741C257.174 516.539 257.705 516.822 257.894 517.348C258.387 518.884 258.879 520.42 259.372 521.957C259.41 522.078 259.41 522.199 259.41 522.28ZM256.416 513.143C256.416 513.547 256.189 513.952 255.81 514.073C255.317 514.275 254.787 513.992 254.597 513.467C254.105 511.971 253.574 510.434 253.006 508.939C252.817 508.413 253.082 507.847 253.574 507.645C254.067 507.443 254.597 507.726 254.787 508.251C255.317 509.787 255.848 511.283 256.378 512.82C256.416 512.901 256.416 513.022 256.416 513.143ZM256.075 668.107C256.075 668.269 256.037 668.431 255.962 668.593C255.242 670.008 254.446 671.423 253.65 672.797C253.385 673.282 252.779 673.444 252.362 673.121C251.907 672.838 251.756 672.191 252.059 671.746C252.817 670.371 253.612 668.997 254.332 667.582C254.598 667.097 255.166 666.935 255.621 667.177C255.886 667.42 256.075 667.743 256.075 668.107ZM254.522 95.3501C254.522 95.7544 254.294 96.1587 253.915 96.2799C252.513 96.8459 251.073 97.412 249.671 98.0184C249.179 98.2206 248.648 97.978 248.459 97.4525C248.269 96.9269 248.497 96.3608 248.989 96.1587C250.391 95.5926 251.831 94.9863 253.233 94.4203C253.726 94.2181 254.256 94.5011 254.446 94.9862C254.522 95.1075 254.522 95.2288 254.522 95.3501ZM253.195 504.087C253.195 504.491 252.968 504.855 252.589 505.017C252.097 505.219 251.566 504.976 251.377 504.451C250.846 502.955 250.278 501.459 249.671 499.963C249.482 499.438 249.709 498.872 250.202 498.629C250.695 498.427 251.225 498.67 251.452 499.195C252.021 500.691 252.589 502.227 253.158 503.683C253.195 503.844 253.195 503.966 253.195 504.087ZM251.377 676.395C251.377 676.597 251.339 676.8 251.225 676.961C250.391 678.295 249.52 679.67 248.648 680.964C248.345 681.409 247.739 681.53 247.322 681.206C246.905 680.883 246.792 680.236 247.095 679.791C247.966 678.498 248.838 677.163 249.634 675.829C249.937 675.344 250.505 675.223 250.96 675.546C251.225 675.708 251.377 676.031 251.377 676.395ZM249.785 495.112C249.785 495.516 249.558 495.88 249.217 496.042C248.724 496.244 248.194 496.001 247.966 495.516C247.398 494.061 246.792 492.565 246.185 491.069C245.958 490.543 246.185 489.977 246.678 489.735C247.171 489.492 247.701 489.735 247.928 490.26C248.535 491.756 249.141 493.252 249.747 494.707C249.747 494.869 249.785 494.99 249.785 495.112ZM246.147 486.258C246.147 486.662 245.958 487.026 245.579 487.188C245.086 487.43 244.556 487.188 244.329 486.703C243.722 485.247 243.078 483.751 242.434 482.296C242.207 481.77 242.434 481.204 242.889 480.962C243.381 480.719 243.912 480.962 244.139 481.447C244.783 482.902 245.427 484.398 246.034 485.854C246.11 485.975 246.147 486.096 246.147 486.258ZM246.072 684.239C246.072 684.441 245.996 684.683 245.882 684.845C244.973 686.139 243.988 687.392 243.002 688.645C242.661 689.09 242.055 689.13 241.676 688.767C241.259 688.403 241.221 687.756 241.562 687.352C242.51 686.139 243.457 684.845 244.366 683.592C244.67 683.147 245.276 683.066 245.693 683.43C245.958 683.632 246.072 683.956 246.072 684.239ZM246.072 98.827C246.072 99.2313 245.844 99.5952 245.465 99.7568C244.063 100.323 242.661 100.929 241.259 101.536C240.767 101.738 240.236 101.495 240.047 100.97C239.857 100.444 240.085 99.8782 240.577 99.676C241.979 99.0696 243.381 98.5035 244.821 97.8971C245.314 97.6949 245.844 97.9376 246.034 98.4631C246.034 98.5845 246.072 98.7057 246.072 98.827ZM242.282 477.444C242.282 477.808 242.093 478.172 241.752 478.374C241.297 478.617 240.729 478.415 240.501 477.889C239.857 476.434 239.175 474.978 238.531 473.523C238.304 473.038 238.493 472.431 238.948 472.189C239.403 471.946 239.971 472.148 240.198 472.633C240.88 474.089 241.524 475.544 242.169 477C242.282 477.161 242.282 477.323 242.282 477.444ZM240.274 691.677C240.274 691.92 240.198 692.163 240.047 692.365C239.024 693.578 238 694.75 236.94 695.922C236.561 696.327 235.992 696.327 235.613 695.963C235.234 695.559 235.234 694.952 235.575 694.548C236.598 693.375 237.659 692.203 238.645 691.031C238.986 690.626 239.592 690.586 239.971 690.95C240.16 691.152 240.274 691.394 240.274 691.677ZM238.266 468.752C238.266 469.116 238.076 469.48 237.735 469.642C237.281 469.884 236.712 469.682 236.447 469.197C235.765 467.782 235.083 466.326 234.363 464.911C234.135 464.426 234.287 463.82 234.78 463.537C235.234 463.294 235.803 463.456 236.068 463.981C236.75 465.437 237.47 466.852 238.152 468.307C238.266 468.469 238.266 468.631 238.266 468.752ZM237.622 102.385C237.622 102.789 237.394 103.153 237.015 103.315C235.613 103.921 234.211 104.528 232.809 105.134C232.317 105.336 231.786 105.094 231.559 104.568C231.369 104.042 231.597 103.476 232.089 103.234C233.491 102.627 234.893 102.021 236.295 101.414C236.788 101.212 237.318 101.455 237.546 101.98C237.584 102.142 237.622 102.264 237.622 102.385ZM234.098 460.181C234.098 460.545 233.908 460.909 233.605 461.071C233.15 461.313 232.582 461.151 232.317 460.666C231.597 459.251 230.877 457.836 230.157 456.421C229.891 455.936 230.081 455.33 230.536 455.047C230.99 454.764 231.559 454.966 231.824 455.451C232.544 456.866 233.264 458.281 233.984 459.736C234.06 459.858 234.098 460.019 234.098 460.181ZM233.984 698.672C233.984 698.955 233.87 699.197 233.681 699.399C232.582 700.531 231.483 701.663 230.346 702.755C229.967 703.119 229.361 703.119 229.02 702.674C228.679 702.27 228.679 701.623 229.096 701.259C230.195 700.168 231.331 699.076 232.392 697.984C232.771 697.58 233.378 697.621 233.719 697.984C233.908 698.146 233.984 698.429 233.984 698.672ZM229.778 451.651C229.778 452.014 229.588 452.338 229.285 452.54C228.83 452.823 228.262 452.621 227.997 452.136C227.277 450.721 226.519 449.306 225.761 447.931C225.496 447.446 225.647 446.84 226.102 446.557C226.557 446.274 227.125 446.435 227.391 446.92C228.148 448.335 228.868 449.75 229.626 451.166C229.74 451.327 229.778 451.489 229.778 451.651ZM229.209 106.064C229.209 106.468 228.982 106.832 228.641 106.994C227.239 107.6 225.875 108.247 224.473 108.894C223.98 109.096 223.45 108.894 223.222 108.368C223.033 107.843 223.222 107.277 223.715 107.034C225.117 106.387 226.519 105.781 227.921 105.134C228.414 104.932 228.944 105.174 229.171 105.659C229.209 105.781 229.209 105.943 229.209 106.064ZM227.277 705.181C227.277 705.464 227.163 705.747 226.936 705.949C225.799 707 224.586 708.051 223.412 709.062C222.995 709.426 222.389 709.345 222.086 708.9C221.745 708.456 221.82 707.809 222.237 707.485C223.412 706.474 224.586 705.464 225.723 704.413C226.14 704.049 226.708 704.089 227.05 704.534C227.201 704.736 227.277 704.938 227.277 705.181ZM225.269 443.241C225.269 443.605 225.117 443.929 224.814 444.131C224.359 444.414 223.791 444.252 223.525 443.767C222.768 442.392 222.01 440.977 221.214 439.603C220.949 439.118 221.1 438.511 221.555 438.228C222.01 437.945 222.578 438.107 222.843 438.592C223.601 439.967 224.397 441.382 225.155 442.797C225.231 442.878 225.269 443.08 225.269 443.241ZM220.873 109.864C220.873 110.268 220.646 110.632 220.305 110.794C218.94 111.441 217.538 112.088 216.174 112.775C215.682 113.018 215.151 112.775 214.924 112.29C214.696 111.764 214.924 111.198 215.379 110.956C216.743 110.268 218.145 109.622 219.547 108.975C220.039 108.732 220.57 108.975 220.797 109.5C220.835 109.621 220.873 109.743 220.873 109.864ZM220.646 434.913C220.646 435.237 220.494 435.6 220.191 435.762C219.736 436.045 219.168 435.883 218.903 435.439C218.107 434.064 217.349 432.689 216.553 431.315C216.288 430.83 216.402 430.223 216.856 429.94C217.311 429.657 217.879 429.779 218.145 430.264C218.94 431.638 219.736 433.013 220.532 434.387C220.608 434.549 220.646 434.711 220.646 434.913ZM220.191 711.245C220.191 711.569 220.077 711.852 219.812 712.054C218.599 713.024 217.349 713.994 216.136 714.924C215.72 715.248 215.113 715.126 214.81 714.682C214.507 714.237 214.621 713.59 215.038 713.267C216.25 712.337 217.501 711.366 218.675 710.437C219.092 710.113 219.698 710.194 220.001 710.639C220.115 710.8 220.191 711.043 220.191 711.245ZM215.871 426.666C215.871 426.989 215.72 427.312 215.416 427.515C214.962 427.798 214.393 427.676 214.128 427.191C213.332 425.817 212.499 424.442 211.703 423.108C211.438 422.623 211.551 422.016 212.006 421.693C212.461 421.41 213.029 421.531 213.332 422.016C214.166 423.391 214.962 424.765 215.795 426.14C215.833 426.302 215.871 426.463 215.871 426.666ZM212.764 716.824C212.764 717.148 212.612 717.471 212.347 717.673C211.097 718.563 209.808 719.452 208.52 720.301C208.065 720.584 207.497 720.463 207.232 719.978C206.966 719.493 207.08 718.886 207.535 718.603C208.823 717.754 210.074 716.865 211.324 715.975C211.741 715.652 212.347 715.773 212.65 716.258C212.726 716.46 212.764 716.622 212.764 716.824ZM212.612 113.907C212.612 114.271 212.423 114.635 212.082 114.837C210.718 115.524 209.354 116.252 208.027 116.939C207.573 117.182 207.004 116.98 206.739 116.495C206.512 116.009 206.701 115.403 207.156 115.12C208.482 114.392 209.884 113.705 211.248 113.018C211.703 112.775 212.271 112.977 212.499 113.503C212.574 113.584 212.612 113.745 212.612 113.907ZM210.945 418.458C210.945 418.782 210.794 419.105 210.528 419.307C210.074 419.631 209.505 419.469 209.202 419.024C208.368 417.69 207.535 416.316 206.701 414.982C206.398 414.496 206.512 413.89 206.966 413.567C207.421 413.243 207.989 413.364 208.293 413.85C209.126 415.184 209.96 416.558 210.794 417.933C210.907 418.095 210.945 418.297 210.945 418.458ZM205.905 410.373C205.905 410.696 205.754 411.02 205.489 411.222C205.072 411.545 204.465 411.424 204.162 410.939C203.329 409.604 202.457 408.27 201.586 406.936C201.282 406.492 201.396 405.845 201.813 405.521C202.23 405.198 202.836 405.319 203.139 405.764C204.011 407.098 204.844 408.432 205.716 409.766C205.867 409.968 205.905 410.171 205.905 410.373ZM205.11 721.999C205.11 722.363 204.958 722.686 204.655 722.889C203.367 723.697 202.04 724.506 200.714 725.314C200.259 725.597 199.691 725.395 199.426 724.91C199.161 724.425 199.35 723.818 199.805 723.535C201.131 722.767 202.419 721.959 203.708 721.15C204.162 720.867 204.731 721.029 204.996 721.514C205.072 721.635 205.11 721.797 205.11 721.999ZM204.465 118.193C204.465 118.556 204.276 118.92 203.973 119.082C202.647 119.85 201.282 120.618 199.994 121.386C199.539 121.669 198.971 121.467 198.706 120.982C198.441 120.497 198.63 119.891 199.085 119.607C200.411 118.839 201.737 118.071 203.101 117.303C203.556 117.06 204.124 117.222 204.39 117.748C204.428 117.869 204.465 118.031 204.465 118.193ZM200.752 402.368C200.752 402.691 200.6 403.015 200.335 403.217C199.918 403.54 199.312 403.419 199.009 402.974C198.137 401.64 197.266 400.346 196.394 399.012C196.091 398.567 196.205 397.921 196.622 397.597C197.038 397.274 197.645 397.395 197.948 397.84C198.819 399.174 199.691 400.508 200.563 401.802C200.714 401.963 200.752 402.166 200.752 402.368ZM197.19 726.689C197.19 727.053 197.001 727.417 196.697 727.578C195.371 728.346 194.007 729.074 192.643 729.802C192.188 730.045 191.62 729.842 191.355 729.357C191.127 728.872 191.317 728.266 191.771 727.983C193.136 727.255 194.462 726.527 195.788 725.799C196.243 725.557 196.811 725.719 197.076 726.204C197.152 726.406 197.19 726.568 197.19 726.689ZM196.546 122.882C196.546 123.246 196.394 123.569 196.091 123.772C194.803 124.58 193.477 125.429 192.226 126.238C191.771 126.521 191.203 126.4 190.938 125.914C190.672 125.429 190.786 124.823 191.241 124.54C192.529 123.691 193.818 122.842 195.144 122.033C195.599 121.75 196.167 121.912 196.432 122.397C196.508 122.559 196.546 122.721 196.546 122.882ZM195.485 394.444C195.485 394.767 195.333 395.05 195.106 395.252C194.689 395.576 194.083 395.495 193.78 395.01C192.908 393.716 191.999 392.382 191.127 391.088C190.824 390.643 190.9 389.996 191.317 389.673C191.734 389.35 192.34 389.43 192.643 389.875C193.552 391.169 194.424 392.503 195.333 393.797C195.447 394.039 195.485 394.242 195.485 394.444ZM190.104 386.6C190.104 386.924 189.99 387.207 189.725 387.409C189.308 387.732 188.702 387.652 188.399 387.207C187.49 385.913 186.58 384.619 185.671 383.326C185.368 382.881 185.443 382.234 185.86 381.911C186.277 381.587 186.883 381.668 187.186 382.113C188.096 383.406 189.005 384.7 189.915 385.994C190.066 386.196 190.104 386.398 190.104 386.6ZM189.043 731.055C189.043 731.419 188.854 731.783 188.513 731.985C187.868 732.309 187.224 732.632 186.542 732.955C185.822 733.319 185.102 733.683 184.382 734.007C183.89 734.249 183.359 734.007 183.132 733.521C182.905 732.996 183.132 732.43 183.587 732.187C184.307 731.823 185.027 731.46 185.747 731.096C186.391 730.772 187.035 730.449 187.679 730.125C188.134 729.883 188.702 730.085 188.929 730.611C189.043 730.732 189.043 730.894 189.043 731.055ZM188.816 127.976C188.816 128.3 188.664 128.623 188.399 128.825C187.148 129.715 185.86 130.604 184.648 131.494C184.231 131.817 183.624 131.696 183.321 131.251C183.018 130.806 183.132 130.159 183.549 129.836C184.799 128.906 186.05 128.017 187.338 127.127C187.793 126.804 188.361 126.966 188.664 127.41C188.778 127.612 188.816 127.815 188.816 127.976ZM184.685 378.838C184.685 379.162 184.534 379.445 184.307 379.647C183.89 379.97 183.283 379.889 182.98 379.445C182.071 378.151 181.199 376.817 180.29 375.523C179.987 375.078 180.1 374.431 180.517 374.108C180.934 373.784 181.54 373.906 181.844 374.35C182.715 375.644 183.624 376.978 184.496 378.272C184.61 378.434 184.685 378.636 184.685 378.838ZM181.351 133.515C181.351 133.838 181.199 134.121 180.972 134.324C179.759 135.294 178.547 136.264 177.372 137.234C176.955 137.598 176.349 137.518 176.046 137.073C175.705 136.628 175.781 135.981 176.198 135.658C177.372 134.647 178.623 133.677 179.835 132.707C180.252 132.383 180.858 132.464 181.161 132.909C181.313 133.07 181.351 133.313 181.351 133.515ZM180.82 735.139C180.82 735.502 180.631 735.866 180.29 736.068C178.926 736.756 177.562 737.484 176.198 738.171C175.743 738.413 175.174 738.211 174.947 737.726C174.72 737.241 174.909 736.634 175.364 736.392C176.728 735.664 178.092 734.977 179.456 734.29C179.911 734.047 180.479 734.249 180.707 734.775C180.82 734.856 180.82 735.017 180.82 735.139ZM179.381 370.995C179.381 371.318 179.229 371.642 178.964 371.844C178.547 372.167 177.941 372.046 177.637 371.601C176.766 370.267 175.894 368.933 175.061 367.599C174.758 367.154 174.871 366.507 175.326 366.184C175.781 365.86 176.349 365.982 176.652 366.467C177.486 367.801 178.357 369.135 179.229 370.429C179.305 370.591 179.381 370.793 179.381 370.995ZM174.265 362.95C174.265 363.273 174.113 363.596 173.848 363.798C173.393 364.122 172.825 363.96 172.522 363.515C171.688 362.181 170.855 360.807 170.059 359.432C169.794 358.947 169.907 358.341 170.362 358.017C170.817 357.734 171.385 357.855 171.688 358.341C172.484 359.675 173.318 361.049 174.151 362.383C174.227 362.586 174.265 362.747 174.265 362.95ZM174.227 139.458C174.227 139.741 174.113 140.024 173.886 140.226C172.711 141.237 171.575 142.329 170.476 143.38C170.097 143.744 169.49 143.703 169.149 143.299C168.808 142.895 168.846 142.248 169.225 141.884C170.362 140.833 171.499 139.741 172.673 138.69C173.09 138.326 173.659 138.407 174 138.811C174.151 139.013 174.227 139.256 174.227 139.458ZM172.674 739.424C172.674 739.788 172.484 740.152 172.143 740.313C170.779 741.041 169.453 741.769 168.126 742.537C167.672 742.78 167.103 742.618 166.838 742.092C166.611 741.607 166.762 741.001 167.255 740.718C168.581 739.99 169.945 739.222 171.309 738.494C171.764 738.252 172.332 738.454 172.598 738.939C172.674 739.101 172.674 739.262 172.674 739.424ZM169.377 354.783C169.377 355.106 169.225 355.47 168.922 355.632C168.467 355.915 167.899 355.794 167.634 355.308C166.838 353.934 166.042 352.519 165.247 351.144C164.981 350.659 165.133 350.053 165.588 349.77C166.042 349.487 166.611 349.648 166.876 350.134C167.634 351.508 168.43 352.883 169.225 354.257C169.339 354.419 169.377 354.621 169.377 354.783ZM167.444 145.886C167.444 146.169 167.331 146.412 167.141 146.614C166.042 147.706 164.981 148.838 163.92 149.97C163.541 150.374 162.973 150.374 162.594 149.97C162.215 149.565 162.215 148.959 162.594 148.555C163.655 147.423 164.754 146.25 165.853 145.118C166.232 144.714 166.838 144.754 167.179 145.159C167.331 145.401 167.444 145.644 167.444 145.886ZM164.716 346.495C164.716 346.859 164.564 347.182 164.261 347.384C163.807 347.667 163.238 347.506 162.973 347.02C162.215 345.646 161.457 344.19 160.699 342.816C160.434 342.331 160.586 341.724 161.078 341.441C161.533 341.158 162.101 341.32 162.367 341.846C163.087 343.261 163.844 344.635 164.602 346.05C164.678 346.131 164.716 346.333 164.716 346.495ZM164.64 743.912C164.64 744.276 164.451 744.639 164.148 744.801C162.821 745.569 161.495 746.337 160.169 747.106C159.714 747.389 159.146 747.186 158.881 746.701C158.615 746.216 158.805 745.61 159.26 745.327C160.586 744.559 161.912 743.75 163.238 742.982C163.693 742.699 164.261 742.901 164.527 743.386C164.602 743.588 164.64 743.75 164.64 743.912ZM161.078 152.8C161.078 153.042 161.003 153.285 160.813 153.487C159.79 154.659 158.805 155.872 157.857 157.085C157.516 157.53 156.91 157.57 156.531 157.206C156.114 156.843 156.076 156.196 156.418 155.791C157.403 154.578 158.426 153.325 159.449 152.112C159.79 151.708 160.396 151.668 160.775 152.032C160.965 152.274 161.078 152.557 161.078 152.8ZM160.245 338.045C160.245 338.409 160.055 338.732 159.752 338.935C159.297 339.218 158.729 339.016 158.464 338.53C157.744 337.115 157.024 335.66 156.304 334.245C156.077 333.76 156.228 333.153 156.721 332.87C157.175 332.628 157.744 332.789 158.009 333.315C158.691 334.73 159.411 336.186 160.169 337.601C160.207 337.722 160.245 337.883 160.245 338.045ZM156.721 748.642C156.721 749.006 156.531 749.329 156.228 749.531C154.902 750.34 153.614 751.148 152.325 751.957C151.87 752.24 151.302 752.078 151.037 751.593C150.772 751.108 150.923 750.502 151.378 750.219C152.666 749.41 153.992 748.561 155.319 747.752C155.773 747.469 156.342 747.631 156.607 748.116C156.683 748.278 156.721 748.44 156.721 748.642ZM156.001 329.434C156.001 329.798 155.811 330.162 155.47 330.323C155.015 330.566 154.447 330.364 154.182 329.879C153.5 328.423 152.818 326.968 152.136 325.512C151.908 325.027 152.098 324.421 152.59 324.178C153.045 323.935 153.613 324.138 153.841 324.663C154.485 326.119 155.167 327.574 155.849 328.989C156.001 329.151 156.001 329.313 156.001 329.434ZM155.205 160.198C155.205 160.4 155.129 160.643 155.015 160.805C154.106 162.058 153.197 163.352 152.325 164.645C152.022 165.09 151.416 165.211 150.999 164.888C150.582 164.564 150.468 163.918 150.772 163.473C151.643 162.179 152.59 160.845 153.5 159.551C153.841 159.107 154.409 159.026 154.826 159.39C155.091 159.592 155.205 159.915 155.205 160.198ZM152.022 320.701C152.022 321.065 151.833 321.429 151.491 321.631C150.999 321.874 150.468 321.631 150.241 321.146C149.597 319.69 148.953 318.195 148.346 316.699C148.119 316.173 148.346 315.607 148.839 315.365C149.332 315.122 149.862 315.365 150.089 315.89C150.696 317.346 151.34 318.841 151.984 320.297C152.022 320.418 152.022 320.58 152.022 320.701ZM149.938 168.082C149.938 168.284 149.9 168.486 149.786 168.648C148.953 169.982 148.157 171.357 147.399 172.691C147.134 173.176 146.565 173.338 146.111 173.055C145.656 172.772 145.504 172.165 145.77 171.68C146.565 170.305 147.361 168.89 148.195 167.556C148.498 167.071 149.066 166.95 149.521 167.273C149.786 167.435 149.938 167.758 149.938 168.082ZM148.915 753.574C148.915 753.898 148.763 754.261 148.46 754.423C147.172 755.272 145.883 756.121 144.633 756.97C144.178 757.253 143.61 757.132 143.307 756.647C143.041 756.162 143.155 755.555 143.61 755.232C144.86 754.383 146.187 753.493 147.475 752.644C147.93 752.361 148.498 752.483 148.763 752.968C148.877 753.21 148.915 753.372 148.915 753.574ZM148.346 311.847C148.346 312.252 148.119 312.615 147.778 312.777C147.285 312.979 146.755 312.737 146.528 312.252C145.921 310.756 145.353 309.26 144.784 307.764C144.595 307.238 144.822 306.672 145.315 306.43C145.808 306.228 146.338 306.47 146.565 306.996C147.134 308.492 147.702 309.987 148.308 311.443C148.308 311.605 148.346 311.726 148.346 311.847ZM145.239 176.37C145.239 176.531 145.201 176.693 145.126 176.855C144.406 178.27 143.723 179.685 143.041 181.1C142.814 181.585 142.246 181.787 141.791 181.545C141.336 181.302 141.109 180.696 141.374 180.211C142.056 178.755 142.738 177.3 143.496 175.885C143.761 175.4 144.33 175.197 144.784 175.48C145.05 175.642 145.239 176.006 145.239 176.37ZM144.936 302.872C144.936 303.276 144.709 303.681 144.33 303.802C143.837 304.004 143.307 303.762 143.117 303.236C142.587 301.7 142.018 300.204 141.526 298.667C141.336 298.142 141.601 297.576 142.094 297.374C142.587 297.172 143.117 297.455 143.307 297.98C143.799 299.476 144.33 301.012 144.898 302.508C144.898 302.629 144.936 302.751 144.936 302.872ZM141.829 293.776C141.829 294.18 141.564 294.584 141.185 294.746C140.692 294.908 140.162 294.625 139.972 294.099C139.479 292.563 138.987 291.026 138.532 289.49C138.381 288.964 138.646 288.398 139.138 288.237C139.631 288.075 140.162 288.358 140.313 288.884C140.768 290.38 141.223 291.956 141.715 293.452C141.829 293.573 141.829 293.654 141.829 293.776ZM141.26 758.79C141.26 759.113 141.109 759.436 140.844 759.639C139.593 760.528 138.343 761.458 137.092 762.347C136.675 762.671 136.069 762.549 135.766 762.105C135.463 761.66 135.577 761.013 135.993 760.69C137.244 759.76 138.494 758.87 139.783 757.981C140.199 757.658 140.806 757.779 141.109 758.264C141.223 758.385 141.26 758.587 141.26 758.79ZM141.26 185.062C141.26 185.183 141.223 185.345 141.185 185.466C140.578 186.922 140.01 188.418 139.479 189.913C139.29 190.439 138.722 190.682 138.267 190.479C137.774 190.277 137.547 189.671 137.736 189.186C138.305 187.69 138.873 186.154 139.479 184.658C139.707 184.132 140.237 183.93 140.73 184.132C141.033 184.294 141.26 184.658 141.26 185.062ZM139.101 284.558C139.101 285.002 138.835 285.407 138.419 285.528C137.926 285.69 137.395 285.366 137.244 284.841C136.827 283.264 136.41 281.687 135.993 280.151C135.842 279.625 136.145 279.059 136.675 278.898C137.168 278.736 137.699 279.059 137.85 279.625C138.229 281.162 138.646 282.698 139.063 284.275C139.063 284.356 139.101 284.436 139.101 284.558ZM137.964 194.078C137.964 194.199 137.964 194.28 137.926 194.401C137.433 195.897 136.979 197.433 136.562 198.97C136.41 199.495 135.88 199.818 135.387 199.657C134.894 199.495 134.591 198.929 134.743 198.404C135.16 196.827 135.652 195.291 136.145 193.754C136.297 193.229 136.865 192.946 137.357 193.107C137.699 193.269 137.964 193.633 137.964 194.078ZM136.713 275.219C136.713 275.663 136.41 276.068 135.993 276.189C135.501 276.31 134.97 275.987 134.857 275.461C134.478 273.884 134.137 272.308 133.833 270.731C133.72 270.205 134.061 269.639 134.553 269.518C135.046 269.397 135.577 269.761 135.69 270.286C135.993 271.823 136.334 273.399 136.713 274.976C136.713 275.057 136.713 275.138 136.713 275.219ZM135.387 203.376C135.387 203.457 135.387 203.538 135.349 203.619C134.97 205.155 134.629 206.732 134.326 208.309C134.212 208.875 133.72 209.198 133.189 209.077C132.659 208.956 132.356 208.43 132.469 207.864C132.772 206.287 133.114 204.67 133.492 203.093C133.606 202.568 134.137 202.204 134.629 202.366C135.084 202.487 135.387 202.932 135.387 203.376ZM134.781 265.758C134.781 266.243 134.478 266.648 134.023 266.769C133.492 266.89 133 266.526 132.924 265.96C132.621 264.343 132.356 262.766 132.128 261.19C132.053 260.624 132.394 260.139 132.924 260.017C133.455 259.936 133.909 260.3 134.023 260.866C134.25 262.443 134.516 264.02 134.819 265.597C134.781 265.637 134.781 265.718 134.781 265.758ZM133.796 764.288C133.796 764.611 133.644 764.894 133.417 765.096C132.204 766.026 130.954 766.997 129.779 767.967C129.362 768.29 128.756 768.209 128.453 767.765C128.15 767.32 128.225 766.673 128.642 766.35C129.855 765.379 131.067 764.409 132.318 763.479C132.735 763.156 133.341 763.237 133.644 763.722C133.758 763.884 133.796 764.086 133.796 764.288ZM133.53 212.837C133.53 212.877 133.53 212.958 133.53 212.998C133.303 214.575 133.076 216.152 132.886 217.769C132.81 218.335 132.356 218.699 131.825 218.658C131.295 218.618 130.954 218.093 130.992 217.526C131.181 215.909 131.408 214.292 131.674 212.715C131.749 212.149 132.242 211.786 132.772 211.866C133.189 211.947 133.53 212.352 133.53 212.837ZM133.303 256.217C133.303 256.702 132.962 257.147 132.469 257.228C131.939 257.309 131.484 256.904 131.408 256.379C131.181 254.761 131.029 253.144 130.84 251.568C130.764 251.002 131.143 250.516 131.674 250.436C132.204 250.395 132.659 250.759 132.735 251.325C132.886 252.902 133.076 254.519 133.303 256.096C133.303 256.136 133.303 256.177 133.303 256.217ZM132.356 222.459C132.356 222.499 132.356 222.499 132.356 222.54C132.242 224.116 132.128 225.734 132.053 227.351C132.015 227.917 131.56 228.321 131.067 228.321C130.537 228.281 130.158 227.795 130.158 227.27C130.234 225.653 130.347 223.995 130.499 222.418C130.537 221.852 130.992 221.448 131.522 221.489C132.015 221.489 132.356 221.933 132.356 222.459ZM132.318 246.635C132.318 247.161 131.939 247.606 131.446 247.646C130.916 247.687 130.461 247.282 130.423 246.716C130.309 245.099 130.196 243.482 130.12 241.865C130.082 241.299 130.499 240.813 131.029 240.813C131.56 240.773 132.015 241.218 132.015 241.784C132.09 243.361 132.166 244.978 132.318 246.595C132.318 246.554 132.318 246.595 132.318 246.635ZM131.901 232.121C131.863 233.739 131.863 235.356 131.901 236.932C131.901 237.498 131.484 237.943 130.954 237.943C130.423 237.943 130.006 237.498 130.006 236.932C129.968 235.315 129.968 233.698 130.006 232.041C130.006 231.474 130.461 231.03 130.954 231.03C131.484 231.111 131.901 231.555 131.901 232.121ZM126.558 770.11C126.558 770.393 126.444 770.716 126.179 770.918C125.005 771.929 123.83 772.94 122.655 773.95C122.238 774.314 121.67 774.233 121.329 773.829C120.988 773.384 121.064 772.778 121.443 772.414C122.617 771.403 123.792 770.352 125.005 769.341C125.421 768.978 126.028 769.059 126.331 769.503C126.482 769.705 126.558 769.908 126.558 770.11ZM122.769 1125.72C122.769 1126.81 122.769 1127.95 122.731 1129.04C122.731 1129.6 122.276 1130.05 121.784 1130.05C121.253 1130.05 120.874 1129.56 120.836 1129.04C120.874 1127.42 120.874 1125.84 120.836 1124.23C120.836 1123.66 121.253 1123.22 121.784 1123.22C122.314 1123.22 122.731 1123.66 122.731 1124.23C122.769 1124.67 122.769 1125.2 122.769 1125.72ZM122.693 1119.34C122.693 1119.9 122.276 1120.35 121.784 1120.35C121.253 1120.35 120.836 1119.9 120.798 1119.38C120.761 1117.8 120.723 1116.14 120.647 1114.52C120.609 1113.96 121.026 1113.51 121.556 1113.47C122.087 1113.43 122.504 1113.88 122.542 1114.44C122.579 1116.06 122.655 1117.72 122.693 1119.34ZM122.617 1133.85C122.617 1133.89 122.617 1133.89 122.617 1133.85C122.579 1135.51 122.504 1137.16 122.428 1138.74C122.39 1139.31 121.935 1139.71 121.443 1139.71C120.912 1139.67 120.533 1139.19 120.533 1138.66C120.609 1137.08 120.685 1135.47 120.723 1133.85C120.723 1133.28 121.177 1132.84 121.708 1132.88C122.238 1132.88 122.617 1133.32 122.617 1133.85ZM122.276 1109.63C122.276 1110.16 121.897 1110.6 121.405 1110.64C120.874 1110.68 120.42 1110.24 120.42 1109.71C120.344 1108.14 120.23 1106.48 120.116 1104.9C120.079 1104.34 120.457 1103.85 120.988 1103.81C121.518 1103.77 121.973 1104.17 122.011 1104.74C122.125 1106.36 122.238 1107.97 122.314 1109.59C122.276 1109.59 122.276 1109.63 122.276 1109.63ZM122.125 1143.55C122.125 1143.59 122.125 1143.59 122.125 1143.63C122.011 1145.25 121.859 1146.91 121.708 1148.48C121.67 1149.05 121.177 1149.45 120.685 1149.37C120.154 1149.33 119.775 1148.81 119.851 1148.28C120.003 1146.71 120.154 1145.09 120.268 1143.47C120.306 1142.91 120.761 1142.5 121.291 1142.54C121.746 1142.58 122.125 1143.03 122.125 1143.55ZM121.594 1099.97C121.594 1100.5 121.215 1100.94 120.723 1100.98C120.192 1101.02 119.737 1100.62 119.7 1100.05C119.548 1098.47 119.396 1096.86 119.245 1095.24C119.169 1094.67 119.548 1094.19 120.079 1094.11C120.609 1094.07 121.064 1094.43 121.14 1095C121.291 1096.61 121.443 1098.23 121.594 1099.85C121.594 1099.89 121.594 1099.93 121.594 1099.97ZM121.215 1153.21C121.215 1153.26 121.215 1153.3 121.215 1153.34C121.026 1154.95 120.798 1156.57 120.571 1158.15C120.495 1158.71 120.003 1159.08 119.51 1159C118.98 1158.92 118.639 1158.39 118.714 1157.86C118.942 1156.29 119.131 1154.67 119.321 1153.09C119.396 1152.53 119.851 1152.16 120.382 1152.2C120.836 1152.28 121.215 1152.69 121.215 1153.21ZM120.609 1090.31C120.609 1090.79 120.268 1091.24 119.775 1091.32C119.245 1091.4 118.79 1090.99 118.714 1090.43C118.525 1088.85 118.335 1087.23 118.108 1085.62C118.032 1085.05 118.411 1084.57 118.904 1084.49C119.434 1084.4 119.889 1084.81 119.965 1085.33C120.154 1086.95 120.382 1088.57 120.571 1090.15C120.609 1090.23 120.609 1090.27 120.609 1090.31ZM119.813 1162.8C119.813 1162.84 119.813 1162.92 119.813 1162.96C119.548 1164.58 119.245 1166.15 118.942 1167.73C118.828 1168.29 118.335 1168.62 117.805 1168.5C117.274 1168.38 116.971 1167.85 117.085 1167.28C117.388 1165.71 117.691 1164.13 117.957 1162.55C118.032 1161.99 118.525 1161.62 119.055 1161.75C119.51 1161.91 119.813 1162.31 119.813 1162.8ZM119.548 776.295C119.548 776.578 119.434 776.861 119.207 777.063C118.07 778.115 116.933 779.206 115.835 780.257C115.456 780.621 114.849 780.621 114.508 780.177C114.167 779.772 114.167 779.125 114.584 778.761C115.683 777.67 116.82 776.578 117.994 775.527C118.373 775.163 118.98 775.204 119.321 775.608C119.472 775.81 119.548 776.053 119.548 776.295ZM119.359 1080.69C119.359 1081.17 119.018 1081.61 118.563 1081.7C118.032 1081.78 117.578 1081.41 117.502 1080.85C117.274 1079.27 117.047 1077.65 116.782 1076.08C116.706 1075.51 117.047 1075.02 117.578 1074.9C118.108 1074.82 118.563 1075.19 118.676 1075.75C118.904 1077.37 119.169 1078.99 119.396 1080.56C119.359 1080.6 119.359 1080.64 119.359 1080.69ZM117.994 1172.3C117.994 1172.38 117.994 1172.46 117.957 1172.54C117.615 1174.12 117.237 1175.69 116.858 1177.27C116.706 1177.8 116.213 1178.12 115.683 1178C115.19 1177.84 114.887 1177.31 115.001 1176.74C115.38 1175.21 115.759 1173.63 116.1 1172.09C116.213 1171.57 116.744 1171.21 117.237 1171.33C117.691 1171.41 117.994 1171.81 117.994 1172.3ZM117.881 1071.1C117.881 1071.59 117.54 1071.99 117.085 1072.11C116.554 1072.19 116.062 1071.83 115.986 1071.31C115.721 1069.73 115.456 1068.11 115.19 1066.53C115.077 1065.97 115.418 1065.44 115.948 1065.36C116.479 1065.24 116.971 1065.61 117.047 1066.17C117.312 1067.75 117.615 1069.36 117.881 1070.94C117.881 1070.98 117.881 1071.06 117.881 1071.1ZM116.213 1061.56C116.213 1062.05 115.91 1062.45 115.456 1062.53C114.925 1062.65 114.432 1062.29 114.357 1061.72C114.054 1060.15 113.75 1058.57 113.447 1056.99C113.334 1056.43 113.675 1055.9 114.167 1055.78C114.698 1055.66 115.19 1056.02 115.304 1056.55C115.607 1058.13 115.91 1059.74 116.213 1061.32C116.213 1061.44 116.213 1061.48 116.213 1061.56ZM115.645 1181.64C115.645 1181.72 115.645 1181.84 115.607 1181.92C115.19 1183.46 114.736 1185.03 114.243 1186.57C114.091 1187.09 113.561 1187.38 113.03 1187.22C112.538 1187.05 112.273 1186.49 112.424 1185.92C112.879 1184.43 113.334 1182.85 113.75 1181.35C113.902 1180.83 114.433 1180.5 114.925 1180.67C115.38 1180.79 115.645 1181.19 115.645 1181.64ZM114.357 1052.06C114.357 1052.51 114.054 1052.95 113.599 1053.03C113.106 1053.15 112.576 1052.79 112.462 1052.26C112.121 1050.69 111.818 1049.11 111.477 1047.53C111.363 1047.01 111.666 1046.44 112.197 1046.32C112.689 1046.2 113.22 1046.52 113.334 1047.09C113.675 1048.67 114.016 1050.24 114.319 1051.82C114.357 1051.9 114.357 1051.98 114.357 1052.06ZM112.879 782.845C112.879 783.128 112.765 783.37 112.576 783.573C111.477 784.705 110.416 785.837 109.393 786.969C109.014 787.373 108.445 787.373 108.067 786.969C107.688 786.564 107.688 785.958 108.067 785.554C109.128 784.422 110.189 783.249 111.287 782.117C111.666 781.713 112.273 781.753 112.614 782.157C112.803 782.319 112.879 782.602 112.879 782.845ZM112.841 1190.81C112.841 1190.93 112.841 1191.06 112.803 1191.18C112.273 1192.71 111.742 1194.21 111.174 1195.71C110.984 1196.23 110.416 1196.47 109.961 1196.27C109.469 1196.07 109.241 1195.46 109.431 1194.98C109.961 1193.52 110.53 1191.99 111.022 1190.49C111.212 1189.96 111.742 1189.68 112.235 1189.88C112.614 1190 112.841 1190.41 112.841 1190.81ZM112.348 1042.6C112.348 1043.05 112.045 1043.49 111.628 1043.57C111.136 1043.69 110.605 1043.37 110.492 1042.8C110.151 1041.23 109.772 1039.65 109.431 1038.11C109.317 1037.59 109.62 1037.02 110.113 1036.9C110.605 1036.78 111.136 1037.1 111.25 1037.63C111.628 1039.2 111.969 1040.78 112.311 1042.36C112.311 1042.44 112.348 1042.52 112.348 1042.6ZM110.151 1033.18C110.151 1033.63 109.847 1034.03 109.431 1034.15C108.938 1034.27 108.408 1033.95 108.294 1033.42C107.915 1031.85 107.536 1030.31 107.157 1028.73C107.006 1028.21 107.309 1027.64 107.839 1027.48C108.332 1027.36 108.862 1027.64 109.014 1028.21C109.393 1029.78 109.772 1031.36 110.151 1032.9C110.151 1033.02 110.151 1033.1 110.151 1033.18ZM109.506 1199.83C109.506 1199.95 109.469 1200.11 109.431 1200.23C108.824 1201.73 108.18 1203.23 107.536 1204.68C107.309 1205.21 106.74 1205.41 106.286 1205.17C105.793 1204.92 105.604 1204.32 105.831 1203.83C106.475 1202.38 107.081 1200.92 107.688 1199.47C107.877 1198.94 108.445 1198.7 108.938 1198.94C109.279 1199.06 109.506 1199.42 109.506 1199.83ZM107.839 1023.8C107.839 1024.25 107.574 1024.65 107.119 1024.77C106.627 1024.93 106.096 1024.61 105.945 1024.04C105.566 1022.47 105.149 1020.93 104.77 1019.35C104.618 1018.83 104.921 1018.26 105.414 1018.1C105.907 1017.94 106.437 1018.26 106.589 1018.79C107.006 1020.36 107.384 1021.9 107.801 1023.48C107.839 1023.64 107.839 1023.72 107.839 1023.8ZM106.551 789.799C106.551 790.041 106.475 790.284 106.286 790.486C105.262 791.658 104.277 792.871 103.292 794.084C102.951 794.488 102.345 794.569 101.966 794.205C101.587 793.841 101.511 793.195 101.852 792.79C102.837 791.577 103.86 790.324 104.884 789.152C105.225 788.747 105.831 788.707 106.21 789.071C106.437 789.233 106.551 789.516 106.551 789.799ZM105.641 1208.56C105.641 1208.72 105.604 1208.89 105.528 1209.01C104.846 1210.46 104.126 1211.88 103.406 1213.33C103.14 1213.82 102.572 1214.02 102.117 1213.74C101.663 1213.45 101.473 1212.85 101.738 1212.36C102.458 1210.95 103.178 1209.53 103.86 1208.12C104.088 1207.63 104.656 1207.43 105.149 1207.67C105.452 1207.83 105.641 1208.2 105.641 1208.56ZM105.452 1014.46C105.452 1014.91 105.187 1015.31 104.77 1015.43C104.277 1015.59 103.747 1015.27 103.595 1014.75C103.178 1013.21 102.762 1011.63 102.345 1010.1C102.193 1009.57 102.496 1009 102.989 1008.84C103.482 1008.68 104.012 1009 104.164 1009.53C104.58 1011.07 104.997 1012.64 105.414 1014.18C105.414 1014.26 105.452 1014.34 105.452 1014.46ZM102.913 1005.12C102.913 1005.57 102.648 1005.97 102.231 1006.09C101.738 1006.26 101.208 1005.93 101.056 1005.41C100.64 1003.87 100.185 1002.29 99.768 1000.76C99.6165 1000.23 99.9196 999.665 100.412 999.504C100.905 999.342 101.435 999.665 101.587 1000.19C102.004 1001.73 102.458 1003.3 102.875 1004.84C102.913 1004.92 102.913 1005.04 102.913 1005.12ZM101.284 1217.05C101.284 1217.21 101.246 1217.42 101.17 1217.58C100.412 1218.95 99.6165 1220.37 98.7828 1221.74C98.5176 1222.23 97.9113 1222.35 97.4945 1222.07C97.0398 1221.78 96.9261 1221.14 97.1913 1220.69C97.9871 1219.36 98.7828 1217.94 99.5407 1216.57C99.8059 1216.08 100.374 1215.92 100.829 1216.2C101.132 1216.36 101.284 1216.73 101.284 1217.05ZM100.64 797.157C100.64 797.359 100.564 797.601 100.45 797.804C99.5028 799.057 98.5933 800.351 97.7218 801.604C97.4187 802.049 96.8124 802.129 96.3956 801.806C95.9787 801.483 95.903 800.836 96.2061 800.391C97.1155 799.097 98.0249 797.803 99.0102 796.51C99.3512 796.065 99.9196 795.984 100.336 796.348C100.526 796.55 100.64 796.833 100.64 797.157ZM100.336 995.825C100.336 996.269 100.071 996.674 99.6544 996.795C99.1617 996.957 98.6312 996.674 98.4797 996.108C98.025 994.571 97.6081 993.035 97.1534 991.458C97.0019 990.933 97.2671 990.367 97.7976 990.205C98.2902 990.043 98.8207 990.326 98.9723 990.892C99.427 992.429 99.8438 993.965 100.299 995.542C100.299 995.622 100.336 995.744 100.336 995.825ZM97.646 986.566C97.646 987.011 97.3808 987.415 96.964 987.537C96.4714 987.698 95.9409 987.415 95.7893 986.89C95.3346 985.353 94.8799 983.817 94.4252 982.281C94.2736 981.755 94.5388 981.189 95.0314 981.028C95.5241 980.866 96.0545 981.149 96.2061 981.674C96.6608 983.211 97.1155 984.747 97.5703 986.283C97.646 986.364 97.646 986.486 97.646 986.566ZM96.4335 1225.26C96.4335 1225.46 96.3956 1225.66 96.2819 1225.83C95.4483 1227.16 94.5768 1228.49 93.6673 1229.83C93.3642 1230.27 92.7579 1230.39 92.3411 1230.07C91.9243 1229.75 91.8106 1229.1 92.1137 1228.66C92.9853 1227.36 93.8568 1226.03 94.6904 1224.69C94.9936 1224.25 95.562 1224.13 96.0167 1224.41C96.2819 1224.61 96.4335 1224.94 96.4335 1225.26ZM95.2588 804.919C95.2588 805.121 95.2209 805.323 95.1072 805.485C94.2736 806.819 93.4399 808.153 92.6442 809.487C92.3789 809.973 91.7727 810.094 91.3558 809.811C90.9011 809.528 90.7874 808.881 91.0527 808.436C91.8484 807.062 92.72 805.687 93.5536 804.353C93.8568 803.908 94.4251 803.787 94.8799 804.11C95.1072 804.272 95.2588 804.596 95.2588 804.919ZM94.9557 977.349C94.9557 977.793 94.6904 978.157 94.3115 978.319C93.8189 978.481 93.2884 978.198 93.1368 977.672C92.8716 976.783 92.6063 975.853 92.3411 974.963L91.7727 973.063C91.6211 972.538 91.8864 971.972 92.379 971.81C92.8716 971.648 93.4021 971.931 93.5536 972.457L94.122 974.357C94.3873 975.246 94.6525 976.176 94.9178 977.066C94.9178 977.146 94.9557 977.227 94.9557 977.349ZM92.1895 968.09C92.1895 968.535 91.9242 968.939 91.5074 969.061C91.0148 969.222 90.4843 968.939 90.3328 968.414C89.878 966.877 89.4233 965.301 89.0065 963.764C88.8549 963.239 89.1202 962.673 89.6507 962.511C90.1433 962.349 90.6738 962.632 90.8254 963.198C91.2801 964.735 91.6969 966.271 92.1516 967.807C92.1895 967.888 92.1895 968.009 92.1895 968.09ZM91.1285 1233.1C91.1285 1233.3 91.0527 1233.55 90.9391 1233.71C90.0296 1235 89.0823 1236.3 88.0971 1237.55C87.7561 1237.99 87.1877 1238.03 86.7709 1237.71C86.354 1237.35 86.3161 1236.74 86.6193 1236.3C87.5666 1235.04 88.5139 1233.79 89.4233 1232.54C89.7265 1232.09 90.3328 1232.01 90.7496 1232.33C91.0148 1232.5 91.1285 1232.82 91.1285 1233.1ZM90.4085 813.086C90.4085 813.247 90.3706 813.45 90.2949 813.571C89.537 814.945 88.817 816.36 88.135 817.775C87.9076 818.261 87.3013 818.463 86.8466 818.22C86.3919 817.978 86.2024 817.331 86.4298 816.846C87.1498 815.431 87.8697 813.975 88.6276 812.56C88.8928 812.075 89.4612 811.913 89.9159 812.196C90.257 812.398 90.4085 812.762 90.4085 813.086ZM89.537 958.832C89.537 959.277 89.2718 959.681 88.8549 959.802C88.3623 959.964 87.8318 959.641 87.6803 959.115C87.2634 957.538 86.8087 956.002 86.3919 954.466C86.2403 953.94 86.5435 953.374 87.0361 953.212C87.5287 953.051 88.0592 953.374 88.2108 953.9C88.6276 955.436 89.0444 956.972 89.4991 958.549C89.537 958.63 89.537 958.751 89.537 958.832ZM86.9982 949.533C86.9982 949.978 86.7329 950.382 86.3161 950.504C85.8235 950.665 85.293 950.342 85.1415 949.816C84.7246 948.24 84.3078 946.703 83.9289 945.127C83.7773 944.601 84.0805 944.035 84.611 943.873C85.1036 943.712 85.6341 944.035 85.7856 944.601C86.1646 946.137 86.5814 947.714 86.9982 949.25C86.9982 949.331 86.9982 949.453 86.9982 949.533ZM86.2024 821.657C86.2024 821.818 86.1645 821.94 86.1267 822.101C85.4825 823.557 84.8762 825.012 84.3078 826.468C84.1183 826.993 83.5499 827.236 83.0573 826.993C82.5647 826.791 82.3374 826.185 82.5647 825.659C83.171 824.163 83.7773 822.667 84.4215 821.212C84.6488 820.727 85.2172 820.484 85.6719 820.727C86.013 820.929 86.2024 821.293 86.2024 821.657ZM85.4067 1240.62C85.4067 1240.86 85.3309 1241.11 85.1794 1241.27C84.1942 1242.48 83.1711 1243.69 82.148 1244.91C81.8069 1245.31 81.2006 1245.35 80.8217 1244.99C80.4428 1244.62 80.4049 1243.98 80.7459 1243.57C81.769 1242.4 82.7542 1241.19 83.7395 1239.98C84.0805 1239.57 84.6868 1239.49 85.0657 1239.85C85.293 1240.06 85.4067 1240.34 85.4067 1240.62ZM84.6488 940.194C84.6488 940.639 84.3836 941.043 83.9289 941.165C83.4363 941.286 82.9058 940.962 82.7542 940.437C82.3753 938.86 81.9964 937.283 81.6174 935.747C81.5038 935.222 81.8069 934.656 82.2995 934.534C82.7921 934.413 83.3226 934.736 83.4363 935.262C83.8152 936.798 84.1941 938.375 84.5731 939.952C84.611 939.992 84.6488 940.113 84.6488 940.194ZM82.6784 830.591C82.6784 830.713 82.6405 830.834 82.6026 830.955C82.0721 832.451 81.5795 833.987 81.1248 835.483C80.9733 836.009 80.4427 836.292 79.9123 836.13C79.4196 835.968 79.1544 835.402 79.306 834.836C79.7607 833.3 80.2912 831.723 80.8217 830.228C81.0111 829.702 81.5416 829.419 82.0342 829.621C82.4511 829.783 82.6784 830.187 82.6784 830.591ZM82.4132 930.774C82.4132 931.219 82.11 931.664 81.6932 931.745C81.2006 931.866 80.6701 931.543 80.5564 930.977C80.2154 929.4 79.8744 927.783 79.5333 926.246C79.4197 925.721 79.7228 925.155 80.2533 925.033C80.7459 924.912 81.2764 925.236 81.3901 925.802C81.7311 927.338 82.0721 928.915 82.4132 930.491C82.4132 930.613 82.4132 930.694 82.4132 930.774ZM80.4428 921.314C80.4428 921.799 80.1396 922.203 79.6849 922.284C79.1544 922.406 78.6618 922.042 78.5481 921.516C78.245 919.899 77.9418 918.322 77.6387 916.746C77.525 916.18 77.866 915.654 78.3966 915.573C78.927 915.452 79.4197 915.816 79.4954 916.382C79.7607 917.918 80.0638 919.535 80.4049 921.112C80.4428 921.193 80.4428 921.274 80.4428 921.314ZM79.8744 839.809C79.8744 839.89 79.8744 839.971 79.8365 840.092C79.4196 841.629 79.0407 843.165 78.6997 844.742C78.586 845.267 78.0555 845.631 77.5629 845.51C77.0703 845.388 76.7293 844.822 76.8429 844.297C77.184 842.72 77.5629 841.143 77.9797 839.567C78.1313 839.041 78.6618 838.718 79.1544 838.879C79.6091 838.96 79.8744 839.365 79.8744 839.809ZM79.306 1247.78C79.306 1248.02 79.2302 1248.26 79.0408 1248.47C77.9798 1249.64 76.9188 1250.81 75.8199 1251.94C75.441 1252.35 74.8347 1252.35 74.4936 1251.94C74.1147 1251.54 74.1147 1250.89 74.4936 1250.53C75.5546 1249.4 76.6156 1248.26 77.6766 1247.09C78.0555 1246.69 78.6239 1246.69 79.0029 1247.05C79.1923 1247.25 79.306 1247.54 79.306 1247.78ZM78.7376 911.813C78.7376 912.298 78.3966 912.703 77.9418 912.824C77.4113 912.905 76.9187 912.541 76.843 912.015C76.5777 910.398 76.3125 908.781 76.0851 907.204C76.0093 906.638 76.3503 906.153 76.8808 906.032C77.4113 905.951 77.8661 906.315 77.9797 906.881C78.2071 908.458 78.4723 910.034 78.7376 911.651C78.6997 911.692 78.7376 911.773 78.7376 911.813ZM77.7903 849.229C77.7903 849.31 77.7903 849.35 77.7903 849.431C77.525 850.968 77.2598 852.585 77.0324 854.162C76.9566 854.728 76.464 855.091 75.9335 855.011C75.403 854.93 75.062 854.404 75.1378 853.838C75.3651 852.221 75.6304 850.604 75.9335 849.027C76.0472 848.461 76.5398 848.138 77.0324 848.218C77.4871 848.34 77.7903 848.744 77.7903 849.229ZM77.2977 902.232C77.2977 902.717 76.9566 903.161 76.464 903.242C75.9335 903.323 75.4788 902.919 75.403 902.393C75.1757 900.776 74.9862 899.159 74.8346 897.582C74.7589 897.016 75.1378 896.531 75.6683 896.45C76.1988 896.369 76.6535 896.774 76.7293 897.34C76.9187 898.916 77.1082 900.534 77.2977 902.11C77.2977 902.151 77.2977 902.191 77.2977 902.232ZM76.3882 858.77C76.3882 858.811 76.3882 858.851 76.3882 858.892C76.1988 860.468 76.0472 862.086 75.9335 863.662C75.8956 864.228 75.4409 864.633 74.9104 864.592C74.3799 864.552 74.001 864.067 74.0389 863.501C74.1526 861.883 74.3041 860.226 74.4936 858.649C74.5694 858.083 75.0241 857.679 75.5546 857.76C76.0472 857.841 76.3882 858.285 76.3882 858.77ZM76.2746 892.609C76.2746 893.135 75.8956 893.58 75.403 893.62C74.8725 893.661 74.4178 893.256 74.3799 892.69C74.2284 891.073 74.1147 889.416 74.001 887.839C73.9631 887.273 74.342 886.788 74.8725 886.747C75.403 886.707 75.8577 887.111 75.8956 887.677C76.0093 889.254 76.123 890.871 76.2746 892.488C76.2746 892.569 76.2746 892.609 76.2746 892.609ZM75.6683 868.433L75.6683 868.473C75.5925 870.05 75.5546 871.667 75.5167 873.284C75.5167 873.85 75.062 874.295 74.5694 874.295C74.0389 874.295 73.6221 873.81 73.6221 873.284C73.66 871.667 73.6979 870.01 73.7736 868.392C73.8115 867.826 74.2284 867.422 74.7589 867.422C75.2893 867.463 75.6683 867.907 75.6683 868.433ZM75.6304 882.947C75.6304 883.473 75.2136 883.917 74.721 883.958C74.1905 883.998 73.7736 883.553 73.7358 882.987C73.66 881.37 73.6221 879.713 73.6221 878.136C73.6221 877.57 74.0389 877.125 74.5694 877.125C75.0999 877.125 75.5167 877.57 75.5167 878.136C75.5546 879.713 75.5925 881.33 75.6304 882.947ZM72.8264 1254.57C72.8264 1254.85 72.7127 1255.1 72.5232 1255.3C71.4243 1256.39 70.2875 1257.48 69.1508 1258.57C68.7718 1258.94 68.1656 1258.9 67.8245 1258.49C67.4835 1258.09 67.5214 1257.44 67.9003 1257.08C69.0371 1256.03 70.136 1254.93 71.2349 1253.84C71.6138 1253.48 72.2201 1253.48 72.5611 1253.88C72.7506 1254.08 72.8264 1254.33 72.8264 1254.57ZM66.0436 1261C66.0436 1261.28 65.9299 1261.56 65.7025 1261.77C64.5658 1262.82 63.3911 1263.83 62.1785 1264.88C61.7617 1265.24 61.1933 1265.16 60.8523 1264.72C60.5112 1264.27 60.587 1263.67 61.0038 1263.3C62.1785 1262.29 63.3532 1261.24 64.49 1260.23C64.9068 1259.87 65.4752 1259.91 65.8162 1260.35C65.9678 1260.55 66.0436 1260.8 66.0436 1261ZM58.9955 1267.1C58.9955 1267.39 58.8818 1267.71 58.6166 1267.91C57.4419 1268.88 56.1915 1269.89 54.9789 1270.82C54.5621 1271.15 53.9558 1271.07 53.6527 1270.62C53.3495 1270.18 53.4253 1269.53 53.8421 1269.21C55.0547 1268.24 56.2673 1267.26 57.4419 1266.29C57.8588 1265.97 58.465 1266.05 58.7682 1266.5C58.9197 1266.66 58.9955 1266.86 58.9955 1267.1ZM51.6822 1272.84C51.6822 1273.17 51.5307 1273.49 51.2654 1273.65C50.0529 1274.58 48.7645 1275.51 47.5141 1276.4C47.0972 1276.73 46.4909 1276.6 46.1878 1276.12C45.8847 1275.67 45.9983 1275.03 46.4531 1274.7C47.7035 1273.81 48.954 1272.88 50.1665 1271.95C50.5834 1271.63 51.1896 1271.75 51.4928 1272.2C51.6443 1272.44 51.6822 1272.64 51.6822 1272.84ZM44.1795 1278.26C44.1795 1278.58 44.0279 1278.91 43.7627 1279.11C42.5122 1279.96 41.2239 1280.85 39.8976 1281.7C39.4429 1281.98 38.8745 1281.86 38.6093 1281.37C38.344 1280.89 38.4577 1280.28 38.9124 1280C40.2008 1279.15 41.4891 1278.3 42.7396 1277.41C43.1943 1277.13 43.7627 1277.25 44.0658 1277.7C44.1037 1277.86 44.1795 1278.06 44.1795 1278.26ZM36.4494 1283.36C36.4494 1283.72 36.2978 1284.04 35.9947 1284.24C34.7063 1285.05 33.3801 1285.9 32.0538 1286.71C31.5991 1286.99 31.0307 1286.83 30.7655 1286.35C30.5002 1285.86 30.6518 1285.26 31.1065 1284.97C32.4328 1284.16 33.7211 1283.36 35.0095 1282.55C35.4642 1282.26 36.0326 1282.43 36.2978 1282.91C36.4115 1282.99 36.4494 1283.19 36.4494 1283.36ZM28.5677 1288.17C28.5677 1288.53 28.3782 1288.85 28.0751 1289.06C26.7489 1289.82 25.4226 1290.59 24.0585 1291.36C23.6038 1291.6 23.0354 1291.44 22.7701 1290.96C22.5428 1290.47 22.6943 1289.86 23.1491 1289.58C24.4753 1288.81 25.8394 1288.05 27.1278 1287.28C27.5825 1286.99 28.1509 1287.2 28.4161 1287.68C28.5298 1287.84 28.5677 1288 28.5677 1288.17ZM20.5345 1292.69C20.5345 1293.06 20.345 1293.42 20.004 1293.58C18.6777 1294.31 17.3136 1295.04 15.9116 1295.77C15.4568 1296.01 14.8885 1295.81 14.6611 1295.32C14.4337 1294.84 14.6232 1294.23 15.0779 1293.99C16.4421 1293.26 17.8062 1292.53 19.1324 1291.85C19.5871 1291.6 20.1555 1291.81 20.4208 1292.29C20.4966 1292.37 20.5345 1292.53 20.5345 1292.69ZM12.3875 1296.94C12.3875 1297.3 12.1981 1297.67 11.857 1297.87C10.4929 1298.56 9.09087 1299.24 7.72674 1299.89C7.23413 1300.13 6.70363 1299.89 6.47628 1299.41C6.24892 1298.88 6.47628 1298.31 6.93099 1298.07C8.29513 1297.38 9.69716 1296.74 11.0234 1296.05C11.4781 1295.81 12.0465 1296.01 12.2739 1296.54C12.3496 1296.66 12.3875 1296.78 12.3875 1296.94Z" fill="white" fill-opacity="0.2"/>
<path d="M3.97523 1301.02C3.97523 1301.43 3.74787 1301.79 3.40684 1301.95C2.72477 1302.28 2.00481 1302.6 1.32274 1302.92C0.830133 1303.13 0.299636 1302.92 0.0722797 1302.4C-0.117184 1301.87 0.0722796 1301.31 0.564884 1301.06C1.28485 1300.74 1.96691 1300.42 2.64898 1300.09C3.14159 1299.85 3.67208 1300.09 3.89944 1300.62C3.93733 1300.74 3.97523 1300.9 3.97523 1301.02Z" fill="white" fill-opacity="0.2"/>
</svg>
