<svg width="396" height="1303" viewBox="0 0 396 1303" fill="none" xmlns="http://www.w3.org/2000/svg">
<path d="M395.71 0.988158C395.71 1.14987 395.672 1.35204 395.558 1.51375C395.179 2.20105 394.762 2.92875 394.345 3.61604C394.08 4.10119 393.474 4.2225 393.057 3.93949C392.602 3.65649 392.489 3.00957 392.754 2.56485C393.133 1.87756 393.55 1.19032 393.929 0.50303C394.194 0.0178824 394.762 -0.143893 395.217 0.13911C395.558 0.300826 395.71 0.664726 395.71 0.988158Z" fill="white" fill-opacity="0.1"/>
<path d="M392.072 7.13358C392.072 7.33573 392.034 7.53793 391.921 7.69965C391.087 9.0338 390.178 10.4084 389.306 11.7021C389.003 12.1468 388.397 12.2681 387.98 11.9447C387.563 11.6213 387.449 10.9744 387.752 10.5297C388.624 9.23595 389.496 7.90171 390.329 6.60799C390.632 6.16327 391.201 6.042 391.655 6.325C391.921 6.48672 392.072 6.81015 392.072 7.13358ZM386.729 14.9364C386.729 15.1385 386.654 15.3811 386.54 15.5428C385.593 16.7961 384.645 18.0898 383.66 19.3431C383.319 19.7878 382.713 19.8283 382.334 19.4644C381.917 19.1006 381.879 18.4537 382.22 18.0494C383.167 16.8365 384.153 15.5833 385.062 14.33C385.403 13.8852 385.971 13.8044 386.388 14.1683C386.616 14.3704 386.729 14.6534 386.729 14.9364ZM380.894 22.3753C380.894 22.6179 380.818 22.8605 380.667 23.0627C379.643 24.2755 378.62 25.4479 377.559 26.6203C377.18 27.0246 376.612 27.0247 376.233 26.6608C375.854 26.2565 375.854 25.6501 376.195 25.2458C377.256 24.0733 378.279 22.9009 379.264 21.7285C379.606 21.3242 380.212 21.2838 380.591 21.6476C380.78 21.8094 380.894 22.0923 380.894 22.3753ZM374.566 29.3695C374.566 29.6525 374.452 29.8951 374.263 30.0973C373.164 31.2293 372.065 32.3209 370.928 33.4529C370.549 33.8167 369.943 33.8168 369.602 33.372C369.261 32.9678 369.261 32.3209 369.678 31.957C370.777 30.8655 371.913 29.7738 372.974 28.6418C373.353 28.2375 373.96 28.278 374.301 28.6822C374.49 28.844 374.566 29.0865 374.566 29.3695ZM367.859 35.8786C367.859 36.1616 367.745 36.4446 367.518 36.6467C366.381 37.6979 365.206 38.749 363.994 39.7597C363.577 40.1236 362.971 40.0428 362.667 39.5981C362.326 39.1534 362.402 38.5469 362.819 38.1831C363.994 37.1723 365.168 36.1616 366.305 35.1104C366.684 34.7466 367.29 34.787 367.631 35.2317C367.783 35.3934 367.859 35.636 367.859 35.8786ZM360.811 41.943C360.811 42.2664 360.697 42.5494 360.432 42.7515C359.219 43.7218 358.007 44.6921 356.756 45.6219C356.339 45.9454 355.733 45.8242 355.43 45.3794C355.127 44.9347 355.241 44.2878 355.657 43.9644C356.87 43.0346 358.082 42.0642 359.295 41.0939C359.712 40.7705 360.318 40.8513 360.621 41.2961C360.735 41.4982 360.811 41.7408 360.811 41.943ZM353.46 47.5626C353.46 47.886 353.308 48.2095 353.043 48.4116C351.792 49.301 350.542 50.2308 349.253 51.0799C348.799 51.3629 348.23 51.2416 347.927 50.7969C347.662 50.3117 347.776 49.7053 348.193 49.3819C349.443 48.4924 350.731 47.603 351.944 46.7136C352.361 46.3902 352.967 46.5114 353.27 46.9966C353.422 47.1987 353.46 47.3604 353.46 47.5626ZM345.843 52.8183C345.843 53.1418 345.692 53.5057 345.388 53.6674C344.1 54.5164 342.812 55.3249 341.485 56.1739C341.031 56.457 340.462 56.2953 340.197 55.8101C339.932 55.325 340.083 54.7185 340.538 54.4355C341.827 53.6269 343.153 52.778 344.403 51.9694C344.858 51.6864 345.426 51.8076 345.692 52.2927C345.805 52.4544 345.843 52.6566 345.843 52.8183ZM337.999 57.7103C337.999 58.0741 337.81 58.3975 337.507 58.5997C336.218 59.3678 334.854 60.1764 333.49 60.9446C333.035 61.2276 332.467 61.0254 332.202 60.5403C331.937 60.0551 332.126 59.4487 332.581 59.1657C333.907 58.3975 335.271 57.6294 336.559 56.8612C337.014 56.5782 337.583 56.7804 337.848 57.2655C337.961 57.3868 337.999 57.5486 337.999 57.7103ZM330.004 62.2788C330.004 62.6426 329.815 63.0065 329.474 63.1682C328.147 63.8959 326.783 64.6236 325.419 65.3513C324.964 65.5939 324.396 65.3918 324.169 64.9066C323.941 64.4215 324.131 63.815 324.585 63.5725C325.949 62.8447 327.314 62.117 328.64 61.3892C329.095 61.1467 329.663 61.3489 329.928 61.834C329.966 61.9553 330.004 62.117 330.004 62.2788ZM321.857 66.5642C321.857 66.928 321.668 67.2919 321.327 67.4941C319.962 68.1814 318.598 68.8687 317.196 69.556C316.704 69.7986 316.173 69.5559 315.946 69.0708C315.718 68.5452 315.946 67.9792 316.401 67.7367C317.803 67.0494 319.167 66.362 320.493 65.6748C320.948 65.4322 321.516 65.6343 321.743 66.1599C321.819 66.2407 321.857 66.4025 321.857 66.5642ZM313.596 70.6071C313.596 71.0114 313.369 71.3752 313.028 71.537C311.626 72.1838 310.262 72.8307 308.86 73.4776C308.367 73.6797 307.837 73.4775 307.609 72.952C307.42 72.4264 307.609 71.8604 308.102 71.6178C309.504 70.9709 310.868 70.324 312.27 69.6772C312.763 69.4346 313.293 69.6772 313.521 70.2028C313.559 70.3241 313.596 70.4454 313.596 70.6071ZM305.26 74.4478C305.26 74.8521 305.033 75.216 304.692 75.3777C303.29 75.9841 301.888 76.631 300.486 77.2375C299.993 77.4396 299.463 77.197 299.235 76.6714C299.046 76.1458 299.273 75.5798 299.766 75.3372C301.168 74.7308 302.57 74.1244 303.934 73.4776C304.426 73.2754 304.957 73.518 305.184 74.0032C305.222 74.1649 305.26 74.2861 305.26 74.4478ZM296.848 78.0864C296.848 78.4907 296.621 78.8546 296.242 79.0163C294.84 79.6228 293.438 80.2291 292.036 80.7952C291.543 80.9973 291.012 80.7548 290.823 80.2292C290.634 79.7036 290.861 79.1376 291.353 78.9355C292.756 78.329 294.158 77.763 295.56 77.1565C296.052 76.9544 296.583 77.197 296.81 77.7226C296.848 77.8439 296.848 77.9651 296.848 78.0864ZM288.436 81.6442C288.436 82.0485 288.208 82.4124 287.829 82.5741C286.427 83.1401 285.025 83.7465 283.585 84.3126C283.093 84.5147 282.562 84.2316 282.373 83.7465C282.183 83.2209 282.411 82.6549 282.903 82.4528C284.305 81.8868 285.707 81.2803 287.109 80.7143C287.602 80.5122 288.133 80.7548 288.322 81.2804C288.436 81.4017 288.436 81.5229 288.436 81.6442ZM279.986 85.1211C279.986 85.5254 279.758 85.9296 279.379 86.0509C277.977 86.6169 276.537 87.183 275.135 87.749C274.643 87.9512 274.112 87.6682 273.923 87.1426C273.733 86.617 273.999 86.0509 274.491 85.8488C275.893 85.2828 277.333 84.7168 278.735 84.1508C279.228 83.9486 279.758 84.2317 279.948 84.7168C279.948 84.8786 279.986 84.9998 279.986 85.1211ZM272.028 598.043L272.028 598.286C272.028 598.852 271.611 599.297 271.081 599.297C270.55 599.297 270.134 598.852 270.134 598.286L270.134 598.043C270.134 596.548 270.134 595.011 270.096 593.475C270.096 592.909 270.513 592.464 271.005 592.424C271.536 592.424 271.952 592.869 271.99 593.394C272.028 594.971 272.028 596.507 272.028 598.043ZM271.952 603.138C271.915 604.795 271.839 606.412 271.763 608.029C271.725 608.595 271.27 609 270.778 609C270.247 608.959 269.868 608.515 269.868 607.949C269.944 606.372 270.02 604.755 270.058 603.138C270.058 602.572 270.513 602.127 271.043 602.167C271.574 602.127 271.952 602.572 271.952 603.138ZM271.801 588.583C271.801 589.109 271.422 589.553 270.891 589.594C270.361 589.634 269.906 589.19 269.906 588.624C269.83 587.047 269.755 585.43 269.641 583.812C269.603 583.246 269.982 582.761 270.513 582.721C271.043 582.68 271.498 583.085 271.536 583.651C271.649 585.268 271.763 586.925 271.839 588.502C271.801 588.583 271.801 588.583 271.801 588.583ZM271.498 88.5171C271.498 88.9214 271.27 89.3257 270.891 89.447L266.647 91.145C266.155 91.3472 265.624 91.0642 265.435 90.5386C265.245 90.013 265.511 89.447 266.003 89.2449L270.247 87.5469C270.74 87.3447 271.27 87.6277 271.46 88.1533C271.498 88.2746 271.498 88.3958 271.498 88.5171ZM271.46 612.8C271.46 612.84 271.46 612.84 271.46 612.881C271.346 614.498 271.157 616.115 271.005 617.732C270.929 618.298 270.475 618.703 269.944 618.622C269.414 618.541 269.035 618.056 269.111 617.49C269.3 615.913 269.452 614.296 269.565 612.719C269.603 612.153 270.058 611.749 270.588 611.789C271.081 611.83 271.46 612.274 271.46 612.8ZM271.119 578.921C271.119 579.446 270.74 579.891 270.247 579.931C269.717 579.972 269.262 579.567 269.224 579.042C269.073 577.465 268.921 575.848 268.732 574.231C268.656 573.665 269.035 573.18 269.565 573.099C270.096 573.018 270.55 573.422 270.626 573.988C270.816 575.605 270.967 577.223 271.119 578.84C271.119 578.88 271.119 578.921 271.119 578.921ZM270.399 622.422C270.399 622.463 270.399 622.503 270.399 622.584C270.172 624.201 269.906 625.818 269.641 627.395C269.565 627.961 269.035 628.325 268.542 628.203C268.012 628.123 267.671 627.557 267.784 627.031C268.05 625.454 268.315 623.878 268.542 622.26C268.618 621.694 269.111 621.331 269.603 621.411C270.058 621.492 270.399 621.897 270.399 622.422ZM270.058 569.339C270.058 569.824 269.717 570.269 269.262 570.35C268.732 570.43 268.277 570.026 268.201 569.501C267.974 567.924 267.746 566.307 267.519 564.73C267.443 564.164 267.784 563.679 268.315 563.558C268.845 563.477 269.3 563.841 269.414 564.407C269.679 566.024 269.906 567.641 270.096 569.218C270.02 569.218 270.058 569.258 270.058 569.339ZM268.732 631.963C268.732 632.044 268.732 632.125 268.694 632.165C268.353 633.742 268.012 635.359 267.633 636.936C267.519 637.462 266.989 637.785 266.496 637.664C266.003 637.543 265.7 636.977 265.814 636.451C266.193 634.915 266.534 633.338 266.837 631.761C266.951 631.236 267.443 630.872 267.974 630.993C268.428 631.074 268.732 631.478 268.732 631.963ZM268.58 559.757C268.58 560.242 268.277 560.647 267.822 560.768C267.292 560.889 266.799 560.525 266.723 559.959C266.458 558.383 266.155 556.806 265.852 555.229C265.738 554.663 266.079 554.138 266.572 554.016C267.102 553.895 267.595 554.259 267.708 554.784C268.012 556.361 268.315 557.978 268.58 559.555C268.542 559.636 268.58 559.717 268.58 559.757ZM266.723 550.256C266.723 550.701 266.42 551.146 265.965 551.227C265.473 551.348 264.942 551.025 264.829 550.459C264.488 548.922 264.147 547.305 263.806 545.769C263.692 545.243 263.995 544.677 264.488 544.556C264.98 544.435 265.511 544.758 265.624 545.284C265.965 546.86 266.344 548.437 266.647 550.014C266.723 550.135 266.723 550.216 266.723 550.256ZM266.496 641.343C266.496 641.424 266.496 641.545 266.458 641.626C266.041 643.203 265.586 644.739 265.094 646.275C264.942 646.801 264.412 647.084 263.881 646.922C263.389 646.76 263.123 646.154 263.275 645.628C263.73 644.132 264.184 642.596 264.601 641.019C264.753 640.494 265.283 640.17 265.776 640.332C266.231 640.494 266.496 640.898 266.496 641.343ZM264.601 540.877C264.601 541.322 264.336 541.726 263.881 541.847C263.389 542.009 262.858 541.685 262.707 541.119C262.328 539.583 261.911 538.006 261.532 536.47C261.38 535.945 261.684 535.379 262.176 535.217C262.669 535.055 263.199 535.379 263.351 535.904C263.768 537.481 264.147 539.058 264.563 540.594C264.563 540.675 264.601 540.796 264.601 540.877ZM263.654 650.561C263.654 650.682 263.616 650.803 263.578 650.925C263.048 652.461 262.479 653.957 261.911 655.453C261.721 655.978 261.153 656.221 260.66 655.978C260.168 655.776 259.94 655.17 260.168 654.644C260.736 653.189 261.305 651.693 261.835 650.197C262.025 649.671 262.555 649.388 263.048 649.59C263.427 649.752 263.654 650.116 263.654 650.561ZM263.01 91.9131C263.01 92.3174 262.782 92.7217 262.403 92.843C261.001 93.409 259.562 93.975 258.159 94.541C257.667 94.7431 257.136 94.4601 256.947 93.9346C256.757 93.409 257.023 92.843 257.515 92.6409C258.917 92.0749 260.357 91.5089 261.759 90.9429C262.252 90.7407 262.782 91.0237 262.972 91.5493C263.01 91.6706 263.01 91.7918 263.01 91.9131ZM262.138 531.538C262.138 531.983 261.873 532.387 261.456 532.508C260.964 532.67 260.433 532.346 260.282 531.821C259.865 530.285 259.41 528.748 258.955 527.212C258.804 526.686 259.069 526.12 259.562 525.959C260.054 525.797 260.585 526.08 260.736 526.605C261.191 528.142 261.646 529.718 262.062 531.255C262.138 531.336 262.138 531.457 262.138 531.538ZM260.168 659.455C260.168 659.617 260.13 659.738 260.092 659.859C259.448 661.315 258.804 662.811 258.122 664.226C257.894 664.711 257.326 664.913 256.833 664.67C256.379 664.428 256.189 663.821 256.416 663.296C257.099 661.881 257.743 660.425 258.387 658.97C258.614 658.444 259.183 658.242 259.637 658.485C259.978 658.727 260.168 659.091 260.168 659.455ZM259.41 522.28C259.41 522.684 259.145 523.088 258.766 523.25C258.273 523.412 257.743 523.129 257.553 522.603C257.099 521.107 256.606 519.571 256.113 518.035C255.924 517.509 256.189 516.943 256.682 516.741C257.174 516.539 257.705 516.822 257.894 517.347C258.387 518.884 258.879 520.42 259.372 521.956C259.41 522.077 259.41 522.199 259.41 522.28ZM256.416 513.143C256.416 513.547 256.189 513.951 255.81 514.072C255.318 514.275 254.787 513.992 254.598 513.466C254.105 511.97 253.575 510.434 253.006 508.938C252.817 508.412 253.082 507.846 253.575 507.644C254.067 507.442 254.598 507.725 254.787 508.251C255.318 509.787 255.848 511.283 256.379 512.819C256.416 512.9 256.416 513.021 256.416 513.143ZM256.075 668.107C256.075 668.269 256.038 668.43 255.962 668.592C255.242 670.007 254.446 671.422 253.65 672.797C253.385 673.282 252.779 673.443 252.362 673.12C251.907 672.837 251.756 672.19 252.059 671.745C252.817 670.371 253.612 668.996 254.332 667.581C254.598 667.096 255.166 666.934 255.621 667.177C255.886 667.42 256.075 667.743 256.075 668.107ZM254.522 95.3496C254.522 95.7539 254.294 96.1582 253.915 96.2795C252.513 96.8455 251.074 97.4115 249.672 98.0179C249.179 98.2201 248.648 97.9775 248.459 97.452C248.27 96.9264 248.497 96.3603 248.989 96.1582C250.391 95.5922 251.831 94.9858 253.233 94.4198C253.726 94.2177 254.257 94.5006 254.446 94.9858C254.522 95.107 254.522 95.2283 254.522 95.3496ZM253.196 504.087C253.196 504.491 252.968 504.855 252.589 505.016C252.097 505.219 251.566 504.976 251.377 504.45C250.846 502.955 250.278 501.459 249.672 499.963C249.482 499.437 249.709 498.871 250.202 498.629C250.695 498.426 251.225 498.669 251.453 499.195C252.021 500.691 252.589 502.227 253.158 503.682C253.196 503.844 253.196 503.965 253.196 504.087ZM251.377 676.395C251.377 676.597 251.339 676.799 251.225 676.961C250.392 678.295 249.52 679.67 248.648 680.963C248.345 681.408 247.739 681.529 247.322 681.206C246.905 680.882 246.792 680.236 247.095 679.791C247.966 678.497 248.838 677.163 249.634 675.829C249.937 675.344 250.505 675.222 250.96 675.546C251.225 675.708 251.377 676.031 251.377 676.395ZM249.785 495.111C249.785 495.516 249.558 495.879 249.217 496.041C248.724 496.243 248.194 496.001 247.966 495.516C247.398 494.06 246.792 492.564 246.185 491.068C245.958 490.543 246.185 489.977 246.678 489.734C247.171 489.492 247.701 489.734 247.928 490.26C248.535 491.756 249.141 493.252 249.747 494.707C249.747 494.869 249.785 494.99 249.785 495.111ZM246.148 486.257C246.148 486.662 245.958 487.025 245.579 487.187C245.087 487.43 244.556 487.187 244.329 486.702C243.722 485.247 243.078 483.751 242.434 482.295C242.207 481.77 242.434 481.204 242.889 480.961C243.381 480.719 243.912 480.961 244.139 481.446C244.783 482.902 245.428 484.398 246.034 485.853C246.11 485.974 246.148 486.096 246.148 486.257ZM246.072 684.238C246.072 684.44 245.996 684.683 245.882 684.844C244.973 686.138 243.988 687.392 243.002 688.645C242.661 689.09 242.055 689.13 241.676 688.766C241.259 688.402 241.222 687.755 241.563 687.351C242.51 686.138 243.457 684.844 244.367 683.591C244.67 683.146 245.276 683.066 245.693 683.429C245.958 683.632 246.072 683.955 246.072 684.238ZM246.072 98.8265C246.072 99.2308 245.844 99.5947 245.465 99.7564C244.063 100.322 242.661 100.929 241.259 101.535C240.767 101.737 240.236 101.495 240.047 100.969C239.857 100.444 240.085 99.8777 240.577 99.6756C241.979 99.0691 243.381 98.5031 244.821 97.8966C245.314 97.6945 245.844 97.9371 246.034 98.4627C246.034 98.584 246.072 98.7052 246.072 98.8265ZM242.282 477.444C242.282 477.808 242.093 478.172 241.752 478.374C241.297 478.616 240.729 478.414 240.502 477.889C239.857 476.433 239.175 474.978 238.531 473.522C238.304 473.037 238.493 472.431 238.948 472.188C239.403 471.945 239.971 472.148 240.198 472.633C240.88 474.088 241.525 475.544 242.169 476.999C242.282 477.161 242.282 477.323 242.282 477.444ZM240.274 691.677C240.274 691.92 240.198 692.162 240.047 692.364C239.024 693.577 238.001 694.75 236.94 695.922C236.561 696.326 235.992 696.326 235.613 695.962C235.234 695.558 235.234 694.952 235.576 694.547C236.599 693.375 237.66 692.203 238.645 691.03C238.986 690.626 239.592 690.585 239.971 690.949C240.161 691.151 240.274 691.394 240.274 691.677ZM238.266 468.752C238.266 469.115 238.076 469.479 237.735 469.641C237.281 469.884 236.712 469.682 236.447 469.196C235.765 467.781 235.083 466.326 234.363 464.911C234.136 464.426 234.287 463.819 234.78 463.536C235.234 463.294 235.803 463.455 236.068 463.981C236.75 465.436 237.47 466.851 238.152 468.307C238.266 468.469 238.266 468.63 238.266 468.752ZM237.622 102.384C237.622 102.789 237.394 103.152 237.015 103.314C235.613 103.921 234.211 104.527 232.809 105.133C232.317 105.336 231.786 105.093 231.559 104.567C231.369 104.042 231.597 103.476 232.089 103.233C233.491 102.627 234.893 102.02 236.295 101.414C236.788 101.212 237.319 101.454 237.546 101.98C237.584 102.142 237.622 102.263 237.622 102.384ZM234.098 460.181C234.098 460.545 233.908 460.908 233.605 461.07C233.15 461.313 232.582 461.151 232.317 460.666C231.597 459.251 230.877 457.836 230.157 456.421C229.892 455.936 230.081 455.329 230.536 455.046C230.99 454.763 231.559 454.965 231.824 455.451C232.544 456.866 233.264 458.28 233.984 459.736C234.06 459.857 234.098 460.019 234.098 460.181ZM233.984 698.671C233.984 698.954 233.87 699.197 233.681 699.399C232.582 700.531 231.483 701.663 230.346 702.755C229.967 703.118 229.361 703.118 229.02 702.674C228.679 702.269 228.679 701.622 229.096 701.259C230.195 700.167 231.332 699.075 232.393 697.984C232.771 697.58 233.378 697.62 233.719 697.984C233.908 698.146 233.984 698.429 233.984 698.671ZM229.778 451.65C229.778 452.014 229.588 452.337 229.285 452.54C228.831 452.823 228.262 452.62 227.997 452.135C227.277 450.72 226.519 449.305 225.761 447.931C225.496 447.446 225.648 446.839 226.102 446.556C226.557 446.273 227.125 446.435 227.391 446.92C228.149 448.335 228.868 449.75 229.626 451.165C229.74 451.327 229.778 451.488 229.778 451.65ZM229.209 106.063C229.209 106.468 228.982 106.831 228.641 106.993C227.239 107.6 225.875 108.246 224.473 108.893C223.98 109.095 223.45 108.893 223.222 108.368C223.033 107.842 223.222 107.276 223.715 107.034C225.117 106.387 226.519 105.78 227.921 105.133C228.414 104.931 228.944 105.174 229.172 105.659C229.209 105.78 229.209 105.942 229.209 106.063ZM227.277 705.18C227.277 705.463 227.163 705.746 226.936 705.948C225.799 707 224.587 708.051 223.412 709.061C222.995 709.425 222.389 709.344 222.086 708.9C221.745 708.455 221.82 707.808 222.237 707.485C223.412 706.474 224.587 705.463 225.723 704.412C226.14 704.048 226.709 704.089 227.05 704.533C227.201 704.736 227.277 704.938 227.277 705.18ZM225.269 443.241C225.269 443.605 225.117 443.928 224.814 444.13C224.359 444.413 223.791 444.252 223.526 443.766C222.768 442.392 222.01 440.977 221.214 439.602C220.949 439.117 221.1 438.511 221.555 438.228C222.01 437.945 222.578 438.106 222.844 438.592C223.601 439.966 224.397 441.381 225.155 442.796C225.231 442.877 225.269 443.079 225.269 443.241ZM220.873 109.864C220.873 110.268 220.646 110.632 220.305 110.794C218.941 111.44 217.539 112.087 216.174 112.775C215.682 113.017 215.151 112.775 214.924 112.289C214.697 111.764 214.924 111.198 215.379 110.955C216.743 110.268 218.145 109.621 219.547 108.974C220.039 108.732 220.57 108.974 220.797 109.5C220.835 109.621 220.873 109.742 220.873 109.864ZM220.646 434.913C220.646 435.236 220.494 435.6 220.191 435.762C219.736 436.045 219.168 435.883 218.903 435.438C218.107 434.064 217.349 432.689 216.553 431.314C216.288 430.829 216.402 430.223 216.856 429.94C217.311 429.657 217.88 429.778 218.145 430.263C218.941 431.638 219.736 433.012 220.532 434.387C220.608 434.549 220.646 434.71 220.646 434.913ZM220.191 711.245C220.191 711.568 220.077 711.851 219.812 712.053C218.6 713.023 217.349 713.994 216.137 714.924C215.72 715.247 215.113 715.126 214.81 714.681C214.507 714.236 214.621 713.589 215.038 713.266C216.25 712.336 217.501 711.366 218.675 710.436C219.092 710.113 219.698 710.193 220.002 710.638C220.115 710.8 220.191 711.042 220.191 711.245ZM215.871 426.665C215.871 426.988 215.72 427.312 215.417 427.514C214.962 427.797 214.393 427.676 214.128 427.191C213.332 425.816 212.499 424.441 211.703 423.107C211.438 422.622 211.552 422.016 212.006 421.692C212.461 421.409 213.029 421.531 213.332 422.016C214.166 423.39 214.962 424.765 215.795 426.14C215.833 426.301 215.871 426.463 215.871 426.665ZM212.764 716.824C212.764 717.147 212.613 717.471 212.347 717.673C211.097 718.562 209.808 719.452 208.52 720.301C208.065 720.584 207.497 720.462 207.232 719.977C206.967 719.492 207.08 718.886 207.535 718.603C208.823 717.754 210.074 716.864 211.324 715.975C211.741 715.651 212.347 715.773 212.65 716.258C212.726 716.46 212.764 716.622 212.764 716.824ZM212.612 113.907C212.612 114.27 212.423 114.634 212.082 114.836C210.718 115.524 209.354 116.251 208.027 116.939C207.573 117.181 207.004 116.979 206.739 116.494C206.512 116.009 206.701 115.402 207.156 115.119C208.482 114.392 209.884 113.704 211.248 113.017C211.703 112.775 212.271 112.977 212.499 113.502C212.575 113.583 212.612 113.745 212.612 113.907ZM210.945 418.458C210.945 418.781 210.794 419.105 210.528 419.307C210.074 419.63 209.505 419.469 209.202 419.024C208.369 417.69 207.535 416.315 206.701 414.981C206.398 414.496 206.512 413.889 206.967 413.566C207.421 413.243 207.99 413.364 208.293 413.849C209.126 415.183 209.96 416.558 210.794 417.932C210.907 418.094 210.945 418.296 210.945 418.458ZM205.906 410.372C205.906 410.696 205.754 411.019 205.489 411.221C205.072 411.545 204.466 411.423 204.162 410.938C203.329 409.604 202.457 408.27 201.586 406.936C201.283 406.491 201.396 405.844 201.813 405.521C202.23 405.197 202.836 405.319 203.139 405.763C204.011 407.097 204.845 408.432 205.716 409.766C205.868 409.968 205.906 410.17 205.906 410.372ZM205.11 721.999C205.11 722.363 204.958 722.686 204.655 722.888C203.367 723.697 202.04 724.505 200.714 725.314C200.26 725.597 199.691 725.395 199.426 724.91C199.161 724.424 199.35 723.818 199.805 723.535C201.131 722.767 202.419 721.958 203.708 721.15C204.162 720.867 204.731 721.028 204.996 721.514C205.072 721.635 205.11 721.797 205.11 721.999ZM204.466 118.192C204.466 118.556 204.276 118.92 203.973 119.081C202.647 119.85 201.283 120.618 199.994 121.386C199.54 121.669 198.971 121.467 198.706 120.982C198.441 120.496 198.63 119.89 199.085 119.607C200.411 118.839 201.737 118.071 203.101 117.303C203.556 117.06 204.125 117.222 204.39 117.747C204.428 117.869 204.466 118.03 204.466 118.192ZM200.752 402.367C200.752 402.691 200.601 403.014 200.335 403.216C199.918 403.54 199.312 403.418 199.009 402.974C198.138 401.64 197.266 400.346 196.394 399.012C196.091 398.567 196.205 397.92 196.622 397.597C197.039 397.273 197.645 397.395 197.948 397.839C198.82 399.173 199.691 400.507 200.563 401.801C200.714 401.963 200.752 402.165 200.752 402.367ZM197.19 726.688C197.19 727.052 197.001 727.416 196.698 727.578C195.371 728.346 194.007 729.074 192.643 729.801C192.188 730.044 191.62 729.842 191.355 729.357C191.127 728.872 191.317 728.265 191.772 727.982C193.136 727.254 194.462 726.527 195.788 725.799C196.243 725.556 196.811 725.718 197.077 726.203C197.152 726.405 197.19 726.567 197.19 726.688ZM196.546 122.882C196.546 123.246 196.394 123.569 196.091 123.771C194.803 124.58 193.477 125.429 192.226 126.237C191.772 126.52 191.203 126.399 190.938 125.914C190.673 125.429 190.786 124.822 191.241 124.539C192.529 123.69 193.818 122.841 195.144 122.033C195.599 121.75 196.167 121.911 196.432 122.397C196.508 122.558 196.546 122.72 196.546 122.882ZM195.485 394.443C195.485 394.767 195.333 395.05 195.106 395.252C194.689 395.575 194.083 395.494 193.78 395.009C192.908 393.715 191.999 392.381 191.127 391.088C190.824 390.643 190.9 389.996 191.317 389.673C191.734 389.349 192.34 389.43 192.643 389.875C193.552 391.168 194.424 392.503 195.333 393.796C195.447 394.039 195.485 394.241 195.485 394.443ZM190.104 386.6C190.104 386.923 189.991 387.206 189.725 387.409C189.309 387.732 188.702 387.651 188.399 387.206C187.49 385.913 186.58 384.619 185.671 383.325C185.368 382.88 185.443 382.234 185.86 381.91C186.277 381.587 186.883 381.668 187.187 382.112C188.096 383.406 189.005 384.7 189.915 385.994C190.066 386.196 190.104 386.398 190.104 386.6ZM189.043 731.055C189.043 731.419 188.854 731.782 188.513 731.985C187.869 732.308 187.224 732.632 186.542 732.955C185.822 733.319 185.102 733.683 184.382 734.006C183.89 734.249 183.359 734.006 183.132 733.521C182.905 732.995 183.132 732.429 183.587 732.187C184.307 731.823 185.027 731.459 185.747 731.095C186.391 730.772 187.035 730.448 187.679 730.125C188.134 729.882 188.702 730.084 188.93 730.61C189.043 730.731 189.043 730.893 189.043 731.055ZM188.816 127.976C188.816 128.299 188.664 128.623 188.399 128.825C187.149 129.714 185.86 130.604 184.648 131.493C184.231 131.817 183.625 131.695 183.321 131.251C183.018 130.806 183.132 130.159 183.549 129.836C184.799 128.906 186.05 128.016 187.338 127.127C187.793 126.803 188.361 126.965 188.664 127.41C188.778 127.612 188.816 127.814 188.816 127.976ZM184.686 378.838C184.686 379.161 184.534 379.444 184.307 379.646C183.89 379.97 183.284 379.889 182.98 379.444C182.071 378.15 181.199 376.816 180.29 375.522C179.987 375.078 180.101 374.431 180.517 374.107C180.934 373.784 181.541 373.905 181.844 374.35C182.715 375.644 183.625 376.978 184.496 378.272C184.61 378.433 184.686 378.635 184.686 378.838ZM181.351 133.515C181.351 133.838 181.199 134.121 180.972 134.323C179.76 135.293 178.547 136.264 177.372 137.234C176.955 137.598 176.349 137.517 176.046 137.072C175.705 136.628 175.781 135.981 176.198 135.657C177.372 134.647 178.623 133.676 179.835 132.706C180.252 132.383 180.858 132.463 181.162 132.908C181.313 133.07 181.351 133.312 181.351 133.515ZM180.821 735.138C180.821 735.502 180.631 735.866 180.29 736.068C178.926 736.755 177.562 737.483 176.198 738.17C175.743 738.413 175.175 738.211 174.947 737.726C174.72 737.24 174.909 736.634 175.364 736.391C176.728 735.664 178.092 734.976 179.456 734.289C179.911 734.047 180.48 734.249 180.707 734.774C180.821 734.855 180.821 735.017 180.821 735.138ZM179.381 370.994C179.381 371.318 179.229 371.641 178.964 371.843C178.547 372.167 177.941 372.045 177.638 371.601C176.766 370.267 175.894 368.932 175.061 367.598C174.758 367.154 174.871 366.507 175.326 366.183C175.781 365.86 176.349 365.981 176.652 366.466C177.486 367.8 178.358 369.135 179.229 370.428C179.305 370.59 179.381 370.792 179.381 370.994ZM174.265 362.949C174.265 363.272 174.114 363.596 173.848 363.798C173.394 364.121 172.825 363.96 172.522 363.515C171.688 362.181 170.855 360.806 170.059 359.432C169.794 358.947 169.907 358.34 170.362 358.017C170.817 357.734 171.385 357.855 171.688 358.34C172.484 359.674 173.318 361.049 174.151 362.383C174.227 362.585 174.265 362.747 174.265 362.949ZM174.227 139.458C174.227 139.741 174.114 140.024 173.886 140.226C172.711 141.236 171.575 142.328 170.476 143.379C170.097 143.743 169.491 143.703 169.15 143.298C168.809 142.894 168.846 142.247 169.225 141.883C170.362 140.832 171.499 139.741 172.674 138.69C173.09 138.326 173.659 138.406 174 138.811C174.151 139.013 174.227 139.255 174.227 139.458ZM172.674 739.424C172.674 739.787 172.484 740.151 172.143 740.313C170.779 741.041 169.453 741.768 168.127 742.537C167.672 742.779 167.103 742.617 166.838 742.092C166.611 741.607 166.762 741 167.255 740.717C168.581 739.99 169.945 739.221 171.31 738.494C171.764 738.251 172.333 738.453 172.598 738.938C172.674 739.1 172.674 739.262 172.674 739.424ZM169.377 354.782C169.377 355.106 169.225 355.47 168.922 355.631C168.468 355.914 167.899 355.793 167.634 355.308C166.838 353.933 166.042 352.518 165.247 351.144C164.981 350.659 165.133 350.052 165.588 349.769C166.042 349.486 166.611 349.648 166.876 350.133C167.634 351.508 168.43 352.882 169.225 354.257C169.339 354.418 169.377 354.621 169.377 354.782ZM167.444 145.886C167.444 146.169 167.331 146.411 167.141 146.614C166.042 147.705 164.981 148.837 163.92 149.969C163.541 150.373 162.973 150.373 162.594 149.969C162.215 149.565 162.215 148.958 162.594 148.554C163.655 147.422 164.754 146.25 165.853 145.118C166.232 144.713 166.838 144.754 167.179 145.158C167.331 145.401 167.444 145.643 167.444 145.886ZM164.716 346.494C164.716 346.858 164.565 347.182 164.261 347.384C163.807 347.667 163.238 347.505 162.973 347.02C162.215 345.645 161.457 344.19 160.7 342.815C160.434 342.33 160.586 341.724 161.078 341.441C161.533 341.158 162.102 341.32 162.367 341.845C163.087 343.26 163.845 344.635 164.602 346.05C164.678 346.131 164.716 346.333 164.716 346.494ZM164.64 743.911C164.64 744.275 164.451 744.639 164.148 744.801C162.822 745.569 161.495 746.337 160.169 747.105C159.714 747.388 159.146 747.186 158.881 746.701C158.615 746.216 158.805 745.609 159.26 745.326C160.586 744.558 161.912 743.75 163.238 742.981C163.693 742.698 164.261 742.9 164.527 743.386C164.603 743.588 164.64 743.749 164.64 743.911ZM161.078 152.799C161.078 153.042 161.003 153.284 160.813 153.486C159.79 154.659 158.805 155.872 157.858 157.085C157.517 157.529 156.91 157.57 156.531 157.206C156.115 156.842 156.077 156.195 156.418 155.791C157.403 154.578 158.426 153.325 159.449 152.112C159.79 151.708 160.396 151.667 160.775 152.031C160.965 152.274 161.078 152.557 161.078 152.799ZM160.245 338.045C160.245 338.409 160.055 338.732 159.752 338.934C159.298 339.217 158.729 339.015 158.464 338.53C157.744 337.115 157.024 335.659 156.304 334.244C156.077 333.759 156.228 333.153 156.721 332.87C157.176 332.627 157.744 332.789 158.009 333.315C158.691 334.73 159.411 336.185 160.169 337.6C160.207 337.721 160.245 337.883 160.245 338.045ZM156.721 748.641C156.721 749.005 156.531 749.329 156.228 749.531C154.902 750.339 153.614 751.148 152.325 751.957C151.871 752.24 151.302 752.078 151.037 751.593C150.772 751.108 150.923 750.501 151.378 750.218C152.666 749.41 153.993 748.561 155.319 747.752C155.774 747.469 156.342 747.631 156.607 748.116C156.683 748.278 156.721 748.439 156.721 748.641ZM156.001 329.433C156.001 329.797 155.811 330.161 155.47 330.323C155.016 330.565 154.447 330.363 154.182 329.878C153.5 328.423 152.818 326.967 152.136 325.512C151.908 325.027 152.098 324.42 152.59 324.178C153.045 323.935 153.614 324.137 153.841 324.663C154.485 326.118 155.167 327.574 155.849 328.989C156.001 329.15 156.001 329.312 156.001 329.433ZM155.205 160.198C155.205 160.4 155.129 160.642 155.016 160.804C154.106 162.057 153.197 163.351 152.325 164.645C152.022 165.09 151.416 165.211 150.999 164.887C150.582 164.564 150.468 163.917 150.772 163.472C151.643 162.179 152.59 160.845 153.5 159.551C153.841 159.106 154.409 159.025 154.826 159.389C155.091 159.591 155.205 159.915 155.205 160.198ZM152.022 320.701C152.022 321.065 151.833 321.428 151.492 321.631C150.999 321.873 150.469 321.631 150.241 321.145C149.597 319.69 148.953 318.194 148.347 316.698C148.119 316.173 148.347 315.607 148.839 315.364C149.332 315.122 149.862 315.364 150.09 315.89C150.696 317.345 151.34 318.841 151.984 320.296C152.022 320.418 152.022 320.579 152.022 320.701ZM149.938 168.081C149.938 168.284 149.9 168.486 149.786 168.647C148.953 169.981 148.157 171.356 147.399 172.69C147.134 173.175 146.566 173.337 146.111 173.054C145.656 172.771 145.505 172.165 145.77 171.68C146.566 170.305 147.361 168.89 148.195 167.556C148.498 167.071 149.066 166.949 149.521 167.273C149.786 167.435 149.938 167.758 149.938 168.081ZM148.915 753.574C148.915 753.897 148.763 754.261 148.46 754.423C147.172 755.272 145.884 756.121 144.633 756.97C144.178 757.253 143.61 757.131 143.307 756.646C143.042 756.161 143.155 755.555 143.61 755.231C144.86 754.382 146.187 753.493 147.475 752.644C147.93 752.361 148.498 752.482 148.763 752.967C148.877 753.21 148.915 753.372 148.915 753.574ZM148.347 311.847C148.347 312.251 148.119 312.615 147.778 312.777C147.286 312.979 146.755 312.736 146.528 312.251C145.921 310.755 145.353 309.259 144.785 307.763C144.595 307.238 144.822 306.672 145.315 306.429C145.808 306.227 146.338 306.47 146.566 306.995C147.134 308.491 147.702 309.987 148.309 311.442C148.309 311.604 148.347 311.725 148.347 311.847ZM145.239 176.369C145.239 176.531 145.201 176.693 145.126 176.854C144.406 178.269 143.724 179.684 143.042 181.099C142.814 181.585 142.246 181.787 141.791 181.544C141.336 181.302 141.109 180.695 141.374 180.21C142.056 178.755 142.738 177.299 143.496 175.884C143.761 175.399 144.33 175.197 144.785 175.48C145.05 175.642 145.239 176.005 145.239 176.369ZM144.936 302.872C144.936 303.276 144.709 303.68 144.33 303.801C143.837 304.004 143.307 303.761 143.117 303.235C142.587 301.699 142.018 300.203 141.526 298.667C141.336 298.141 141.602 297.575 142.094 297.373C142.587 297.171 143.117 297.454 143.307 297.98C143.799 299.476 144.33 301.012 144.898 302.508C144.898 302.629 144.936 302.75 144.936 302.872ZM141.829 293.775C141.829 294.179 141.564 294.584 141.185 294.745C140.692 294.907 140.162 294.624 139.972 294.098C139.48 292.562 138.987 291.026 138.532 289.49C138.381 288.964 138.646 288.398 139.139 288.236C139.631 288.075 140.162 288.358 140.313 288.883C140.768 290.379 141.223 291.956 141.715 293.452C141.829 293.573 141.829 293.654 141.829 293.775ZM141.261 758.789C141.261 759.113 141.109 759.436 140.844 759.638C139.593 760.528 138.343 761.457 137.092 762.347C136.676 762.67 136.069 762.549 135.766 762.104C135.463 761.66 135.577 761.013 135.994 760.689C137.244 759.759 138.494 758.87 139.783 757.98C140.2 757.657 140.806 757.778 141.109 758.263C141.223 758.385 141.261 758.587 141.261 758.789ZM141.261 185.062C141.261 185.183 141.223 185.345 141.185 185.466C140.579 186.921 140.01 188.417 139.48 189.913C139.29 190.439 138.722 190.681 138.267 190.479C137.774 190.277 137.547 189.67 137.737 189.185C138.305 187.689 138.873 186.153 139.48 184.657C139.707 184.132 140.237 183.93 140.73 184.132C141.033 184.293 141.261 184.657 141.261 185.062ZM139.101 284.557C139.101 285.002 138.835 285.406 138.419 285.528C137.926 285.689 137.396 285.366 137.244 284.84C136.827 283.264 136.41 281.687 135.993 280.15C135.842 279.625 136.145 279.059 136.676 278.897C137.168 278.735 137.699 279.059 137.85 279.625C138.229 281.161 138.646 282.697 139.063 284.274C139.063 284.355 139.101 284.436 139.101 284.557ZM137.964 194.077C137.964 194.199 137.964 194.279 137.926 194.401C137.433 195.896 136.979 197.433 136.562 198.969C136.41 199.495 135.88 199.818 135.387 199.656C134.895 199.495 134.591 198.929 134.743 198.403C135.16 196.826 135.652 195.29 136.145 193.754C136.297 193.228 136.865 192.945 137.358 193.107C137.699 193.269 137.964 193.632 137.964 194.077ZM136.713 275.218C136.713 275.663 136.41 276.067 135.993 276.188C135.501 276.31 134.97 275.986 134.857 275.461C134.478 273.884 134.137 272.307 133.834 270.73C133.72 270.205 134.061 269.639 134.554 269.518C135.046 269.396 135.577 269.76 135.69 270.286C135.993 271.822 136.335 273.399 136.713 274.976C136.713 275.056 136.713 275.137 136.713 275.218ZM135.387 203.376C135.387 203.457 135.387 203.538 135.349 203.618C134.97 205.155 134.629 206.731 134.326 208.308C134.213 208.874 133.72 209.198 133.189 209.076C132.659 208.955 132.356 208.429 132.469 207.863C132.773 206.287 133.114 204.67 133.493 203.093C133.606 202.567 134.137 202.203 134.629 202.365C135.084 202.486 135.387 202.931 135.387 203.376ZM134.781 265.758C134.781 266.243 134.478 266.647 134.023 266.768C133.493 266.89 133 266.526 132.924 265.96C132.621 264.343 132.356 262.766 132.128 261.189C132.053 260.623 132.394 260.138 132.924 260.017C133.455 259.936 133.909 260.3 134.023 260.866C134.25 262.443 134.516 264.019 134.819 265.596C134.781 265.636 134.781 265.717 134.781 265.758ZM133.796 764.287C133.796 764.611 133.644 764.894 133.417 765.096C132.204 766.026 130.954 766.996 129.779 767.966C129.362 768.29 128.756 768.209 128.453 767.764C128.15 767.32 128.226 766.673 128.642 766.349C129.855 765.379 131.067 764.409 132.318 763.479C132.735 763.155 133.341 763.236 133.644 763.721C133.758 763.883 133.796 764.085 133.796 764.287ZM133.53 212.836C133.53 212.877 133.53 212.957 133.53 212.998C133.303 214.575 133.076 216.151 132.886 217.769C132.811 218.335 132.356 218.698 131.825 218.658C131.295 218.618 130.954 218.092 130.992 217.526C131.181 215.909 131.408 214.292 131.674 212.715C131.75 212.149 132.242 211.785 132.773 211.866C133.189 211.947 133.53 212.351 133.53 212.836ZM133.303 256.217C133.303 256.702 132.962 257.146 132.469 257.227C131.939 257.308 131.484 256.904 131.408 256.378C131.181 254.761 131.03 253.144 130.84 251.567C130.764 251.001 131.143 250.516 131.674 250.435C132.204 250.395 132.659 250.759 132.735 251.325C132.886 252.901 133.076 254.518 133.303 256.095C133.303 256.136 133.303 256.176 133.303 256.217ZM132.356 222.458C132.356 222.499 132.356 222.499 132.356 222.539C132.242 224.116 132.128 225.733 132.053 227.35C132.015 227.916 131.56 228.321 131.067 228.321C130.537 228.28 130.158 227.795 130.158 227.269C130.234 225.652 130.347 223.995 130.499 222.418C130.537 221.852 130.992 221.448 131.522 221.488C132.015 221.488 132.356 221.933 132.356 222.458ZM132.318 246.635C132.318 247.16 131.939 247.605 131.446 247.646C130.916 247.686 130.461 247.282 130.423 246.716C130.31 245.099 130.196 243.481 130.12 241.864C130.082 241.298 130.499 240.813 131.03 240.813C131.56 240.773 132.015 241.217 132.015 241.783C132.091 243.36 132.166 244.977 132.318 246.594C132.318 246.554 132.318 246.594 132.318 246.635ZM131.901 232.121C131.863 233.738 131.863 235.355 131.901 236.932C131.901 237.498 131.484 237.943 130.954 237.943C130.423 237.943 130.006 237.498 130.006 236.932C129.969 235.315 129.969 233.698 130.006 232.04C130.006 231.474 130.461 231.029 130.954 231.029C131.484 231.11 131.901 231.555 131.901 232.121ZM126.558 770.109C126.558 770.392 126.445 770.716 126.179 770.918C125.005 771.928 123.83 772.939 122.655 773.95C122.238 774.314 121.67 774.233 121.329 773.829C120.988 773.384 121.064 772.777 121.443 772.414C122.617 771.403 123.792 770.352 125.005 769.341C125.421 768.977 126.028 769.058 126.331 769.503C126.482 769.705 126.558 769.907 126.558 770.109ZM122.769 1125.72C122.769 1126.81 122.769 1127.95 122.731 1129.04C122.731 1129.6 122.276 1130.05 121.784 1130.05C121.253 1130.05 120.874 1129.56 120.836 1129.04C120.874 1127.42 120.874 1125.84 120.836 1124.23C120.836 1123.66 121.253 1123.22 121.784 1123.22C122.314 1123.22 122.731 1123.66 122.731 1124.23C122.769 1124.67 122.769 1125.2 122.769 1125.72ZM122.693 1119.33C122.693 1119.9 122.276 1120.35 121.784 1120.35C121.253 1120.35 120.836 1119.9 120.799 1119.38C120.761 1117.8 120.723 1116.14 120.647 1114.52C120.609 1113.96 121.026 1113.51 121.556 1113.47C122.087 1113.43 122.504 1113.88 122.542 1114.44C122.58 1116.06 122.655 1117.72 122.693 1119.33ZM122.617 1133.85C122.617 1133.89 122.617 1133.89 122.617 1133.85C122.58 1135.51 122.504 1137.16 122.428 1138.74C122.39 1139.31 121.935 1139.71 121.443 1139.71C120.912 1139.67 120.533 1139.19 120.533 1138.66C120.609 1137.08 120.685 1135.47 120.723 1133.85C120.723 1133.28 121.178 1132.84 121.708 1132.88C122.239 1132.88 122.617 1133.32 122.617 1133.85ZM122.276 1109.63C122.276 1110.16 121.897 1110.6 121.405 1110.64C120.874 1110.68 120.42 1110.24 120.42 1109.71C120.344 1108.14 120.23 1106.48 120.117 1104.9C120.079 1104.34 120.458 1103.85 120.988 1103.81C121.519 1103.77 121.973 1104.17 122.011 1104.74C122.125 1106.36 122.239 1107.97 122.314 1109.59C122.276 1109.59 122.276 1109.63 122.276 1109.63ZM122.125 1143.55C122.125 1143.59 122.125 1143.59 122.125 1143.63C122.011 1145.25 121.86 1146.91 121.708 1148.48C121.67 1149.05 121.178 1149.45 120.685 1149.37C120.154 1149.33 119.775 1148.81 119.851 1148.28C120.003 1146.71 120.154 1145.09 120.268 1143.47C120.306 1142.9 120.761 1142.5 121.291 1142.54C121.746 1142.58 122.125 1143.03 122.125 1143.55ZM121.594 1099.97C121.594 1100.49 121.215 1100.94 120.723 1100.98C120.192 1101.02 119.738 1100.62 119.7 1100.05C119.548 1098.47 119.397 1096.86 119.245 1095.24C119.169 1094.67 119.548 1094.19 120.079 1094.11C120.609 1094.07 121.064 1094.43 121.14 1095C121.291 1096.61 121.443 1098.23 121.594 1099.85C121.594 1099.89 121.594 1099.93 121.594 1099.97ZM121.215 1153.21C121.215 1153.25 121.215 1153.29 121.215 1153.34C121.026 1154.95 120.799 1156.57 120.571 1158.15C120.495 1158.71 120.003 1159.08 119.51 1159C118.98 1158.91 118.639 1158.39 118.715 1157.86C118.942 1156.29 119.131 1154.67 119.321 1153.09C119.397 1152.53 119.851 1152.16 120.382 1152.2C120.837 1152.28 121.215 1152.69 121.215 1153.21ZM120.609 1090.31C120.609 1090.79 120.268 1091.24 119.775 1091.32C119.245 1091.4 118.79 1090.99 118.714 1090.43C118.525 1088.85 118.336 1087.23 118.108 1085.62C118.032 1085.05 118.411 1084.57 118.904 1084.48C119.434 1084.4 119.889 1084.81 119.965 1085.33C120.154 1086.95 120.382 1088.57 120.571 1090.14C120.609 1090.23 120.609 1090.27 120.609 1090.31ZM119.813 1162.8C119.813 1162.84 119.813 1162.92 119.813 1162.96C119.548 1164.57 119.245 1166.15 118.942 1167.73C118.828 1168.29 118.336 1168.62 117.805 1168.5C117.275 1168.37 116.971 1167.85 117.085 1167.28C117.388 1165.71 117.691 1164.13 117.957 1162.55C118.032 1161.99 118.525 1161.62 119.056 1161.74C119.51 1161.91 119.813 1162.31 119.813 1162.8ZM119.548 776.295C119.548 776.578 119.434 776.861 119.207 777.063C118.07 778.114 116.934 779.206 115.835 780.257C115.456 780.621 114.849 780.621 114.508 780.176C114.167 779.772 114.167 779.125 114.584 778.761C115.683 777.669 116.82 776.578 117.995 775.527C118.373 775.163 118.98 775.203 119.321 775.608C119.472 775.81 119.548 776.052 119.548 776.295ZM119.359 1080.68C119.359 1081.17 119.018 1081.61 118.563 1081.7C118.032 1081.78 117.578 1081.41 117.502 1080.85C117.275 1079.27 117.047 1077.65 116.782 1076.08C116.706 1075.51 117.047 1075.02 117.578 1074.9C118.108 1074.82 118.563 1075.19 118.677 1075.75C118.904 1077.37 119.169 1078.99 119.397 1080.56C119.359 1080.6 119.359 1080.64 119.359 1080.68ZM117.995 1172.3C117.995 1172.38 117.995 1172.46 117.957 1172.54C117.616 1174.12 117.237 1175.69 116.858 1177.27C116.706 1177.79 116.214 1178.12 115.683 1178C115.19 1177.84 114.887 1177.31 115.001 1176.74C115.38 1175.21 115.759 1173.63 116.1 1172.09C116.214 1171.57 116.744 1171.21 117.237 1171.33C117.691 1171.41 117.995 1171.81 117.995 1172.3ZM117.881 1071.1C117.881 1071.59 117.54 1071.99 117.085 1072.11C116.555 1072.19 116.062 1071.83 115.986 1071.31C115.721 1069.73 115.456 1068.11 115.19 1066.53C115.077 1065.97 115.418 1065.44 115.948 1065.36C116.479 1065.24 116.971 1065.6 117.047 1066.17C117.312 1067.75 117.616 1069.36 117.881 1070.94C117.881 1070.98 117.881 1071.06 117.881 1071.1ZM116.214 1061.56C116.214 1062.05 115.91 1062.45 115.456 1062.53C114.925 1062.65 114.433 1062.29 114.357 1061.72C114.054 1060.15 113.751 1058.57 113.447 1056.99C113.334 1056.43 113.675 1055.9 114.167 1055.78C114.698 1055.66 115.19 1056.02 115.304 1056.55C115.607 1058.13 115.91 1059.74 116.214 1061.32C116.214 1061.44 116.214 1061.48 116.214 1061.56ZM115.645 1181.64C115.645 1181.72 115.645 1181.84 115.607 1181.92C115.19 1183.45 114.736 1185.03 114.243 1186.57C114.092 1187.09 113.561 1187.38 113.031 1187.21C112.538 1187.05 112.273 1186.49 112.424 1185.92C112.879 1184.43 113.334 1182.85 113.751 1181.35C113.902 1180.83 114.433 1180.5 114.925 1180.67C115.38 1180.79 115.645 1181.19 115.645 1181.64ZM114.357 1052.06C114.357 1052.51 114.054 1052.95 113.599 1053.03C113.106 1053.15 112.576 1052.79 112.462 1052.26C112.121 1050.69 111.818 1049.11 111.477 1047.53C111.363 1047.01 111.666 1046.44 112.197 1046.32C112.69 1046.2 113.22 1046.52 113.334 1047.09C113.675 1048.66 114.016 1050.24 114.319 1051.82C114.357 1051.9 114.357 1051.98 114.357 1052.06ZM112.879 782.844C112.879 783.127 112.765 783.37 112.576 783.572C111.477 784.704 110.416 785.836 109.393 786.968C109.014 787.372 108.446 787.372 108.067 786.968C107.688 786.564 107.688 785.957 108.067 785.553C109.128 784.421 110.189 783.249 111.288 782.117C111.666 781.712 112.273 781.753 112.614 782.157C112.803 782.319 112.879 782.602 112.879 782.844ZM112.841 1190.81C112.841 1190.93 112.841 1191.06 112.803 1191.18C112.273 1192.71 111.742 1194.21 111.174 1195.7C110.984 1196.23 110.416 1196.47 109.961 1196.27C109.469 1196.07 109.241 1195.46 109.431 1194.98C109.961 1193.52 110.53 1191.99 111.022 1190.49C111.212 1189.96 111.742 1189.68 112.235 1189.88C112.614 1190 112.841 1190.41 112.841 1190.81ZM112.349 1042.6C112.349 1043.05 112.045 1043.49 111.629 1043.57C111.136 1043.69 110.605 1043.37 110.492 1042.8C110.151 1041.23 109.772 1039.65 109.431 1038.11C109.317 1037.59 109.62 1037.02 110.113 1036.9C110.605 1036.78 111.136 1037.1 111.25 1037.63C111.629 1039.2 111.97 1040.78 112.311 1042.36C112.311 1042.44 112.349 1042.52 112.349 1042.6ZM110.151 1033.18C110.151 1033.63 109.848 1034.03 109.431 1034.15C108.938 1034.27 108.408 1033.95 108.294 1033.42C107.915 1031.85 107.536 1030.31 107.157 1028.73C107.006 1028.21 107.309 1027.64 107.839 1027.48C108.332 1027.36 108.862 1027.64 109.014 1028.21C109.393 1029.78 109.772 1031.36 110.151 1032.9C110.151 1033.02 110.151 1033.1 110.151 1033.18ZM109.507 1199.83C109.507 1199.95 109.469 1200.11 109.431 1200.23C108.825 1201.73 108.18 1203.22 107.536 1204.68C107.309 1205.21 106.74 1205.41 106.286 1205.17C105.793 1204.92 105.604 1204.32 105.831 1203.83C106.475 1202.38 107.081 1200.92 107.688 1199.46C107.877 1198.94 108.446 1198.7 108.938 1198.94C109.279 1199.06 109.507 1199.42 109.507 1199.83ZM107.839 1023.8C107.839 1024.25 107.574 1024.65 107.119 1024.77C106.627 1024.93 106.096 1024.61 105.945 1024.04C105.566 1022.47 105.149 1020.93 104.77 1019.35C104.618 1018.83 104.922 1018.26 105.414 1018.1C105.907 1017.94 106.437 1018.26 106.589 1018.79C107.006 1020.36 107.385 1021.9 107.801 1023.48C107.839 1023.64 107.839 1023.72 107.839 1023.8ZM106.551 789.798C106.551 790.041 106.475 790.283 106.286 790.485C105.263 791.658 104.277 792.871 103.292 794.084C102.951 794.488 102.345 794.569 101.966 794.205C101.587 793.841 101.511 793.194 101.852 792.79C102.837 791.577 103.861 790.324 104.884 789.151C105.225 788.747 105.831 788.707 106.21 789.07C106.437 789.232 106.551 789.515 106.551 789.798ZM105.642 1208.56C105.642 1208.72 105.604 1208.88 105.528 1209.01C104.846 1210.46 104.126 1211.88 103.406 1213.33C103.141 1213.82 102.572 1214.02 102.118 1213.74C101.663 1213.45 101.473 1212.85 101.739 1212.36C102.459 1210.95 103.179 1209.53 103.861 1208.12C104.088 1207.63 104.656 1207.43 105.149 1207.67C105.452 1207.83 105.642 1208.2 105.642 1208.56ZM105.452 1014.46C105.452 1014.91 105.187 1015.31 104.77 1015.43C104.277 1015.59 103.747 1015.27 103.595 1014.74C103.178 1013.21 102.762 1011.63 102.345 1010.1C102.193 1009.57 102.496 1009 102.989 1008.84C103.482 1008.68 104.012 1009 104.164 1009.53C104.581 1011.07 104.997 1012.64 105.414 1014.18C105.414 1014.26 105.452 1014.34 105.452 1014.46ZM102.913 1005.12C102.913 1005.57 102.648 1005.97 102.231 1006.09C101.739 1006.25 101.208 1005.93 101.057 1005.41C100.64 1003.87 100.185 1002.29 99.7681 1000.76C99.6166 1000.23 99.9197 999.665 100.412 999.503C100.905 999.341 101.435 999.665 101.587 1000.19C102.004 1001.73 102.459 1003.3 102.875 1004.84C102.913 1004.92 102.913 1005.04 102.913 1005.12ZM101.284 1217.05C101.284 1217.21 101.246 1217.42 101.17 1217.58C100.412 1218.95 99.6166 1220.37 98.783 1221.74C98.5177 1222.23 97.9114 1222.35 97.4946 1222.06C97.0399 1221.78 96.9262 1221.13 97.1915 1220.69C97.9872 1219.36 98.783 1217.94 99.5408 1216.57C99.8061 1216.08 100.374 1215.92 100.829 1216.2C101.132 1216.36 101.284 1216.73 101.284 1217.05ZM100.64 797.156C100.64 797.358 100.564 797.601 100.45 797.803C99.5029 799.056 98.5935 800.35 97.7219 801.603C97.4188 802.048 96.8125 802.129 96.3957 801.806C95.9789 801.482 95.9031 800.835 96.2062 800.39C97.1156 799.097 98.0251 797.803 99.0103 796.509C99.3513 796.065 99.9197 795.984 100.337 796.348C100.526 796.55 100.64 796.833 100.64 797.156ZM100.337 995.824C100.337 996.269 100.071 996.673 99.6545 996.794C99.1619 996.956 98.6314 996.673 98.4798 996.107C98.0251 994.571 97.6083 993.035 97.1536 991.458C97.002 990.932 97.2672 990.366 97.7977 990.204C98.2903 990.043 98.8208 990.326 98.9724 990.892C99.4271 992.428 99.8439 993.964 100.299 995.541C100.299 995.622 100.337 995.743 100.337 995.824ZM97.6462 986.566C97.6462 987.011 97.3809 987.415 96.9641 987.536C96.4715 987.698 95.941 987.415 95.7894 986.889C95.3347 985.353 94.88 983.817 94.4253 982.28C94.2737 981.755 94.539 981.189 95.0316 981.027C95.5242 980.865 96.0547 981.148 96.2062 981.674C96.661 983.21 97.1157 984.747 97.5704 986.283C97.6462 986.364 97.6462 986.485 97.6462 986.566ZM96.4336 1225.26C96.4336 1225.46 96.3957 1225.66 96.282 1225.82C95.4484 1227.16 94.5769 1228.49 93.6675 1229.83C93.3643 1230.27 92.758 1230.39 92.3412 1230.07C91.9244 1229.75 91.8107 1229.1 92.1139 1228.65C92.9854 1227.36 93.8569 1226.03 94.6906 1224.69C94.9937 1224.25 95.5621 1224.13 96.0168 1224.41C96.282 1224.61 96.4336 1224.94 96.4336 1225.26ZM95.2589 804.919C95.2589 805.121 95.221 805.323 95.1073 805.485C94.2737 806.819 93.4401 808.153 92.6443 809.487C92.3791 809.972 91.7728 810.093 91.356 809.81C90.9013 809.527 90.7876 808.881 91.0528 808.436C91.8486 807.061 92.7201 805.687 93.5537 804.353C93.8569 803.908 94.4253 803.787 94.88 804.11C95.1073 804.272 95.2589 804.595 95.2589 804.919ZM94.9558 977.348C94.9558 977.793 94.6905 978.157 94.3116 978.318C93.819 978.48 93.2885 978.197 93.1369 977.672C92.8717 976.782 92.6064 975.852 92.3412 974.963L91.7728 973.063C91.6212 972.537 91.8865 971.971 92.3791 971.809C92.8717 971.648 93.4022 971.931 93.5537 972.456L94.1221 974.356C94.3874 975.246 94.6526 976.176 94.9179 977.065C94.9179 977.146 94.9558 977.227 94.9558 977.348ZM92.1896 968.09C92.1896 968.535 91.9244 968.939 91.5075 969.06C91.0149 969.222 90.4844 968.939 90.3329 968.413C89.8782 966.877 89.4234 965.3 89.0066 963.764C88.8551 963.238 89.1203 962.672 89.6508 962.511C90.1434 962.349 90.6739 962.632 90.8255 963.198C91.2802 964.734 91.697 966.271 92.1517 967.807C92.1896 967.888 92.1896 968.009 92.1896 968.09ZM91.1286 1233.1C91.1286 1233.3 91.0529 1233.55 90.9392 1233.71C90.0298 1235 89.0824 1236.3 88.0972 1237.55C87.7562 1237.99 87.1878 1238.03 86.771 1237.71C86.3542 1237.35 86.3163 1236.74 86.6194 1236.3C87.5667 1235.04 88.514 1233.79 89.4235 1232.54C89.7266 1232.09 90.3329 1232.01 90.7497 1232.33C91.015 1232.5 91.1286 1232.82 91.1286 1233.1ZM90.4086 813.085C90.4086 813.247 90.3708 813.449 90.295 813.57C89.5371 814.945 88.8172 816.36 88.1351 817.775C87.9077 818.26 87.3014 818.462 86.8467 818.22C86.392 817.977 86.2026 817.33 86.4299 816.845C87.1499 815.43 87.8698 813.975 88.6277 812.56C88.8929 812.074 89.4613 811.913 89.916 812.196C90.2571 812.398 90.4086 812.762 90.4086 813.085ZM89.5371 958.832C89.5371 959.276 89.2719 959.681 88.8551 959.802C88.3625 959.964 87.832 959.64 87.6804 959.115C87.2636 957.538 86.8089 956.002 86.392 954.465C86.2405 953.94 86.5436 953.374 87.0362 953.212C87.5288 953.05 88.0593 953.374 88.2109 953.899C88.6277 955.436 89.0445 956.972 89.4992 958.549C89.5371 958.629 89.5371 958.751 89.5371 958.832ZM86.9983 949.533C86.9983 949.978 86.7331 950.382 86.3162 950.503C85.8236 950.665 85.2931 950.342 85.1416 949.816C84.7248 948.239 84.3079 946.703 83.929 945.126C83.7774 944.601 84.0806 944.035 84.6111 943.873C85.1037 943.711 85.6342 944.035 85.7857 944.601C86.1647 946.137 86.5815 947.714 86.9983 949.25C86.9983 949.331 86.9983 949.452 86.9983 949.533ZM86.2026 821.656C86.2026 821.818 86.1647 821.939 86.1268 822.101C85.4826 823.556 84.8763 825.012 84.3079 826.467C84.1185 826.993 83.5501 827.235 83.0575 826.993C82.5649 826.791 82.3375 826.184 82.5649 825.659C83.1711 824.163 83.7774 822.667 84.4216 821.211C84.649 820.726 85.2174 820.484 85.6721 820.726C86.0131 820.928 86.2026 821.292 86.2026 821.656ZM85.4068 1240.62C85.4068 1240.86 85.3311 1241.11 85.1795 1241.27C84.1943 1242.48 83.1712 1243.69 82.1481 1244.91C81.807 1245.31 81.2008 1245.35 80.8218 1244.99C80.4429 1244.62 80.405 1243.98 80.7461 1243.57C81.7692 1242.4 82.7544 1241.19 83.7396 1239.97C84.0806 1239.57 84.6869 1239.49 85.0658 1239.85C85.2932 1240.06 85.4068 1240.34 85.4068 1240.62ZM84.649 940.194C84.649 940.639 84.3837 941.043 83.929 941.164C83.4364 941.285 82.9059 940.962 82.7543 940.436C82.3754 938.86 81.9965 937.283 81.6176 935.747C81.5039 935.221 81.807 934.655 82.2996 934.534C82.7922 934.413 83.3227 934.736 83.4364 935.262C83.8153 936.798 84.1943 938.375 84.5732 939.951C84.6111 939.992 84.649 940.113 84.649 940.194ZM82.6785 830.591C82.6785 830.712 82.6406 830.833 82.6028 830.955C82.0723 832.451 81.5797 833.987 81.1249 835.483C80.9734 836.008 80.4429 836.291 79.9124 836.13C79.4198 835.968 79.1545 835.402 79.3061 834.836C79.7608 833.3 80.2913 831.723 80.8218 830.227C81.0113 829.701 81.5418 829.418 82.0344 829.621C82.4512 829.782 82.6785 830.187 82.6785 830.591ZM82.4133 930.774C82.4133 931.219 82.1102 931.663 81.6933 931.744C81.2007 931.865 80.6702 931.542 80.5566 930.976C80.2155 929.399 79.8745 927.782 79.5335 926.246C79.4198 925.72 79.7229 925.154 80.2534 925.033C80.746 924.912 81.2765 925.235 81.3902 925.801C81.7312 927.337 82.0723 928.914 82.4133 930.491C82.4133 930.612 82.4133 930.693 82.4133 930.774ZM80.4429 921.314C80.4429 921.799 80.1397 922.203 79.685 922.284C79.1545 922.405 78.6619 922.041 78.5482 921.516C78.2451 919.899 77.942 918.322 77.6388 916.745C77.5251 916.179 77.8662 915.653 78.3967 915.573C78.9272 915.451 79.4198 915.815 79.4956 916.381C79.7608 917.917 80.064 919.535 80.405 921.111C80.4429 921.192 80.4429 921.273 80.4429 921.314ZM79.8745 839.809C79.8745 839.89 79.8745 839.97 79.8366 840.092C79.4198 841.628 79.0408 843.164 78.6998 844.741C78.5861 845.267 78.0556 845.631 77.563 845.509C77.0704 845.388 76.7294 844.822 76.8431 844.296C77.1841 842.72 77.563 841.143 77.9798 839.566C78.1314 839.041 78.6619 838.717 79.1545 838.879C79.6092 838.96 79.8745 839.364 79.8745 839.809ZM79.3061 1247.78C79.3061 1248.02 79.2303 1248.26 79.0409 1248.46C77.9799 1249.64 76.9189 1250.81 75.82 1251.94C75.4411 1252.35 74.8348 1252.35 74.4938 1251.94C74.1148 1251.54 74.1148 1250.89 74.4938 1250.53C75.5548 1249.39 76.6157 1248.26 77.6767 1247.09C78.0557 1246.69 78.6241 1246.69 79.003 1247.05C79.1924 1247.25 79.3061 1247.53 79.3061 1247.78ZM78.7377 911.813C78.7377 912.298 78.3967 912.702 77.942 912.823C77.4115 912.904 76.9189 912.54 76.8431 912.015C76.5778 910.398 76.3126 908.781 76.0852 907.204C76.0094 906.638 76.3505 906.153 76.881 906.031C77.4115 905.951 77.8662 906.314 77.9799 906.88C78.2072 908.457 78.4725 910.034 78.7377 911.651C78.6998 911.691 78.7377 911.772 78.7377 911.813ZM77.7904 849.229C77.7904 849.31 77.7904 849.35 77.7904 849.431C77.5251 850.967 77.2599 852.584 77.0325 854.161C76.9567 854.727 76.4641 855.091 75.9336 855.01C75.4031 854.929 75.0621 854.404 75.1379 853.838C75.3653 852.22 75.6305 850.603 75.9336 849.027C76.0473 848.461 76.5399 848.137 77.0325 848.218C77.4872 848.339 77.7904 848.744 77.7904 849.229ZM77.2978 902.231C77.2978 902.716 76.9568 903.161 76.4641 903.242C75.9337 903.323 75.4789 902.918 75.4032 902.393C75.1758 900.776 74.9863 899.158 74.8348 897.582C74.759 897.016 75.1379 896.531 75.6684 896.45C76.1989 896.369 76.6536 896.773 76.7294 897.339C76.9189 898.916 77.1083 900.533 77.2978 902.11C77.2978 902.15 77.2978 902.191 77.2978 902.231ZM76.3884 858.77C76.3884 858.81 76.3884 858.851 76.3884 858.891C76.1989 860.468 76.0473 862.085 75.9336 863.662C75.8958 864.228 75.441 864.632 74.9105 864.592C74.38 864.551 74.0011 864.066 74.039 863.5C74.1527 861.883 74.3043 860.225 74.4937 858.649C74.5695 858.083 75.0242 857.678 75.5547 857.759C76.0473 857.84 76.3884 858.285 76.3884 858.77ZM76.2747 892.609C76.2747 893.135 75.8958 893.579 75.4032 893.62C74.8727 893.66 74.4179 893.256 74.38 892.69C74.2285 891.073 74.1148 889.415 74.0011 887.838C73.9632 887.272 74.3422 886.787 74.8727 886.747C75.4032 886.706 75.8579 887.111 75.8958 887.677C76.0094 889.253 76.1231 890.871 76.2747 892.488C76.2747 892.569 76.2747 892.609 76.2747 892.609ZM75.6684 868.432L75.6684 868.473C75.5926 870.05 75.5547 871.667 75.5168 873.284C75.5168 873.85 75.0621 874.295 74.5695 874.295C74.039 874.295 73.6222 873.809 73.6222 873.284C73.6601 871.667 73.698 870.009 73.7738 868.392C73.8117 867.826 74.2285 867.422 74.759 867.422C75.2895 867.462 75.6684 867.907 75.6684 868.432ZM75.6305 882.946C75.6305 883.472 75.2137 883.917 74.7211 883.957C74.1906 883.998 73.7738 883.553 73.7359 882.987C73.6601 881.37 73.6222 879.712 73.6222 878.135C73.6222 877.569 74.039 877.125 74.5695 877.125C75.1 877.125 75.5168 877.569 75.5168 878.135C75.5547 879.712 75.5926 881.329 75.6305 882.946ZM72.8265 1254.57C72.8265 1254.85 72.7128 1255.1 72.5233 1255.3C71.4244 1256.39 70.2877 1257.48 69.1509 1258.57C68.772 1258.94 68.1657 1258.9 67.8246 1258.49C67.4836 1258.09 67.5215 1257.44 67.9004 1257.08C69.0372 1256.02 70.1361 1254.93 71.235 1253.84C71.6139 1253.48 72.2202 1253.48 72.5612 1253.88C72.7507 1254.08 72.8265 1254.33 72.8265 1254.57ZM66.0437 1261C66.0437 1261.28 65.93 1261.56 65.7027 1261.77C64.5659 1262.82 63.3912 1263.83 62.1786 1264.88C61.7618 1265.24 61.1934 1265.16 60.8524 1264.72C60.5114 1264.27 60.5871 1263.67 61.004 1263.3C62.1786 1262.29 63.3533 1261.24 64.4901 1260.23C64.9069 1259.87 65.4753 1259.91 65.8163 1260.35C65.9679 1260.55 66.0437 1260.8 66.0437 1261ZM58.9956 1267.1C58.9956 1267.39 58.882 1267.71 58.6167 1267.91C57.4421 1268.88 56.1916 1269.89 54.979 1270.82C54.5622 1271.15 53.9559 1271.06 53.6528 1270.62C53.3496 1270.18 53.4254 1269.53 53.8423 1269.2C55.0548 1268.23 56.2674 1267.26 57.4421 1266.29C57.8589 1265.97 58.4652 1266.05 58.7683 1266.5C58.9199 1266.66 58.9956 1266.86 58.9956 1267.1ZM51.6824 1272.84C51.6824 1273.17 51.5308 1273.49 51.2655 1273.65C50.053 1274.58 48.7646 1275.51 47.5142 1276.4C47.0974 1276.72 46.4911 1276.6 46.1879 1276.12C45.8848 1275.67 45.9985 1275.03 46.4532 1274.7C47.7036 1273.81 48.9541 1272.88 50.1667 1271.95C50.5835 1271.63 51.1898 1271.75 51.4929 1272.2C51.6445 1272.44 51.6824 1272.64 51.6824 1272.84ZM44.1796 1278.26C44.1796 1278.58 44.028 1278.91 43.7628 1279.11C42.5123 1279.96 41.224 1280.85 39.8977 1281.7C39.443 1281.98 38.8746 1281.86 38.6094 1281.37C38.3441 1280.89 38.4578 1280.28 38.9125 1280C40.2009 1279.15 41.4892 1278.3 42.7397 1277.41C43.1944 1277.13 43.7628 1277.25 44.0659 1277.69C44.1038 1277.86 44.1796 1278.06 44.1796 1278.26ZM36.4495 1283.35C36.4495 1283.72 36.2979 1284.04 35.9948 1284.24C34.7064 1285.05 33.3802 1285.9 32.054 1286.71C31.5992 1286.99 31.0309 1286.83 30.7656 1286.35C30.5004 1285.86 30.6519 1285.26 31.1066 1284.97C32.4329 1284.16 33.7212 1283.35 35.0096 1282.55C35.4643 1282.26 36.0327 1282.43 36.2979 1282.91C36.4116 1282.99 36.4495 1283.19 36.4495 1283.35ZM28.5678 1288.17C28.5678 1288.53 28.3784 1288.85 28.0752 1289.06C26.749 1289.82 25.4227 1290.59 24.0586 1291.36C23.6039 1291.6 23.0355 1291.44 22.7703 1290.96C22.5429 1290.47 22.6945 1289.86 23.1492 1289.58C24.4754 1288.81 25.8396 1288.04 27.1279 1287.28C27.5826 1286.99 28.151 1287.2 28.4163 1287.68C28.5299 1287.84 28.5678 1288 28.5678 1288.17ZM20.5346 1292.69C20.5346 1293.06 20.3451 1293.42 20.0041 1293.58C18.6778 1294.31 17.3137 1295.04 15.9117 1295.77C15.457 1296.01 14.8886 1295.81 14.6612 1295.32C14.4339 1294.84 14.6233 1294.23 15.078 1293.99C16.4422 1293.26 17.8063 1292.53 19.1326 1291.85C19.5873 1291.6 20.1557 1291.8 20.4209 1292.29C20.4967 1292.37 20.5346 1292.53 20.5346 1292.69ZM12.3877 1296.94C12.3877 1297.3 12.1982 1297.67 11.8572 1297.87C10.493 1298.56 9.09099 1299.24 7.72686 1299.89C7.23425 1300.13 6.70376 1299.89 6.4764 1299.41C6.24904 1298.88 6.4764 1298.31 6.93111 1298.07C8.29525 1297.38 9.69728 1296.74 11.0235 1296.05C11.4782 1295.81 12.0466 1296.01 12.274 1296.53C12.3498 1296.66 12.3877 1296.78 12.3877 1296.94Z" fill="white" fill-opacity="0.1"/>
<path d="M3.97523 1301.02C3.97523 1301.43 3.74787 1301.79 3.40684 1301.95C2.72477 1302.28 2.00481 1302.6 1.32274 1302.92C0.830133 1303.12 0.299636 1302.92 0.0722797 1302.4C-0.117184 1301.87 0.0722796 1301.31 0.564884 1301.06C1.28485 1300.74 1.96691 1300.42 2.64898 1300.09C3.14159 1299.85 3.67208 1300.09 3.89944 1300.62C3.93733 1300.74 3.97523 1300.9 3.97523 1301.02Z" fill="white" fill-opacity="0.1"/>
</svg>
