<svg width="43" height="43" viewBox="0 0 43 43" fill="none" xmlns="http://www.w3.org/2000/svg">
<path d="M0 21.5C0 33.3741 9.62588 43 21.5 43C33.3741 43 43 33.3741 43 21.5C43 9.62588 33.3741 0 21.5 0C9.62588 0 0 9.62588 0 21.5Z" fill="#0F705D"/>
<path d="M32.25 21.5C32.25 15.5875 27.4125 10.75 21.5 10.75C15.5875 10.75 10.75 15.5875 10.75 21.5C10.75 26.875 14.6469 31.3094 19.7531 32.1156V24.5906H17.0656V21.5H19.7531V19.0813C19.7531 16.3937 21.3656 14.9156 23.7844 14.9156C24.9938 14.9156 26.2031 15.1844 26.2031 15.1844V17.8719H24.8594C23.5156 17.8719 23.1125 18.6781 23.1125 19.4844V21.5H26.0687L25.5312 24.5906H22.9781V32.25C28.3531 31.4438 32.25 26.875 32.25 21.5Z" fill="white"/>
</svg>
