<svg width="153" height="192" viewBox="0 0 153 192" fill="none" xmlns="http://www.w3.org/2000/svg">
<path d="M153 0H0V152H153V0Z" fill="white"/>
<path d="M76 0H0V76H76V0Z" fill="#EBF5FB"/>
<path d="M153 0H76V76H153V0Z" fill="#EBF5FB"/>
<path d="M153 76H76V152H153V76Z" fill="#EBF5FB"/>
<path d="M76 76H0V152H76V76Z" fill="#EBF5FB"/>
<path d="M39.3874 64C37.2695 64 35.1392 63.7392 32.9964 63.2176C30.8535 62.6722 28.8228 61.795 26.9043 60.5858C24.9857 59.3766 23.2789 57.788 21.784 55.8201C20.3139 53.8522 19.1428 51.4338 18.2707 48.5649C17.4236 45.696 17 42.3291 17 38.4644C17 34.5997 17.4236 31.2448 18.2707 28.3996C19.1428 25.5307 20.3263 23.1123 21.8213 21.1444C23.3412 19.1764 25.0605 17.5997 26.979 16.4142C28.8976 15.205 30.9283 14.3396 33.0711 13.818C35.2139 13.2727 37.3567 13 39.4995 13C41.7171 13 43.7852 13.2845 45.7037 13.8536C47.6223 14.3989 49.3664 15.205 50.9362 16.272C52.5059 17.3389 53.8888 18.6311 55.0848 20.1485C56.2808 21.6423 57.2525 23.3494 58 25.2699L48.6563 29.7155C48.3573 28.7434 47.9462 27.7357 47.423 26.6925C46.9246 25.6255 46.3142 24.6416 45.5916 23.7406C44.869 22.8159 43.997 22.069 42.9754 21.5C41.9787 20.931 40.8077 20.6464 39.4622 20.6464C38.017 20.6464 36.5968 20.9784 35.2015 21.6423C33.8311 22.2824 32.5977 23.3138 31.5014 24.7364C30.405 26.159 29.533 28.0084 28.8851 30.2845C28.2373 32.537 27.9134 35.2636 27.9134 38.4644C27.9134 41.6653 28.2373 44.4038 28.8851 46.6799C29.533 48.9561 30.3926 50.8054 31.464 52.228C32.5603 53.6506 33.7937 54.6939 35.1641 55.3577C36.5345 56.0216 37.9423 56.3536 39.3874 56.3536C40.7329 56.3536 41.9164 56.069 42.938 55.5C43.9596 54.931 44.8317 54.196 45.5542 53.295C46.2768 52.3703 46.8873 51.3863 47.3856 50.3431C47.9088 49.2999 48.3324 48.3159 48.6563 47.3912L58 51.8724C57.2525 53.7218 56.2808 55.3933 55.0848 56.887C53.8888 58.3808 52.4935 59.6611 50.8988 60.728C49.3291 61.795 47.5725 62.613 45.629 63.182C43.7104 63.7273 41.6299 64 39.3874 64Z" fill="#1B2631"/>
<path d="M37.5538 140C34.3726 140 31.4305 139.538 28.7277 138.613C26.0488 137.665 23.7645 136.337 21.8749 134.63C20.0092 132.899 18.7176 130.86 18 128.513L27.8307 124.458C28.2613 125.81 28.9549 127.078 29.9117 128.264C30.8684 129.449 32.0524 130.409 33.4637 131.144C34.8749 131.856 36.4775 132.211 38.2714 132.211C39.9457 132.211 41.3809 131.974 42.5768 131.5C43.7728 131.002 44.6937 130.291 45.3395 129.366C45.9853 128.441 46.3082 127.303 46.3082 125.952C46.3082 124.956 45.9972 124.043 45.3753 123.213C44.7774 122.384 43.9522 121.649 42.8997 121.008C41.8473 120.344 40.6394 119.752 39.276 119.23C37.9365 118.685 36.5253 118.199 35.0423 117.772C32.8418 117.108 30.7967 116.361 28.9071 115.531C27.0175 114.678 25.3671 113.67 23.9558 112.508C22.5446 111.323 21.4443 109.912 20.655 108.276C19.8657 106.64 19.471 104.696 19.471 102.444C19.471 100.594 19.8178 98.9463 20.5115 97.5C21.2052 96.0537 22.1619 94.7971 23.3818 93.7301C24.6256 92.6632 26.0368 91.7859 27.6155 91.0983C29.218 90.387 30.9163 89.8654 32.7102 89.5335C34.5041 89.1778 36.322 89 38.1638 89C41.1536 89 43.8924 89.4505 46.3799 90.3515C48.8914 91.2287 51.0083 92.4142 52.7304 93.9079C54.4526 95.4017 55.6007 97.0969 56.1748 98.9937L46.5235 103.155C46.1168 101.874 45.4949 100.76 44.6578 99.8117C43.8445 98.8396 42.8519 98.0927 41.6799 97.5711C40.5317 97.0495 39.2282 96.7887 37.7691 96.7887C36.7406 96.7887 35.7719 96.8954 34.8629 97.1088C33.954 97.3222 33.1408 97.6541 32.4232 98.1046C31.7295 98.5551 31.1794 99.1241 30.7728 99.8117C30.3661 100.476 30.1628 101.246 30.1628 102.123C30.1628 103.356 30.5336 104.435 31.2751 105.36C32.0166 106.261 33.069 107.055 34.4324 107.743C35.7958 108.407 37.4223 109.011 39.3119 109.556C40.8666 110.007 42.4692 110.529 44.1196 111.121C45.77 111.714 47.3606 112.425 48.8914 113.255C50.4223 114.085 51.7976 115.057 53.0175 116.172C54.2374 117.262 55.2061 118.554 55.9236 120.048C56.6412 121.542 57 123.261 57 125.205C57 127.339 56.6293 129.224 55.8878 130.86C55.1702 132.496 54.1776 133.895 52.9098 135.056C51.6421 136.218 50.1831 137.167 48.5327 137.902C46.8822 138.613 45.1122 139.135 43.2226 139.467C41.3569 139.822 39.4673 140 37.5538 140Z" fill="#1B2631"/>
<path d="M112.667 132.964L115.197 119.679L123.96 89H129.717L129.753 97.6071L118.937 132.964H112.667ZM87 139L91.4 89H101.08L97.7067 139H87ZM110.063 132.964L99.21 97.6071L99.32 89H105.003L113.987 119.679L116.26 132.964H110.063ZM131.257 139L127.883 89H137.563L142 139H131.257Z" fill="#1B2631"/>
<path d="M5.12221 170.693C4.63764 170.693 4.15021 170.629 3.65994 170.501C3.16967 170.367 2.70505 170.151 2.26608 169.853C1.82712 169.556 1.43661 169.165 1.09456 168.681C0.758213 168.197 0.490272 167.602 0.290743 166.897C0.0969141 166.191 0 165.363 0 164.412C0 163.462 0.0969141 162.636 0.290743 161.937C0.490272 161.231 0.761059 160.636 1.10311 160.152C1.45086 159.668 1.84422 159.28 2.28319 158.989C2.72215 158.691 3.18677 158.478 3.67704 158.35C4.16731 158.216 4.65759 158.149 5.14786 158.149C5.65524 158.149 6.1284 158.219 6.56737 158.359C7.00633 158.493 7.4054 158.691 7.76455 158.954C8.1237 159.216 8.4401 159.534 8.71374 159.907C8.98738 160.274 9.20971 160.694 9.38073 161.167L7.24292 162.26C7.17451 162.021 7.08045 161.773 6.96073 161.517C6.84671 161.254 6.70704 161.012 6.54171 160.791C6.37639 160.563 6.17686 160.379 5.94313 160.239C5.7151 160.1 5.44715 160.03 5.13931 160.03C4.80866 160.03 4.48371 160.111 4.16446 160.274C3.85092 160.432 3.56873 160.686 3.31789 161.036C3.06705 161.385 2.86752 161.84 2.7193 162.4C2.57108 162.954 2.49697 163.625 2.49697 164.412C2.49697 165.2 2.57108 165.873 2.7193 166.433C2.86752 166.993 3.0642 167.448 3.30933 167.798C3.56017 168.148 3.84236 168.404 4.15591 168.568C4.46946 168.731 4.79156 168.812 5.12221 168.812C5.43005 168.812 5.70084 168.742 5.93458 168.603C6.16831 168.463 6.36784 168.282 6.53317 168.06C6.69849 167.833 6.83816 167.591 6.95218 167.334C7.07189 167.077 7.16881 166.835 7.24292 166.608L9.38073 167.71C9.20971 168.165 8.98738 168.576 8.71374 168.944C8.4401 169.311 8.12085 169.626 7.75599 169.888C7.39684 170.151 6.99493 170.352 6.55027 170.492C6.1113 170.626 5.63528 170.693 5.12221 170.693ZM15.912 170.693C15.5129 170.693 15.1053 170.641 14.6892 170.536C14.273 170.437 13.8711 170.276 13.4834 170.055C13.0958 169.833 12.748 169.544 12.4402 169.189C12.138 168.827 11.8958 168.393 11.7133 167.885C11.5366 167.378 11.4482 166.786 11.4482 166.109C11.4482 165.439 11.5366 164.85 11.7133 164.342C11.8958 163.835 12.138 163.403 12.4402 163.048C12.748 162.692 13.0958 162.403 13.4834 162.182C13.8711 161.96 14.273 161.8 14.6892 161.7C15.1053 161.595 15.5129 161.543 15.912 161.543C16.3054 161.543 16.7101 161.595 17.1263 161.7C17.5425 161.8 17.9444 161.96 18.332 162.182C18.7197 162.403 19.0646 162.692 19.3667 163.048C19.6746 163.403 19.9169 163.835 20.0936 164.342C20.276 164.85 20.3672 165.439 20.3672 166.109C20.3672 166.786 20.276 167.378 20.0936 167.885C19.9169 168.393 19.6746 168.827 19.3667 169.189C19.0646 169.544 18.7197 169.833 18.332 170.055C17.9444 170.276 17.5425 170.437 17.1263 170.536C16.7101 170.641 16.3054 170.693 15.912 170.693ZM15.912 168.856C16.1571 168.856 16.3966 168.807 16.6303 168.707C16.8697 168.603 17.0835 168.445 17.2717 168.235C17.4598 168.019 17.608 167.736 17.7163 167.387C17.8303 167.031 17.8873 166.605 17.8873 166.109C17.8873 165.614 17.8303 165.194 17.7163 164.85C17.608 164.5 17.4598 164.217 17.2717 164.001C17.0835 163.785 16.8697 163.628 16.6303 163.529C16.3966 163.43 16.1571 163.38 15.912 163.38C15.6669 163.38 15.4246 163.43 15.1851 163.529C14.9514 163.628 14.7376 163.785 14.5438 164.001C14.3557 164.217 14.2046 164.5 14.0906 164.85C13.9823 165.194 13.9281 165.614 13.9281 166.109C13.9281 166.605 13.9823 167.031 14.0906 167.387C14.2046 167.736 14.3557 168.019 14.5438 168.235C14.7376 168.445 14.9514 168.603 15.1851 168.707C15.4246 168.807 15.6669 168.856 15.912 168.856ZM32.6706 170.501V165.235C32.6706 164.657 32.5737 164.226 32.3799 163.94C32.1917 163.654 31.8696 163.511 31.4136 163.511C31.1228 163.511 30.8606 163.593 30.6268 163.756C30.3931 163.914 30.205 164.115 30.0625 164.36C29.9199 164.605 29.8401 164.85 29.823 165.095L29.0705 164.867C29.0762 164.447 29.1646 164.039 29.3356 163.642C29.5123 163.246 29.7546 162.89 30.0625 162.575C30.3703 162.26 30.7237 162.012 31.1228 161.832C31.5219 161.645 31.9466 161.552 32.3969 161.552C33.0069 161.552 33.5115 161.677 33.9105 161.928C34.3153 162.173 34.6174 162.552 34.817 163.065C35.0165 163.572 35.1162 164.22 35.1162 165.007V170.501H32.6706ZM22.1354 170.501V161.753H24.3331L24.5811 163.459V170.501H22.1354ZM27.403 170.501V165.235C27.403 164.657 27.3032 164.226 27.1037 163.94C26.9099 163.654 26.5906 163.511 26.146 163.511C25.8552 163.511 25.593 163.593 25.3593 163.756C25.1255 163.914 24.9374 164.115 24.7949 164.36C24.6524 164.605 24.5782 164.85 24.5725 165.095L23.82 164.867C23.82 164.447 23.9055 164.039 24.0766 163.642C24.2533 163.246 24.4956 162.89 24.8034 162.575C25.1113 162.26 25.4647 162.012 25.8638 161.832C26.2628 161.645 26.6847 161.552 27.1294 161.552C28.0415 161.552 28.7228 161.823 29.1731 162.365C29.6235 162.902 29.8487 163.709 29.8487 164.788V170.501H27.403ZM47.2011 170.501V165.235C47.2011 164.657 47.1042 164.226 46.9104 163.94C46.7222 163.654 46.4001 163.511 45.9441 163.511C45.6533 163.511 45.3911 163.593 45.1573 163.756C44.9236 163.914 44.7355 164.115 44.593 164.36C44.4504 164.605 44.3706 164.85 44.3535 165.095L43.601 164.867C43.6067 164.447 43.6951 164.039 43.8661 163.642C44.0428 163.246 44.2851 162.89 44.593 162.575C44.9008 162.26 45.2543 162.012 45.6533 161.832C46.0524 161.645 46.4771 161.552 46.9275 161.552C47.5374 161.552 48.042 161.677 48.441 161.928C48.8458 162.173 49.1479 162.552 49.3475 163.065C49.547 163.572 49.6468 164.22 49.6468 165.007V170.501H47.2011ZM36.6659 170.501V161.753H38.8636L39.1116 163.459V170.501H36.6659ZM41.9335 170.501V165.235C41.9335 164.657 41.8337 164.226 41.6342 163.94C41.4404 163.654 41.1211 163.511 40.6765 163.511C40.3857 163.511 40.1235 163.593 39.8898 163.756C39.656 163.914 39.4679 164.115 39.3254 164.36C39.1829 164.605 39.1087 164.85 39.103 165.095L38.3505 164.867C38.3505 164.447 38.4361 164.039 38.6071 163.642C38.7838 163.246 39.0261 162.89 39.3339 162.575C39.6418 162.26 39.9952 162.012 40.3943 161.832C40.7934 161.645 41.2152 161.552 41.6599 161.552C42.572 161.552 43.2533 161.823 43.7036 162.365C44.154 162.902 44.3792 163.709 44.3792 164.788V170.501H41.9335ZM54.8307 170.702C54.3918 170.702 53.9899 170.632 53.625 170.492C53.2602 170.346 52.9437 170.128 52.6758 169.836C52.4136 169.539 52.2083 169.157 52.0601 168.69C51.9176 168.223 51.8463 167.669 51.8463 167.028V161.753H54.292V166.634C54.292 167.142 54.3405 167.55 54.4374 167.859C54.54 168.168 54.6939 168.393 54.8991 168.533C55.1101 168.672 55.378 168.742 55.703 168.742C55.9424 168.742 56.1619 168.699 56.3614 168.611C56.5666 168.518 56.7491 168.393 56.9087 168.235C57.0683 168.072 57.1966 167.888 57.2935 167.684C57.3904 167.474 57.4503 167.258 57.4731 167.037L58.0032 167.299C58.0032 167.701 57.9377 168.104 57.8066 168.506C57.6755 168.909 57.4759 169.276 57.208 169.609C56.9457 169.941 56.6151 170.206 56.216 170.405C55.8227 170.603 55.3609 170.702 54.8307 170.702ZM57.9605 170.501L57.4303 168.436V161.753H59.876V169.162L59.4912 168.655H60.8508V170.501H57.9605ZM63.2005 170.501V161.753H65.3554L65.6633 163.59V170.501H63.2005ZM68.7674 170.501V165.619C68.7674 165.112 68.7161 164.704 68.6135 164.395C68.5166 164.086 68.3626 163.861 68.1517 163.721C67.9465 163.581 67.6814 163.511 67.3564 163.511C67.117 163.511 66.8947 163.558 66.6894 163.651C66.4899 163.739 66.3103 163.864 66.1507 164.027C65.9911 164.185 65.8628 164.369 65.7659 164.578C65.669 164.783 65.6091 164.995 65.5863 165.217L65.0561 164.955C65.0561 164.552 65.1217 164.15 65.2528 163.747C65.3839 163.345 65.5806 162.978 65.8429 162.645C66.1108 162.313 66.4415 162.047 66.8348 161.849C67.2339 161.651 67.6985 161.552 68.2287 161.552C68.6733 161.552 69.0752 161.625 69.4344 161.77C69.7992 161.91 70.1157 162.129 70.3836 162.426C70.6515 162.718 70.8568 163.097 70.9993 163.564C71.1475 164.024 71.2216 164.578 71.2216 165.226V170.501H68.7674ZM73.3404 170.501V168.655H75.9144V163.599H73.7081V161.753H78.36V168.655H80.7458V170.501H73.3404ZM75.8716 158H78.3686V160.406H75.8716V158ZM83.6594 167.841V158.98H86.0965V167.78C86.0965 168.101 86.1336 168.352 86.2077 168.533C86.2875 168.707 86.3958 168.833 86.5327 168.909C86.6695 168.979 86.8234 169.014 86.9944 169.014C87.1712 169.014 87.3336 168.982 87.4818 168.917C87.6301 168.847 87.7498 168.719 87.841 168.533C87.9322 168.346 87.9778 168.072 87.9778 167.71H89.9019C89.9019 168.27 89.8135 168.742 89.6368 169.127C89.4657 169.506 89.2263 169.81 88.9185 170.037C88.6163 170.265 88.2714 170.428 87.8838 170.527C87.5018 170.626 87.1027 170.676 86.6866 170.676C86.2704 170.676 85.8771 170.629 85.5065 170.536C85.1416 170.443 84.8195 170.288 84.5402 170.072C84.2666 169.856 84.0499 169.568 83.8903 169.206C83.7364 168.839 83.6594 168.384 83.6594 167.841ZM81.7268 163.599V161.753H90.0387V163.599H81.7268ZM95.3813 174L96.9205 169.985L97.7329 170.527H95.8687L92.8672 161.753H95.3813L97.6474 169.189H97.2455L99.5287 161.753H102L97.8099 174H95.3813Z" fill="#EBF5FB"/>
<path d="M4.63701 192C3.88261 192 3.18493 191.892 2.54397 191.677C1.90869 191.457 1.367 191.148 0.918893 190.751C0.476463 190.349 0.170165 189.875 0 189.329L2.33127 188.386C2.43337 188.7 2.59786 188.995 2.82475 189.271C3.05164 189.547 3.33241 189.77 3.66707 189.941C4.00173 190.106 4.38176 190.189 4.80718 190.189C5.20423 190.189 5.54456 190.134 5.82816 190.023C6.11177 189.908 6.33015 189.742 6.4833 189.527C6.63645 189.312 6.71303 189.048 6.71303 188.733C6.71303 188.502 6.63929 188.289 6.49181 188.096C6.35001 187.904 6.15432 187.733 5.90474 187.584C5.65516 187.429 5.36872 187.292 5.04541 187.17C4.72777 187.043 4.3931 186.93 4.04143 186.831C3.51959 186.677 3.03462 186.503 2.58651 186.31C2.13841 186.112 1.74703 185.877 1.41238 185.607C1.07772 185.331 0.816794 185.003 0.629612 184.623C0.44243 184.243 0.348842 183.79 0.348842 183.267C0.348842 182.837 0.43109 182.453 0.595583 182.117C0.760077 181.781 0.986965 181.489 1.27625 181.241C1.5712 180.992 1.90585 180.788 2.28022 180.629C2.66025 180.463 3.06298 180.342 3.48839 180.265C3.91381 180.182 4.34489 180.141 4.78165 180.141C5.49067 180.141 6.14014 180.245 6.73004 180.455C7.32562 180.659 7.82761 180.935 8.23601 181.282C8.64441 181.629 8.91667 182.023 9.0528 182.465L6.76408 183.432C6.66765 183.134 6.52017 182.875 6.32165 182.655C6.12879 182.429 5.8934 182.255 5.61546 182.134C5.34319 182.012 5.03406 181.952 4.68806 181.952C4.44415 181.952 4.21443 181.977 3.99889 182.026C3.78335 182.076 3.59049 182.153 3.42033 182.258C3.25583 182.363 3.12537 182.495 3.02895 182.655C2.93252 182.809 2.88431 182.988 2.88431 183.192C2.88431 183.479 2.97222 183.73 3.14806 183.945C3.3239 184.154 3.57347 184.339 3.89679 184.499C4.2201 184.653 4.60581 184.794 5.05391 184.921C5.4226 185.025 5.80264 185.147 6.19402 185.285C6.5854 185.422 6.9626 185.588 7.32562 185.781C7.68864 185.974 8.01479 186.2 8.30407 186.459C8.59335 186.713 8.82307 187.013 8.99324 187.36C9.1634 187.708 9.24849 188.108 9.24849 188.56C9.24849 189.056 9.16057 189.494 8.98474 189.875C8.81457 190.255 8.57917 190.58 8.27855 190.85C7.97792 191.121 7.63192 191.341 7.24054 191.512C6.84916 191.677 6.42942 191.799 5.98132 191.876C5.53889 191.959 5.09079 192 4.63701 192ZM16.1723 192C15.7469 192 15.3215 191.948 14.8961 191.843C14.4707 191.738 14.068 191.578 13.6879 191.363C13.3136 191.143 12.9817 190.861 12.6924 190.52C12.4032 190.178 12.1734 189.773 12.0033 189.304C11.8388 188.83 11.7565 188.284 11.7565 187.666C11.7565 187.043 11.8388 186.495 12.0033 186.021C12.1734 185.547 12.4032 185.141 12.6924 184.805C12.9817 184.463 13.3136 184.187 13.6879 183.978C14.068 183.763 14.4707 183.606 14.8961 183.507C15.3215 183.402 15.7469 183.349 16.1723 183.349C16.6488 183.349 17.0884 183.402 17.4911 183.507C17.8995 183.611 18.271 183.76 18.6057 183.953C18.9403 184.141 19.2296 184.367 19.4735 184.631C19.7174 184.896 19.9075 185.191 20.0436 185.516L17.9165 186.467C17.8598 186.263 17.7634 186.057 17.6272 185.847C17.4911 185.632 17.3096 185.453 17.0827 185.309C16.8558 185.161 16.5751 185.086 16.2404 185.086C15.9965 185.086 15.7583 185.133 15.5257 185.227C15.2931 185.32 15.0804 185.469 14.8876 185.673C14.7004 185.877 14.5501 186.145 14.4366 186.476C14.3289 186.801 14.275 187.198 14.275 187.666C14.275 188.13 14.3289 188.524 14.4366 188.849C14.5501 189.174 14.7004 189.442 14.8876 189.651C15.0804 189.861 15.2931 190.015 15.5257 190.114C15.7583 190.214 15.9965 190.263 16.2404 190.263C16.5751 190.263 16.8558 190.197 17.0827 190.065C17.3153 189.932 17.4968 189.767 17.6272 189.569C17.7634 189.37 17.857 189.172 17.908 188.973L20.0351 189.932C19.8933 190.23 19.7004 190.506 19.4565 190.759C19.2183 191.008 18.9347 191.225 18.6057 191.413C18.2767 191.6 17.908 191.744 17.4996 191.843C17.0969 191.948 16.6545 192 16.1723 192ZM21.871 191.818V190.073H24.432V185.293H22.2368V183.548H26.8653V190.073H29.2391V191.818H21.871ZM24.3894 180H26.8738V182.274H24.3894V180ZM35.3396 192C34.7723 192 34.2221 191.909 33.689 191.727C33.1614 191.545 32.6878 191.275 32.2681 190.917C31.854 190.553 31.525 190.101 31.2811 189.56C31.0372 189.014 30.9153 188.383 30.9153 187.666C30.9153 186.95 31.0344 186.321 31.2726 185.781C31.5165 185.241 31.8483 184.791 32.2681 184.433C32.6878 184.069 33.1643 183.799 33.6975 183.622C34.2307 183.44 34.7865 183.349 35.3651 183.349C35.9607 183.349 36.525 183.435 37.0582 183.606C37.5914 183.771 38.0622 184.022 38.4706 184.358C38.8847 184.689 39.208 185.111 39.4405 185.624C39.6788 186.131 39.7979 186.726 39.7979 187.41C39.7979 187.531 39.7922 187.664 39.7809 187.807C39.7695 187.95 39.7525 188.077 39.7298 188.187H32.8637V186.782H37.2795C37.2795 186.765 37.2795 186.751 37.2795 186.74C37.2795 186.729 37.2795 186.715 37.2795 186.699C37.2795 186.396 37.1972 186.123 37.0327 185.88C36.8739 185.632 36.6555 185.436 36.3776 185.293C36.0996 185.15 35.7792 185.078 35.4161 185.078C35.1552 185.078 34.9028 185.127 34.6589 185.227C34.415 185.326 34.1966 185.478 34.0038 185.682C33.8166 185.886 33.6663 186.15 33.5528 186.476C33.4394 186.801 33.3827 187.192 33.3827 187.65C33.3827 188.207 33.4734 188.681 33.6549 189.072C33.8421 189.458 34.0917 189.753 34.4037 189.957C34.7213 190.161 35.0815 190.263 35.4842 190.263C35.8416 190.263 36.1393 190.205 36.3776 190.09C36.6215 189.968 36.8143 189.828 36.9561 189.668C37.1036 189.502 37.2085 189.348 37.2709 189.205L39.4576 190.238C39.2987 190.498 39.0945 190.735 38.845 190.95C38.5954 191.159 38.2976 191.344 37.9516 191.504C37.6113 191.664 37.2227 191.785 36.786 191.868C36.3549 191.956 35.8727 192 35.3396 192ZM42.4251 191.818V183.548H44.5691L44.8754 185.285V191.818H42.4251ZM47.9639 191.818V187.203C47.9639 186.724 47.9129 186.338 47.8108 186.045C47.7144 185.753 47.5612 185.541 47.3513 185.409C47.1471 185.276 46.8834 185.21 46.5601 185.21C46.3218 185.21 46.1006 185.254 45.8964 185.343C45.6979 185.425 45.5192 185.544 45.3604 185.698C45.2016 185.847 45.074 186.021 44.9775 186.219C44.8811 186.412 44.8216 186.613 44.7989 186.823L44.2714 186.575C44.2714 186.194 44.3366 185.814 44.467 185.433C44.5975 185.053 44.7932 184.706 45.0541 184.391C45.3207 184.077 45.6497 183.826 46.0411 183.639C46.4381 183.451 46.9004 183.358 47.4279 183.358C47.8704 183.358 48.2702 183.427 48.6276 183.564C48.9906 183.697 49.3054 183.904 49.572 184.185C49.8386 184.46 50.0428 184.819 50.1846 185.26C50.3321 185.695 50.4058 186.219 50.4058 186.831V191.818H47.9639ZM57.8827 192C57.4573 192 57.0319 191.948 56.6065 191.843C56.181 191.738 55.7783 191.578 55.3983 191.363C55.0239 191.143 54.6921 190.861 54.4028 190.52C54.1135 190.178 53.8838 189.773 53.7136 189.304C53.5492 188.83 53.4669 188.284 53.4669 187.666C53.4669 187.043 53.5492 186.495 53.7136 186.021C53.8838 185.547 54.1135 185.141 54.4028 184.805C54.6921 184.463 55.0239 184.187 55.3983 183.978C55.7783 183.763 56.181 183.606 56.6065 183.507C57.0319 183.402 57.4573 183.349 57.8827 183.349C58.3591 183.349 58.7987 183.402 59.2015 183.507C59.6099 183.611 59.9814 183.76 60.3161 183.953C60.6507 184.141 60.94 184.367 61.1839 184.631C61.4278 184.896 61.6178 185.191 61.7539 185.516L59.6269 186.467C59.5702 186.263 59.4737 186.057 59.3376 185.847C59.2015 185.632 59.02 185.453 58.7931 185.309C58.5662 185.161 58.2854 185.086 57.9508 185.086C57.7069 185.086 57.4686 185.133 57.2361 185.227C57.0035 185.32 56.7908 185.469 56.5979 185.673C56.4108 185.877 56.2604 186.145 56.147 186.476C56.0392 186.801 55.9854 187.198 55.9854 187.666C55.9854 188.13 56.0392 188.524 56.147 188.849C56.2604 189.174 56.4108 189.442 56.5979 189.651C56.7908 189.861 57.0035 190.015 57.2361 190.114C57.4686 190.214 57.7069 190.263 57.9508 190.263C58.2854 190.263 58.5662 190.197 58.7931 190.065C59.0256 189.932 59.2071 189.767 59.3376 189.569C59.4737 189.37 59.5673 189.172 59.6184 188.973L61.7455 189.932C61.6036 190.23 61.4108 190.506 61.1669 190.759C60.9286 191.008 60.645 191.225 60.3161 191.413C59.9871 191.6 59.6184 191.744 59.21 191.843C58.8073 191.948 58.3648 192 57.8827 192ZM68.5417 192C67.9744 192 67.4242 191.909 66.8911 191.727C66.3635 191.545 65.8899 191.275 65.4702 190.917C65.0561 190.553 64.7271 190.101 64.4832 189.56C64.2393 189.014 64.1174 188.383 64.1174 187.666C64.1174 186.95 64.2365 186.321 64.4747 185.781C64.7186 185.241 65.0504 184.791 65.4702 184.433C65.8899 184.069 66.3664 183.799 66.8996 183.622C67.4328 183.44 67.9886 183.349 68.5672 183.349C69.1628 183.349 69.7271 183.435 70.2603 183.606C70.7935 183.771 71.2643 184.022 71.6727 184.358C72.0868 184.689 72.4101 185.111 72.6426 185.624C72.8809 186.131 73 186.726 73 187.41C73 187.531 72.9943 187.664 72.983 187.807C72.9716 187.95 72.9546 188.077 72.9319 188.187H66.0658V186.782H70.4816C70.4816 186.765 70.4816 186.751 70.4816 186.74C70.4816 186.729 70.4816 186.715 70.4816 186.699C70.4816 186.396 70.3993 186.123 70.2348 185.88C70.076 185.632 69.8576 185.436 69.5797 185.293C69.3017 185.15 68.9812 185.078 68.6182 185.078C68.3573 185.078 68.1049 185.127 67.861 185.227C67.6171 185.326 67.3987 185.478 67.2059 185.682C67.0187 185.886 66.8684 186.15 66.7549 186.476C66.6415 186.801 66.5848 187.192 66.5848 187.65C66.5848 188.207 66.6755 188.681 66.857 189.072C67.0442 189.458 67.2938 189.753 67.6058 189.957C67.9234 190.161 68.2836 190.263 68.6863 190.263C69.0436 190.263 69.3414 190.205 69.5797 190.09C69.8236 189.968 70.0164 189.828 70.1582 189.668C70.3057 189.502 70.4106 189.348 70.473 189.205L72.6597 190.238C72.5008 190.498 72.2966 190.735 72.0471 190.95C71.7975 191.159 71.4997 191.344 71.1537 191.504C70.8134 191.664 70.4248 191.785 69.9881 191.868C69.557 191.956 69.0748 192 68.5417 192Z" fill="#EBF5FB"/>
<path d="M87.9143 190.381L88.4973 187.244L90.5166 180H91.8431L91.8516 182.032L89.3591 190.381H87.9143ZM82 191.806L83.0139 180H85.2444L84.4671 191.806H82ZM87.3144 190.381L84.8135 182.032L84.8389 180H86.1485L88.2185 187.244L88.7423 190.381H87.3144ZM92.198 191.806L91.4207 180H93.6512L94.6735 191.806H92.198ZM99.804 192C99.3703 192 98.9732 191.933 98.6127 191.798C98.2522 191.657 97.9396 191.446 97.6748 191.165C97.4157 190.878 97.2129 190.51 97.0665 190.06C96.9257 189.611 96.8553 189.077 96.8553 188.458V183.373H99.2717V188.079C99.2717 188.568 99.3196 188.961 99.4153 189.259C99.5167 189.557 99.6688 189.774 99.8716 189.909C100.08 190.044 100.345 190.111 100.666 190.111C100.902 190.111 101.119 190.069 101.316 189.985C101.519 189.895 101.699 189.774 101.857 189.622C102.015 189.465 102.142 189.287 102.237 189.091C102.333 188.888 102.392 188.68 102.415 188.467L102.939 188.72C102.939 189.108 102.874 189.495 102.744 189.883C102.615 190.271 102.418 190.625 102.153 190.946C101.894 191.266 101.567 191.522 101.173 191.713C100.784 191.904 100.328 192 99.804 192ZM102.896 191.806L102.372 189.816V183.373H104.789V190.516L104.409 190.027H105.752V191.806H102.896ZM112.003 191.992C111.349 191.992 110.758 191.93 110.228 191.806C109.704 191.688 109.248 191.517 108.859 191.292C108.471 191.061 108.158 190.786 107.922 190.465L109.797 189.242C109.899 189.394 110.023 189.532 110.169 189.656C110.321 189.774 110.493 189.875 110.684 189.959C110.882 190.044 111.098 190.105 111.335 190.145C111.572 190.184 111.819 190.204 112.079 190.204C112.321 190.204 112.546 190.187 112.754 190.153C112.969 190.119 113.157 190.069 113.321 190.001C113.49 189.928 113.619 189.836 113.709 189.723C113.805 189.611 113.853 189.476 113.853 189.318C113.853 189.127 113.751 188.97 113.549 188.846C113.352 188.717 113.067 188.607 112.695 188.517C112.324 188.427 111.873 188.346 111.343 188.273C110.949 188.216 110.561 188.132 110.178 188.02C109.8 187.902 109.459 187.744 109.155 187.547C108.851 187.345 108.609 187.092 108.429 186.788C108.248 186.479 108.158 186.111 108.158 185.684C108.158 185.324 108.231 185.009 108.378 184.739C108.524 184.464 108.727 184.228 108.986 184.031C109.251 183.834 109.552 183.674 109.89 183.55C110.228 183.421 110.586 183.325 110.963 183.264C111.346 183.202 111.729 183.171 112.112 183.171C112.754 183.171 113.323 183.247 113.819 183.398C114.32 183.545 114.74 183.733 115.078 183.963C115.422 184.188 115.675 184.416 115.838 184.647L114.013 185.827C113.94 185.698 113.836 185.58 113.701 185.473C113.566 185.361 113.408 185.265 113.228 185.186C113.047 185.102 112.85 185.04 112.636 185.001C112.422 184.956 112.2 184.933 111.969 184.933C111.783 184.933 111.594 184.947 111.403 184.975C111.211 184.998 111.034 185.04 110.87 185.102C110.707 185.164 110.575 185.242 110.473 185.338C110.377 185.434 110.33 185.554 110.33 185.701C110.33 185.875 110.417 186.021 110.592 186.139C110.766 186.252 111.008 186.344 111.318 186.417C111.634 186.491 111.997 186.558 112.408 186.62C112.707 186.665 113.022 186.724 113.354 186.797C113.692 186.864 114.025 186.954 114.351 187.067C114.678 187.179 114.974 187.328 115.238 187.514C115.503 187.694 115.714 187.921 115.872 188.197C116.03 188.467 116.109 188.79 116.109 189.167C116.109 189.56 116.033 189.911 115.881 190.221C115.734 190.524 115.526 190.788 115.255 191.013C114.991 191.238 114.684 191.424 114.334 191.57C113.985 191.71 113.611 191.814 113.211 191.882C112.816 191.955 112.414 191.992 112.003 191.992ZM123.018 191.992C122.455 191.992 121.909 191.899 121.379 191.713C120.855 191.528 120.385 191.252 119.968 190.887C119.557 190.516 119.23 190.055 118.988 189.504C118.746 188.947 118.625 188.304 118.625 187.573C118.625 186.842 118.743 186.201 118.98 185.65C119.222 185.099 119.551 184.641 119.968 184.275C120.385 183.904 120.858 183.629 121.387 183.449C121.917 183.264 122.469 183.171 123.043 183.171C123.635 183.171 124.195 183.258 124.725 183.432C125.254 183.601 125.722 183.857 126.127 184.2C126.539 184.537 126.86 184.967 127.091 185.49C127.327 186.007 127.445 186.614 127.445 187.311C127.445 187.435 127.44 187.57 127.429 187.716C127.417 187.862 127.4 187.992 127.378 188.104H120.559V186.67H124.945C124.945 186.654 124.945 186.639 124.945 186.628C124.945 186.617 124.945 186.603 124.945 186.586C124.945 186.277 124.863 185.999 124.7 185.751C124.542 185.498 124.325 185.299 124.049 185.152C123.773 185.006 123.455 184.933 123.094 184.933C122.835 184.933 122.584 184.984 122.342 185.085C122.1 185.186 121.883 185.341 121.692 185.549C121.506 185.757 121.357 186.027 121.244 186.358C121.131 186.69 121.075 187.089 121.075 187.556C121.075 188.124 121.165 188.607 121.345 189.006C121.531 189.4 121.779 189.701 122.089 189.909C122.404 190.117 122.762 190.221 123.162 190.221C123.517 190.221 123.812 190.162 124.049 190.044C124.291 189.92 124.483 189.777 124.623 189.613C124.77 189.445 124.874 189.287 124.936 189.141L127.107 190.195C126.95 190.46 126.747 190.701 126.499 190.921C126.251 191.134 125.956 191.323 125.612 191.486C125.274 191.649 124.888 191.772 124.454 191.857C124.026 191.947 123.548 191.992 123.018 191.992ZM132.775 192C132.341 192 131.944 191.933 131.584 191.798C131.223 191.657 130.91 191.446 130.646 191.165C130.387 190.878 130.184 190.51 130.037 190.06C129.897 189.611 129.826 189.077 129.826 188.458V183.373H132.243V188.079C132.243 188.568 132.29 188.961 132.386 189.259C132.488 189.557 132.64 189.774 132.842 189.909C133.051 190.044 133.316 190.111 133.637 190.111C133.873 190.111 134.09 190.069 134.287 189.985C134.49 189.895 134.67 189.774 134.828 189.622C134.986 189.465 135.112 189.287 135.208 189.091C135.304 188.888 135.363 188.68 135.386 188.467L135.91 188.72C135.91 189.108 135.845 189.495 135.715 189.883C135.586 190.271 135.388 190.625 135.124 190.946C134.865 191.266 134.538 191.522 134.144 191.713C133.755 191.904 133.299 192 132.775 192ZM135.867 191.806L135.343 189.816V183.373H137.76V190.516L137.38 190.027H138.723V191.806H135.867ZM150.584 191.806V186.729C150.584 186.173 150.488 185.757 150.296 185.481C150.11 185.206 149.792 185.068 149.342 185.068C149.054 185.068 148.795 185.147 148.564 185.304C148.333 185.456 148.147 185.65 148.007 185.886C147.866 186.122 147.787 186.358 147.77 186.595L147.027 186.375C147.032 185.97 147.119 185.577 147.288 185.195C147.463 184.812 147.702 184.469 148.007 184.166C148.311 183.862 148.66 183.623 149.054 183.449C149.449 183.269 149.868 183.179 150.313 183.179C150.916 183.179 151.414 183.3 151.809 183.542C152.209 183.778 152.507 184.143 152.704 184.638C152.901 185.127 153 185.751 153 186.51V191.806H150.584ZM140.174 191.806V183.373H142.346L142.591 185.018V191.806H140.174ZM145.379 191.806V186.729C145.379 186.173 145.28 185.757 145.083 185.481C144.892 185.206 144.576 185.068 144.137 185.068C143.85 185.068 143.591 185.147 143.36 185.304C143.129 185.456 142.943 185.65 142.802 185.886C142.661 186.122 142.588 186.358 142.582 186.595L141.839 186.375C141.839 185.97 141.923 185.577 142.092 185.195C142.267 184.812 142.506 184.469 142.81 184.166C143.115 183.862 143.464 183.623 143.858 183.449C144.252 183.269 144.669 183.179 145.109 183.179C146.01 183.179 146.683 183.441 147.128 183.963C147.573 184.481 147.795 185.259 147.795 186.299V191.806H145.379Z" fill="#EBF5FB"/>
</svg>
