<svg width="194" height="70" viewBox="0 0 194 70" fill="none" xmlns="http://www.w3.org/2000/svg">
<g clip-path="url(#clip0_64_172)">
<path d="M70.4174 0H0V70H70.4174V0Z" fill="white"/>
<path d="M35.2087 0H0V35H35.2087V0Z" fill="#F1C40F"/>
<path d="M70.4174 0H35.2087V35H70.4174V0Z" fill="#6D3E7F"/>
<path d="M70.4174 35H35.2087V70H70.4174V35Z" fill="#E67E22"/>
<path d="M35.2087 35H0V70H35.2087V35Z" fill="#2ECC71"/>
<path d="M18.0663 29.7695C17.1086 29.7695 16.1453 29.6463 15.1764 29.3999C14.2074 29.1423 13.2892 28.7279 12.4217 28.1567C11.5541 27.5855 10.7823 26.8351 10.1063 25.9055C9.4416 24.9759 8.91206 23.8335 8.51772 22.4783C8.13465 21.1231 7.94312 19.5327 7.94312 17.7071C7.94312 15.8815 8.13465 14.2967 8.51772 12.9527C8.91206 11.5975 9.44723 10.4551 10.1232 9.52554C10.8105 8.59594 11.5879 7.85114 12.4555 7.29114C13.323 6.71994 14.2413 6.31114 15.2102 6.06474C16.1791 5.80714 17.1481 5.67834 18.117 5.67834C19.1198 5.67834 20.0549 5.81274 20.9225 6.08154C21.79 6.33914 22.5787 6.71994 23.2885 7.22394C23.9983 7.72794 24.6236 8.33834 25.1644 9.05514C25.7052 9.76074 26.1446 10.5671 26.4826 11.4743L22.2576 13.5743C22.1224 13.1151 21.9365 12.6391 21.6999 12.1463C21.4745 11.6423 21.1985 11.1775 20.8718 10.7519C20.545 10.3151 20.1507 9.96234 19.6887 9.69354C19.2381 9.42474 18.7085 9.29034 18.1001 9.29034C17.4467 9.29034 16.8044 9.44714 16.1735 9.76075C15.5538 10.0631 14.9961 10.5503 14.5004 11.2223C14.0046 11.8943 13.6103 12.7679 13.3174 13.8431C13.0244 14.9071 12.878 16.1951 12.878 17.7071C12.878 19.2191 13.0244 20.5127 13.3174 21.5879C13.6103 22.6631 13.999 23.5367 14.4835 24.2087C14.9792 24.8807 15.5369 25.3735 16.1566 25.6871C16.7763 26.0007 17.4129 26.1575 18.0663 26.1575C18.6747 26.1575 19.2099 26.0231 19.6718 25.7543C20.1338 25.4855 20.5281 25.1383 20.8549 24.7127C21.1816 24.2759 21.4576 23.8111 21.683 23.3183C21.9196 22.8255 22.1111 22.3607 22.2576 21.9239L26.4826 24.0407C26.1446 24.9143 25.7052 25.7039 25.1644 26.4095C24.6236 27.1151 23.9927 27.7199 23.2716 28.2239C22.5618 28.7279 21.7675 29.1143 20.8887 29.3831C20.0211 29.6407 19.0803 29.7695 18.0663 29.7695Z" fill="#1B2631"/>
<path d="M17.255 64.7695C15.7565 64.7695 14.3707 64.5511 13.0976 64.1143C11.8357 63.6663 10.7597 63.0391 9.86965 62.2327C8.99084 61.4151 8.38244 60.4519 8.04443 59.3431L12.6751 57.4279C12.8779 58.0663 13.2046 58.6655 13.6553 59.2255C14.106 59.7855 14.6637 60.2391 15.3284 60.5863C15.9932 60.9223 16.748 61.0903 17.593 61.0903C18.3817 61.0903 19.0577 60.9783 19.6211 60.7543C20.1844 60.5191 20.6182 60.1831 20.9224 59.7463C21.2266 59.3095 21.3787 58.7719 21.3787 58.1335C21.3787 57.6631 21.2322 57.2319 20.9393 56.8399C20.6576 56.4479 20.2689 56.1007 19.7732 55.7983C19.2774 55.4847 18.7084 55.2047 18.0662 54.9583C17.4353 54.7007 16.7706 54.4711 16.072 54.2695C15.0355 53.9559 14.0722 53.6031 13.1821 53.2111C12.292 52.8079 11.5146 52.3319 10.8499 51.7831C10.1851 51.2231 9.66685 50.5567 9.29505 49.7839C8.92324 49.0111 8.73734 48.0927 8.73734 47.0287C8.73734 46.1551 8.90071 45.3767 9.22745 44.6935C9.55418 44.0103 10.0049 43.4167 10.5795 42.9127C11.1653 42.4087 11.8301 41.9943 12.5737 41.6695C13.3286 41.3335 14.1285 41.0871 14.9735 40.9303C15.8185 40.7623 16.6748 40.6783 17.5423 40.6783C18.9507 40.6783 20.2407 40.8911 21.4125 41.3167C22.5955 41.7311 23.5926 42.2911 24.4038 42.9967C25.215 43.7023 25.7558 44.5031 26.0262 45.3991L21.4801 47.3647C21.2885 46.7599 20.9956 46.2335 20.6013 45.7855C20.2182 45.3263 19.7506 44.9735 19.1986 44.7271C18.6577 44.4807 18.0437 44.3575 17.3564 44.3575C16.872 44.3575 16.4157 44.4079 15.9875 44.5087C15.5594 44.6095 15.1763 44.7663 14.8383 44.9791C14.5116 45.1919 14.2524 45.4607 14.0609 45.7855C13.8694 46.0991 13.7736 46.4631 13.7736 46.8775C13.7736 47.4599 13.9482 47.9695 14.2975 48.4063C14.6468 48.8319 15.1425 49.2071 15.7847 49.5319C16.4269 49.8455 17.1931 50.1311 18.0831 50.3887C18.8155 50.6015 19.5704 50.8479 20.3478 51.1279C21.1252 51.4079 21.8744 51.7439 22.5955 52.1359C23.3166 52.5279 23.9644 52.9871 24.539 53.5135C25.1136 54.0287 25.5699 54.6391 25.9079 55.3447C26.2459 56.0503 26.4149 56.8623 26.4149 57.7807C26.4149 58.7887 26.2403 59.6791 25.891 60.4519C25.553 61.2247 25.0855 61.8855 24.4883 62.4343C23.8912 62.9831 23.2039 63.4311 22.4265 63.7783C21.6491 64.1143 20.8153 64.3607 19.9253 64.5175C19.0465 64.6855 18.1564 64.7695 17.255 64.7695Z" fill="#1B2631"/>
<path d="M51.8808 61.5608L53.0469 55.3112L57.086 40.88H59.7394L59.7563 44.9288L54.7707 61.5608H51.8808ZM40.0507 64.4L42.0787 40.88H46.5403L44.9855 64.4H40.0507ZM50.6809 61.5608L45.6784 44.9288L45.7291 40.88H48.3487L52.4892 55.3112L53.537 61.5608H50.6809ZM60.4492 64.4L58.8944 40.88H63.356L65.4009 64.4H60.4492Z" fill="#1B2631"/>
<path d="M81.5053 30.9385C81.1462 30.9385 80.7849 30.8923 80.4216 30.7999C80.0582 30.7033 79.7139 30.5479 79.3886 30.3337C79.0632 30.1195 78.7738 29.8381 78.5203 29.4895C78.271 29.1409 78.0725 28.7125 77.9246 28.2043C77.7809 27.6961 77.7091 27.0997 77.7091 26.4151C77.7091 25.7305 77.7809 25.1362 77.9246 24.6322C78.0725 24.124 78.2731 23.6956 78.5266 23.347C78.7844 22.9984 79.0759 22.7191 79.4012 22.5091C79.7266 22.2949 80.0709 22.1416 80.4343 22.0492C80.7976 21.9526 81.161 21.9043 81.5243 21.9043C81.9004 21.9043 82.251 21.9547 82.5764 22.0555C82.9017 22.1521 83.1974 22.2949 83.4636 22.4839C83.7298 22.6729 83.9643 22.9018 84.1671 23.1706C84.3699 23.4352 84.5347 23.7376 84.6614 24.0778L83.077 24.8653C83.0263 24.6931 82.9566 24.5146 82.8679 24.3298C82.7834 24.1408 82.6799 23.9665 82.5573 23.8069C82.4348 23.6431 82.2869 23.5108 82.1137 23.41C81.9447 23.3092 81.7461 23.2588 81.518 23.2588C81.2729 23.2588 81.0321 23.3176 80.7955 23.4352C80.5631 23.5486 80.354 23.7313 80.1681 23.9833C79.9822 24.2353 79.8343 24.5629 79.7245 24.9661C79.6146 25.3651 79.5597 25.8481 79.5597 26.4151C79.5597 26.9821 79.6146 27.4672 79.7245 27.8704C79.8343 28.2736 79.9801 28.6012 80.1617 28.8532C80.3476 29.1052 80.5568 29.29 80.7892 29.4076C81.0215 29.5252 81.2603 29.584 81.5053 29.584C81.7335 29.584 81.9341 29.5336 82.1074 29.4328C82.2806 29.332 82.4285 29.2018 82.551 29.0422C82.6735 28.8784 82.777 28.7041 82.8615 28.5193C82.9503 28.3345 83.0221 28.1602 83.077 27.9964L84.6614 28.7902C84.5347 29.1178 84.3699 29.4139 84.1671 29.6785C83.9643 29.9431 83.7277 30.1699 83.4573 30.3589C83.1911 30.5479 82.8932 30.6928 82.5637 30.7936C82.2384 30.8902 81.8856 30.9385 81.5053 30.9385ZM89.5019 30.9385C89.2062 30.9385 88.9041 30.9007 88.5956 30.8251C88.2872 30.7537 87.9893 30.6382 87.702 30.4786C87.4147 30.319 87.157 30.1111 86.9289 29.8549C86.7049 29.5945 86.5254 29.2816 86.3902 28.9162C86.2592 28.5508 86.1937 28.1245 86.1937 27.6373C86.1937 27.1543 86.2592 26.7301 86.3902 26.3647C86.5254 25.9993 86.7049 25.6885 86.9289 25.4323C87.157 25.1761 87.4147 24.9682 87.702 24.8086C87.9893 24.649 88.2872 24.5335 88.5956 24.4621C88.9041 24.3865 89.2062 24.3487 89.5019 24.3487C89.7934 24.3487 90.0934 24.3865 90.4018 24.4621C90.7103 24.5335 91.0081 24.649 91.2954 24.8086C91.5827 24.9682 91.8384 25.1761 92.0623 25.4323C92.2904 25.6885 92.47 25.9993 92.601 26.3647C92.7362 26.7301 92.8038 27.1543 92.8038 27.6373C92.8038 28.1245 92.7362 28.5508 92.601 28.9162C92.47 29.2816 92.2904 29.5945 92.0623 29.8549C91.8384 30.1111 91.5827 30.319 91.2954 30.4786C91.0081 30.6382 90.7103 30.7537 90.4018 30.8251C90.0934 30.9007 89.7934 30.9385 89.5019 30.9385ZM89.5019 29.6155C89.6836 29.6155 89.861 29.5798 90.0343 29.5084C90.2117 29.4328 90.3702 29.3194 90.5096 29.1682C90.649 29.0128 90.7589 28.8091 90.8391 28.5571C90.9236 28.3009 90.9659 27.9943 90.9659 27.6373C90.9659 27.2803 90.9236 26.9779 90.8391 26.7301C90.7589 26.4781 90.649 26.2744 90.5096 26.119C90.3702 25.9636 90.2117 25.8502 90.0343 25.7788C89.861 25.7074 89.6836 25.6717 89.5019 25.6717C89.3202 25.6717 89.1407 25.7074 88.9632 25.7788C88.79 25.8502 88.6316 25.9636 88.4879 26.119C88.3485 26.2744 88.2365 26.4781 88.152 26.7301C88.0717 26.9779 88.0316 27.2803 88.0316 27.6373C88.0316 27.9943 88.0717 28.3009 88.152 28.5571C88.2365 28.8091 88.3485 29.0128 88.4879 29.1682C88.6316 29.3194 88.79 29.4328 88.9632 29.5084C89.1407 29.5798 89.3202 29.6155 89.5019 29.6155ZM101.922 30.7999V27.0073C101.922 26.5915 101.85 26.2807 101.707 26.0749C101.567 25.8691 101.329 25.7662 100.991 25.7662C100.775 25.7662 100.581 25.825 100.407 25.9426C100.234 26.056 100.095 26.2009 99.9892 26.3773C99.8835 26.5537 99.8244 26.7301 99.8117 26.9065L99.254 26.7427C99.2582 26.4403 99.3237 26.1463 99.4505 25.8607C99.5815 25.5751 99.761 25.3189 99.9892 25.0921C100.217 24.8653 100.479 24.6868 100.775 24.5566C101.071 24.4222 101.386 24.355 101.719 24.355C102.171 24.355 102.545 24.4453 102.841 24.6259C103.141 24.8023 103.365 25.0753 103.513 25.4449C103.661 25.8103 103.735 26.2765 103.735 26.8435V30.7999H101.922ZM94.1142 30.7999V24.4999H95.743L95.9268 25.7284V30.7999H94.1142ZM98.0182 30.7999V27.0073C98.0182 26.5915 97.9443 26.2807 97.7964 26.0749C97.6527 25.8691 97.4161 25.7662 97.0866 25.7662C96.8711 25.7662 96.6767 25.825 96.5035 25.9426C96.3303 26.056 96.1909 26.2009 96.0852 26.3773C95.9796 26.5537 95.9247 26.7301 95.9205 26.9065L95.3628 26.7427C95.3628 26.4403 95.4261 26.1463 95.5529 25.8607C95.6839 25.5751 95.8634 25.3189 96.0916 25.0921C96.3197 24.8653 96.5817 24.6868 96.8774 24.5566C97.1732 24.4222 97.4858 24.355 97.8154 24.355C98.4914 24.355 98.9963 24.5503 99.3301 24.9409C99.6639 25.3273 99.8307 25.909 99.8307 26.686V30.7999H98.0182ZM112.691 30.7999V27.0073C112.691 26.5915 112.619 26.2807 112.476 26.0749C112.336 25.8691 112.097 25.7662 111.759 25.7662C111.544 25.7662 111.35 25.825 111.176 25.9426C111.003 26.056 110.864 26.2009 110.758 26.3773C110.652 26.5537 110.593 26.7301 110.581 26.9065L110.023 26.7427C110.027 26.4403 110.093 26.1463 110.219 25.8607C110.35 25.5751 110.53 25.3189 110.758 25.0921C110.986 24.8653 111.248 24.6868 111.544 24.5566C111.84 24.4222 112.154 24.355 112.488 24.355C112.94 24.355 113.314 24.4453 113.61 24.6259C113.91 24.8023 114.134 25.0753 114.282 25.4449C114.43 25.8103 114.504 26.2765 114.504 26.8435V30.7999H112.691ZM104.883 30.7999V24.4999H106.512L106.696 25.7284V30.7999H104.883ZM108.787 30.7999V27.0073C108.787 26.5915 108.713 26.2807 108.565 26.0749C108.422 25.8691 108.185 25.7662 107.856 25.7662C107.64 25.7662 107.446 25.825 107.272 25.9426C107.099 26.056 106.96 26.2009 106.854 26.3773C106.749 26.5537 106.694 26.7301 106.689 26.9065L106.132 26.7427C106.132 26.4403 106.195 26.1463 106.322 25.8607C106.453 25.5751 106.632 25.3189 106.861 25.0921C107.089 24.8653 107.351 24.6868 107.646 24.5566C107.942 24.4222 108.255 24.355 108.584 24.355C109.26 24.355 109.765 24.5503 110.099 24.9409C110.433 25.3273 110.6 25.909 110.6 26.686V30.7999H108.787ZM118.346 30.9448C118.02 30.9448 117.722 30.8944 117.452 30.7936C117.182 30.6886 116.947 30.5311 116.749 30.3211C116.554 30.1069 116.402 29.8318 116.292 29.4958C116.187 29.1598 116.134 28.7608 116.134 28.2988V24.4999H117.946V28.0153C117.946 28.3807 117.982 28.6747 118.054 28.8973C118.13 29.1199 118.244 29.2816 118.396 29.3824C118.553 29.4832 118.751 29.5336 118.992 29.5336C119.169 29.5336 119.332 29.5021 119.48 29.4391C119.632 29.3719 119.767 29.2816 119.886 29.1682C120.004 29.0506 120.099 28.9183 120.171 28.7713C120.243 28.6201 120.287 28.4647 120.304 28.3051L120.697 28.4941C120.697 28.7839 120.648 29.0737 120.551 29.3635C120.454 29.6533 120.306 29.9179 120.107 30.1573C119.913 30.3967 119.668 30.5878 119.372 30.7306C119.081 30.8734 118.739 30.9448 118.346 30.9448ZM120.665 30.7999L120.272 29.3131V24.4999H122.085V29.836L121.8 29.4706H122.807V30.7999H120.665ZM124.549 30.7999V24.4999H126.146L126.374 25.8229V30.7999H124.549ZM128.674 30.7999V27.2845C128.674 26.9191 128.636 26.6251 128.56 26.4025C128.489 26.1799 128.374 26.0182 128.218 25.9174C128.066 25.8166 127.87 25.7662 127.629 25.7662C127.451 25.7662 127.286 25.7998 127.134 25.867C126.987 25.93 126.853 26.0203 126.735 26.1379C126.617 26.2513 126.522 26.3836 126.45 26.5348C126.378 26.6818 126.334 26.8351 126.317 26.9947L125.924 26.8057C125.924 26.5159 125.972 26.2261 126.07 25.9363C126.167 25.6465 126.313 25.3819 126.507 25.1425C126.706 24.9031 126.951 24.712 127.242 24.5692C127.538 24.4264 127.882 24.355 128.275 24.355C128.605 24.355 128.903 24.4075 129.169 24.5125C129.439 24.6133 129.674 24.7708 129.872 24.985C130.071 25.195 130.223 25.468 130.329 25.804C130.438 26.1358 130.493 26.5348 130.493 27.001V30.7999H128.674ZM132.064 30.7999V29.4706H133.971V25.8292H132.336V24.4999H135.784V29.4706H137.552V30.7999H132.064ZM133.94 21.7972H135.79V23.5297H133.94V21.7972ZM139.711 28.8847V22.5028H141.517V28.8406C141.517 29.0716 141.545 29.2522 141.6 29.3824C141.659 29.5084 141.739 29.5987 141.841 29.6533C141.942 29.7037 142.056 29.7289 142.183 29.7289C142.314 29.7289 142.434 29.7058 142.544 29.6596C142.654 29.6092 142.743 29.5168 142.81 29.3824C142.878 29.248 142.912 29.0506 142.912 28.7902H144.338C144.338 29.1934 144.272 29.5336 144.141 29.8108C144.014 30.0838 143.837 30.3022 143.609 30.466C143.385 30.6298 143.129 30.7474 142.842 30.8188C142.559 30.8902 142.263 30.9259 141.955 30.9259C141.646 30.9259 141.355 30.8923 141.08 30.8251C140.81 30.7579 140.571 30.6466 140.364 30.4912C140.161 30.3358 140.001 30.1279 139.882 29.8675C139.768 29.6029 139.711 29.2753 139.711 28.8847ZM138.279 25.8292V24.4999H144.439V25.8292H138.279ZM148.399 33.3199L149.539 30.4282L150.142 30.8188H148.76L146.535 24.4999H148.399L150.078 29.8549H149.78L151.472 24.4999H153.304L150.199 33.3199H148.399Z" fill="#EBF5FB"/>
<path d="M81.2012 48.0886C80.6392 48.0886 80.1196 48.0067 79.6421 47.8429C79.1689 47.6749 78.7654 47.4397 78.4316 47.1373C78.1021 46.8307 77.8739 46.4695 77.7472 46.0537L79.4837 45.3355C79.5597 45.5749 79.6823 45.7996 79.8513 46.0096C80.0203 46.2196 80.2294 46.3897 80.4787 46.5199C80.728 46.6459 81.011 46.7089 81.3279 46.7089C81.6237 46.7089 81.8772 46.6669 82.0884 46.5829C82.2997 46.4947 82.4623 46.3687 82.5764 46.2049C82.6905 46.0411 82.7475 45.8395 82.7475 45.6001C82.7475 45.4237 82.6926 45.262 82.5828 45.115C82.4771 44.968 82.3314 44.8378 82.1455 44.7244C81.9596 44.6068 81.7462 44.5018 81.5054 44.4094C81.2688 44.3128 81.0195 44.2267 80.7575 44.1511C80.3688 44.0335 80.0076 43.9012 79.6738 43.7542C79.34 43.603 79.0485 43.4245 78.7992 43.2187C78.55 43.0087 78.3556 42.7588 78.2162 42.469C78.0767 42.1792 78.007 41.8348 78.007 41.4358C78.007 41.1082 78.0683 40.8163 78.1908 40.5601C78.3134 40.3039 78.4824 40.0813 78.6978 39.8923C78.9175 39.7033 79.1668 39.5479 79.4457 39.4261C79.7287 39.3001 80.0287 39.2077 80.3456 39.1489C80.6625 39.0859 80.9836 39.0544 81.3089 39.0544C81.837 39.0544 82.3208 39.1342 82.7602 39.2938C83.2038 39.4492 83.5778 39.6592 83.882 39.9238C84.1862 40.1884 84.389 40.4887 84.4904 40.8247L82.7856 41.5618C82.7137 41.335 82.6039 41.1376 82.456 40.9696C82.3124 40.7974 82.137 40.6651 81.93 40.5727C81.7272 40.4803 81.4969 40.4341 81.2392 40.4341C81.0575 40.4341 80.8864 40.453 80.7259 40.4908C80.5653 40.5286 80.4216 40.5874 80.2949 40.6672C80.1724 40.747 80.0752 40.8478 80.0034 40.9696C79.9315 41.0872 79.8956 41.2237 79.8956 41.3791C79.8956 41.5975 79.9611 41.7886 80.0921 41.9524C80.2231 42.112 80.409 42.2527 80.6498 42.3745C80.8906 42.4921 81.1779 42.5992 81.5117 42.6958C81.7863 42.7756 82.0694 42.868 82.3609 42.973C82.6525 43.078 82.9334 43.204 83.2038 43.351C83.4742 43.498 83.7172 43.6702 83.9327 43.8676C84.1481 44.0608 84.3193 44.2897 84.446 44.5543C84.5728 44.8189 84.6361 45.1234 84.6361 45.4678C84.6361 45.8458 84.5706 46.1797 84.4397 46.4695C84.3129 46.7593 84.1376 47.0071 83.9136 47.2129C83.6897 47.4187 83.432 47.5867 83.1405 47.7169C82.8489 47.8429 82.5363 47.9353 82.2025 47.9941C81.873 48.0571 81.5392 48.0886 81.2012 48.0886ZM89.7935 48.0886C89.4766 48.0886 89.1597 48.0487 88.8429 47.9689C88.526 47.8891 88.226 47.7673 87.9429 47.6035C87.6641 47.4355 87.4169 47.2213 87.2014 46.9609C86.986 46.7005 86.8148 46.3918 86.6881 46.0348C86.5656 45.6736 86.5043 45.2578 86.5043 44.7874C86.5043 44.3128 86.5656 43.8949 86.6881 43.5337C86.8148 43.1725 86.986 42.8638 87.2014 42.6076C87.4169 42.3472 87.6641 42.1372 87.9429 41.9776C88.226 41.8138 88.526 41.6941 88.8429 41.6185C89.1597 41.5387 89.4766 41.4988 89.7935 41.4988C90.1484 41.4988 90.4758 41.5387 90.7758 41.6185C91.08 41.6983 91.3568 41.8117 91.606 41.9587C91.8553 42.1015 92.0708 42.2737 92.2525 42.4753C92.4342 42.6769 92.5757 42.9016 92.6771 43.1494L91.0927 43.8739C91.0504 43.7185 90.9786 43.561 90.8772 43.4014C90.7758 43.2376 90.6406 43.1011 90.4716 42.9919C90.3026 42.8785 90.0935 42.8218 89.8442 42.8218C89.6625 42.8218 89.4851 42.8575 89.3118 42.9289C89.1386 43.0003 88.9802 43.1137 88.8365 43.2691C88.6971 43.4245 88.5851 43.6282 88.5006 43.8802C88.4204 44.128 88.3802 44.4304 88.3802 44.7874C88.3802 45.1402 88.4204 45.4405 88.5006 45.6883C88.5851 45.9361 88.6971 46.1398 88.8365 46.2994C88.9802 46.459 89.1386 46.5766 89.3118 46.6522C89.4851 46.7278 89.6625 46.7656 89.8442 46.7656C90.0935 46.7656 90.3026 46.7152 90.4716 46.6144C90.6449 46.5136 90.78 46.3876 90.8772 46.2364C90.9786 46.0852 91.0483 45.934 91.0864 45.7828L92.6708 46.5136C92.5651 46.7404 92.4215 46.9504 92.2398 47.1436C92.0624 47.3326 91.8511 47.4985 91.606 47.6413C91.361 47.7841 91.0864 47.8933 90.7822 47.9689C90.4822 48.0487 90.1526 48.0886 89.7935 48.0886ZM94.0383 47.95V46.6207H95.9459V42.9793H94.3108V41.65H97.7584V46.6207H99.5266V47.95H94.0383ZM95.9142 38.9473H97.7648V40.6798H95.9142V38.9473ZM104.071 48.0886C103.648 48.0886 103.238 48.0193 102.841 47.8807C102.448 47.7421 102.095 47.5363 101.783 47.2633C101.474 46.9861 101.229 46.6417 101.048 46.2301C100.866 45.8143 100.775 45.3334 100.775 44.7874C100.775 44.2414 100.864 43.7626 101.041 43.351C101.223 42.9394 101.47 42.5971 101.783 42.3241C102.095 42.0469 102.45 41.8411 102.847 41.7067C103.245 41.5681 103.659 41.4988 104.09 41.4988C104.533 41.4988 104.954 41.5639 105.351 41.6941C105.748 41.8201 106.099 42.0112 106.403 42.2674C106.711 42.5194 106.952 42.8407 107.125 43.2313C107.303 43.6177 107.392 44.0713 107.392 44.5921C107.392 44.6845 107.387 44.7853 107.379 44.8945C107.37 45.0037 107.358 45.1003 107.341 45.1843H102.226V44.1133H105.516C105.516 44.1007 105.516 44.0902 105.516 44.0818C105.516 44.0734 105.516 44.0629 105.516 44.0503C105.516 43.8193 105.454 43.6114 105.332 43.4266C105.214 43.2376 105.051 43.0885 104.844 42.9793C104.637 42.8701 104.398 42.8155 104.128 42.8155C103.933 42.8155 103.745 42.8533 103.564 42.9289C103.382 43.0045 103.219 43.12 103.076 43.2754C102.936 43.4308 102.824 43.6324 102.74 43.8802C102.655 44.128 102.613 44.4262 102.613 44.7748C102.613 45.199 102.681 45.5602 102.816 45.8584C102.955 46.1524 103.141 46.3771 103.373 46.5325C103.61 46.6879 103.878 46.7656 104.178 46.7656C104.445 46.7656 104.666 46.7215 104.844 46.6333C105.026 46.5409 105.169 46.4338 105.275 46.312C105.385 46.186 105.463 46.0684 105.509 45.9592L107.138 46.7467C107.02 46.9441 106.868 47.1247 106.682 47.2885C106.496 47.4481 106.274 47.5888 106.016 47.7106C105.763 47.8324 105.473 47.9248 105.148 47.9878C104.827 48.055 104.468 48.0886 104.071 48.0886ZM109.348 47.95V41.65H110.945L111.174 42.973V47.95H109.348ZM113.474 47.95V44.4346C113.474 44.0692 113.436 43.7752 113.36 43.5526C113.288 43.33 113.174 43.1683 113.018 43.0675C112.866 42.9667 112.669 42.9163 112.428 42.9163C112.251 42.9163 112.086 42.9499 111.934 43.0171C111.786 43.0801 111.653 43.1704 111.535 43.288C111.417 43.4014 111.322 43.5337 111.25 43.6849C111.178 43.8319 111.133 43.9852 111.117 44.1448L110.724 43.9558C110.724 43.666 110.772 43.3762 110.869 43.0864C110.967 42.7966 111.112 42.532 111.307 42.2926C111.505 42.0532 111.75 41.8621 112.042 41.7193C112.338 41.5765 112.682 41.5051 113.075 41.5051C113.404 41.5051 113.702 41.5576 113.969 41.6626C114.239 41.7634 114.473 41.9209 114.672 42.1351C114.871 42.3451 115.023 42.6181 115.128 42.9541C115.238 43.2859 115.293 43.6849 115.293 44.1511V47.95H113.474ZM120.862 48.0886C120.545 48.0886 120.229 48.0487 119.912 47.9689C119.595 47.8891 119.295 47.7673 119.012 47.6035C118.733 47.4355 118.486 47.2213 118.27 46.9609C118.055 46.7005 117.884 46.3918 117.757 46.0348C117.634 45.6736 117.573 45.2578 117.573 44.7874C117.573 44.3128 117.634 43.8949 117.757 43.5337C117.884 43.1725 118.055 42.8638 118.27 42.6076C118.486 42.3472 118.733 42.1372 119.012 41.9776C119.295 41.8138 119.595 41.6941 119.912 41.6185C120.229 41.5387 120.545 41.4988 120.862 41.4988C121.217 41.4988 121.545 41.5387 121.845 41.6185C122.149 41.6983 122.426 41.8117 122.675 41.9587C122.924 42.1015 123.14 42.2737 123.321 42.4753C123.503 42.6769 123.645 42.9016 123.746 43.1494L122.162 43.8739C122.119 43.7185 122.047 43.561 121.946 43.4014C121.845 43.2376 121.709 43.1011 121.54 42.9919C121.371 42.8785 121.162 42.8218 120.913 42.8218C120.731 42.8218 120.554 42.8575 120.381 42.9289C120.207 43.0003 120.049 43.1137 119.905 43.2691C119.766 43.4245 119.654 43.6282 119.57 43.8802C119.489 44.128 119.449 44.4304 119.449 44.7874C119.449 45.1402 119.489 45.4405 119.57 45.6883C119.654 45.9361 119.766 46.1398 119.905 46.2994C120.049 46.459 120.207 46.5766 120.381 46.6522C120.554 46.7278 120.731 46.7656 120.913 46.7656C121.162 46.7656 121.371 46.7152 121.54 46.6144C121.714 46.5136 121.849 46.3876 121.946 46.2364C122.047 46.0852 122.117 45.934 122.155 45.7828L123.74 46.5136C123.634 46.7404 123.49 46.9504 123.309 47.1436C123.131 47.3326 122.92 47.4985 122.675 47.6413C122.43 47.7841 122.155 47.8933 121.851 47.9689C121.551 48.0487 121.221 48.0886 120.862 48.0886ZM128.802 48.0886C128.379 48.0886 127.97 48.0193 127.572 47.8807C127.18 47.7421 126.827 47.5363 126.514 47.2633C126.206 46.9861 125.961 46.6417 125.779 46.2301C125.597 45.8143 125.506 45.3334 125.506 44.7874C125.506 44.2414 125.595 43.7626 125.773 43.351C125.954 42.9394 126.201 42.5971 126.514 42.3241C126.827 42.0469 127.182 41.8411 127.579 41.7067C127.976 41.5681 128.39 41.4988 128.821 41.4988C129.265 41.4988 129.685 41.5639 130.082 41.6941C130.479 41.8201 130.83 42.0112 131.134 42.2674C131.443 42.5194 131.683 42.8407 131.857 43.2313C132.034 43.6177 132.123 44.0713 132.123 44.5921C132.123 44.6845 132.119 44.7853 132.11 44.8945C132.102 45.0037 132.089 45.1003 132.072 45.1843H126.958V44.1133H130.247C130.247 44.1007 130.247 44.0902 130.247 44.0818C130.247 44.0734 130.247 44.0629 130.247 44.0503C130.247 43.8193 130.186 43.6114 130.063 43.4266C129.945 43.2376 129.782 43.0885 129.575 42.9793C129.368 42.8701 129.129 42.8155 128.859 42.8155C128.665 42.8155 128.477 42.8533 128.295 42.9289C128.113 43.0045 127.951 43.12 127.807 43.2754C127.668 43.4308 127.556 43.6324 127.471 43.8802C127.387 44.128 127.344 44.4262 127.344 44.7748C127.344 45.199 127.412 45.5602 127.547 45.8584C127.687 46.1524 127.872 46.3771 128.105 46.5325C128.341 46.6879 128.61 46.7656 128.91 46.7656C129.176 46.7656 129.398 46.7215 129.575 46.6333C129.757 46.5409 129.9 46.4338 130.006 46.312C130.116 46.186 130.194 46.0684 130.241 45.9592L131.869 46.7467C131.751 46.9441 131.599 47.1247 131.413 47.2885C131.227 47.4481 131.005 47.5888 130.748 47.7106C130.494 47.8324 130.205 47.9248 129.879 47.9878C129.558 48.055 129.199 48.0886 128.802 48.0886Z" fill="#EBF5FB"/>
<path d="M144.49 46.8853L144.928 44.5417L146.442 39.13H147.437L147.444 40.6483L145.574 46.8853H144.49ZM140.054 47.95L140.814 39.13H142.488L141.905 47.95H140.054ZM144.04 46.8853L142.164 40.6483L142.183 39.13H143.166L144.718 44.5417L145.111 46.8853H144.04ZM147.703 47.95L147.12 39.13H148.793L149.56 47.95H147.703ZM153.409 48.0949C153.083 48.0949 152.785 48.0445 152.515 47.9437C152.245 47.8387 152.01 47.6812 151.812 47.4712C151.617 47.257 151.465 46.9819 151.355 46.6459C151.25 46.3099 151.197 45.9109 151.197 45.4489V41.65H153.009V45.1654C153.009 45.5308 153.045 45.8248 153.117 46.0474C153.193 46.27 153.307 46.4317 153.459 46.5325C153.616 46.6333 153.814 46.6837 154.055 46.6837C154.233 46.6837 154.395 46.6522 154.543 46.5892C154.695 46.522 154.83 46.4317 154.949 46.3183C155.067 46.2007 155.162 46.0684 155.234 45.9214C155.306 45.7702 155.35 45.6148 155.367 45.4552L155.76 45.6442C155.76 45.934 155.711 46.2238 155.614 46.5136C155.517 46.8034 155.369 47.068 155.17 47.3074C154.976 47.5468 154.731 47.7379 154.435 47.8807C154.144 48.0235 153.802 48.0949 153.409 48.0949ZM155.728 47.95L155.335 46.4632V41.65H157.148V46.9861L156.863 46.6207H157.87V47.95H155.728ZM162.559 48.0886C162.069 48.0886 161.625 48.0424 161.228 47.95C160.835 47.8618 160.493 47.7337 160.201 47.5657C159.91 47.3935 159.675 47.1877 159.498 46.9483L160.905 46.0348C160.981 46.1482 161.074 46.2511 161.183 46.3435C161.297 46.4317 161.426 46.5073 161.57 46.5703C161.718 46.6333 161.881 46.6795 162.058 46.7089C162.235 46.7383 162.421 46.753 162.616 46.753C162.797 46.753 162.966 46.7404 163.123 46.7152C163.283 46.69 163.425 46.6522 163.547 46.6018C163.674 46.5472 163.771 46.4779 163.839 46.3939C163.911 46.3099 163.947 46.2091 163.947 46.0915C163.947 45.9487 163.871 45.8311 163.718 45.7387C163.571 45.6421 163.357 45.5602 163.078 45.493C162.799 45.4258 162.461 45.3649 162.064 45.3103C161.769 45.2683 161.477 45.2053 161.19 45.1213C160.907 45.0331 160.651 44.9155 160.423 44.7685C160.195 44.6173 160.013 44.4283 159.878 44.2015C159.743 43.9705 159.675 43.6954 159.675 43.3762C159.675 43.1074 159.73 42.8722 159.84 42.6706C159.95 42.4648 160.102 42.2884 160.296 42.1414C160.495 41.9944 160.721 41.8747 160.974 41.7823C161.228 41.6857 161.496 41.6143 161.779 41.5681C162.066 41.5219 162.354 41.4988 162.641 41.4988C163.123 41.4988 163.549 41.5555 163.921 41.6689C164.297 41.7781 164.612 41.9188 164.866 42.091C165.123 42.259 165.313 42.4291 165.436 42.6013L164.067 43.4833C164.012 43.3867 163.934 43.2985 163.833 43.2187C163.731 43.1347 163.613 43.0633 163.478 43.0045C163.342 42.9415 163.195 42.8953 163.034 42.8659C162.873 42.8323 162.707 42.8155 162.533 42.8155C162.394 42.8155 162.252 42.826 162.109 42.847C161.965 42.8638 161.832 42.8953 161.709 42.9415C161.587 42.9877 161.488 43.0465 161.412 43.1179C161.34 43.1893 161.304 43.2796 161.304 43.3888C161.304 43.519 161.369 43.6282 161.5 43.7164C161.631 43.8004 161.813 43.8697 162.045 43.9243C162.282 43.9789 162.554 44.0293 162.863 44.0755C163.087 44.1091 163.323 44.1532 163.573 44.2078C163.826 44.2582 164.075 44.3254 164.321 44.4094C164.566 44.4934 164.787 44.6047 164.986 44.7433C165.185 44.8777 165.343 45.0478 165.461 45.2536C165.58 45.4552 165.639 45.6967 165.639 45.9781C165.639 46.2721 165.582 46.5346 165.468 46.7656C165.358 46.9924 165.201 47.1898 164.999 47.3578C164.8 47.5258 164.57 47.6644 164.308 47.7736C164.046 47.8786 163.765 47.9563 163.465 48.0067C163.169 48.0613 162.867 48.0886 162.559 48.0886ZM170.821 48.0886C170.399 48.0886 169.989 48.0193 169.592 47.8807C169.199 47.7421 168.846 47.5363 168.534 47.2633C168.225 46.9861 167.98 46.6417 167.798 46.2301C167.617 45.8143 167.526 45.3334 167.526 44.7874C167.526 44.2414 167.615 43.7626 167.792 43.351C167.974 42.9394 168.221 42.5971 168.534 42.3241C168.846 42.0469 169.201 41.8411 169.598 41.7067C169.995 41.5681 170.409 41.4988 170.84 41.4988C171.284 41.4988 171.704 41.5639 172.102 41.6941C172.499 41.8201 172.849 42.0112 173.154 42.2674C173.462 42.5194 173.703 42.8407 173.876 43.2313C174.054 43.6177 174.142 44.0713 174.142 44.5921C174.142 44.6845 174.138 44.7853 174.13 44.8945C174.121 45.0037 174.109 45.1003 174.092 45.1843H168.977V44.1133H172.266C172.266 44.1007 172.266 44.0902 172.266 44.0818C172.266 44.0734 172.266 44.0629 172.266 44.0503C172.266 43.8193 172.205 43.6114 172.083 43.4266C171.964 43.2376 171.802 43.0885 171.595 42.9793C171.388 42.8701 171.149 42.8155 170.878 42.8155C170.684 42.8155 170.496 42.8533 170.314 42.9289C170.133 43.0045 169.97 43.12 169.826 43.2754C169.687 43.4308 169.575 43.6324 169.491 43.8802C169.406 44.128 169.364 44.4262 169.364 44.7748C169.364 45.199 169.431 45.5602 169.567 45.8584C169.706 46.1524 169.892 46.3771 170.124 46.5325C170.361 46.6879 170.629 46.7656 170.929 46.7656C171.195 46.7656 171.417 46.7215 171.595 46.6333C171.776 46.5409 171.92 46.4338 172.026 46.312C172.135 46.186 172.214 46.0684 172.26 45.9592L173.889 46.7467C173.771 46.9441 173.618 47.1247 173.433 47.2885C173.247 47.4481 173.025 47.5888 172.767 47.7106C172.514 47.8324 172.224 47.9248 171.899 47.9878C171.578 48.055 171.219 48.0886 170.821 48.0886ZM178.14 48.0949C177.815 48.0949 177.517 48.0445 177.246 47.9437C176.976 47.8387 176.741 47.6812 176.543 47.4712C176.348 47.257 176.196 46.9819 176.087 46.6459C175.981 46.3099 175.928 45.9109 175.928 45.4489V41.65H177.741V45.1654C177.741 45.5308 177.777 45.8248 177.848 46.0474C177.924 46.27 178.039 46.4317 178.191 46.5325C178.347 46.6333 178.546 46.6837 178.786 46.6837C178.964 46.6837 179.126 46.6522 179.274 46.5892C179.426 46.522 179.562 46.4317 179.68 46.3183C179.798 46.2007 179.893 46.0684 179.965 45.9214C180.037 45.7702 180.081 45.6148 180.098 45.4552L180.491 45.6442C180.491 45.934 180.443 46.2238 180.345 46.5136C180.248 46.8034 180.1 47.068 179.902 47.3074C179.707 47.5468 179.462 47.7379 179.167 47.8807C178.875 48.0235 178.533 48.0949 178.14 48.0949ZM180.459 47.95L180.067 46.4632V41.65H181.879V46.9861L181.594 46.6207H182.602V47.95H180.459ZM191.498 47.95V44.1574C191.498 43.7416 191.426 43.4308 191.283 43.225C191.143 43.0192 190.904 42.9163 190.566 42.9163C190.351 42.9163 190.157 42.9751 189.983 43.0927C189.81 43.2061 189.671 43.351 189.565 43.5274C189.46 43.7038 189.4 43.8802 189.388 44.0566L188.83 43.8928C188.834 43.5904 188.9 43.2964 189.026 43.0108C189.157 42.7252 189.337 42.469 189.565 42.2422C189.793 42.0154 190.055 41.8369 190.351 41.7067C190.647 41.5723 190.962 41.5051 191.295 41.5051C191.747 41.5051 192.121 41.5954 192.417 41.776C192.717 41.9524 192.941 42.2254 193.089 42.595C193.237 42.9604 193.311 43.4266 193.311 43.9936V47.95H191.498ZM183.69 47.95V41.65H185.319L185.503 42.8785V47.95H183.69ZM187.594 47.95V44.1574C187.594 43.7416 187.52 43.4308 187.372 43.225C187.229 43.0192 186.992 42.9163 186.663 42.9163C186.447 42.9163 186.253 42.9751 186.079 43.0927C185.906 43.2061 185.767 43.351 185.661 43.5274C185.556 43.7038 185.501 43.8802 185.496 44.0566L184.939 43.8928C184.939 43.5904 185.002 43.2964 185.129 43.0108C185.26 42.7252 185.439 42.469 185.668 42.2422C185.896 42.0154 186.158 41.8369 186.453 41.7067C186.749 41.5723 187.062 41.5051 187.391 41.5051C188.067 41.5051 188.572 41.7004 188.906 42.091C189.24 42.4774 189.407 43.0591 189.407 43.8361V47.95H187.594Z" fill="#EBF5FB"/>
</g>
<defs>
<clipPath id="clip0_64_172">
<rect width="194" height="70" fill="white"/>
</clipPath>
</defs>
</svg>
