<svg width="1920" height="459" viewBox="0 0 1920 459" fill="none" xmlns="http://www.w3.org/2000/svg">
<g clip-path="url(#clip0_368_302)">
<path opacity="0.3" d="M90.8036 100.758C97.6218 100.758 103.149 95.4379 103.149 88.8756C103.149 82.3133 97.6218 76.9935 90.8036 76.9935C83.9853 76.9935 78.458 82.3133 78.458 88.8756C78.458 95.4379 83.9853 100.758 90.8036 100.758Z" fill="#ACD5F0" fill-opacity="0.2"/>
</g>
<path opacity="0.3" d="M1690.74 59.2996C1697.56 59.2996 1703.09 53.9798 1703.09 47.4175C1703.09 40.8552 1697.56 35.5355 1690.74 35.5355C1683.92 35.5355 1678.39 40.8552 1678.39 47.4175C1678.39 53.9798 1683.92 59.2996 1690.74 59.2996Z" fill="#ACD5F0" fill-opacity="0.2"/>
<g clip-path="url(#clip1_368_302)">
<g opacity="0.5">
<path opacity="0.3" d="M757.663 239.595C763.88 239.595 768.921 234.744 768.921 228.76C768.921 222.775 763.88 217.924 757.663 217.924C751.445 217.924 746.404 222.775 746.404 228.76C746.404 234.744 751.445 239.595 757.663 239.595Z" fill="#ACD5F0" fill-opacity="0.2"/>
<g opacity="0.3">
<path d="M757.662 253.19C743.677 253.19 732.279 242.22 732.279 228.76C732.279 215.299 743.677 204.329 757.662 204.329C771.648 204.329 783.046 215.299 783.046 228.76C783.046 242.22 771.648 253.19 757.662 253.19ZM757.662 208.367C745.985 208.367 736.474 217.52 736.474 228.76C736.474 239.999 745.985 249.152 757.662 249.152C769.34 249.152 778.85 239.999 778.85 228.76C778.85 217.52 769.34 208.367 757.662 208.367Z" fill="#ACD5F0" fill-opacity="0.2"/>
</g>
</g>
</g>
<g clip-path="url(#clip2_368_302)">
<g opacity="0.5">
<path opacity="0.3" d="M1453.02 35.2663C1459.24 35.2663 1464.28 30.415 1464.28 24.4307C1464.28 18.4463 1459.24 13.595 1453.02 13.595C1446.8 13.595 1441.76 18.4463 1441.76 24.4307C1441.76 30.415 1446.8 35.2663 1453.02 35.2663Z" fill="#ACD5F0" fill-opacity="0.2"/>
<g opacity="0.3">
<path d="M1453.02 48.8613C1439.03 48.8613 1427.64 37.8911 1427.64 24.4306C1427.64 10.9702 1439.03 0 1453.02 0C1467 0 1478.4 10.9702 1478.4 24.4306C1478.4 37.8911 1467 48.8613 1453.02 48.8613ZM1453.02 4.03812C1441.34 4.03812 1431.83 13.1912 1431.83 24.4306C1431.83 35.6701 1441.34 44.8232 1453.02 44.8232C1464.7 44.8232 1474.21 35.6701 1474.21 24.4306C1474.21 13.1912 1464.7 4.03812 1453.02 4.03812Z" fill="#ACD5F0" fill-opacity="0.2"/>
</g>
</g>
</g>
<path opacity="0.3" d="M1524.59 311.009C1531.41 311.009 1536.94 305.689 1536.94 299.127C1536.94 292.565 1531.41 287.245 1524.59 287.245C1517.77 287.245 1512.25 292.565 1512.25 299.127C1512.25 305.689 1517.77 311.009 1524.59 311.009Z" fill="#ACD5F0" fill-opacity="0.2"/>
<path opacity="0.3" d="M1907.65 448.709C1914.47 448.709 1920 443.39 1920 436.827C1920 430.265 1914.47 424.945 1907.65 424.945C1900.84 424.945 1895.31 430.265 1895.31 436.827C1895.31 443.39 1900.84 448.709 1907.65 448.709Z" fill="#ACD5F0" fill-opacity="0.2"/>
<path opacity="0.15" d="M1706.86 424.945C1725.97 424.945 1741.47 410.03 1741.47 391.631C1741.47 373.232 1725.97 358.316 1706.86 358.316C1687.74 358.316 1672.24 373.232 1672.24 391.631C1672.24 410.03 1687.74 424.945 1706.86 424.945Z" fill="#ACD5F0" fill-opacity="0.2"/>
<path opacity="0.15" d="M1706.85 402.644C1713.17 402.644 1718.3 397.713 1718.3 391.631C1718.3 385.548 1713.17 380.617 1706.85 380.617C1700.53 380.617 1695.41 385.548 1695.41 391.631C1695.41 397.713 1700.53 402.644 1706.85 402.644Z" fill="#ACD5F0" fill-opacity="0.2"/>
<g clip-path="url(#clip3_368_302)">
<path opacity="0.3" d="M1116.92 291.761C1123.74 291.761 1129.26 286.441 1129.26 279.879C1129.26 273.317 1123.74 267.997 1116.92 267.997C1110.1 267.997 1104.57 273.317 1104.57 279.879C1104.57 286.441 1110.1 291.761 1116.92 291.761Z" fill="#ACD5F0" fill-opacity="0.2"/>
</g>
<g clip-path="url(#clip4_368_302)">
<g opacity="0.5">
<path opacity="0.3" d="M25.3833 361.008C31.6011 361.008 36.6416 356.157 36.6416 350.173C36.6416 344.188 31.6011 339.337 25.3833 339.337C19.1655 339.337 14.125 344.188 14.125 350.173C14.125 356.157 19.1655 361.008 25.3833 361.008Z" fill="#ACD5F0" fill-opacity="0.2"/>
<g opacity="0.3">
<path d="M25.3836 374.603C11.3981 374.603 0 363.633 0 350.173C0 336.712 11.3981 325.742 25.3836 325.742C39.3691 325.742 50.7672 336.712 50.7672 350.173C50.7672 363.633 39.3691 374.603 25.3836 374.603ZM25.3836 329.78C13.7057 329.78 4.19564 338.933 4.19564 350.173C4.19564 361.412 13.7057 370.565 25.3836 370.565C37.0615 370.565 46.5716 361.412 46.5716 350.173C46.5716 338.933 37.0615 329.78 25.3836 329.78Z" fill="#ACD5F0" fill-opacity="0.2"/>
</g>
</g>
</g>
<g clip-path="url(#clip5_368_302)">
<g opacity="0.5">
<path opacity="0.3" d="M1105.34 445.405C1111.56 445.405 1116.6 440.554 1116.6 434.569C1116.6 428.585 1111.56 423.734 1105.34 423.734C1099.12 423.734 1094.08 428.585 1094.08 434.569C1094.08 440.554 1099.12 445.405 1105.34 445.405Z" fill="#ACD5F0" fill-opacity="0.2"/>
<g opacity="0.3">
<path d="M1105.34 459C1091.36 459 1079.96 448.03 1079.96 434.569C1079.96 421.109 1091.36 410.139 1105.34 410.139C1119.33 410.139 1130.72 421.109 1130.72 434.569C1130.72 448.03 1119.33 459 1105.34 459ZM1105.34 414.177C1093.66 414.177 1084.15 423.33 1084.15 434.569C1084.15 445.809 1093.66 454.962 1105.34 454.962C1117.02 454.962 1126.53 445.809 1126.53 434.569C1126.53 423.33 1117.02 414.177 1105.34 414.177Z" fill="#ACD5F0" fill-opacity="0.2"/>
</g>
</g>
</g>
<defs>
<clipPath id="clip0_368_302">
<rect width="24.6144" height="23.6903" fill="white" transform="translate(78.458 76.9935)"/>
</clipPath>
<clipPath id="clip1_368_302">
<rect width="50.7672" height="48.8613" fill="white" transform="translate(732.279 204.329)"/>
</clipPath>
<clipPath id="clip2_368_302">
<rect width="50.7672" height="48.8613" fill="white" transform="translate(1427.64)"/>
</clipPath>
<clipPath id="clip3_368_302">
<rect width="24.6144" height="23.6903" fill="white" transform="translate(1104.57 267.997)"/>
</clipPath>
<clipPath id="clip4_368_302">
<rect width="50.7672" height="48.8613" fill="white" transform="translate(0 325.742)"/>
</clipPath>
<clipPath id="clip5_368_302">
<rect width="50.7672" height="48.8613" fill="white" transform="translate(1079.96 410.139)"/>
</clipPath>
</defs>
</svg>
