<svg width="2560" height="612" viewBox="0 0 2560 612" fill="none" xmlns="http://www.w3.org/2000/svg">
<g clip-path="url(#clip0_368_302)">
<path opacity="0.3" d="M121.071 134.344C130.162 134.344 137.532 127.251 137.532 118.501C137.532 109.751 130.162 102.658 121.071 102.658C111.98 102.658 104.61 109.751 104.61 118.501C104.61 127.251 111.98 134.344 121.071 134.344Z" fill="#ACD5F0" fill-opacity="0.2"/>
</g>
<path opacity="0.3" d="M2254.32 79.0661C2263.41 79.0661 2270.78 71.9731 2270.78 63.2234C2270.78 54.4737 2263.41 47.3806 2254.32 47.3806C2245.23 47.3806 2237.86 54.4737 2237.86 63.2234C2237.86 71.9731 2245.23 79.0661 2254.32 79.0661Z" fill="#ACD5F0" fill-opacity="0.2"/>
<g clip-path="url(#clip1_368_302)">
<g opacity="0.5">
<path opacity="0.3" d="M1010.22 319.46C1018.51 319.46 1025.23 312.992 1025.23 305.013C1025.23 297.034 1018.51 290.565 1010.22 290.565C1001.93 290.565 995.206 297.034 995.206 305.013C995.206 312.992 1001.93 319.46 1010.22 319.46Z" fill="#ACD5F0" fill-opacity="0.2"/>
<g opacity="0.3">
<path d="M1010.22 337.587C991.57 337.587 976.372 322.96 976.372 305.013C976.372 287.066 991.57 272.439 1010.22 272.439C1028.86 272.439 1044.06 287.066 1044.06 305.013C1044.06 322.96 1028.86 337.587 1010.22 337.587ZM1010.22 277.823C994.646 277.823 981.966 290.027 981.966 305.013C981.966 319.999 994.646 332.203 1010.22 332.203C1025.79 332.203 1038.47 319.999 1038.47 305.013C1038.47 290.027 1025.79 277.823 1010.22 277.823Z" fill="#ACD5F0" fill-opacity="0.2"/>
</g>
</g>
</g>
<g clip-path="url(#clip2_368_302)">
<g opacity="0.5">
<path opacity="0.3" d="M1937.36 47.0217C1945.65 47.0217 1952.37 40.5533 1952.37 32.5742C1952.37 24.5951 1945.65 18.1267 1937.36 18.1267C1929.07 18.1267 1922.35 24.5951 1922.35 32.5742C1922.35 40.5533 1929.07 47.0217 1937.36 47.0217Z" fill="#ACD5F0" fill-opacity="0.2"/>
<g opacity="0.3">
<path d="M1937.36 65.1484C1918.71 65.1484 1903.51 50.5214 1903.51 32.5742C1903.51 14.627 1918.71 0 1937.36 0C1956.01 0 1971.2 14.627 1971.2 32.5742C1971.2 50.5214 1956.01 65.1484 1937.36 65.1484ZM1937.36 5.38416C1921.79 5.38416 1909.11 17.5883 1909.11 32.5742C1909.11 47.5601 1921.79 59.7642 1937.36 59.7642C1952.93 59.7642 1965.61 47.5601 1965.61 32.5742C1965.61 17.5883 1952.93 5.38416 1937.36 5.38416Z" fill="#ACD5F0" fill-opacity="0.2"/>
</g>
</g>
</g>
<path opacity="0.3" d="M2032.79 414.679C2041.88 414.679 2049.25 407.586 2049.25 398.836C2049.25 390.087 2041.88 382.993 2032.79 382.993C2023.7 382.993 2016.33 390.087 2016.33 398.836C2016.33 407.586 2023.7 414.679 2032.79 414.679Z" fill="#ACD5F0" fill-opacity="0.2"/>
<path opacity="0.3" d="M2543.54 598.279C2552.63 598.279 2560 591.186 2560 582.436C2560 573.687 2552.63 566.594 2543.54 566.594C2534.45 566.594 2527.08 573.687 2527.08 582.436C2527.08 591.186 2534.45 598.279 2543.54 598.279Z" fill="#ACD5F0" fill-opacity="0.2"/>
<path opacity="0.15" d="M2275.81 566.594C2301.3 566.594 2321.96 546.706 2321.96 522.174C2321.96 497.642 2301.3 477.755 2275.81 477.755C2250.32 477.755 2229.66 497.642 2229.66 522.174C2229.66 546.706 2250.32 566.594 2275.81 566.594Z" fill="#ACD5F0" fill-opacity="0.2"/>
<path opacity="0.15" d="M2275.81 536.859C2284.23 536.859 2291.07 530.284 2291.07 522.174C2291.07 514.064 2284.23 507.489 2275.81 507.489C2267.38 507.489 2260.55 514.064 2260.55 522.174C2260.55 530.284 2267.38 536.859 2275.81 536.859Z" fill="#ACD5F0" fill-opacity="0.2"/>
<g clip-path="url(#clip3_368_302)">
<path opacity="0.3" d="M1489.22 389.015C1498.31 389.015 1505.68 381.921 1505.68 373.172C1505.68 364.422 1498.31 357.329 1489.22 357.329C1480.13 357.329 1472.76 364.422 1472.76 373.172C1472.76 381.921 1480.13 389.015 1489.22 389.015Z" fill="#ACD5F0" fill-opacity="0.2"/>
</g>
<g clip-path="url(#clip4_368_302)">
<g opacity="0.5">
<path opacity="0.3" d="M33.845 481.344C42.1354 481.344 48.8561 474.876 48.8561 466.897C48.8561 458.918 42.1354 452.449 33.845 452.449C25.5547 452.449 18.834 458.918 18.834 466.897C18.834 474.876 25.5547 481.344 33.845 481.344Z" fill="#ACD5F0" fill-opacity="0.2"/>
<g opacity="0.3">
<path d="M33.8448 499.471C15.1975 499.471 0 484.844 0 466.897C0 448.95 15.1975 434.323 33.8448 434.323C52.4921 434.323 67.6896 448.95 67.6896 466.897C67.6896 484.844 52.4921 499.471 33.8448 499.471ZM33.8448 439.707C18.2743 439.707 5.59418 451.911 5.59418 466.897C5.59418 481.883 18.2743 494.087 33.8448 494.087C49.4153 494.087 62.0954 481.883 62.0954 466.897C62.0954 451.911 49.4153 439.707 33.8448 439.707Z" fill="#ACD5F0" fill-opacity="0.2"/>
</g>
</g>
</g>
<g clip-path="url(#clip5_368_302)">
<g opacity="0.5">
<path opacity="0.3" d="M1473.79 593.873C1482.08 593.873 1488.8 587.405 1488.8 579.426C1488.8 571.447 1482.08 564.978 1473.79 564.978C1465.5 564.978 1458.78 571.447 1458.78 579.426C1458.78 587.405 1465.5 593.873 1473.79 593.873Z" fill="#ACD5F0" fill-opacity="0.2"/>
<g opacity="0.3">
<path d="M1473.79 612C1455.14 612 1439.94 597.373 1439.94 579.426C1439.94 561.479 1455.14 546.852 1473.79 546.852C1492.43 546.852 1507.63 561.479 1507.63 579.426C1507.63 597.373 1492.43 612 1473.79 612ZM1473.79 552.236C1458.22 552.236 1445.54 564.44 1445.54 579.426C1445.54 594.412 1458.22 606.616 1473.79 606.616C1489.36 606.616 1502.04 594.412 1502.04 579.426C1502.04 564.44 1489.36 552.236 1473.79 552.236Z" fill="#ACD5F0" fill-opacity="0.2"/>
</g>
</g>
</g>
<defs>
<clipPath id="clip0_368_302">
<rect width="32.8192" height="31.5871" fill="white" transform="translate(104.61 102.658)"/>
</clipPath>
<clipPath id="clip1_368_302">
<rect width="67.6896" height="65.1484" fill="white" transform="translate(976.372 272.439)"/>
</clipPath>
<clipPath id="clip2_368_302">
<rect width="67.6896" height="65.1484" fill="white" transform="translate(1903.51)"/>
</clipPath>
<clipPath id="clip3_368_302">
<rect width="32.8192" height="31.5871" fill="white" transform="translate(1472.76 357.329)"/>
</clipPath>
<clipPath id="clip4_368_302">
<rect width="67.6896" height="65.1484" fill="white" transform="translate(0 434.323)"/>
</clipPath>
<clipPath id="clip5_368_302">
<rect width="67.6896" height="65.1484" fill="white" transform="translate(1439.94 546.852)"/>
</clipPath>
</defs>
</svg>
