<svg width="1440" height="340" viewBox="0 0 1440 340" fill="none" xmlns="http://www.w3.org/2000/svg">
<g clip-path="url(#clip0_108_19229)">
<g opacity="0.15">
<path d="M59.7867 166.744L-144 19.5355C-90.0484 90.6731 -22.0285 138.624 59.7867 166.744Z" fill="#ACD5F0" fill-opacity="0.2"/>
<path d="M161.407 190.818L-102.751 -0.000256414L-136.897 -0.000259399L115.787 182.53C130.538 185.786 145.699 188.549 161.407 190.818Z" fill="#ACD5F0" fill-opacity="0.2"/>
<path d="M238.988 197.527L-34.4578 -0.000256414L-68.6044 -0.000259399L201.836 195.357C213.993 196.343 226.422 197.133 238.988 197.527Z" fill="#ACD5F0" fill-opacity="0.2"/>
<path d="M307.008 197.33L33.8353 -0.000271673L-0.311262 -0.000274658L273.954 198.119C284.744 198.021 295.808 197.725 307.008 197.33Z" fill="#ACD5F0" fill-opacity="0.2"/>
<path d="M369.428 193.088L102.128 -0.000241155L67.9818 -0.000244141L338.832 195.653C348.94 194.962 359.047 194.074 369.428 193.088Z" fill="#ACD5F0" fill-opacity="0.2"/>
<path d="M428.16 186.28L170.421 -0.000241155L136.275 -0.000244141L399.34 190.029C408.764 188.845 418.462 187.562 428.16 186.28Z" fill="#ACD5F0" fill-opacity="0.2"/>
<path d="M484.297 177.4L238.715 -0.000241155L204.568 -0.000244141L456.57 182.037C465.721 180.557 475.009 179.077 484.297 177.4Z" fill="#ACD5F0" fill-opacity="0.2"/>
<path d="M538.521 167.237L307.008 -0.000241155L272.861 -0.000244141L511.614 172.467C512.98 172.171 514.482 171.875 515.848 171.677C523.497 170.099 531.009 168.717 538.521 167.237Z" fill="#ACD5F0" fill-opacity="0.2"/>
<path d="M593.019 157.272L375.301 -0.000210638L341.154 -0.000213623L565.702 162.205C574.853 160.528 584.005 158.851 593.019 157.272Z" fill="#ACD5F0" fill-opacity="0.2"/>
<path d="M648.2 147.8L443.594 -0.000210638L409.448 -0.000213623L620.61 152.536C629.761 150.859 639.049 149.28 648.2 147.8Z" fill="#ACD5F0" fill-opacity="0.2"/>
<path d="M704.337 139.019L511.887 -0.000195379L477.741 -0.000198364L676.2 143.36C685.625 141.88 695.049 140.4 704.337 139.019Z" fill="#ACD5F0" fill-opacity="0.2"/>
<path d="M761.703 131.126L580.18 -0.000195379L546.034 -0.000198364L732.884 134.974C742.581 133.592 752.142 132.31 761.703 131.126Z" fill="#ACD5F0" fill-opacity="0.2"/>
<path d="M820.572 124.318L648.473 -0.000218267L614.327 -0.000221252L790.933 127.574C800.903 126.39 810.738 125.305 820.572 124.318Z" fill="#ACD5F0" fill-opacity="0.2"/>
<path d="M881.489 118.99L716.767 -0.000157232L682.62 -0.000160217L850.758 121.457C861.138 120.569 871.382 119.779 881.489 118.99Z" fill="#ACD5F0" fill-opacity="0.2"/>
<path d="M945.548 115.931L785.06 -0.000164861L750.913 -0.000167847L913.177 117.214C924.104 116.622 934.895 116.227 945.548 115.931Z" fill="#ACD5F0" fill-opacity="0.2"/>
<path d="M1014.11 116.129L853.353 -0.000164861L819.206 -0.000167847L979.149 115.537C991.032 115.537 1002.78 115.734 1014.11 116.129Z" fill="#ACD5F0" fill-opacity="0.2"/>
<path d="M1091.42 122.641L921.646 -0.000157232L887.499 -0.000160217L1051.27 118.299C1065.06 119.385 1078.45 120.865 1091.42 122.641Z" fill="#ACD5F0" fill-opacity="0.2"/>
<path d="M1194.68 147.899L989.802 -0.0988435L955.656 -0.0988464L1136.63 130.633C1157.39 135.368 1176.79 140.992 1194.68 147.899Z" fill="#ACD5F0" fill-opacity="0.2"/>
<path d="M1483.02 306.849L1058.23 -0.000149603L1024.09 -0.000152588L1399.01 270.836C1426.61 284.748 1454.74 296.785 1483.02 306.849Z" fill="#ACD5F0" fill-opacity="0.2"/>
<path d="M1589.14 334.278L1126.53 -0.000149603L1092.38 -0.000152588L1541.75 324.608C1557.59 328.555 1573.44 331.811 1589.14 334.278Z" fill="#ACD5F0" fill-opacity="0.2"/>
<path d="M1665.49 340L1194.82 -0.000149603L1160.67 -0.000152588L1629.85 338.915C1641.87 339.704 1653.75 340.099 1665.49 340Z" fill="#ACD5F0" fill-opacity="0.2"/>
<path d="M1726 334.376L1263.11 -0.000119085L1228.96 -0.00012207L1697.32 338.323C1707.02 337.336 1716.58 336.053 1726 334.376Z" fill="#ACD5F0" fill-opacity="0.2"/>
<path d="M1775.86 321.056L1331.4 -0.000119085L1297.26 -0.00012207L1752.09 328.555C1760.15 326.384 1768.07 323.819 1775.86 321.056Z" fill="#ACD5F0" fill-opacity="0.2"/>
<path d="M1817.65 301.915L1399.7 -0.000119085L1365.55 -0.00012207L1797.57 312.177C1804.4 309.019 1811.1 305.566 1817.65 301.915Z" fill="#ACD5F0" fill-opacity="0.2"/>
<path d="M1852.89 278.038L1467.85 -0.0987824L1433.71 -0.0987854L1835.95 290.47C1841.83 286.622 1847.43 282.478 1852.89 278.038Z" fill="#ACD5F0" fill-opacity="0.2"/>
</g>
</g>
<defs>
<clipPath id="clip0_108_19229">
<rect width="2287" height="340" fill="white" transform="matrix(1 8.74228e-08 8.74228e-08 -1 -144 340)"/>
</clipPath>
</defs>
</svg>
