<svg width="1920" height="223" viewBox="0 0 1920 223" fill="none" xmlns="http://www.w3.org/2000/svg">
<g clip-path="url(#clip0_368_134)">
<g clip-path="url(#clip1_368_134)">
<g opacity="0.15">
<path d="M160.182 115.502L-21.3603 27.6576C26.7021 70.1077 87.2972 98.7218 160.182 115.502Z" fill="#ACD5F0" fill-opacity="0.2"/>
<path d="M250.709 129.868L15.3861 16L-15.0332 16L210.069 124.922C223.21 126.865 236.717 128.513 250.709 129.868Z" fill="#ACD5F0" fill-opacity="0.2"/>
<path d="M319.822 133.871L76.2247 16L45.8054 16L286.726 132.576C297.555 133.165 308.628 133.636 319.822 133.871Z" fill="#ACD5F0" fill-opacity="0.2"/>
<path d="M380.417 133.753L137.063 16L106.644 16L350.971 134.224C360.584 134.166 370.44 133.989 380.417 133.753Z" fill="#ACD5F0" fill-opacity="0.2"/>
<path d="M436.024 131.222L197.902 16L167.482 16L408.768 132.753C417.772 132.34 426.776 131.811 436.024 131.222Z" fill="#ACD5F0" fill-opacity="0.2"/>
<path d="M488.345 127.159L258.74 16L228.321 16L462.671 129.397C471.066 128.69 479.706 127.925 488.345 127.159Z" fill="#ACD5F0" fill-opacity="0.2"/>
<path d="M538.354 121.86L319.579 16L289.159 16L513.654 124.628C521.806 123.744 530.08 122.861 538.354 121.86Z" fill="#ACD5F0" fill-opacity="0.2"/>
<path d="M586.66 115.796L380.417 16L349.998 16L562.689 118.917C563.906 118.74 565.245 118.563 566.461 118.446C573.275 117.503 579.968 116.679 586.66 115.796Z" fill="#ACD5F0" fill-opacity="0.2"/>
<path d="M635.209 109.85L441.256 16L410.836 16L610.873 112.793C619.026 111.792 627.178 110.792 635.209 109.85Z" fill="#ACD5F0" fill-opacity="0.2"/>
<path d="M684.366 104.197L502.094 16L471.675 16L659.788 107.023C667.94 106.023 676.214 105.081 684.366 104.197Z" fill="#ACD5F0" fill-opacity="0.2"/>
<path d="M734.376 98.9574L562.933 16L532.513 16L709.31 101.548C717.706 100.665 726.102 99.7816 734.376 98.9574Z" fill="#ACD5F0" fill-opacity="0.2"/>
<path d="M785.48 94.2472L623.771 16L593.352 16L759.806 96.5434C768.445 95.7191 776.963 94.9537 785.48 94.2472Z" fill="#ACD5F0" fill-opacity="0.2"/>
<path d="M837.923 90.1847L684.61 16L654.19 16L811.519 92.1276C820.401 91.4211 829.162 90.7735 837.923 90.1847Z" fill="#ACD5F0" fill-opacity="0.2"/>
<path d="M892.191 87.0054L745.448 16L715.029 16L864.813 88.4773C874.061 87.9474 883.187 87.4764 892.191 87.0054Z" fill="#ACD5F0" fill-opacity="0.2"/>
<path d="M949.257 85.1802L806.287 16L775.868 16L920.42 85.9456C930.154 85.5924 939.767 85.3568 949.257 85.1802Z" fill="#ACD5F0" fill-opacity="0.2"/>
<path d="M1010.34 85.298L867.125 16L836.706 16L979.19 84.9447C989.776 84.9447 1000.24 85.0624 1010.34 85.298Z" fill="#ACD5F0" fill-opacity="0.2"/>
<path d="M1079.21 89.1838L927.964 16L897.545 16L1043.44 86.5933C1055.72 87.2409 1067.65 88.1241 1079.21 89.1838Z" fill="#ACD5F0" fill-opacity="0.2"/>
<path d="M1171.2 104.256L988.681 15.9412L958.261 15.9412L1119.48 93.9529C1137.98 96.7789 1155.26 100.135 1171.2 104.256Z" fill="#ACD5F0" fill-opacity="0.2"/>
<path d="M1428.06 199.107L1049.64 16L1019.22 16L1353.23 177.617C1377.8 185.918 1402.87 193.101 1428.06 199.107Z" fill="#ACD5F0" fill-opacity="0.2"/>
<path d="M1522.6 215.474L1110.48 16L1080.06 16L1480.38 209.705C1494.49 212.06 1508.61 214.003 1522.6 215.474Z" fill="#ACD5F0" fill-opacity="0.2"/>
<path d="M1590.62 218.889L1171.32 16.0002L1140.9 16.0002L1558.86 218.242C1569.57 218.713 1580.15 218.948 1590.62 218.889Z" fill="#ACD5F0" fill-opacity="0.2"/>
<path d="M1644.52 215.533L1232.16 16.0001L1201.74 16.0001L1618.97 217.888C1627.61 217.3 1636.12 216.534 1644.52 215.533Z" fill="#ACD5F0" fill-opacity="0.2"/>
<path d="M1688.93 207.585L1293 16L1262.58 16L1667.76 212.06C1674.94 210.764 1682 209.234 1688.93 207.585Z" fill="#ACD5F0" fill-opacity="0.2"/>
<path d="M1726.16 196.163L1353.83 16.0001L1323.41 16.0001L1708.28 202.286C1714.36 200.402 1720.32 198.341 1726.16 196.163Z" fill="#ACD5F0" fill-opacity="0.2"/>
<path d="M1757.56 181.915L1414.55 15.9412L1384.13 15.9412L1742.47 189.333C1747.7 187.037 1752.69 184.564 1757.56 181.915Z" fill="#ACD5F0" fill-opacity="0.2"/>
<path d="M1784.08 165.311L1475.39 15.9412L1444.97 15.9412L1771.31 173.849C1775.81 171.199 1779.95 168.314 1784.08 165.311Z" fill="#ACD5F0" fill-opacity="0.2"/>
<path d="M1806.35 146.648L1536.35 16.0001L1505.93 16.0001L1795.76 156.244C1799.41 153.183 1802.94 150.004 1806.35 146.648Z" fill="#ACD5F0" fill-opacity="0.2"/>
<path d="M1825.33 126.394L1597.19 16.0001L1566.77 16.0001L1816.08 136.639C1816.81 135.873 1817.54 135.049 1818.27 134.225C1820.46 131.575 1822.78 128.926 1825.33 126.394Z" fill="#ACD5F0" fill-opacity="0.2"/>
<path d="M1846.02 106.965L1658.03 16.0001L1627.61 16.0001L1835.31 116.503C1838.72 113.264 1842.37 110.085 1846.02 106.965Z" fill="#ACD5F0" fill-opacity="0.2"/>
<path d="M1869.5 88.8895L1718.74 15.9412L1688.32 15.9412L1857.33 97.721C1861.35 94.7772 1865.36 91.8333 1869.5 88.8895Z" fill="#ACD5F0" fill-opacity="0.2"/>
<path d="M1895.54 72.0508L1779.7 16.0001L1749.28 16.0001L1882.28 80.3524C1886.66 77.5263 1891.04 74.7591 1895.54 72.0508Z" fill="#ACD5F0" fill-opacity="0.2"/>
<path d="M1923.77 56.2718L1840.54 16.0001L1810.12 16.0001L1909.41 64.0435C1914.16 61.3941 1918.9 58.8035 1923.77 56.2718Z" fill="#ACD5F0" fill-opacity="0.2"/>
<path d="M1954.07 41.4937L1901.38 16.0001L1870.96 16.0001L1938.74 48.7944C1943.72 46.2627 1948.83 43.8488 1954.07 41.4937Z" fill="#ACD5F0" fill-opacity="0.2"/>
</g>
</g>
<path d="M1920 0V60C1672.01 37.5115 1271.79 26.6107 912.408 46.4885C469.672 70.9695 -48.7919 61.2137 -149.848 0L1920 0Z" fill="#2C3E50"/>
</g>
<defs>
<clipPath id="clip0_368_134">
<rect width="1920" height="223" fill="white"/>
</clipPath>
<clipPath id="clip1_368_134">
<rect width="2037.36" height="202.889" fill="white" transform="matrix(1 5.85602e-08 1.30511e-07 -1 -21.3604 218.889)"/>
</clipPath>
</defs>
</svg>
