<svg width="1249" height="310" viewBox="0 0 1249 310" fill="none" xmlns="http://www.w3.org/2000/svg">
<g clip-path="url(#clip0_279_134)">
<path opacity="0.3" d="M59.0249 68.0498C63.457 68.0498 67.0498 64.457 67.0498 60.0249C67.0498 55.5929 63.457 52 59.0249 52C54.5929 52 51 55.5929 51 60.0249C51 64.457 54.5929 68.0498 59.0249 68.0498Z" fill="#ACD5F0" fill-opacity="0.2"/>
</g>
<path opacity="0.3" d="M1099.02 40.0498C1103.46 40.0498 1107.05 36.457 1107.05 32.0249C1107.05 27.5929 1103.46 24 1099.02 24C1094.59 24 1091 27.5929 1091 32.0249C1091 36.457 1094.59 40.0498 1099.02 40.0498Z" fill="#ACD5F0" fill-opacity="0.2"/>
<g clip-path="url(#clip1_279_134)">
<g opacity="0.5">
<path opacity="0.3" d="M492.5 161.818C496.542 161.818 499.818 158.542 499.818 154.5C499.818 150.458 496.542 147.182 492.5 147.182C488.458 147.182 485.182 150.458 485.182 154.5C485.182 158.542 488.458 161.818 492.5 161.818Z" fill="#ACD5F0" fill-opacity="0.2"/>
<g opacity="0.3">
<path d="M492.5 171C483.409 171 476 163.591 476 154.5C476 145.409 483.409 138 492.5 138C501.591 138 509 145.409 509 154.5C509 163.591 501.591 171 492.5 171ZM492.5 140.727C484.909 140.727 478.727 146.909 478.727 154.5C478.727 162.091 484.909 168.273 492.5 168.273C500.091 168.273 506.273 162.091 506.273 154.5C506.273 146.909 500.091 140.727 492.5 140.727Z" fill="#ACD5F0" fill-opacity="0.2"/>
</g>
</g>
</g>
<g clip-path="url(#clip2_279_134)">
<g opacity="0.5">
<path opacity="0.3" d="M944.5 23.8182C948.542 23.8182 951.818 20.5417 951.818 16.5C951.818 12.4583 948.542 9.18182 944.5 9.18182C940.458 9.18182 937.182 12.4583 937.182 16.5C937.182 20.5417 940.458 23.8182 944.5 23.8182Z" fill="#ACD5F0" fill-opacity="0.2"/>
<g opacity="0.3">
<path d="M944.5 33C935.409 33 928 25.5909 928 16.5C928 7.40909 935.409 0 944.5 0C953.591 0 961 7.40909 961 16.5C961 25.5909 953.591 33 944.5 33ZM944.5 2.72727C936.909 2.72727 930.727 8.90909 930.727 16.5C930.727 24.0909 936.909 30.2727 944.5 30.2727C952.091 30.2727 958.273 24.0909 958.273 16.5C958.273 8.90909 952.091 2.72727 944.5 2.72727Z" fill="#ACD5F0" fill-opacity="0.2"/>
</g>
</g>
</g>
<path opacity="0.3" d="M991.025 210.05C995.457 210.05 999.05 206.457 999.05 202.025C999.05 197.593 995.457 194 991.025 194C986.593 194 983 197.593 983 202.025C983 206.457 986.593 210.05 991.025 210.05Z" fill="#ACD5F0" fill-opacity="0.2"/>
<path opacity="0.3" d="M1240.02 303.05C1244.46 303.05 1248.05 299.457 1248.05 295.025C1248.05 290.593 1244.46 287 1240.02 287C1235.59 287 1232 290.593 1232 295.025C1232 299.457 1235.59 303.05 1240.02 303.05Z" fill="#ACD5F0" fill-opacity="0.2"/>
<path opacity="0.15" d="M1109.5 287C1121.93 287 1132 276.926 1132 264.5C1132 252.074 1121.93 242 1109.5 242C1097.07 242 1087 252.074 1087 264.5C1087 276.926 1097.07 287 1109.5 287Z" fill="#ACD5F0" fill-opacity="0.2"/>
<path opacity="0.15" d="M1109.5 271.938C1113.61 271.938 1116.94 268.608 1116.94 264.5C1116.94 260.392 1113.61 257.062 1109.5 257.062C1105.39 257.062 1102.06 260.392 1102.06 264.5C1102.06 268.608 1105.39 271.938 1109.5 271.938Z" fill="#ACD5F0" fill-opacity="0.2"/>
<g clip-path="url(#clip3_279_134)">
<path opacity="0.3" d="M726.025 197.05C730.457 197.05 734.05 193.457 734.05 189.025C734.05 184.593 730.457 181 726.025 181C721.593 181 718 184.593 718 189.025C718 193.457 721.593 197.05 726.025 197.05Z" fill="#ACD5F0" fill-opacity="0.2"/>
</g>
<g clip-path="url(#clip4_279_134)">
<g opacity="0.5">
<path opacity="0.3" d="M16.4999 243.818C20.5417 243.818 23.8181 240.542 23.8181 236.5C23.8181 232.458 20.5417 229.182 16.4999 229.182C12.4582 229.182 9.18176 232.458 9.18176 236.5C9.18176 240.542 12.4582 243.818 16.4999 243.818Z" fill="#ACD5F0" fill-opacity="0.2"/>
<g opacity="0.3">
<path d="M16.5 253C7.40909 253 0 245.591 0 236.5C0 227.409 7.40909 220 16.5 220C25.5909 220 33 227.409 33 236.5C33 245.591 25.5909 253 16.5 253ZM16.5 222.727C8.90909 222.727 2.72727 228.909 2.72727 236.5C2.72727 244.091 8.90909 250.273 16.5 250.273C24.0909 250.273 30.2727 244.091 30.2727 236.5C30.2727 228.909 24.0909 222.727 16.5 222.727Z" fill="#ACD5F0" fill-opacity="0.2"/>
</g>
</g>
</g>
<g clip-path="url(#clip5_279_134)">
<g opacity="0.5">
<path opacity="0.3" d="M718.5 300.818C722.542 300.818 725.818 297.542 725.818 293.5C725.818 289.458 722.542 286.182 718.5 286.182C714.458 286.182 711.182 289.458 711.182 293.5C711.182 297.542 714.458 300.818 718.5 300.818Z" fill="#ACD5F0" fill-opacity="0.2"/>
<g opacity="0.3">
<path d="M718.5 310C709.409 310 702 302.591 702 293.5C702 284.409 709.409 277 718.5 277C727.591 277 735 284.409 735 293.5C735 302.591 727.591 310 718.5 310ZM718.5 279.727C710.909 279.727 704.727 285.909 704.727 293.5C704.727 301.091 710.909 307.273 718.5 307.273C726.091 307.273 732.273 301.091 732.273 293.5C732.273 285.909 726.091 279.727 718.5 279.727Z" fill="#ACD5F0" fill-opacity="0.2"/>
</g>
</g>
</g>
<defs>
<clipPath id="clip0_279_134">
<rect width="16" height="16" fill="white" transform="translate(51 52)"/>
</clipPath>
<clipPath id="clip1_279_134">
<rect width="33" height="33" fill="white" transform="translate(476 138)"/>
</clipPath>
<clipPath id="clip2_279_134">
<rect width="33" height="33" fill="white" transform="translate(928)"/>
</clipPath>
<clipPath id="clip3_279_134">
<rect width="16" height="16" fill="white" transform="translate(718 181)"/>
</clipPath>
<clipPath id="clip4_279_134">
<rect width="33" height="33" fill="white" transform="translate(0 220)"/>
</clipPath>
<clipPath id="clip5_279_134">
<rect width="33" height="33" fill="white" transform="translate(702 277)"/>
</clipPath>
</defs>
</svg>
