<svg width="1920" height="207" viewBox="0 0 1920 207" fill="none" xmlns="http://www.w3.org/2000/svg">
<g clip-path="url(#clip0_368_134)">
<g clip-path="url(#clip1_368_134)">
<g opacity="0.15">
<path d="M160.182 99.5017L-21.3603 11.6576C26.7021 54.1077 87.2972 82.7218 160.182 99.5017Z" fill="#ACD5F0" fill-opacity="0.2"/>
<path d="M250.709 113.868L15.3861 -9.55751e-06L-15.0332 -1.13389e-05L210.069 108.922C223.21 110.865 236.717 112.513 250.709 113.868Z" fill="#ACD5F0" fill-opacity="0.2"/>
<path d="M319.822 117.871L76.2247 -1.63253e-05L45.8054 -1.81067e-05L286.726 116.576C297.555 117.165 308.628 117.636 319.822 117.871Z" fill="#ACD5F0" fill-opacity="0.2"/>
<path d="M380.417 117.753L137.063 -2.70521e-05L106.644 -2.88334e-05L350.971 118.224C360.584 118.166 370.44 117.989 380.417 117.753Z" fill="#ACD5F0" fill-opacity="0.2"/>
<path d="M436.024 115.222L197.902 6.39208e-06L167.482 4.61072e-06L408.768 116.753C417.772 116.34 426.776 115.811 436.024 115.222Z" fill="#ACD5F0" fill-opacity="0.2"/>
<path d="M488.345 111.159L258.74 -1.74405e-05L228.321 -1.92219e-05L462.671 113.397C471.066 112.69 479.706 111.925 488.345 111.159Z" fill="#ACD5F0" fill-opacity="0.2"/>
<path d="M538.354 105.86L319.579 4.49337e-06L289.159 2.71201e-06L513.654 108.628C521.806 107.744 530.08 106.861 538.354 105.86Z" fill="#ACD5F0" fill-opacity="0.2"/>
<path d="M586.66 99.7961L380.417 -3.16254e-06L349.998 -4.9439e-06L562.689 102.917C563.906 102.74 565.245 102.563 566.461 102.446C573.275 101.503 579.968 100.679 586.66 99.7961Z" fill="#ACD5F0" fill-opacity="0.2"/>
<path d="M635.209 93.8495L441.256 1.93746e-05L410.836 1.75932e-05L610.873 96.7934C619.026 95.7925 627.178 94.7916 635.209 93.8495Z" fill="#ACD5F0" fill-opacity="0.2"/>
<path d="M684.366 88.1974L502.094 1.86799e-05L471.675 1.68985e-05L659.788 91.0235C667.94 90.0226 676.214 89.0805 684.366 88.1974Z" fill="#ACD5F0" fill-opacity="0.2"/>
<path d="M734.376 82.9574L562.933 2.53285e-05L532.513 2.35471e-05L709.31 85.5479C717.706 84.6648 726.102 83.7816 734.376 82.9574Z" fill="#ACD5F0" fill-opacity="0.2"/>
<path d="M785.48 78.2472L623.771 1.54341e-05L593.352 1.36527e-05L759.806 80.5434C768.445 79.7191 776.963 78.9537 785.48 78.2472Z" fill="#ACD5F0" fill-opacity="0.2"/>
<path d="M837.923 74.1847L684.61 1.37294e-05L654.19 1.19481e-05L811.519 76.1276C820.401 75.4211 829.162 74.7735 837.923 74.1847Z" fill="#ACD5F0" fill-opacity="0.2"/>
<path d="M892.191 71.0054L745.448 3.23592e-05L715.029 3.05778e-05L864.813 72.4773C874.061 71.9474 883.187 71.4764 892.191 71.0054Z" fill="#ACD5F0" fill-opacity="0.2"/>
<path d="M949.257 69.1802L806.287 4.83359e-05L775.868 4.65545e-05L920.42 69.9456C930.154 69.5924 939.767 69.3568 949.257 69.1802Z" fill="#ACD5F0" fill-opacity="0.2"/>
<path d="M1010.34 69.298L867.125 2.76629e-05L836.706 2.58816e-05L979.19 68.9447C989.776 68.9447 1000.24 69.0624 1010.34 69.298Z" fill="#ACD5F0" fill-opacity="0.2"/>
<path d="M1079.21 73.1838L927.964 4.84551e-05L897.545 4.66737e-05L1043.44 70.5933C1055.72 71.2409 1067.65 72.1241 1079.21 73.1838Z" fill="#ACD5F0" fill-opacity="0.2"/>
<path d="M1171.2 88.2563L988.681 -0.0588383L958.261 -0.0588401L1119.48 77.9529C1137.98 80.7789 1155.26 84.1349 1171.2 88.2563Z" fill="#ACD5F0" fill-opacity="0.2"/>
<path d="M1428.06 183.107L1049.64 4.54716e-05L1019.22 4.36902e-05L1353.23 161.617C1377.8 169.918 1402.87 177.101 1428.06 183.107Z" fill="#ACD5F0" fill-opacity="0.2"/>
<path d="M1522.6 199.474L1110.48 3.91851e-05L1080.06 3.74037e-05L1480.38 193.705C1494.49 196.06 1508.61 198.003 1522.6 199.474Z" fill="#ACD5F0" fill-opacity="0.2"/>
<path d="M1590.62 202.889L1171.32 0.000190866L1140.9 0.000189085L1558.86 202.242C1569.57 202.713 1580.15 202.948 1590.62 202.889Z" fill="#ACD5F0" fill-opacity="0.2"/>
<path d="M1644.52 199.533L1232.16 6.82936e-05L1201.74 6.65122e-05L1618.97 201.888C1627.61 201.3 1636.12 200.534 1644.52 199.533Z" fill="#ACD5F0" fill-opacity="0.2"/>
<path d="M1688.93 191.585L1293 4.46371e-05L1262.58 4.28557e-05L1667.76 196.06C1674.94 194.764 1682 193.234 1688.93 191.585Z" fill="#ACD5F0" fill-opacity="0.2"/>
<path d="M1726.16 180.163L1353.83 5.71833e-05L1323.41 5.54019e-05L1708.28 186.286C1714.36 184.402 1720.32 182.341 1726.16 180.163Z" fill="#ACD5F0" fill-opacity="0.2"/>
<path d="M1757.56 165.915L1414.55 -0.0588223L1384.13 -0.0588241L1742.47 173.333C1747.7 171.037 1752.69 168.564 1757.56 165.915Z" fill="#ACD5F0" fill-opacity="0.2"/>
<path d="M1784.08 149.311L1475.39 -0.0587903L1444.97 -0.0587921L1771.31 157.849C1775.81 155.199 1779.95 152.314 1784.08 149.311Z" fill="#ACD5F0" fill-opacity="0.2"/>
<path d="M1806.35 130.648L1536.35 7.29505e-05L1505.93 7.11692e-05L1795.76 140.244C1799.41 137.183 1802.94 134.004 1806.35 130.648Z" fill="#ACD5F0" fill-opacity="0.2"/>
<path d="M1825.33 110.394L1597.19 7.04617e-05L1566.77 6.86804e-05L1816.08 120.639C1816.81 119.873 1817.54 119.049 1818.27 118.225C1820.46 115.575 1822.78 112.926 1825.33 110.394Z" fill="#ACD5F0" fill-opacity="0.2"/>
<path d="M1846.02 90.9646L1658.03 8.84597e-05L1627.61 8.66783e-05L1835.31 100.503C1838.72 97.2645 1842.37 94.0851 1846.02 90.9646Z" fill="#ACD5F0" fill-opacity="0.2"/>
<path d="M1869.5 72.8895L1718.74 -0.0588037L1688.32 -0.0588055L1857.33 81.721C1861.35 78.7772 1865.36 75.8333 1869.5 72.8895Z" fill="#ACD5F0" fill-opacity="0.2"/>
<path d="M1895.54 56.0508L1779.7 9.9876e-05L1749.28 9.80946e-05L1882.28 64.3524C1886.66 61.5263 1891.04 58.7591 1895.54 56.0508Z" fill="#ACD5F0" fill-opacity="0.2"/>
<path d="M1923.77 40.2718L1840.54 9.0122e-05L1810.12 8.83407e-05L1909.41 48.0435C1914.16 45.3941 1918.9 42.8035 1923.77 40.2718Z" fill="#ACD5F0" fill-opacity="0.2"/>
<path d="M1954.07 25.4937L1901.38 7.15498e-05L1870.96 6.97685e-05L1938.74 32.7944C1943.72 30.2627 1948.83 27.8488 1954.07 25.4937Z" fill="#ACD5F0" fill-opacity="0.2"/>
</g>
</g>
</g>
<defs>
<clipPath id="clip0_368_134">
<rect width="1920" height="207" fill="white"/>
</clipPath>
<clipPath id="clip1_368_134">
<rect width="2037.36" height="202.889" fill="white" transform="matrix(1 5.85602e-08 1.30511e-07 -1 -21.3604 202.889)"/>
</clipPath>
</defs>
</svg>
