<svg width="1440" height="720" viewBox="0 0 1440 720" fill="none" xmlns="http://www.w3.org/2000/svg">
<path d="M-0.999993 720L-0.99997 458C176.918 556.2 464.053 603.8 721.891 517C1039.53 410.1 1411.5 452.7 1484 720L-0.999993 720Z" fill="#208F4F" fill-opacity="0.2"/>
<path opacity="0.2" d="M1440 0V309C1278.16 308.34 1270.14 226.715 1223.51 158.113C1157.04 60.3839 1021.39 99.0869 946.247 137.57C815.205 204.667 654.181 237.17 586.464 137.57C520.373 40.3538 442.03 45.8199 336.849 68.5281C209.114 96.1154 73.8976 116.146 0 0H1440Z" fill="#57AAE1"/>
<g clip-path="url(#clip0_108_19375)">
<path opacity="0.3" d="M124.025 206.05C128.457 206.05 132.05 202.457 132.05 198.025C132.05 193.593 128.457 190 124.025 190C119.593 190 116 193.593 116 198.025C116 202.457 119.593 206.05 124.025 206.05Z" fill="#ACD5F0" fill-opacity="0.2"/>
</g>
<path opacity="0.3" d="M1164.02 178.05C1168.46 178.05 1172.05 174.457 1172.05 170.025C1172.05 165.593 1168.46 162 1164.02 162C1159.59 162 1156 165.593 1156 170.025C1156 174.457 1159.59 178.05 1164.02 178.05Z" fill="#ACD5F0" fill-opacity="0.2"/>
<g clip-path="url(#clip1_108_19375)">
<g opacity="0.5">
<path opacity="0.3" d="M557.5 299.818C561.542 299.818 564.818 296.542 564.818 292.5C564.818 288.458 561.542 285.182 557.5 285.182C553.458 285.182 550.182 288.458 550.182 292.5C550.182 296.542 553.458 299.818 557.5 299.818Z" fill="#ACD5F0" fill-opacity="0.2"/>
<g opacity="0.3">
<path d="M557.5 309C548.409 309 541 301.591 541 292.5C541 283.409 548.409 276 557.5 276C566.591 276 574 283.409 574 292.5C574 301.591 566.591 309 557.5 309ZM557.5 278.727C549.909 278.727 543.727 284.909 543.727 292.5C543.727 300.091 549.909 306.273 557.5 306.273C565.091 306.273 571.273 300.091 571.273 292.5C571.273 284.909 565.091 278.727 557.5 278.727Z" fill="#ACD5F0" fill-opacity="0.2"/>
</g>
</g>
</g>
<g clip-path="url(#clip2_108_19375)">
<g opacity="0.5">
<path opacity="0.3" d="M1009.5 161.818C1013.54 161.818 1016.82 158.542 1016.82 154.5C1016.82 150.458 1013.54 147.182 1009.5 147.182C1005.46 147.182 1002.18 150.458 1002.18 154.5C1002.18 158.542 1005.46 161.818 1009.5 161.818Z" fill="#ACD5F0" fill-opacity="0.2"/>
<g opacity="0.3">
<path d="M1009.5 171C1000.41 171 993 163.591 993 154.5C993 145.409 1000.41 138 1009.5 138C1018.59 138 1026 145.409 1026 154.5C1026 163.591 1018.59 171 1009.5 171ZM1009.5 140.727C1001.91 140.727 995.727 146.909 995.727 154.5C995.727 162.091 1001.91 168.273 1009.5 168.273C1017.09 168.273 1023.27 162.091 1023.27 154.5C1023.27 146.909 1017.09 140.727 1009.5 140.727Z" fill="#ACD5F0" fill-opacity="0.2"/>
</g>
</g>
</g>
<path opacity="0.3" d="M1056.02 348.05C1060.46 348.05 1064.05 344.457 1064.05 340.025C1064.05 335.593 1060.46 332 1056.02 332C1051.59 332 1048 335.593 1048 340.025C1048 344.457 1051.59 348.05 1056.02 348.05Z" fill="#ACD5F0" fill-opacity="0.2"/>
<path opacity="0.3" d="M1305.02 441.05C1309.46 441.05 1313.05 437.457 1313.05 433.025C1313.05 428.593 1309.46 425 1305.02 425C1300.59 425 1297 428.593 1297 433.025C1297 437.457 1300.59 441.05 1305.02 441.05Z" fill="#ACD5F0" fill-opacity="0.2"/>
<path opacity="0.15" d="M1174.5 425C1186.93 425 1197 414.926 1197 402.5C1197 390.074 1186.93 380 1174.5 380C1162.07 380 1152 390.074 1152 402.5C1152 414.926 1162.07 425 1174.5 425Z" fill="#ACD5F0" fill-opacity="0.2"/>
<path opacity="0.15" d="M1174.5 409.938C1178.61 409.938 1181.94 406.608 1181.94 402.5C1181.94 398.392 1178.61 395.062 1174.5 395.062C1170.39 395.062 1167.06 398.392 1167.06 402.5C1167.06 406.608 1170.39 409.938 1174.5 409.938Z" fill="#ACD5F0" fill-opacity="0.2"/>
<g clip-path="url(#clip3_108_19375)">
<path opacity="0.3" d="M791.025 335.05C795.457 335.05 799.05 331.457 799.05 327.025C799.05 322.593 795.457 319 791.025 319C786.593 319 783 322.593 783 327.025C783 331.457 786.593 335.05 791.025 335.05Z" fill="#ACD5F0" fill-opacity="0.2"/>
</g>
<g clip-path="url(#clip4_108_19375)">
<g opacity="0.5">
<path opacity="0.3" d="M81.4999 381.818C85.5417 381.818 88.8181 378.542 88.8181 374.5C88.8181 370.458 85.5417 367.182 81.4999 367.182C77.4582 367.182 74.1818 370.458 74.1818 374.5C74.1818 378.542 77.4582 381.818 81.4999 381.818Z" fill="#ACD5F0" fill-opacity="0.2"/>
<g opacity="0.3">
<path d="M81.5 391C72.4091 391 65 383.591 65 374.5C65 365.409 72.4091 358 81.5 358C90.5909 358 98 365.409 98 374.5C98 383.591 90.5909 391 81.5 391ZM81.5 360.727C73.9091 360.727 67.7273 366.909 67.7273 374.5C67.7273 382.091 73.9091 388.273 81.5 388.273C89.0909 388.273 95.2727 382.091 95.2727 374.5C95.2727 366.909 89.0909 360.727 81.5 360.727Z" fill="#ACD5F0" fill-opacity="0.2"/>
</g>
</g>
</g>
<g clip-path="url(#clip5_108_19375)">
<g opacity="0.5">
<path opacity="0.3" d="M783.5 438.818C787.542 438.818 790.818 435.542 790.818 431.5C790.818 427.458 787.542 424.182 783.5 424.182C779.458 424.182 776.182 427.458 776.182 431.5C776.182 435.542 779.458 438.818 783.5 438.818Z" fill="#ACD5F0" fill-opacity="0.2"/>
<g opacity="0.3">
<path d="M783.5 448C774.409 448 767 440.591 767 431.5C767 422.409 774.409 415 783.5 415C792.591 415 800 422.409 800 431.5C800 440.591 792.591 448 783.5 448ZM783.5 417.727C775.909 417.727 769.727 423.909 769.727 431.5C769.727 439.091 775.909 445.273 783.5 445.273C791.091 445.273 797.273 439.091 797.273 431.5C797.273 423.909 791.091 417.727 783.5 417.727Z" fill="#ACD5F0" fill-opacity="0.2"/>
</g>
</g>
</g>
<defs>
<clipPath id="clip0_108_19375">
<rect width="16" height="16" fill="white" transform="translate(116 190)"/>
</clipPath>
<clipPath id="clip1_108_19375">
<rect width="33" height="33" fill="white" transform="translate(541 276)"/>
</clipPath>
<clipPath id="clip2_108_19375">
<rect width="33" height="33" fill="white" transform="translate(993 138)"/>
</clipPath>
<clipPath id="clip3_108_19375">
<rect width="16" height="16" fill="white" transform="translate(783 319)"/>
</clipPath>
<clipPath id="clip4_108_19375">
<rect width="33" height="33" fill="white" transform="translate(65 358)"/>
</clipPath>
<clipPath id="clip5_108_19375">
<rect width="33" height="33" fill="white" transform="translate(767 415)"/>
</clipPath>
</defs>
</svg>
